<?xml version="1.0" encoding="utf-8"?>
<!-- Generator: Adobe Illustrator 21.1.0, SVG Export Plug-In . SVG Version: 6.00 Build 0)  -->
<svg version="1.1" baseProfile="tiny" id="Layer_1" xmlns="http://www.w3.org/2000/svg" xmlns:xlink="http://www.w3.org/1999/xlink"
	 x="0px" y="0px" viewBox="0 0 2133 260.7" xml:space="preserve">
<g>
	<g>
		<g>
			<path fill="#FFFFFF" d="M130.4,260.7C58.5,260.7,0,202.2,0,130.4S58.5,0,130.4,0c71.9,0,130.4,58.5,130.4,130.4
				S202.2,260.7,130.4,260.7z M130.4,17C67.8,17,17,67.8,17,130.4s50.9,113.4,113.4,113.4s113.4-50.9,113.4-113.4S192.9,17,130.4,17
				z"/>
		</g>
		<g>
			<g>
				<path fill="#FFFFFF" d="M165.2,118.3h72.2c-2.2-19.2-9.5-36.9-20.6-51.6L165.2,118.3z"/>
			</g>
			<g>
				<path fill="#FFFFFF" d="M104.4,118.3L48.4,62.2c-13,15.6-21.6,34.9-24.1,56.1H104.4z"/>
			</g>
			<g>
				<path fill="#FFFFFF" d="M147.4,24.8v75.7l52.1-52.1C184.9,36.2,167,27.8,147.4,24.8z"/>
			</g>
			<g>
				<path fill="#FFFFFF" d="M104.4,143.4H24.3c2.5,21.2,11.1,40.5,24.1,56.1L104.4,143.4z"/>
			</g>
			<g>
				<path fill="#FFFFFF" d="M122.2,100.5V23.9c-20.8,1.7-39.9,9.2-55.6,21L122.2,100.5z"/>
			</g>
			<g>
				<path fill="#FFFFFF" d="M165.2,143.4l51.6,51.6c11-14.7,18.3-32.4,20.6-51.6H165.2z"/>
			</g>
			<g>
				<path fill="#FFFFFF" d="M147.4,161.2v75.7c19.6-3,37.5-11.4,52.1-23.6L147.4,161.2z"/>
			</g>
			<g>
				<path fill="#FFFFFF" d="M122.2,161.2l-55.6,55.6c15.7,11.8,34.9,19.3,55.6,21V161.2z"/>
			</g>
		</g>
		<g>
			<circle fill="#FFFFFF" cx="130.8" cy="132.3" r="85.1"/>
		</g>
		<g>
			<path d="M131,224.6c-50.9,0-92.3-41.4-92.3-92.3S80.2,40.1,131,40.1s92.3,41.4,92.3,92.3S181.9,224.6,131,224.6z M131,51.4
				c-44.6,0-80.9,36.3-80.9,80.9s36.3,80.9,80.9,80.9S212,177,212,132.4S175.7,51.4,131,51.4z"/>
		</g>
		<g>
			<g>
				<path fill="#FFCE06" d="M100.8,108.2c0,0,26.9-8,57,3.2c6.2,2.3-25-10.7-53.7,2.3"/>
			</g>
			<g>
				<path fill="#FECD0A" d="M159.4,110.6l2.1-3.3l17.8-31.1l-25.9,8l0.5,9.3l-8.2-2.4l-8.2-2.5l4.9-6.6l-11.5-29l-11.4,29l4.8,6.5
					l-8.2,2.5l-8.2,2.4l0.5-9.2l-25.9-7.9l17.4,30.2C102.8,105.6,129.5,99.8,159.4,110.6z"/>
			</g>
		</g>
	</g>
	<g>
		<path d="M126.9,169.6c0,11.8-7,17.6-21.1,17.6H86.2v-65.9h17.5c7,0,12.5,1.5,16.3,4.5c3.8,3,5.8,7.2,5.8,12.6
			c0,6.5-3.1,11.5-9.2,15C123.4,156.6,126.9,162,126.9,169.6z M112.3,139.8c0-5.9-2.9-8.9-8.7-8.9h-4.2v17.9h5.3
			C109.7,148.8,112.3,145.8,112.3,139.8z M113.2,168.3c0-3.2-0.6-5.5-1.7-7c-1.5-2-4.1-3-8-3h-4.2v19.4h5.7
			C110.5,177.8,113.2,174.6,113.2,168.3z"/>
		<path d="M176.7,170.6c0,5.4-1.6,9.7-4.8,12.9c-3.5,3.5-8.7,5.2-15.6,5.2c-13.5,0-20.3-6.1-20.3-18.3v-33.8c0-5.1,1.8-9.2,5.4-12.1
			c3.6-3,8.7-4.5,15.3-4.5c6.4,0,11.3,1.6,14.9,4.9c3.3,3,5,7,5,12v6.3h-13.6c0-0.5,0.1-1.5,0.1-2.7c0.1-1.2,0.1-2.1,0.1-2.7
			c0-5.7-2.4-8.6-7.1-8.6c-4.6,0-6.8,2.3-6.8,6.8v36.8c0,4.6,2.3,6.9,6.8,6.9c4.5,0,6.8-2.3,6.8-6.9v-9h13.6V170.6z"/>
	</g>
</g>
<g>
	<path fill="#FFFFFF" d="M361.2,76c44.4,0,75.7,31.9,75.7,76.7c0,44.8-31.3,76.7-75.7,76.7c-16.8,0-31.8-5.6-43.5-15.4l-4.7,10.7
		h-36.7V28.5h49.1v57.5C335.7,79.6,347.9,76,361.2,76L361.2,76z M386.8,152.7c0-18.8-13.7-32.9-32.3-32.9c-18.6,0-32.3,14-32.3,32.9
		c0,18.7,13.7,32.7,32.3,32.7C373,185.4,386.8,171.3,386.8,152.7z"/>
	<path fill="#FFFFFF" d="M608.1,151.2c0,4.3-0.4,8.7-1,13.1h-107c3.2,16.5,13.7,25.1,29.4,25.1c11.6,0,21.3-5.1,26.1-13.5H605
		c-10.1,32.9-39.3,53.4-75.4,53.4c-45,0-78.3-32.9-78.3-76.9c0-44.2,33-76.7,78.3-76.7C576,75.8,608.2,108.9,608.1,151.2
		L608.1,151.2z M501,136.9h58.3c-4.4-14.4-14.7-22.2-29.7-22.2C515.1,114.7,505,122.5,501,136.9z"/>
	<path fill="#FFFFFF" d="M686.3,229.3c-39.3,0-63.1-20.7-63.6-52h47.8c0,10.5,7.3,15.4,16.7,15.4c7.3,0,14.1-3.7,14.1-11.2
		c0-8.3-10.9-10.7-24.8-13c-22.3-3.6-52-10.4-52-45.3c0-28.9,24.6-47.5,61.5-47.5c36.7,0,60.5,19.5,61,48.7h-46.5
		c0-9.2-6.2-13.5-15.2-13.5c-8,0-13.3,3.9-13.3,10.6c0,8.2,11,10.1,24.7,12.6c22.8,4,53,8.8,53,45.3
		C750,209.6,724.6,229.3,686.3,229.3L686.3,229.3z"/>
	<path fill="#FFFFFF" d="M869.1,181.1v43.5h-34.2c-31.9,0-51.2-19.5-51.2-51.5v-54.4h-26.4v-11.6l64.6-68.8h10.2v42.1h36.2v38.2h-35
		v45.9c0,10.3,6.2,16.5,16.7,16.5H869.1z"/>
	<path fill="#FFCE0A" d="M953.6,103.9c41.1,0,69.3,25.1,69.3,61.1c0,37.3-28.6,63.8-68.6,63.8c-40,0-68.1-26.3-68.1-63.5h47.1
		c0,12.5,8.8,21.4,21.1,21.4c12.1,0,20.9-9.2,20.9-21.7c0-13.2-9.2-22.2-22.7-22.2h-57.1l-4.7-6.1L901,41.2h108.8V83h-70.9
		l-2.3,20.9L953.6,103.9L953.6,103.9z"/>
	<path fill="#FFCE0A" d="M1042.9,133.1c0-58.8,31.4-96.3,80.3-96.3c48.9,0,80.3,37.6,80.3,96.3c0,58.6-31.5,96.3-80.3,96.3
		C1074.5,229.4,1042.9,191.7,1042.9,133.1z M1153.2,133.3c0-33.8-10.8-52.8-30-52.8c-19.3,0-30,18.8-30,52.6
		c0,33.8,10.7,52.6,30,52.6S1153.2,167.1,1153.2,133.3z"/>
	<path fill="#FFFFFF" d="M1301.2,229.3c-46.2,0-79.6-32.4-79.6-77s33.2-76.4,79.7-76.4c40.5,0,70.9,25.5,76.3,63.9h-48.3
		c-4.2-11.8-15.2-19.4-28.1-19.4c-17.4,0-29.9,13.3-29.9,32s12.6,32.3,29.9,32.3c13.3,0,24.1-8.2,28.2-21h48.8
		C1372.6,203,1341.8,229.3,1301.2,229.3L1301.2,229.3z"/>
	<path fill="#FFFFFF" d="M1553,80.4v144.1h-38.4l-4.3-10.2c-11.8,9.6-26.7,15.1-43.5,15.1c-44.1,0-75.6-32.1-75.6-76.9
		c0-44.6,31.5-76.4,75.6-76.4c17,0,32.1,5.7,44,15.5l5.1-11.1L1553,80.4z M1505.8,152.5c0-18.7-13.7-32.8-32.3-32.8
		c-18.7,0-32.3,14-32.3,32.8c0,18.8,13.7,32.9,32.3,32.9C1492.1,185.4,1505.8,171.3,1505.8,152.5z"/>
	<path fill="#FFFFFF" d="M1639.9,229.3c-39.3,0-63.1-20.7-63.6-52h47.8c0,10.5,7.3,15.4,16.7,15.4c7.3,0,14.1-3.7,14.1-11.2
		c0-8.3-10.9-10.7-24.8-13c-22.3-3.6-52-10.4-52-45.3c0-28.9,24.6-47.5,61.5-47.5c36.7,0,60.5,19.5,61,48.7h-46.5
		c0-9.2-6.2-13.5-15.2-13.5c-8,0-13.3,3.9-13.3,10.6c0,8.2,11,10.1,24.7,12.6c22.8,4,53,8.8,53,45.3
		C1703.6,209.6,1678.2,229.3,1639.9,229.3L1639.9,229.3z"/>
	<path fill="#FFFFFF" d="M1726.8,80.5h49.6v144.1h-49.6V80.5z M1727.2,20.3h48.9v42.1h-48.9V20.3z"/>
	<path fill="#FFFFFF" d="M1950.1,136.7v87.9h-49.6v-81c0-16.8-6.3-25.1-18.8-25.1c-15.5,0-24.4,10.8-24.4,29.2v77h-49.6V80.5h34.8
		l6.8,14.9c10.7-12,26.7-19.1,45.4-19.1C1928.1,76.2,1950.1,100,1950.1,136.7z"/>
	<path fill="#FFFFFF" d="M1971.4,152.6c0-44.7,33.8-76.8,80.8-76.8c46.8,0,80.8,32.1,80.8,76.8c0,44.5-34,76.8-80.8,76.8
		C2005.2,229.3,1971.4,197.1,1971.4,152.6z M2052.2,184.7c18.1,0,31.1-13.1,31.1-32.2c0-18.9-13-32.2-31.1-32.2
		c-18.1,0-31.1,13.1-31.1,32.2S2034.1,184.7,2052.2,184.7L2052.2,184.7z"/>
</g>
</svg>
