<?xml version="1.0" encoding="utf-8"?>
<!-- Generator: Adobe Illustrator 17.0.0, SVG Export Plug-In . SVG Version: 6.00 Build 0)  -->
<!DOCTYPE svg PUBLIC "-//W3C//DTD SVG 1.1 Tiny//EN" "http://www.w3.org/Graphics/SVG/1.1/DTD/svg11-tiny.dtd">
<svg version="1.1" baseProfile="tiny" id="Layer_1" xmlns="http://www.w3.org/2000/svg" xmlns:xlink="http://www.w3.org/1999/xlink"
	 x="0px" y="0px" width="1766.9px" height="280.5px" viewBox="0 0 1766.9 280.5" xml:space="preserve">
<g>
	<path fill="#FFFFFF" d="M373.4,93.1c42.9,0,73.2,30.8,73.2,74.1c0,43.3-30.3,74.1-73.2,74.1c-16.2,0-30.7-5.4-42-14.9l-4.5,10.3
		h-35.5V47.1h47.4v55.5C348.8,96.5,360.6,93.1,373.4,93.1L373.4,93.1z M398.2,167.1c0-18.2-13.2-31.8-31.2-31.8
		c-18,0-31.2,13.6-31.2,31.8c0,18,13.2,31.6,31.2,31.6C384.9,198.7,398.2,185.2,398.2,167.1z"/>
	<path fill="#FFFFFF" d="M612,165.7c0,4.2-0.4,8.4-1,12.7H507.6c3.1,16,13.3,24.2,28.4,24.2c11.2,0,20.6-4.9,25.2-13.1H609
		c-9.8,31.8-38,51.6-72.9,51.6c-43.4,0-75.6-31.8-75.6-74.3c0-42.7,31.9-74.1,75.6-74.1C580.9,92.8,612,124.9,612,165.7L612,165.7z
		 M508.5,151.8h56.3c-4.2-13.9-14.2-21.4-28.7-21.4C522.1,130.4,512.4,138,508.5,151.8z"/>
	<path fill="#FFFFFF" d="M687.5,241.2c-37.9,0-61-20-61.4-50.2h46.2c0,10.2,7.1,14.9,16.2,14.9c7,0,13.7-3.6,13.7-10.8
		c0-8-10.5-10.3-23.9-12.5c-21.6-3.5-50.2-10-50.2-43.8c0-27.9,23.8-45.9,59.5-45.9c35.5,0,58.4,18.9,59,47.1h-44.9
		c0-8.9-6-13-14.7-13c-7.7,0-12.9,3.8-12.9,10.3c0,7.9,10.6,9.8,23.9,12.1c22,3.9,51.2,8.5,51.2,43.8
		C749.1,222.2,724.5,241.2,687.5,241.2L687.5,241.2z"/>
	<path fill="#FFFFFF" d="M864.1,194.6v42h-33c-30.8,0-49.5-18.8-49.5-49.8v-52.5h-25.5v-11.2l62.4-66.4h9.9v40.7h35v36.9h-33.8v44.3
		c0,10,6,16,16.1,16H864.1z"/>
	<path fill="#FFCE06" d="M954.1,241.2c-44.7,0-76.9-31.3-76.9-74.4c0-43.1,32.1-73.8,77-73.8c39.1,0,68.5,24.7,73.7,61.7h-46.7
		c-4-11.4-14.6-18.7-27.2-18.7c-16.9,0-28.8,12.8-28.8,30.9s12.1,31.2,28.8,31.2c12.9,0,23.3-7.9,27.3-20.3h47.1
		C1023,215.7,993.3,241.2,954.1,241.2L954.1,241.2z"/>
	<path fill="#FFCE06" d="M1197.3,97.3v139.2h-37.1l-4.1-9.8c-11.4,9.2-25.8,14.6-42,14.6c-42.6,0-73-31.1-73-74.3
		c0-43.1,30.4-73.8,73-73.8c16.4,0,31,5.5,42.5,15l4.9-10.8L1197.3,97.3z M1151.7,167c0-18.1-13.2-31.6-31.2-31.6
		c-18.1,0-31.2,13.6-31.2,31.6c0,18.2,13.2,31.8,31.2,31.8C1138.5,198.7,1151.7,185.2,1151.7,167z"/>
	<path fill="#FFCE06" d="M1281.3,241.2c-37.9,0-61-20-61.4-50.2h46.2c0,10.2,7.1,14.9,16.2,14.9c7,0,13.7-3.6,13.7-10.8
		c0-8-10.5-10.3-23.9-12.5c-21.6-3.5-50.2-10-50.2-43.8c0-27.9,23.8-45.9,59.5-45.9c35.5,0,58.4,18.9,59,47.1h-44.9
		c0-8.9-6-13-14.7-13c-7.7,0-12.9,3.8-12.9,10.3c0,7.9,10.6,9.8,23.9,12.1c22,3.9,51.2,8.5,51.2,43.8
		C1342.8,222.2,1318.3,241.2,1281.3,241.2L1281.3,241.2z"/>
	<path fill="#FFCE06" d="M1365.2,97.4h48v139.2h-48V97.4z M1365.6,39.3h47.2V80h-47.2V39.3z"/>
	<path fill="#FFCE06" d="M1581,151.7v84.9h-48v-78.3c0-16.2-6.1-24.2-18.2-24.2c-15,0-23.6,10.4-23.6,28.2v74.3h-48V97.4h33.6
		l6.6,14.4c10.4-11.6,25.8-18.5,43.8-18.5C1559.7,93.3,1581,116.3,1581,151.7z"/>
	<path fill="#FFCE06" d="M1601.5,167c0-43.2,32.7-74.2,78.1-74.2c45.2,0,78.1,31,78.1,74.2c0,43-32.8,74.2-78.1,74.2
		C1634.2,241.2,1601.5,210,1601.5,167z M1679.6,198.1c17.5,0,30-12.7,30-31.1c0-18.3-12.5-31.1-30-31.1s-30,12.7-30,31.1
		C1649.5,185.4,1662.1,198.1,1679.6,198.1L1679.6,198.1z"/>
</g>
<g>
	<g>
		<g>
			<path fill="#FFFFFF" d="M141.2,271.5c-71.9,0-130.4-58.5-130.4-130.4S69.3,10.8,141.2,10.8c71.9,0,130.4,58.5,130.4,130.4
				S213.1,271.5,141.2,271.5z M141.2,27.8c-62.5,0-113.4,50.9-113.4,113.4s50.9,113.4,113.4,113.4s113.4-50.9,113.4-113.4
				S203.7,27.8,141.2,27.8z"/>
		</g>
		<g>
			<g>
				<path fill="#FFFFFF" d="M176,129.1h72.2c-2.2-19.2-9.5-36.9-20.6-51.6L176,129.1z"/>
			</g>
			<g>
				<path fill="#FFFFFF" d="M115.3,129.1L59.2,73c-13,15.6-21.6,34.9-24.1,56.1H115.3z"/>
			</g>
			<g>
				<path fill="#FFFFFF" d="M158.2,35.6v75.7l52.1-52.1C195.7,47,177.9,38.6,158.2,35.6z"/>
			</g>
			<g>
				<path fill="#FFFFFF" d="M115.3,154.2H35.1c2.5,21.2,11.1,40.5,24.1,56.1L115.3,154.2z"/>
			</g>
			<g>
				<path fill="#FFFFFF" d="M133.1,111.3V34.7c-20.8,1.7-39.9,9.2-55.6,21L133.1,111.3z"/>
			</g>
			<g>
				<path fill="#FFFFFF" d="M176,154.2l51.6,51.6c11-14.7,18.3-32.4,20.6-51.6H176z"/>
			</g>
			<g>
				<path fill="#FFFFFF" d="M158.2,172v75.7c19.6-3,37.5-11.4,52.1-23.6L158.2,172z"/>
			</g>
			<g>
				<path fill="#FFFFFF" d="M133.1,172l-55.6,55.6c15.7,11.8,34.9,19.3,55.6,21V172z"/>
			</g>
		</g>
		<g>
			<circle fill="#FFFFFF" cx="141.7" cy="143.1" r="85.1"/>
		</g>
		<g>
			<path d="M141.9,235.4c-50.9,0-92.3-41.4-92.3-92.3S91,50.9,141.9,50.9s92.3,41.4,92.3,92.3S192.7,235.4,141.9,235.4z M141.9,62.2
				c-44.6,0-80.9,36.3-80.9,80.9s36.3,80.9,80.9,80.9s80.9-36.3,80.9-80.9S186.5,62.2,141.9,62.2z"/>
		</g>
		<g>
			<g>
				<path fill="#FFCE06" d="M111.6,119c0,0,26.9-8,57,3.2c6.2,2.3-25-10.7-53.7,2.3"/>
			</g>
			<g>
				<path fill="#FECD0A" d="M170.3,121.4l2.1-3.3L190.1,87l-25.9,8l0.5,9.3l-8.2-2.4l-8.2-2.5l4.9-6.6l-11.5-29l-11.4,29l4.8,6.5
					l-8.2,2.5l-8.2,2.4l0.5-9.2l-25.9-7.9l17.4,30.2C113.6,116.4,140.3,110.6,170.3,121.4z"/>
			</g>
		</g>
	</g>
	<g>
		<path d="M137.7,180.4c0,11.8-7,17.6-21.1,17.6H97v-65.9h17.5c7,0,12.5,1.5,16.3,4.5c3.8,3,5.8,7.2,5.8,12.6c0,6.5-3.1,11.5-9.2,15
			C134.3,167.4,137.7,172.8,137.7,180.4z M123.1,150.6c0-5.9-2.9-8.9-8.7-8.9h-4.2v17.9h5.3C120.6,159.6,123.1,156.6,123.1,150.6z
			 M124.1,179.1c0-3.2-0.6-5.5-1.7-7c-1.5-2-4.1-3-8-3h-4.2v19.4h5.7C121.3,188.6,124.1,185.4,124.1,179.1z"/>
		<path d="M187.5,181.4c0,5.4-1.6,9.7-4.8,12.9c-3.5,3.5-8.7,5.2-15.6,5.2c-13.5,0-20.3-6.1-20.3-18.3v-33.8c0-5.1,1.8-9.2,5.4-12.1
			c3.6-3,8.7-4.5,15.3-4.5c6.4,0,11.3,1.6,14.9,4.9c3.3,3,5,7,5,12v6.3h-13.6c0-0.5,0.1-1.5,0.1-2.7c0.1-1.2,0.1-2.1,0.1-2.7
			c0-5.7-2.4-8.6-7.1-8.6c-4.6,0-6.8,2.3-6.8,6.8v36.8c0,4.6,2.3,6.9,6.8,6.9c4.5,0,6.8-2.3,6.8-6.9v-9h13.6V181.4z"/>
	</g>
</g>
</svg>
