<svg xmlns="http://www.w3.org/2000/svg" viewBox="0 0 32 30" width="32" height="30" xmlns:v="https://vecta.io/nano"><path d="M30.8 11.8c.1-.1.1-.1.2-.1 0 0 0-.1-.1-.1h-.1l-4.3-.4-5.8-.5c-.3 0-.5-.1-.6-.5L16.2 1c0-.1-.1-.2-.1-.3v.1-.1c-.2.2-.2.3-.2.3L12 10.2c-.1.3-.3.4-.6.5l-5.8.5-4.3.4h-.1s0 .1-.1.1c.1 0 .2.1.2.1l7.8 6.7c.1.1.2.2.1.4L6.8 29.1v.1c.2-.2.5-.3.8-.5l8.2-4.9c.1 0 .1-.1.2 0h.2l8.2 4.9c.3.2.6.3.9.5v-.1l-2.4-10.2c0-.2 0-.3.1-.4l7.8-6.7zm-10.6 6.3l1.4 6v.2c-.2-.1-.4-.3-.6-.4L16.2 21H16s-.1 0-.1-.1h0l-.2.2-4.8 2.9c-.2.1-.4.2-.6.4v-.2l1.4-6c0-.2 0-.3-.1-.4L7 13.9c0-.2 0-.3-.2-.4.4 0 .7-.1 1-.1l5.3-.5c.2 0 .2-.1.3-.2l2.4-5.6c0-.1.1-.1.1-.2.1.1.1.1.1.2l2.4 5.6c.1.1.1.2.3.2l5.3.5c.3 0 .6.1 1 .1l-.2.2-4.6 3.9v.5z" fill="#ffcd00"/></svg>