<?xml version="1.0" encoding="utf-8"?>
<!-- Generator: Adobe Illustrator 21.1.0, SVG Export Plug-In . SVG Version: 6.00 Build 0)  -->
<svg version="1.1" id="Capa_1" xmlns="http://www.w3.org/2000/svg" xmlns:xlink="http://www.w3.org/1999/xlink" x="0px" y="0px"
	 viewBox="0 0 612 612" style="enable-background:new 0 0 612 612;" xml:space="preserve">
<style type="text/css">
	.st0{fill:#F04E24;}
	.st1{fill:#111111;}
	.st2{fill:#FFFFFF;}
	.st3{fill:#FAFCFC;}
	.st4{fill:#304A54;}
	.st5{fill:#252525;stroke:#FFFFFF;stroke-width:0.75;stroke-miterlimit:10;}
	.st6{fill:#212D33;}
	.st7{fill:#FFFFFF;stroke:#212D33;stroke-miterlimit:10;}
	.st8{fill:#212D33;stroke:#212D33;stroke-miterlimit:10;}
	.st9{fill:#03898F;}
	.st10{fill:#2A2A2A;}
	.st11{fill:#29BF29;}
	.st12{fill:#252525;}
	.st13{fill:#2DA9F6;stroke:#2DA9F6;stroke-width:8;stroke-miterlimit:10;}
	.st14{fill:#45707F;}
	.st15{fill:#2B393F;}
	.st16{fill:#FCFCFC;}
	.st17{fill:#FBFBFB;}
	.st18{fill:#FEFEFE;}
	.st19{fill:#292929;}
	.st20{fill:#FFA500;}
	.st21{fill:#2DA9F6;}
	.st22{fill:#A2A2A2;}
	.st23{fill:none;stroke:#2A2A2A;stroke-width:20;stroke-miterlimit:10;}
	.st24{fill:#FFFFFF;stroke:#2A2A2A;stroke-width:22;stroke-miterlimit:10;}
	.st25{fill:#FFFFFF;stroke:#050505;stroke-width:19;stroke-miterlimit:10;}
	.st26{fill:#FFFFFF;stroke:#FFFFFF;stroke-width:0.75;stroke-miterlimit:10;}
	.st27{fill:#FFCD00;}
</style>
<g>
	<path class="st6" d="M306,14.3C144.9,14.3,14.3,144.9,14.3,306S144.9,597.7,306,597.7c161.1,0,291.7-130.6,291.7-291.7
		S467.1,14.3,306,14.3z M334.6,475.7c-46.2,0-87.2-15.4-115.7-44.1c-21.7-20.8-35.9-49.5-41.1-85.2h-35.3v-24.3h32.5
		c0-2.5,0-5,0-7.4c0-7.9,0.6-15.4,1.1-22.3h-33.6v-24.8h37.6c6.8-34.7,23.9-63.4,46.8-83.7c29.1-26.3,66.1-41.1,112.9-41.1
		c33.6,0,59.9,8.4,75.8,15.9l-11.4,32.7c-14.3-7.4-38.2-13.9-63.9-13.9c-30.8,0-55.9,9.4-75.3,27.3c-17.1,14.4-28.5,36.7-34.2,62.9
		h159.1v24.8H225.7c-0.6,6.4-1.1,13.9-1.1,20.8c0,3,0,5.5,0,8.9h165.3v24.3H228.5c4.6,28.7,16,50,31.4,64.9
		c21.1,19.3,49.6,28.7,80.4,28.7c30.2,0,56.4-9.9,69.6-16.4l9.7,31.2C401.9,465.3,372.2,475.7,334.6,475.7z"/>
</g>
</svg>
