<?xml version="1.0" encoding="utf-8"?>
<!-- Generator: Adobe Illustrator 19.0.0, SVG Export Plug-In . SVG Version: 6.00 Build 0)  -->
<svg version="1.1" xmlns="http://www.w3.org/2000/svg" xmlns:xlink="http://www.w3.org/1999/xlink" x="0px" y="0px"
	 viewBox="0 0 75 75" style="enable-background:new 0 0 75 75;" width="65px" height="70px" xml:space="preserve">
<style type="text/css">
	.st0{fill:#9AB33B;}
	.st1{fill:url(#XMLID_206_);}
	.st2{fill:url(#XMLID_207_);}
	.st3{fill:url(#XMLID_208_);}
	.st4{fill:#F7D9AB;}
	.st5{fill:#F1C999;}
	.st6{fill:url(#XMLID_209_);}
	.st7{fill:url(#XMLID_210_);}
	.st8{fill:url(#XMLID_211_);}
	.st9{fill:url(#XMLID_212_);}
	.st10{fill:url(#XMLID_213_);}
	.st11{fill:url(#XMLID_214_);}
	.st12{fill:url(#XMLID_215_);}
	.st13{fill:url(#XMLID_216_);}
	.st14{fill:#E1B58C;}
	.st15{fill:url(#XMLID_217_);}
	.st16{fill:url(#XMLID_218_);}
	.st17{fill:#972A2E;}
	.st18{fill:#FCDDB3;}
	.st19{fill:url(#XMLID_219_);}
	.st20{fill:url(#XMLID_220_);}
	.st21{fill:url(#XMLID_221_);}
	.st22{fill:#F2ECEB;}
	.st23{fill:url(#XMLID_222_);}
	.st24{fill:url(#XMLID_223_);}
	.st25{fill:url(#XMLID_224_);}
	.st26{fill:url(#XMLID_225_);}
	.st27{fill:url(#XMLID_226_);}
	.st28{fill:url(#XMLID_227_);}
	.st29{fill:url(#XMLID_228_);}
	.st30{fill:url(#XMLID_229_);}
	.st31{fill:url(#XMLID_230_);}
	.st32{fill:url(#XMLID_231_);}
	.st33{fill:url(#XMLID_232_);}
	.st34{fill:#DDDDDD;}
	.st35{fill:url(#XMLID_233_);}
	.st36{fill:url(#XMLID_234_);}
	.st37{fill:url(#XMLID_235_);}
	.st38{fill:url(#XMLID_236_);}
	.st39{fill:#FFFFFF;}
	.st40{fill:url(#XMLID_237_);}
	.st41{fill:url(#XMLID_238_);}
	.st42{fill:url(#XMLID_239_);}
	.st43{fill:url(#XMLID_240_);}
	.st44{fill:url(#XMLID_241_);}
	.st45{fill:url(#XMLID_242_);}
	.st46{fill:url(#XMLID_243_);}
	.st47{fill:url(#XMLID_244_);}
	.st48{fill:url(#XMLID_245_);}
	.st49{fill:url(#XMLID_246_);}
	.st50{fill:url(#XMLID_247_);}
	.st51{fill:url(#XMLID_248_);}
	.st52{fill:url(#XMLID_249_);}
	.st53{fill:#3E1C16;}
	.st54{fill:url(#XMLID_250_);}
	.st55{fill:url(#XMLID_251_);}
	.st56{fill:url(#XMLID_252_);}
	.st57{fill:url(#XMLID_253_);}
</style>
<g id="Layer_1">
</g>
<g id="Layer_2">
	<g id="XMLID_205_">
		<path id="XMLID_203_" class="st0" d="M51.83,45.58c-1.25,3.49-10.35,14.06-20.54,0L19.4,49.83c0,0,1.33,5.42,2.62,11.52
			c12.1,9.37,28.45,8.95,40.13-1.03l1.5-10.48C59.79,48.17,55.84,46.76,51.83,45.58z"/>
		<path id="XMLID_202_" class="st0" d="M15.15,54.24c2.2,3.03,4.83,5.66,7.79,7.8c-1.08-3.88-3.55-12.2-3.55-12.2
			C17.84,50.36,16.42,52.05,15.15,54.24z"/>
		<path id="XMLID_201_" class="st0" d="M67.76,54.21c-1.26-2.19-2.68-3.85-4.22-4.39c0,0-2.45,8.28-3.54,12.18
			C62.95,59.86,65.56,57.23,67.76,54.21z"/>
		
			<linearGradient id="XMLID_206_" gradientUnits="userSpaceOnUse" x1="167.625" y1="-0.5052" x2="182.6302" y2="-3.5099" gradientTransform="matrix(1 0 0 -1 -131.41 44.79)">
			<stop  offset="0" style="stop-color:#F1C999"/>
			<stop  offset="1" style="stop-color:#F7D9AB"/>
		</linearGradient>
		<path id="XMLID_200_" class="st1" d="M48.3,43.83c-0.04-0.96-0.03-1.92,0.05-2.88H34.97l0.1,2.82c-1.18,0.91-3.78,1.81-3.78,1.81
			c-0.18,2.14,4.38,7.52,9.96,7.24c7.2-0.37,10.58-7.24,10.58-7.24S48.41,44.37,48.3,43.83z"/>
		
			<linearGradient id="XMLID_207_" gradientUnits="userSpaceOnUse" x1="172.4735" y1="1.7964" x2="174.0779" y2="-11.9358" gradientTransform="matrix(1 0 0 -1 -131.41 44.79)">
			<stop  offset="0" style="stop-color:#748637"/>
			<stop  offset="0.35" style="stop-color:#829739"/>
			<stop  offset="1" style="stop-color:#9AB33B"/>
		</linearGradient>
		<path id="XMLID_199_" class="st2" d="M41.25,51.46c-4.02-0.03-7.75-2.23-9.96-5.88l-2.58,0.92c0,0,3.77,7.76,12.09,7.77
			c9.61,0,13.41-7.97,13.41-7.97l-2.37-0.72C51.39,46.62,47.34,51.53,41.25,51.46z"/>
		
			<linearGradient id="XMLID_208_" gradientUnits="userSpaceOnUse" x1="173.1216" y1="-12.0262" x2="172.4357" y2="-24.6774" gradientTransform="matrix(1 0 0 -1 -131.41 44.79)">
			<stop  offset="0" style="stop-color:#A7BA5E"/>
			<stop  offset="0.18" style="stop-color:#A4B957"/>
			<stop  offset="1" style="stop-color:#9AB33B"/>
		</linearGradient>
		<path id="XMLID_198_" class="st3" d="M51.49,58.09c-5.52-1.22-12.05-1.18-19.33-0.26c-4.87,0.61-6.93,2.95-7.21,5.54
			c10.17,6.25,22.6,6.29,32.81,0.11C56.63,60.67,54.28,58.65,51.49,58.09z"/>
		<path id="XMLID_197_" class="st4" d="M44.3,47.93c-0.07,0.07-4.55,0.65-6.17-0.04c-0.81-0.35-2.85-2.77-2.85-2.77
			c-0.87,0.9-2.56,1.26-2.56,1.26c4.9,5.39,10.27,4.56,12.36,3.76c2.09-0.81,5.45-3.84,5.45-3.84c-1-0.27-1.93-0.78-2.73-1.47
			C46.48,46.64,44.38,47.86,44.3,47.93z"/>
		<path id="XMLID_196_" class="st5" d="M28.2,25.54c-1.38,0.28-1.08,1.29-0.47,3.07c0.58,4.74,1.7,5.7,2.18,5.39
			C30.78,33.47,29.86,25.2,28.2,25.54z"/>
		
			<linearGradient id="XMLID_209_" gradientUnits="userSpaceOnUse" x1="202.6082" y1="-522.6296" x2="204.9692" y2="-528.3479" gradientTransform="matrix(0.98 0.18 0.14 -1.13 -97.61 -601.85)">
			<stop  offset="0" style="stop-color:#DBA879"/>
			<stop  offset="0.49" style="stop-color:#E4B686"/>
			<stop  offset="1" style="stop-color:#F1C999"/>
		</linearGradient>
		<path id="XMLID_195_" class="st6" d="M29.31,32.27c0,0-0.64-0.88-0.37-2.55c0.61-3.92-1.61-4.31-1.18-1.59
			c0,0,0.35-1.25,0.62-0.86c0.33,0.48-0.39,0.7-0.09,2.76C28.43,31.11,29.31,32.27,29.31,32.27z"/>
		<path id="XMLID_194_" class="st5" d="M54.1,25.5c1.39,0.21,1.12,1.22,0.63,3.05c-0.33,4.76-1.4,5.76-1.87,5.49
			C51.94,33.56,52.42,25.26,54.1,25.5z"/>
		
			<linearGradient id="XMLID_210_" gradientUnits="userSpaceOnUse" x1="-395.0656" y1="-626.7785" x2="-392.7045" y2="-632.5068" gradientTransform="matrix(-0.97 0.23 -0.21 -1.13 -460.81 -589.31)">
			<stop  offset="0" style="stop-color:#DBA879"/>
			<stop  offset="0.49" style="stop-color:#E4B686"/>
			<stop  offset="1" style="stop-color:#F1C999"/>
		</linearGradient>
		<path id="XMLID_193_" class="st7" d="M53.34,32.29c0,0,0.6-0.92,0.25-2.56c-0.81-3.89,1.38-4.39,1.1-1.65c0,0-0.41-1.22-0.66-0.81
			c-0.31,0.5,0.43,0.68,0.23,2.75C54.16,31.08,53.34,32.29,53.34,32.29z"/>
		<path id="XMLID_192_" class="st4" d="M53.02,25.27c0.41-11.13-3.21-11.55-4.1-12.69c-1.82-2.31-4.22-4.4-9.12-4.27
			c0,0-6.37,0.24-7.98,4.04c-1.7,4.07-2.39,9.61-2.25,14.84c0.18,6.35,0.56,8.06,1.07,9.39c0.32,0.97,0.9,1.82,1.67,2.44
			c1.82,1.56,4.2,4.47,5.68,5.77c0.59,0.52,4.56,1.63,7.68-0.68c1.92-1.44,3.7-3.07,5.33-4.88c0.88-0.96,1.45-2.51,1.45-3.29
			c0-0.89,0.49-4.27,0.46-4.93C52.75,27.42,52.91,28.37,53.02,25.27z"/>
		
			<radialGradient id="XMLID_211_" cx="27.7554" cy="360.4635" r="5.8335" gradientTransform="matrix(-1 0.0434 -0.05 -0.7709 94.73 309.0499)" gradientUnits="userSpaceOnUse">
			<stop  offset="0" style="stop-color:#F7C79C"/>
			<stop  offset="1" style="stop-color:#F7D9AB"/>
		</radialGradient>
		<path id="XMLID_191_" class="st8" d="M48.04,35.78c2.02,0.15,4.46-0.13,4.87-4.67c0.24-2.59-0.21-3.94-1.2-4.14
			c-2.12-0.43-5.15,0.58-6.41,1.29C42.63,29.79,44.45,35.54,48.04,35.78z"/>
		
			<linearGradient id="XMLID_212_" gradientUnits="userSpaceOnUse" x1="172.9028" y1="4.6762" x2="173.1547" y2="0.2392" gradientTransform="matrix(1 0 0 -1 -131.41 44.79)">
			<stop  offset="0" style="stop-color:#FFDEB3"/>
			<stop  offset="1" style="stop-color:#F7D9AB"/>
		</linearGradient>
		<path id="XMLID_190_" class="st9" d="M41.72,41.69c-0.7,0-2.46,0.52-2.41,0.81c0.15,0.84,1.78,0.98,2.48,0.98
			c0.7,0,2.12-0.2,2.15-0.92C43.95,42.26,42.42,41.68,41.72,41.69z"/>
		
			<radialGradient id="XMLID_213_" cx="207.7454" cy="403.7192" r="6.062" gradientTransform="matrix(1 -0.0651 -0.09 -0.7492 -137.32 347.4749)" gradientUnits="userSpaceOnUse">
			<stop  offset="0" style="stop-color:#F7C79C"/>
			<stop  offset="1" style="stop-color:#F7D9AB"/>
		</radialGradient>
		<path id="XMLID_189_" class="st10" d="M36.88,28.05c-0.58-0.23-4.96-1.31-6.27-0.9c-0.75,0.24-0.99,2.07-0.87,3.8
			c0.06,0.9,0.19,1.8,0.4,2.68c0.84,2.56,4.44,2.67,6.3,1.96C39.62,34.37,39.8,29.22,36.88,28.05z"/>
		
			<linearGradient id="XMLID_214_" gradientUnits="userSpaceOnUse" x1="183.0058" y1="16.1123" x2="179.4771" y2="14.8958" gradientTransform="matrix(1 0 0 -1 -131.41 44.79)">
			<stop  offset="0" style="stop-color:#FADBAF"/>
			<stop  offset="1" style="stop-color:#F7D9AB"/>
		</linearGradient>
		<path id="XMLID_188_" class="st11" d="M51.47,28.23c-0.37-0.22-0.63,0.1-1.39,0.37s-2.76,0.68-1.81,1.24
			c1.05,0.62,2.52-0.23,2.7-0.41C51.15,29.25,51.94,28.5,51.47,28.23z"/>
		
			<linearGradient id="XMLID_215_" gradientUnits="userSpaceOnUse" x1="178.1869" y1="7.098" x2="178.1788" y2="7.652" gradientTransform="matrix(1 0 0 -1 -131.41 44.79)">
			<stop  offset="0" style="stop-color:#F7D9AB"/>
			<stop  offset="0.53" style="stop-color:#F6D7A8"/>
			<stop  offset="0.87" style="stop-color:#F4CFA0"/>
			<stop  offset="1" style="stop-color:#F2CA9A"/>
		</linearGradient>
		<path id="XMLID_187_" class="st12" d="M46.89,37.15l-0.24,0.22C46.74,37.3,46.82,37.23,46.89,37.15z"/>
		
			<linearGradient id="XMLID_216_" gradientUnits="userSpaceOnUse" x1="179.0711" y1="1.0752" x2="178.8881" y2="12.2381" gradientTransform="matrix(1 0 0 -1 -131.41 44.79)">
			<stop  offset="0" style="stop-color:#F7D9AB"/>
			<stop  offset="0.53" style="stop-color:#F6D7A8"/>
			<stop  offset="0.87" style="stop-color:#F4CFA0"/>
			<stop  offset="1" style="stop-color:#F2CA9A"/>
		</linearGradient>
		<path id="XMLID_186_" class="st13" d="M45.91,32.78c2.53,2.22,1.5,3.81,0.98,4.37c0.97-0.88,2.28-1.87,2.2-2.26
			C48.77,33.47,45.91,32.78,45.91,32.78z"/>
		<path id="XMLID_185_" class="st14" d="M46.63,35.48c0.48-0.11,0.95-0.25,1.41-0.43c0.1-0.14,0.17-0.29,0.22-0.46l-0.82,0.27
			L46.63,35.48z"/>
		
			<linearGradient id="XMLID_217_" gradientUnits="userSpaceOnUse" x1="167.1409" y1="0.5727" x2="166.9537" y2="11.9983" gradientTransform="matrix(1 0 0 -1 -131.41 44.79)">
			<stop  offset="0" style="stop-color:#F7D9AB"/>
			<stop  offset="0.53" style="stop-color:#F6D7A8"/>
			<stop  offset="0.87" style="stop-color:#F4CFA0"/>
			<stop  offset="1" style="stop-color:#F2CA9A"/>
		</linearGradient>
		<path id="XMLID_184_" class="st15" d="M34.22,35.1c0.06,0.44,1.19,1.51,1.93,2.33c0,0-1.98-2.31,0.77-4.39
			C36.92,33.05,34.03,33.64,34.22,35.1z"/>
		<path id="XMLID_183_" class="st14" d="M34.89,34.68c0.05,0.17,0.12,0.32,0.22,0.46c0.46,0.17,0.93,0.32,1.41,0.43l-0.81-0.6
			L34.89,34.68z"/>
		
			<linearGradient id="XMLID_218_" gradientUnits="userSpaceOnUse" x1="173.4315" y1="-1.6791" x2="173.1656" y2="6.008" gradientTransform="matrix(1 0 0 -1 -131.41 44.79)">
			<stop  offset="0" style="stop-color:#F7D9AB"/>
			<stop  offset="0.53" style="stop-color:#F6D7A8"/>
			<stop  offset="0.87" style="stop-color:#F4CFA0"/>
			<stop  offset="1" style="stop-color:#F2CA9A"/>
		</linearGradient>
		<path id="XMLID_182_" class="st16" d="M38.95,40.82c1.91-0.26,3.85-0.25,5.75,0.04C42.1,39.11,38.95,40.82,38.95,40.82z"/>
		<path id="XMLID_181_" class="st17" d="M35.2,34.86c0.07,0.08,0.12,0.19,0.21,0.23c1.65,0.79,1.67,1.55,2.38,1.96
			c2.32,1.31,5.1,1.3,7.4-0.05c1.12-0.68,1.28-1.47,2.62-2.03c0.1-0.04,0.18-0.12,0.22-0.23C40.8,36.63,35.2,34.86,35.2,34.86z"/>
		<path id="XMLID_180_" class="st18" d="M41.68,38.6c-0.97,0-1.94-0.21-1.94,0s0.85,0.67,1.82,0.67c0.98,0,1.94-0.46,1.94-0.67
			S42.66,38.6,41.68,38.6z"/>
		
			<linearGradient id="XMLID_219_" gradientUnits="userSpaceOnUse" x1="168.7146" y1="7.6329" x2="177.6726" y2="7.4793" gradientTransform="matrix(1 0 0 -1 -131.41 44.79)">
			<stop  offset="0" style="stop-color:#E8D9D7"/>
			<stop  offset="0.14" style="stop-color:#F0E6E4"/>
			<stop  offset="0.39" style="stop-color:#FBF8F8"/>
			<stop  offset="0.57" style="stop-color:#FFFFFF"/>
			<stop  offset="1" style="stop-color:#E8D3D1"/>
		</linearGradient>
		<path id="XMLID_179_" class="st19" d="M44.5,36.49c-1,0.24-2.03,0.38-3.06,0.41c-1.09-0.03-2.18-0.17-3.24-0.41
			c-0.3-0.06-0.43,0.52-0.43,0.52c0.92,0.73,2.02,1,3.79,1.02c2.36,0,3.67-1.09,3.67-1.09S44.89,36.41,44.5,36.49z"/>
		
			<linearGradient id="XMLID_220_" gradientUnits="userSpaceOnUse" x1="173.4367" y1="-1.5356" x2="173.1782" y2="5.9452" gradientTransform="matrix(1 0 0 -1 -131.41 44.79)">
			<stop  offset="0" style="stop-color:#F7D9AB"/>
			<stop  offset="0.53" style="stop-color:#F6D7A8"/>
			<stop  offset="0.87" style="stop-color:#F4CFA0"/>
			<stop  offset="1" style="stop-color:#F2CA9A"/>
		</linearGradient>
		<path id="XMLID_178_" class="st20" d="M38.08,38.87c3.77,3.25,7.38-0.22,7.38-0.22C43.15,39.94,40.44,40.02,38.08,38.87z"/>
		
			<linearGradient id="XMLID_221_" gradientUnits="userSpaceOnUse" x1="172.8665" y1="11.2728" x2="173.0196" y2="7.6717" gradientTransform="matrix(1 0 0 -1 -131.41 44.79)">
			<stop  offset="0" style="stop-color:#E8D9D7"/>
			<stop  offset="0.4" style="stop-color:#EFE5E4"/>
			<stop  offset="1" style="stop-color:#FFFFFF"/>
		</linearGradient>
		<path id="XMLID_177_" class="st21" d="M36.84,35.23c0.04,0.43,0.29,0.8,0.65,0.97c0.37,0.17,1.18,0.85,4.37,0.74
			c3.18-0.11,3.81-0.94,3.96-1.09c0.18-0.21,0.32-0.46,0.39-0.73C46.21,35.12,41.41,36.15,36.84,35.23z"/>
		<path id="XMLID_176_" class="st22" d="M36.83,35.17c0.01,0.17,0.05,0.34,0.12,0.49c0.09,0.15,2.62,0.55,4.55,0.57
			c1.93,0.01,4.43-0.52,4.5-0.65c0.1-0.16,0.17-0.33,0.22-0.52C46.22,35.06,44.07,35.85,36.83,35.17z"/>
		
			<linearGradient id="XMLID_222_" gradientUnits="userSpaceOnUse" x1="173.2295" y1="-2.9137" x2="172.9755" y2="12.5597" gradientTransform="matrix(1 0 0 -1 -131.41 44.79)">
			<stop  offset="0" style="stop-color:#F7D9AB"/>
			<stop  offset="0.53" style="stop-color:#F6D7A8"/>
			<stop  offset="0.87" style="stop-color:#F4CFA0"/>
			<stop  offset="1" style="stop-color:#F2CA9A"/>
		</linearGradient>
		<path id="XMLID_175_" class="st23" d="M34.81,34.64c0,0,0.46,0.29,0.37,0.21c0,0,5.62,1.78,12.84-0.15l0.37-0.21
			C44.5,35.21,34.81,34.64,34.81,34.64z"/>
		
			<linearGradient id="XMLID_223_" gradientUnits="userSpaceOnUse" x1="172.687" y1="24.1012" x2="172.9595" y2="12.761" gradientTransform="matrix(1 0 0 -1 -131.41 44.79)">
			<stop  offset="0" style="stop-color:#FFDEB3"/>
			<stop  offset="0.2" style="stop-color:#FDDDB1"/>
			<stop  offset="1" style="stop-color:#F7D9AB"/>
		</linearGradient>
		<path id="XMLID_174_" class="st24" d="M42.45,28.21c0.12-2.49-0.69-2.85-1.28-2.83c-0.6,0.02-0.9,0.88-0.78,2.79
			c0.12,1.9-0.22,2.62-0.15,3.5c0.03,0.41,0.21,0.67,1.15,0.68c1.03,0,1.39-0.26,1.44-0.63C42.95,30.69,42.36,30.01,42.45,28.21z"/>
		
			<linearGradient id="XMLID_224_" gradientUnits="userSpaceOnUse" x1="172.9441" y1="9.3492" x2="172.9197" y2="12.2057" gradientTransform="matrix(1 0 0 -1 -131.41 44.79)">
			<stop  offset="0" style="stop-color:#F7D9AB"/>
			<stop  offset="0.52" style="stop-color:#F6D7A8"/>
			<stop  offset="0.85" style="stop-color:#F3CFA0"/>
			<stop  offset="1" style="stop-color:#F1C999"/>
		</linearGradient>
		<path id="XMLID_173_" class="st25" d="M38.6,32.66c0,0,2.6,2.05,3.17,1.93c0.57-0.12,2.65-1.93,2.65-1.93s-2.36,0.32-2.9,0.32
			S38.6,32.66,38.6,32.66z"/>
		<path id="XMLID_172_" class="st14" d="M42.57,33.06c1.4-0.38,1.95-0.15,1.95-0.15C43.7,32.12,42.57,33.06,42.57,33.06z"/>
		<path id="XMLID_171_" class="st14" d="M38.59,32.79c0.62-0.06,1.25,0.04,1.83,0.28C40.42,33.07,39.35,32.19,38.59,32.79z"/>
		
			<linearGradient id="XMLID_225_" gradientUnits="userSpaceOnUse" x1="172.7565" y1="17.6292" x2="172.9473" y2="11.2483" gradientTransform="matrix(1 0 0 -1 -131.41 44.79)">
			<stop  offset="0" style="stop-color:#F7D9AB"/>
			<stop  offset="0.53" style="stop-color:#F6D7A8"/>
			<stop  offset="0.87" style="stop-color:#F4CFA0"/>
			<stop  offset="1" style="stop-color:#F2CA9A"/>
		</linearGradient>
		<path id="XMLID_170_" class="st26" d="M43.64,30.53c0,0.62,0.12,1.04-0.05,1.4c-0.37,0.79-1.4,1.1-2.07,1.05
			c-0.51,0.07-1.7-0.21-2.2-1.04c-0.21-0.34-0.07-0.64-0.17-1.31c0,0-1.39,1.82-0.55,2.17c0.28-0.15,0.6-0.2,0.91-0.13
			c0.67,0.07,0.53,0.86,2.07,0.88c1.34,0,0.91-0.68,1.76-0.81s0.96,0.11,1.15,0.2C44.92,32.93,44.61,31.39,43.64,30.53z"/>
		
			<linearGradient id="XMLID_226_" gradientUnits="userSpaceOnUse" x1="172.6811" y1="12.1908" x2="173.0668" y2="15.0159" gradientTransform="matrix(1 0 0 -1 -131.41 44.79)">
			<stop  offset="0" style="stop-color:#FFDEB3"/>
			<stop  offset="0.28" style="stop-color:#FBDCAF"/>
			<stop  offset="1" style="stop-color:#F7D9AB"/>
		</linearGradient>
		<path id="XMLID_169_" class="st27" d="M40.09,31.6c-0.06,0.41,0.47,0.84,1.41,0.85c1.03,0,1.27-0.44,1.18-0.81
			C42.17,29.43,40.32,30.08,40.09,31.6z"/>
		
			<linearGradient id="XMLID_227_" gradientUnits="userSpaceOnUse" x1="165.9768" y1="14.9668" x2="160.7653" y2="16.2395" gradientTransform="matrix(1 0 0 -1 -131.41 44.79)">
			<stop  offset="0" style="stop-color:#FADBAF"/>
			<stop  offset="1" style="stop-color:#F7D9AB"/>
		</linearGradient>
		<path id="XMLID_168_" class="st28" d="M32.29,28.69c-0.77-0.23-1.05-0.53-1.4-0.29c-0.43,0.3,0.37,1.05,0.56,1.2
			s1.69,0.92,2.71,0.24C35.08,29.21,33.04,28.91,32.29,28.69z"/>
		
			<linearGradient id="XMLID_228_" gradientUnits="userSpaceOnUse" x1="178.7971" y1="15.6286" x2="178.4319" y2="19.9227" gradientTransform="matrix(1 0 0 -1 -131.41 44.79)">
			<stop  offset="0" style="stop-color:#F7D9AB"/>
			<stop  offset="0.52" style="stop-color:#F6D7A8"/>
			<stop  offset="0.85" style="stop-color:#F3CFA0"/>
			<stop  offset="1" style="stop-color:#F1C999"/>
		</linearGradient>
		<path id="XMLID_167_" class="st29" d="M43.9,22.65c-0.15,1.08-1.07,5.07-0.49,5.45c3.66,2.34,7.66-0.63,7.66-0.63
			C52.09,20.96,43.9,22.65,43.9,22.65z"/>
		
			<linearGradient id="XMLID_229_" gradientUnits="userSpaceOnUse" x1="166.9586" y1="15.6554" x2="166.5969" y2="19.906" gradientTransform="matrix(1 0 0 -1 -131.41 44.79)">
			<stop  offset="0" style="stop-color:#F7D9AB"/>
			<stop  offset="0.52" style="stop-color:#F6D7A8"/>
			<stop  offset="0.85" style="stop-color:#F3CFA0"/>
			<stop  offset="1" style="stop-color:#F1C999"/>
		</linearGradient>
		<path id="XMLID_166_" class="st30" d="M31.5,27.57c0,0,3.89,2.82,7.62,0.21c0.57-0.41-0.55-3.94-0.71-5.02
			C38.41,22.76,31.19,20.24,31.5,27.57z"/>
		
			<linearGradient id="XMLID_230_" gradientUnits="userSpaceOnUse" x1="172.8912" y1="32.1689" x2="172.8181" y2="27.4573" gradientTransform="matrix(1 0 0 -1 -131.41 44.79)">
			<stop  offset="0" style="stop-color:#F7D9AB"/>
			<stop  offset="0.48" style="stop-color:#F5D5A6"/>
			<stop  offset="1" style="stop-color:#F1C999"/>
		</linearGradient>
		<path id="XMLID_165_" class="st31" d="M49.4,13.85c-0.27-0.08-0.57-0.16-0.89-0.23c-2.35-0.56-6.05-2.44-9.42-2.44
			c-1.84,0.04-3.66,0.32-5.43,0.85c-0.58,0.14-1.13,0.39-1.63,0.73c-1.28,0.94-2.02,2.73-2.45,6.97
			c-0.14,1.38,0.06,10.01,0.06,10.11c2.56-8.07,2.4-12.25,3.82-13.17c1.42-0.92,5.54-0.86,8.36-1.11c2.36-0.21,6.82,0.26,7.37,1.05
			c1.36,1.98,0.72,5.37,3.86,12.61c0,0-0.18-9.18-0.37-11.58C52.38,14.52,51.62,14.51,49.4,13.85z"/>
		
			<linearGradient id="XMLID_231_" gradientUnits="userSpaceOnUse" x1="163.8537" y1="19.1557" x2="170.59" y2="17.26" gradientTransform="matrix(1 0 0 -1 -131.41 44.79)">
			<stop  offset="0" style="stop-color:#F1C999"/>
			<stop  offset="0.51" style="stop-color:#E4B686"/>
			<stop  offset="1" style="stop-color:#DBA879"/>
		</linearGradient>
		<path id="XMLID_164_" class="st32" d="M35.6,24.6c-0.61-0.04-1.92,0.17-2.35,0.53c-0.78,0.66-1.06,1.25-0.99,2.01
			c0.02,0.22,0.85,1.07,2.62,1.22c1.33,0.11,3.43,0,3.94-0.6c0.24-0.29-0.07-1.45-0.17-1.85C38.47,25.13,37.46,24.71,35.6,24.6z"/>
		
			<linearGradient id="XMLID_232_" gradientUnits="userSpaceOnUse" x1="169.7221" y1="17.3833" x2="165.4115" y2="18.4234" gradientTransform="matrix(1 0 0 -1 -131.41 44.79)">
			<stop  offset="0" style="stop-color:#ECE7E6"/>
			<stop  offset="0.24" style="stop-color:#F6F4F4"/>
			<stop  offset="0.54" style="stop-color:#FDFCFC"/>
			<stop  offset="1" style="stop-color:#FFFFFF"/>
		</linearGradient>
		<path id="XMLID_163_" class="st33" d="M36.9,25.41c-2.84-0.37-2.67,0.09-3.82,1.52c0.02,0.17,0.08,0.34,0.17,0.48
			c0.3,0.39,0.72,0.66,1.18,0.74c1.05,0.28,2.15,0.25,3.19-0.07c0.33-0.07,0.7-0.41,0.69-0.57c0.03-0.41-0.03-0.82-0.18-1.2
			C37.91,25.78,37.44,25.43,36.9,25.41z"/>
		<path id="XMLID_162_" class="st34" d="M33.08,26.92c0.02,0.17,0.07,0.32,0.16,0.46c2.04-1.37,4.25-1.06,4.9-1.08
			c-1.15-0.81-2.85-0.62-3.68-0.72C33.4,25.46,33.08,26.92,33.08,26.92z"/>
		
			<linearGradient id="XMLID_233_" gradientUnits="userSpaceOnUse" x1="168.8603" y1="17.89" x2="164.3372" y2="17.7101" gradientTransform="matrix(1 0 0 -1 -131.41 44.79)">
			<stop  offset="0" style="stop-color:#95958D"/>
			<stop  offset="1" style="stop-color:#C6C6C0"/>
		</linearGradient>
		<path id="XMLID_161_" class="st35" d="M35.75,25.58c-0.86-0.01-1.57,0.73-1.58,1.67c0,0.05,0,0.1,0,0.15
			c0.01,0.28,0.1,0.54,0.27,0.75c0.44,0.12,0.88,0.18,1.33,0.19c0.48,0.02,0.95-0.03,1.42-0.15c0.14-0.26,0.23-0.56,0.26-0.86
			C37.5,26.3,36.85,25.52,35.75,25.58z"/>
		
			<linearGradient id="XMLID_234_" gradientUnits="userSpaceOnUse" x1="166.112" y1="18.8656" x2="170.7917" y2="16.4827" gradientTransform="matrix(1 0 0 -1 -131.41 44.79)">
			<stop  offset="0" style="stop-color:#95958D"/>
			<stop  offset="1" style="stop-color:#C6C6C0"/>
		</linearGradient>
		<path id="XMLID_160_" class="st36" d="M35.68,25.45c-0.73,0.06-1.34,0.63-1.5,1.41c0.96-0.42,1.99-0.61,3.02-0.57
			C36.86,25.75,36.29,25.43,35.68,25.45z"/>
		
			<radialGradient id="XMLID_235_" cx="168.089" cy="17.4554" r="2.8662" gradientTransform="matrix(1 0 0 -1.0858 -131.41 46.535)" gradientUnits="userSpaceOnUse">
			<stop  offset="0" style="stop-color:#2B3B3B"/>
			<stop  offset="1" style="stop-color:#1D2827"/>
		</radialGradient>
		<path id="XMLID_159_" class="st37" d="M35.78,25.87c-0.54,0.02-0.95,0.52-0.93,1.1c0.02,0.58,0.48,1.04,1.01,1.01
			c0.53-0.02,0.94-0.5,0.93-1.08C36.77,26.32,36.32,25.85,35.78,25.87z"/>
		
			<linearGradient id="XMLID_236_" gradientUnits="userSpaceOnUse" x1="164.4066" y1="18.6809" x2="169.3281" y2="18.9133" gradientTransform="matrix(1 0 0 -1 -131.41 44.79)">
			<stop  offset="0" style="stop-color:#683126"/>
			<stop  offset="0.34" style="stop-color:#53281E"/>
			<stop  offset="0.68" style="stop-color:#46221A"/>
			<stop  offset="1" style="stop-color:#422018"/>
		</linearGradient>
		<path id="XMLID_158_" class="st38" d="M37.56,25.58c-1-0.61-2.57-0.49-3.57-0.05c-0.55,0.2-0.91,0.77-0.91,1.4
			c0,0,0.51-0.63,2.19-0.88c0.96-0.16,1.94-0.07,2.87,0.26C38.01,26.01,37.81,25.76,37.56,25.58z"/>
		<path id="XMLID_157_" class="st39" d="M36.6,27.01c-0.21,0.1-0.31,0.37-0.21,0.6c0,0,0,0,0,0.01c0.11,0.22,0.37,0.3,0.57,0.18
			c0.2-0.11,0.28-0.38,0.17-0.6c-0.1-0.22-0.35-0.3-0.55-0.19L36.6,27.01z"/>
		<path id="XMLID_156_" class="st39" d="M35.7,26.56c-0.16,0.08-0.24,0.28-0.17,0.46c0,0,0,0.01,0,0.01
			c0.09,0.17,0.29,0.24,0.45,0.15c0.17-0.08,0.24-0.3,0.16-0.47c0,0,0,0,0,0C36.06,26.53,35.86,26.47,35.7,26.56z"/>
		
			<linearGradient id="XMLID_237_" gradientUnits="userSpaceOnUse" x1="175.1762" y1="19.0551" x2="181.7493" y2="17.2077" gradientTransform="matrix(1 0 0 -1 -131.41 44.79)">
			<stop  offset="0" style="stop-color:#F1C999"/>
			<stop  offset="0.51" style="stop-color:#E4B686"/>
			<stop  offset="1" style="stop-color:#DBA879"/>
		</linearGradient>
		<path id="XMLID_155_" class="st40" d="M49.22,25.14c-0.44-0.37-1.75-0.57-2.36-0.53c-1.87,0.11-2.87,0.53-3.05,1.31
			c-0.1,0.41-0.42,1.57-0.17,1.85c0.51,0.6,2.62,0.71,3.94,0.6c1.77-0.15,2.6-1,2.62-1.22C50.27,26.39,50,25.8,49.22,25.14z"/>
		
			<linearGradient id="XMLID_238_" gradientUnits="userSpaceOnUse" x1="180.6514" y1="17.3568" x2="176.4537" y2="18.3697" gradientTransform="matrix(1 0 0 -1 -131.41 44.79)">
			<stop  offset="0" style="stop-color:#ECE7E6"/>
			<stop  offset="0.24" style="stop-color:#F6F4F4"/>
			<stop  offset="0.54" style="stop-color:#FDFCFC"/>
			<stop  offset="1" style="stop-color:#FFFFFF"/>
		</linearGradient>
		<path id="XMLID_154_" class="st41" d="M45.57,25.41c-0.53,0.03-1.01,0.38-1.23,0.9c-0.15,0.38-0.21,0.79-0.18,1.2
			c0,0.15,0.37,0.5,0.69,0.57c1.04,0.33,2.14,0.35,3.18,0.07c0.46-0.09,0.88-0.35,1.18-0.74c0.09-0.15,0.15-0.31,0.18-0.48
			C48.23,25.5,48.41,25.04,45.57,25.41z"/>
		<path id="XMLID_153_" class="st34" d="M48.01,25.61c-0.83,0.1-2.52-0.08-3.68,0.72c0.65,0,2.85-0.3,4.89,1.08
			c0.09-0.14,0.14-0.3,0.16-0.46C49.39,26.94,49.07,25.46,48.01,25.61z"/>
		
			<linearGradient id="XMLID_239_" gradientUnits="userSpaceOnUse" x1="179.7252" y1="17.898" x2="175.2027" y2="17.7182" gradientTransform="matrix(1 0 0 -1 -131.41 44.79)">
			<stop  offset="0" style="stop-color:#95958D"/>
			<stop  offset="1" style="stop-color:#C6C6C0"/>
		</linearGradient>
		<path id="XMLID_152_" class="st42" d="M46.72,25.58c-1.1-0.06-1.75,0.72-1.69,1.74c0.02,0.3,0.11,0.6,0.25,0.86
			c0.46,0.12,0.94,0.18,1.42,0.15c0.45-0.01,0.9-0.07,1.33-0.19c0.17-0.21,0.26-0.48,0.27-0.75c0.06-0.93-0.59-1.75-1.45-1.81
			C46.81,25.58,46.76,25.58,46.72,25.58z"/>
		
			<linearGradient id="XMLID_240_" gradientUnits="userSpaceOnUse" x1="177.1245" y1="19.1362" x2="182.6365" y2="16.3255" gradientTransform="matrix(1 0 0 -1 -131.41 44.79)">
			<stop  offset="0" style="stop-color:#95958D"/>
			<stop  offset="1" style="stop-color:#C6C6C0"/>
		</linearGradient>
		<path id="XMLID_151_" class="st43" d="M46.79,25.45c-0.61-0.03-1.19,0.29-1.54,0.84c1.03-0.04,2.06,0.15,3.02,0.57
			C48.12,26.09,47.51,25.52,46.79,25.45z"/>
		
			<radialGradient id="XMLID_241_" cx="178.9729" cy="17.4554" r="2.8662" gradientTransform="matrix(1 0 0 -1.0858 -131.41 46.535)" gradientUnits="userSpaceOnUse">
			<stop  offset="0" style="stop-color:#2B3B3B"/>
			<stop  offset="1" style="stop-color:#1D2827"/>
		</radialGradient>
		<path id="XMLID_150_" class="st44" d="M46.69,25.87c-0.54,0.01-0.97,0.49-0.96,1.07c0.01,0.58,0.45,1.05,0.99,1.05
			c0.53-0.01,0.95-0.47,0.96-1.04c0.01-0.59-0.43-1.07-0.97-1.07C46.71,25.87,46.7,25.87,46.69,25.87z"/>
		
			<linearGradient id="XMLID_242_" gradientUnits="userSpaceOnUse" x1="175.6937" y1="18.5717" x2="180.5624" y2="18.8039" gradientTransform="matrix(1 0 0 -1 -131.41 44.79)">
			<stop  offset="0" style="stop-color:#683126"/>
			<stop  offset="0.34" style="stop-color:#53281E"/>
			<stop  offset="0.68" style="stop-color:#46221A"/>
			<stop  offset="1" style="stop-color:#422018"/>
		</linearGradient>
		<path id="XMLID_149_" class="st45" d="M48.48,25.53c-1-0.44-2.57-0.55-3.57,0.05c-0.26,0.18-0.46,0.43-0.58,0.73
			c0.92-0.33,1.9-0.42,2.86-0.26c1.68,0.25,2.2,0.88,2.2,0.88C49.39,26.29,49.03,25.73,48.48,25.53z"/>
		<path id="XMLID_148_" class="st39" d="M47.5,26.96c-0.24,0.04-0.4,0.27-0.37,0.53c0.03,0.25,0.24,0.44,0.47,0.41c0,0,0,0,0,0
			c0.24-0.04,0.4-0.27,0.37-0.53C47.95,27.11,47.74,26.93,47.5,26.96C47.5,26.96,47.5,26.96,47.5,26.96z"/>
		<path id="XMLID_147_" class="st39" d="M46.57,26.52c-0.19,0.02-0.33,0.2-0.32,0.41c0.02,0.21,0.18,0.36,0.38,0.35
			c0.19-0.02,0.33-0.2,0.32-0.41c0-0.01,0-0.01,0-0.02C46.92,26.65,46.75,26.5,46.57,26.52z"/>
		
			<linearGradient id="XMLID_243_" gradientUnits="userSpaceOnUse" x1="175.2474" y1="21.7351" x2="181.9103" y2="21.7351" gradientTransform="matrix(1 0 0 -1 -131.41 44.79)">
			<stop  offset="0" style="stop-color:#683126"/>
			<stop  offset="0.34" style="stop-color:#53281E"/>
			<stop  offset="0.68" style="stop-color:#46221A"/>
			<stop  offset="1" style="stop-color:#422018"/>
		</linearGradient>
		<path id="XMLID_146_" class="st46" d="M49.22,22.82c-1.56-0.73-3.27-0.98-4.95-0.72c-0.58,0.06-0.6,1.32,0.02,1.44
			c1.17,0.23,2.7-0.18,3.81,0.05c1.62,0.33,2.39,0.51,2.39,0.51C50.26,23.5,49.8,23.03,49.22,22.82z"/>
		
			<linearGradient id="XMLID_244_" gradientUnits="userSpaceOnUse" x1="163.5856" y1="21.7462" x2="169.8762" y2="21.7462" gradientTransform="matrix(1 0 0 -1 -131.41 44.79)">
			<stop  offset="0" style="stop-color:#683126"/>
			<stop  offset="0.34" style="stop-color:#53281E"/>
			<stop  offset="0.68" style="stop-color:#46221A"/>
			<stop  offset="1" style="stop-color:#422018"/>
		</linearGradient>
		<path id="XMLID_145_" class="st47" d="M38.19,22.01c-1.61-0.07-2.75-0.11-4.87,0.68c-0.58,0.22-1.02,0.76-1.15,1.42
			c0.74-0.24,1.49-0.43,2.25-0.56c1.35-0.27,3.17-0.13,3.87-0.17C38.28,23.38,38.75,22.04,38.19,22.01z"/>
		
			<linearGradient id="XMLID_245_" gradientUnits="userSpaceOnUse" x1="163.7632" y1="159.1303" x2="187.4817" y2="-207.6565" gradientTransform="matrix(1 0 0 -1 -131.41 44.79)">
			<stop  offset="0" style="stop-color:#683126"/>
			<stop  offset="0.34" style="stop-color:#53281E"/>
			<stop  offset="0.68" style="stop-color:#46221A"/>
			<stop  offset="1" style="stop-color:#422018"/>
		</linearGradient>
		<path id="XMLID_144_" class="st48" d="M45.99,6.94c-1.84-0.3-3.72-0.29-5.56,0.04c-3.33,0.31-6.47,1.78-8.96,4.2
			c-2.62,0.97-3.48,1.37-3.53,5.43c-0.03,2.57,0.24,3.91,0.25,8.93c0,0,0.88,0.06,1.12,1.76c0.12,0.81,0.3,2.34,0.4,3.11
			c0.23-2.31,0.78-5.02,0.97-6.23c0.37-2.53,0.79-7.84,1.84-8.81c0.82-0.32,7.98-2.6,17.31-0.34c1.01,0.78,2.05,8.48,2.2,9.38
			c0.4,2.32,0.69,3.71,0.96,5.84c0,0-0.04-4.82,1.12-4.74c-0.41-4.56-0.14-13.32-0.47-13.64S49.72,7.81,45.99,6.94z"/>
		
			<linearGradient id="XMLID_246_" gradientUnits="userSpaceOnUse" x1="168.243" y1="103.9747" x2="180.616" y2="-87.3495" gradientTransform="matrix(1 0 0 -1 -131.41 44.79)">
			<stop  offset="0" style="stop-color:#683126"/>
			<stop  offset="0.34" style="stop-color:#53281E"/>
			<stop  offset="0.68" style="stop-color:#46221A"/>
			<stop  offset="1" style="stop-color:#422018"/>
		</linearGradient>
		<path id="XMLID_143_" class="st49" d="M52.39,5.01c-3.62-0.21-7.25,0.37-10.66,1.71c0.42-1.02,0.96-1.97,1.62-2.83
			c-9.03,1.71-13.11,7.47-13.11,7.47c-0.03-0.9,0.05-1.8,0.23-2.68c-1.38,0.76-2.88,4.45-2.85,4.88c0.12,1.77,0.33,3.94,0.33,3.94
			s4.66-3.47,6.37-4.39c1.7-0.92,17.8,0.65,17.8,0.65c0.97-1.19,2.02-2.3,3.15-3.31c-1.7-1.31-5.66-2.14-5.66-2.14
			C50.28,6.99,51.24,5.86,52.39,5.01z"/>
		
			<linearGradient id="XMLID_247_" gradientUnits="userSpaceOnUse" x1="167.1486" y1="0.4287" x2="160.7901" y2="12.6061" gradientTransform="matrix(1 0 0 -1 -131.41 44.79)">
			<stop  offset="0" style="stop-color:#F6D7AA"/>
			<stop  offset="1" style="stop-color:#F1C999"/>
		</linearGradient>
		<path id="XMLID_142_" class="st50" d="M29.6,30.11c0.06,2.03,0.31,4.05,0.75,6.03c0.25,1.03,0.75,1.96,1.46,2.7
			c1.77,1.8,4.16,3.9,4.16,3.9c-0.35-0.55-3.29-4.23-3.82-5.08C30.14,34.41,29.6,30.11,29.6,30.11z"/>
		
			<linearGradient id="XMLID_248_" gradientUnits="userSpaceOnUse" x1="178.646" y1="7.501210e-003" x2="184.6965" y2="12.4528" gradientTransform="matrix(1 0 0 -1 -131.41 44.79)">
			<stop  offset="0" style="stop-color:#F6D7AA"/>
			<stop  offset="1" style="stop-color:#FFDDB2"/>
		</linearGradient>
		<path id="XMLID_141_" class="st51" d="M46.93,43.14c0.75-0.63,2.58-2.27,4.12-3.88c0.75-0.76,1.21-2.11,1.42-3
			c0.21-0.89,0.49-6.02,0.49-6.02c-0.22,2.23-0.83,5.4-1.91,7.52C49.96,39.89,47.35,42.53,46.93,43.14z"/>
		
			<linearGradient id="XMLID_249_" gradientUnits="userSpaceOnUse" x1="173.3635" y1="4.1153" x2="173.0368" y2="-2.3944" gradientTransform="matrix(1 0 0 -1 -131.41 44.79)">
			<stop  offset="0" style="stop-color:#DBA879"/>
			<stop  offset="0.49" style="stop-color:#E4B686"/>
			<stop  offset="1" style="stop-color:#F1C999"/>
		</linearGradient>
		<path id="XMLID_140_" class="st52" d="M37.08,43.92c0,0,1.46,2.1,4.68,1.98c1.84-0.02,3.58-0.91,4.77-2.44
			c-1.41,1.21-3.17,1.86-4.98,1.82C38.6,45.18,37.08,43.92,37.08,43.92z"/>
		<path id="XMLID_139_" class="st53" d="M50.36,12.44c-0.87-0.94-15.13,0.38-18.18,2.03c-0.95,0.51-1.47,3.15-1.78,6.35
			c-0.44,4.47-0.69,9.59-0.69,9.59s1.12-7.42,1.32-8.95s0.86-5.56,1.48-6.1c0.62-0.54,9.37-2.55,17.31-0.34c0,0,0.75,0.81,1.8,6.98
			c1.05,6.17,1.36,8.23,1.36,8.23s-0.64-8.19-0.75-8.88S51.23,13.38,50.36,12.44z"/>
		
			<linearGradient id="XMLID_250_" gradientUnits="userSpaceOnUse" x1="176.4199" y1="38.7357" x2="179.0952" y2="42.7026" gradientTransform="matrix(1 0 0 -1 -131.41 44.79)">
			<stop  offset="0" style="stop-color:#683126"/>
			<stop  offset="0.74" style="stop-color:#7B3D33"/>
			<stop  offset="1" style="stop-color:#834238"/>
		</linearGradient>
		<path id="XMLID_138_" class="st54" d="M35.39,10.42c4.5-2.56,14.43-3.69,14.43-3.69l-0.2,1.58c1.66-2.58,2.78-3.3,2.78-3.3
			C43.12,3.87,35.39,10.42,35.39,10.42z"/>
		
			<linearGradient id="XMLID_251_" gradientUnits="userSpaceOnUse" x1="169.3363" y1="38.7288" x2="171.9214" y2="42.5655" gradientTransform="matrix(1 0 0 -1 -131.41 44.79)">
			<stop  offset="0" style="stop-color:#683126"/>
			<stop  offset="0.74" style="stop-color:#7B3D33"/>
			<stop  offset="1" style="stop-color:#834238"/>
		</linearGradient>
		<path id="XMLID_137_" class="st55" d="M30.25,11.37c0,0,3-3.85,10.33-5.8l1.31,0.78c0.45-0.84,0.93-1.65,1.46-2.44
			C43.35,3.91,33.63,5.07,30.25,11.37z"/>
		
			<linearGradient id="XMLID_252_" gradientUnits="userSpaceOnUse" x1="183.9669" y1="35.578" x2="184.2322" y2="35.9726" gradientTransform="matrix(1 0 0 -1 -131.41 44.79)">
			<stop  offset="0" style="stop-color:#683126"/>
			<stop  offset="0.74" style="stop-color:#7B3D33"/>
			<stop  offset="1" style="stop-color:#834238"/>
		</linearGradient>
		<path id="XMLID_136_" class="st56" d="M54.28,11.37l1-0.92c-3.19-2.08-5.66-2.14-5.66-2.14C53.25,9.67,54.28,11.37,54.28,11.37z"
			/>
		
			<linearGradient id="XMLID_253_" gradientUnits="userSpaceOnUse" x1="160.8247" y1="34.4729" x2="161.8687" y2="36.0171" gradientTransform="matrix(1 0 0 -1 -131.41 44.79)">
			<stop  offset="0" style="stop-color:#683126"/>
			<stop  offset="0.74" style="stop-color:#7B3D33"/>
			<stop  offset="1" style="stop-color:#834238"/>
		</linearGradient>
		<path id="XMLID_135_" class="st57" d="M27.65,13.36c0.68-1.38,1.56-2.63,2.62-3.69c0.02-0.15,0.18-0.98,0.18-0.98
			C28.61,9.95,27.65,13.36,27.65,13.36z"/>
	</g>
</g>
</svg>
