<?xml version="1.0" encoding="utf-8"?>
<!-- Generator: Adobe Illustrator 19.0.0, SVG Export Plug-In . SVG Version: 6.00 Build 0)  -->
<svg version="1.1" xmlns="http://www.w3.org/2000/svg" xmlns:xlink="http://www.w3.org/1999/xlink" x="0px" y="0px"
	 viewBox="0 0 75 75" style="enable-background:new 0 0 75 75;" xml:space="preserve">
<style type="text/css">
	.st0{fill:url(#XMLID_224_);}
	.st1{fill:#F7D9AB;}
	.st2{fill:url(#XMLID_225_);}
	.st3{fill:url(#XMLID_226_);}
	.st4{fill:url(#XMLID_227_);}
	.st5{fill:#9AB33B;}
	.st6{fill:url(#XMLID_228_);}
	.st7{fill:url(#XMLID_229_);}
	.st8{fill:url(#XMLID_230_);}
	.st9{fill:url(#XMLID_231_);}
	.st10{fill:url(#XMLID_232_);}
	.st11{fill:url(#XMLID_233_);}
	.st12{fill:url(#XMLID_234_);}
	.st13{fill:url(#XMLID_235_);}
	.st14{fill:#F1C999;}
	.st15{fill:url(#XMLID_236_);}
	.st16{fill:url(#XMLID_237_);}
	.st17{fill:url(#XMLID_238_);}
	.st18{fill:url(#XMLID_239_);}
	.st19{fill:url(#XMLID_240_);}
	.st20{fill:url(#XMLID_241_);}
	.st21{fill:url(#XMLID_242_);}
	.st22{fill:url(#XMLID_243_);}
	.st23{fill:url(#XMLID_244_);}
	.st24{fill:url(#XMLID_245_);}
	.st25{fill:url(#XMLID_246_);}
	.st26{fill:url(#XMLID_247_);}
	.st27{fill:url(#XMLID_248_);}
	.st28{fill:url(#XMLID_249_);}
	.st29{fill:#DDDDDD;}
	.st30{fill:url(#XMLID_250_);}
	.st31{fill:url(#XMLID_251_);}
	.st32{fill:url(#XMLID_252_);}
	.st33{fill:url(#XMLID_253_);}
	.st34{fill:#FFFFFF;}
	.st35{fill:url(#XMLID_254_);}
	.st36{fill:#DBA879;}
	.st37{fill:#391B13;}
	.st38{fill:url(#XMLID_255_);}
	.st39{fill:url(#XMLID_256_);}
	.st40{fill:url(#XMLID_257_);}
	.st41{fill:url(#XMLID_258_);}
	.st42{fill:url(#XMLID_259_);}
	.st43{fill:url(#XMLID_260_);}
	.st44{fill:url(#XMLID_261_);}
	.st45{fill:url(#XMLID_262_);}
	.st46{fill:url(#XMLID_263_);}
	.st47{fill:url(#XMLID_264_);}
	.st48{fill:url(#XMLID_265_);}
	.st49{fill:#FBCEAD;}
	.st50{fill:url(#XMLID_266_);}
	.st51{fill:url(#XMLID_267_);}
	.st52{fill:url(#XMLID_268_);}
	.st53{fill:url(#XMLID_269_);}
	.st54{fill:url(#XMLID_270_);}
	.st55{fill:url(#XMLID_271_);}
	.st56{fill:url(#XMLID_272_);}
	.st57{fill:url(#XMLID_273_);}
	.st58{fill:url(#XMLID_274_);}
	.st59{fill:url(#XMLID_275_);}
	.st60{fill:url(#XMLID_276_);}
	.st61{fill:url(#XMLID_277_);}
	.st62{fill:url(#XMLID_278_);}
	.st63{fill:url(#XMLID_279_);}
	.st64{fill:url(#XMLID_280_);}
	.st65{fill:url(#XMLID_281_);}
	.st66{fill:url(#XMLID_282_);}
	.st67{fill:#971B27;}
	.st68{fill:#F26D79;}
	.st69{fill:url(#XMLID_283_);}
	.st70{fill:url(#XMLID_284_);}
	.st71{fill:url(#XMLID_285_);}
	.st72{fill:#F598A2;}
</style>
<g id="Layer_1">
</g>
<g id="Layer_2">
	<g id="XMLID_223_">
		
			<linearGradient id="XMLID_224_" gradientUnits="userSpaceOnUse" x1="172.7947" y1="27.3222" x2="175.5856" y2="-3.499" gradientTransform="matrix(1 0 0 -1 -131.41 44.79)">
			<stop  offset="0" style="stop-color:#6C342A"/>
			<stop  offset="0.3" style="stop-color:#673228"/>
			<stop  offset="0.63" style="stop-color:#5A2C22"/>
			<stop  offset="0.97" style="stop-color:#442119"/>
			<stop  offset="1" style="stop-color:#422018"/>
		</linearGradient>
		<path id="XMLID_221_" class="st0" d="M45.69,5.53c-1.88-1.17-17.44,4.48-18.42,6.79c-0.4,0.93-5.09,21.64,7.06,32.74
			c0,0,0.35-1.99,7.32-1.99c6.51,0,7.78,2.09,7.78,2.09S70.91,21.26,45.69,5.53z"/>
		<path id="XMLID_220_" class="st1" d="M58.31,48.86c-1.92-0.19-9.87-0.03-10.67-2.67c-1-3.29,0.19-7.51,0.19-7.51l-12-0.62
			c1.35,2.32,1.3,4.78,1.24,7.28c-0.06,2.75-2.1,2.4-2.54,2.55c-1.73,0.6-5.97,1.15-8.74,1.47c-1.52,0.17-6.49,2.97-7.23,5.65
			c-0.56,2.28-0.86,4.61-0.9,6.96c3.9,3.19,8.37,5.56,13.16,6.99h21.35c5.08-1.51,9.8-4.09,13.87-7.58
			c-0.29-3.27-0.9-6.24-1.93-8.44C63.17,50.98,58.87,48.91,58.31,48.86z"/>
		
			<linearGradient id="XMLID_225_" gradientUnits="userSpaceOnUse" x1="153.1522" y1="-24.4319" x2="152.6422" y2="-8.6982" gradientTransform="matrix(1 0 0 -1 -131.41 44.79)">
			<stop  offset="0" style="stop-color:#F1C999"/>
			<stop  offset="0.52" style="stop-color:#F2CB9C"/>
			<stop  offset="0.85" style="stop-color:#F5D3A4"/>
			<stop  offset="1" style="stop-color:#F7D9AB"/>
		</linearGradient>
		<path id="XMLID_219_" class="st2" d="M18.84,53.99c-0.2,0.65-0.37,1.31-0.51,1.97c1.75,1.93,3.76,4.52,4.35,5.59
			c0.27,0.5,0.45,2.43,0.55,4.23c0.45,0.26,0.93,0.5,1.4,0.74C24.07,58.13,18.84,53.99,18.84,53.99z"/>
		
			<linearGradient id="XMLID_226_" gradientUnits="userSpaceOnUse" x1="193.4168" y1="-24.1849" x2="192.8739" y2="-7.4315" gradientTransform="matrix(1 0 0 -1 -131.41 44.79)">
			<stop  offset="0" style="stop-color:#F1C999"/>
			<stop  offset="0.52" style="stop-color:#F2CB9C"/>
			<stop  offset="0.85" style="stop-color:#F5D3A4"/>
			<stop  offset="1" style="stop-color:#F7D9AB"/>
		</linearGradient>
		<path id="XMLID_218_" class="st3" d="M60.45,62.02c0.52-2.21,3.02-6.03,4.24-7.56l-0.64-1.86c0,0-4.66,7.1-5.3,13.69
			c0.47-0.25,0.94-0.51,1.4-0.77C60.15,64.34,60.24,63.17,60.45,62.02z"/>
		
			<linearGradient id="XMLID_227_" gradientUnits="userSpaceOnUse" x1="174.3382" y1="-25.0938" x2="173.6384" y2="-3.3728" gradientTransform="matrix(1 0 0 -1 -131.41 44.79)">
			<stop  offset="0" style="stop-color:#F1C999"/>
			<stop  offset="0.52" style="stop-color:#F2CB9C"/>
			<stop  offset="0.85" style="stop-color:#F5D3A4"/>
			<stop  offset="1" style="stop-color:#F7D9AB"/>
		</linearGradient>
		<path id="XMLID_217_" class="st4" d="M57.18,48.79c-1.35,3.97-12.63,14.58-16.55,14.28c-3.4-0.26-12.66-9.98-13.86-13.83
			c-0.31,0.05-0.63,0.09-0.95,0.1c0,0,1.84,17.27,14.33,17.03c12.5-0.24,18.53-17.5,18.53-17.5C58.19,48.79,57.69,48.77,57.18,48.79
			z"/>
		<path id="XMLID_216_" class="st5" d="M64.51,53.36c0,0-0.94-4.51-6.56-4.61c-3.12,7.26-14.98,14.96-16.88,15.16
			c-2.7,0.29-13.54-8.69-14.76-14.79c-7.07-0.64-7.97,6.11-7.97,6.11c2.13,2.29,4.23,4.44,5.06,6.79c0.22,1.35,0.37,2.72,0.45,4.09
			c11.22,5.97,24.57,5.88,35.72-0.24c0.05-1.09,0.15-2.32,0.31-4.05C61.36,57.47,64.51,53.36,64.51,53.36z"/>
		
			<linearGradient id="XMLID_228_" gradientUnits="userSpaceOnUse" x1="168.1936" y1="2.2985" x2="178.6942" y2="-9.1287" gradientTransform="matrix(1 0 0 -1 -131.41 44.79)">
			<stop  offset="0" style="stop-color:#F1C999"/>
			<stop  offset="0.52" style="stop-color:#F2CB9C"/>
			<stop  offset="0.85" style="stop-color:#F5D3A4"/>
			<stop  offset="1" style="stop-color:#F7D9AB"/>
		</linearGradient>
		<path id="XMLID_215_" class="st6" d="M47.54,43.96c-0.05-0.61-0.14-2.14-0.16-2.93c-0.16,0.2-10.39-0.18-10.81-0.78h-1.19
			c0,0,0.35,3.88-0.21,6.65c-0.17,0.84-7.47,2.21-7.47,2.21c2.9,0.1,5.81,0.68,6.93,0.46c0.93-0.17,2.49-0.9,3.6-1.43
			c6.13-2.89,8.05-3.85,8.05-3.85c0.29,2.69,2.22,4.48,2.12,4.45c3.7,0.93,9.34,0.05,9.34,0.05c-7.1-0.62-9.01-1.72-9.41-2
			C47.92,46.5,47.67,45.36,47.54,43.96z"/>
		
			<linearGradient id="XMLID_229_" gradientUnits="userSpaceOnUse" x1="180.1571" y1="-6.7852" x2="171.9268" y2="-7.9989" gradientTransform="matrix(1 0 0 -1 -131.41 44.79)">
			<stop  offset="0" style="stop-color:#F1C999"/>
			<stop  offset="0.52" style="stop-color:#F2CB9C"/>
			<stop  offset="0.85" style="stop-color:#F5D3A4"/>
			<stop  offset="1" style="stop-color:#F7D9AB"/>
		</linearGradient>
		<path id="XMLID_214_" class="st7" d="M40.98,51.99c0,0,2.21,0.4,2.79,1.11C43.77,53.1,43.11,51.28,40.98,51.99z"/>
		
			<linearGradient id="XMLID_230_" gradientUnits="userSpaceOnUse" x1="173.8052" y1="-6.1628" x2="186.9165" y2="-4.1166" gradientTransform="matrix(1 0 0 -1 -131.41 44.79)">
			<stop  offset="0" style="stop-color:#FFDEB3"/>
			<stop  offset="1" style="stop-color:#F7D9AB"/>
		</linearGradient>
		<path id="XMLID_213_" class="st8" d="M43.84,51.55c1.92-1.54,3.83-1.1,6.28-1.39c2.45-0.29,6.67-1.24,6.67-1.24
			c-1.11,0.22-10.61,0.55-11.47,0.77S43.84,51.55,43.84,51.55z"/>
		
			<linearGradient id="XMLID_231_" gradientUnits="userSpaceOnUse" x1="173.083" y1="-6.7967" x2="161.5705" y2="-3.7754" gradientTransform="matrix(1 0 0 -1 -131.41 44.79)">
			<stop  offset="0" style="stop-color:#FFDEB3"/>
			<stop  offset="1" style="stop-color:#F7D9AB"/>
		</linearGradient>
		<path id="XMLID_212_" class="st9" d="M39.15,49.91c-1.06-0.37-9.13-0.88-10.58-0.73c0,0,10.19,1.05,12.23,2.36
			C40.81,51.53,40.21,50.27,39.15,49.91z"/>
		
			<linearGradient id="XMLID_232_" gradientUnits="userSpaceOnUse" x1="156.1239" y1="-15.8093" x2="155.5342" y2="-21.8317" gradientTransform="matrix(1 0 0 -1 -131.41 44.79)">
			<stop  offset="0" style="stop-color:#9AB33B"/>
			<stop  offset="0.65" style="stop-color:#829739"/>
			<stop  offset="1" style="stop-color:#748637"/>
		</linearGradient>
		<path id="XMLID_211_" class="st10" d="M23.75,66.06c0.51,0.27,1.02,0.53,1.54,0.78l-1.9-4.83C23.51,62.71,23.65,64.48,23.75,66.06
			z"/>
		
			<linearGradient id="XMLID_233_" gradientUnits="userSpaceOnUse" x1="190.9202" y1="-15.341" x2="190.2901" y2="-21.7625" gradientTransform="matrix(1 0 0 -1 -131.41 44.79)">
			<stop  offset="0" style="stop-color:#9AB33B"/>
			<stop  offset="0.65" style="stop-color:#829739"/>
			<stop  offset="1" style="stop-color:#748637"/>
		</linearGradient>
		<path id="XMLID_210_" class="st11" d="M58.17,66.6c0.5-0.25,1-0.51,1.49-0.78c0.07-1.61,0.15-3.36,0.21-4L58.17,66.6z"/>
		
			<linearGradient id="XMLID_234_" gradientUnits="userSpaceOnUse" x1="171.9593" y1="5.839" x2="173.4626" y2="-0.5341" gradientTransform="matrix(1 0 0 -1 -131.41 44.79)">
			<stop  offset="0" style="stop-color:#DBA879"/>
			<stop  offset="0.49" style="stop-color:#E4B686"/>
			<stop  offset="1" style="stop-color:#F1C999"/>
		</linearGradient>
		<path id="XMLID_209_" class="st12" d="M35.18,38.54c0.45,1.3,0.38,6.3,0.38,6.3c6.93,2.27,11.76-2.74,11.76-2.74v-1.49
			L35.18,38.54z"/>
		
			<linearGradient id="XMLID_235_" gradientUnits="userSpaceOnUse" x1="171.936" y1="-45.1823" x2="172.59" y2="37.2648" gradientTransform="matrix(1 0 0 -1 -131.41 44.79)">
			<stop  offset="0.23" style="stop-color:#492319"/>
			<stop  offset="1" style="stop-color:#663024"/>
		</linearGradient>
		<path id="XMLID_208_" class="st13" d="M40.64,4.58c-15.83,1.76-14.21,15.3-12.86,23.3S52.03,46.95,54.8,27.5
			C57.56,8.05,44.43,4.14,40.64,4.58z"/>
		<path id="XMLID_207_" class="st14" d="M55.69,25.9c-0.41,0-0.87,1.07-0.87,1.07c-0.61,3.65-0.86,6.45-0.86,6.45
			C56.26,32.68,58.02,25.88,55.69,25.9z"/>
		
			<linearGradient id="XMLID_236_" gradientUnits="userSpaceOnUse" x1="187.5393" y1="18.1141" x2="185.9414" y2="11.037" gradientTransform="matrix(1 0 0 -1 -131.41 44.79)">
			<stop  offset="0" style="stop-color:#DBA879"/>
			<stop  offset="0.22" style="stop-color:#E2B383"/>
			<stop  offset="0.66" style="stop-color:#EDC393"/>
			<stop  offset="1" style="stop-color:#F1C999"/>
		</linearGradient>
		<path id="XMLID_206_" class="st15" d="M55.36,29.45c0.18,0.73,0.07,1.5-0.32,2.14c0.44-0.57,0.76-1.23,0.93-1.93
			c0.25-1.73-0.43-1.86-0.13-2.29c0.24-0.35,0.59,0.67,0.59,0.67C56.79,25.75,54.73,26.24,55.36,29.45z"/>
		<path id="XMLID_205_" class="st14" d="M27.63,25.75c-2.32-0.11-0.8,6.75,1.46,7.58c0,0-0.14-2.78-0.63-6.49
			C28.46,26.86,28.04,25.77,27.63,25.75z"/>
		
			<linearGradient id="XMLID_237_" gradientUnits="userSpaceOnUse" x1="158.4658" y1="18.4896" x2="160.0635" y2="10.191" gradientTransform="matrix(1 0 0 -1 -131.41 44.79)">
			<stop  offset="0" style="stop-color:#DBA879"/>
			<stop  offset="0.22" style="stop-color:#E2B383"/>
			<stop  offset="0.66" style="stop-color:#EDC393"/>
			<stop  offset="1" style="stop-color:#F1C999"/>
		</linearGradient>
		<path id="XMLID_204_" class="st16" d="M27.98,29.35c0.48-3.4-1.76-3.62-1.24-1.31c0,0,0.31-1.09,0.59-0.77
			c0.35,0.4-0.37,0.63,0,2.38c0.23,0.7,0.61,1.33,1.12,1.86C27.99,30.89,27.82,30.11,27.98,29.35z"/>
		<path id="XMLID_203_" class="st1" d="M43.64,8.85c-7.9-1.35-13.51,5.79-15,14.46c-0.83,4.86-0.5,9.2,2.03,12.77
			c1.03,1.45,2.29,2.15,3.77,3.29c0.94,0.72,2.4,2.28,3.4,3.03c0.89,0.75,1.98,1.2,3.13,1.28c3.72,0.14,6.16-2.71,7.23-3.74
			c3.75-3.61,7.2-4.95,6.43-15C54.04,17.05,48.82,9.02,43.64,8.85z"/>
		
			<linearGradient id="XMLID_238_" gradientUnits="userSpaceOnUse" x1="180.4875" y1="14.2105" x2="180.3669" y2="22.6653" gradientTransform="matrix(1 0 0 -1 -131.41 44.79)">
			<stop  offset="0" style="stop-color:#F7D9AB"/>
			<stop  offset="0.52" style="stop-color:#F6D7A8"/>
			<stop  offset="0.85" style="stop-color:#F3CFA0"/>
			<stop  offset="1" style="stop-color:#F1C999"/>
		</linearGradient>
		<path id="XMLID_202_" class="st17" d="M48.01,21.3c-4.4,0.81-4.22,4.22-4.56,8.22c7.11,3,11.22-0.53,11.22-0.53s-0.02-4.42-1-5.94
			C53.29,22.47,52.12,20.55,48.01,21.3z"/>
		
			<radialGradient id="XMLID_239_" cx="181.9297" cy="12.4834" r="5.093" gradientTransform="matrix(1 0 0 -1.0299 -131.41 44.0205)" gradientUnits="userSpaceOnUse">
			<stop  offset="0" style="stop-color:#F9AD8E"/>
			<stop  offset="0.48" style="stop-color:#F8C09A"/>
			<stop  offset="1" style="stop-color:#F7D9AB"/>
		</radialGradient>
		<path id="XMLID_201_" class="st18" d="M49.38,26.44c-2.25,0.38-4.31,2.32-4.16,4.99c0.2,3.22,1.77,4.89,3.86,5.75
			c2.73,1.11,5.5-2.78,5.65-7.01C54.89,25.78,51.64,26.07,49.38,26.44z"/>
		
			<linearGradient id="XMLID_240_" gradientUnits="userSpaceOnUse" x1="165.942" y1="13.8208" x2="165.9838" y2="22.475" gradientTransform="matrix(1 0 0 -1 -131.41 44.79)">
			<stop  offset="0" style="stop-color:#F7D9AB"/>
			<stop  offset="0.52" style="stop-color:#F6D7A8"/>
			<stop  offset="0.85" style="stop-color:#F3CFA0"/>
			<stop  offset="1" style="stop-color:#F1C999"/>
		</linearGradient>
		<path id="XMLID_200_" class="st19" d="M34.56,21.5c-1.49-0.16-2.98,0.24-4.22,1.11c-2.18,1.68-0.9,6.12-0.9,6.12
			s3.41,4.1,10.6,1.19C39.53,26.75,40.38,21.92,34.56,21.5z"/>
		
			<radialGradient id="XMLID_241_" cx="164.345" cy="12.3348" r="5.066" gradientTransform="matrix(1 0 0 -1.0299 -131.41 44.0205)" gradientUnits="userSpaceOnUse">
			<stop  offset="0" style="stop-color:#F9AD8E"/>
			<stop  offset="0.48" style="stop-color:#F8C09A"/>
			<stop  offset="1" style="stop-color:#F7D9AB"/>
		</radialGradient>
		<path id="XMLID_199_" class="st20" d="M34.29,27.12c-2.15-0.46-5.4-1.79-5.56,3.06c-0.14,4.77,2.54,7.14,5.37,7.49
			c2.2,0.27,3.92-3.39,4.01-6.2C38.02,28.84,36.44,27.58,34.29,27.12z"/>
		
			<linearGradient id="XMLID_242_" gradientUnits="userSpaceOnUse" x1="174.6196" y1="50.6378" x2="172.6318" y2="12.8004" gradientTransform="matrix(1 0 0 -1 -131.41 44.79)">
			<stop  offset="0" style="stop-color:#DBA879"/>
			<stop  offset="0.49" style="stop-color:#E4B686"/>
			<stop  offset="1" style="stop-color:#F1C999"/>
		</linearGradient>
		<path id="XMLID_198_" class="st21" d="M44.88,9.03c0,0-8.36-2.32-13.77,6.59c-2.76,4.56-3.76,12.4-2.25,16.83
			c0,0-0.4-4.85,1.41-6.03c0,0,0.95-10.37,5.25-13.1c0.95,3.76,3.24,5.24,8.3,6.72c4.66,1.36,9.12,2.68,10.9,8.7
			c0.16-3.24-0.26-6.49-1.26-9.58C51.94,14.66,48.99,9.86,44.88,9.03z"/>
		
			<linearGradient id="XMLID_243_" gradientUnits="userSpaceOnUse" x1="170.0595" y1="3.4949" x2="174.7202" y2="3.4949" gradientTransform="matrix(1 0 0 -1 -131.41 44.79)">
			<stop  offset="0" style="stop-color:#FFDEB3"/>
			<stop  offset="0.68" style="stop-color:#FCDCB0"/>
			<stop  offset="1" style="stop-color:#F7D9AB"/>
		</linearGradient>
		<path id="XMLID_197_" class="st22" d="M41.68,40.66c-0.98-0.05-1.8,0.19-1.85,0.54c-0.05,0.35,0.72,0.68,1.7,0.73
			c0.98,0.05,1.8-0.19,1.85-0.54C43.43,41.04,42.66,40.71,41.68,40.66z"/>
		
			<linearGradient id="XMLID_244_" gradientUnits="userSpaceOnUse" x1="178.0345" y1="10.8365" x2="186.345" y2="10.8365" gradientTransform="matrix(1 0 0 -1 -131.41 44.79)">
			<stop  offset="0" style="stop-color:#FFDEB3"/>
			<stop  offset="0.68" style="stop-color:#FCDCB0"/>
			<stop  offset="1" style="stop-color:#F7D9AB"/>
		</linearGradient>
		<path id="XMLID_196_" class="st23" d="M53.02,26.47c2.85,4.17-0.12,8.77-2.41,10.89c-2.53,2.35-3.58,3.68-3.98,4.07
			c0.36-0.33,3.74-3.36,4.71-4.06c0.9-0.65,4.33-4.15,3.47-8.52C54.82,28.85,54.25,27.05,53.02,26.47z"/>
		<path id="XMLID_195_" class="st14" d="M32.89,37.87c-5.02-3.71-3.52-10.38-3.52-10.38c-2.62,6.76,1.89,9.8,2.8,10.42
			c1.88,1.28,5,3.93,5,3.93C36.47,41.18,35.65,39.92,32.89,37.87z"/>
		
			<linearGradient id="XMLID_245_" gradientUnits="userSpaceOnUse" x1="173.1543" y1="2.6956" x2="173.436" y2="-1.003" gradientTransform="matrix(1 0 0 -1 -131.41 44.79)">
			<stop  offset="0" style="stop-color:#DBA879"/>
			<stop  offset="0.49" style="stop-color:#E4B686"/>
			<stop  offset="1" style="stop-color:#F1C999"/>
		</linearGradient>
		<path id="XMLID_194_" class="st24" d="M37.67,42.26c0,0,3.08,4.17,8.16-0.19C45.81,42.07,41.76,45.35,37.67,42.26z"/>
		
			<linearGradient id="XMLID_246_" gradientUnits="userSpaceOnUse" x1="176.4843" y1="22.9563" x2="184.2702" y2="22.9563" gradientTransform="matrix(1 0 0 -1 -131.41 44.79)">
			<stop  offset="0" style="stop-color:#683126"/>
			<stop  offset="0.34" style="stop-color:#53281E"/>
			<stop  offset="0.68" style="stop-color:#46221A"/>
			<stop  offset="1" style="stop-color:#422018"/>
		</linearGradient>
		<path id="XMLID_193_" class="st25" d="M46.24,21.5c-0.94,0.46-1.61,1.73-0.8,1.46c0.82-0.27,3.83-1.46,4.5-1.47
			c1.02,0.05,2.02,0.31,2.93,0.78c0,0-1.83-1.47-2.95-1.58C48.8,20.57,46.75,21.26,46.24,21.5z"/>
		
			<linearGradient id="XMLID_247_" gradientUnits="userSpaceOnUse" x1="161.5936" y1="22.9895" x2="169.4364" y2="22.9895" gradientTransform="matrix(1 0 0 -1 -131.41 44.79)">
			<stop  offset="0" style="stop-color:#422018"/>
			<stop  offset="0.32" style="stop-color:#46221A"/>
			<stop  offset="0.66" style="stop-color:#53281E"/>
			<stop  offset="1" style="stop-color:#683126"/>
		</linearGradient>
		<path id="XMLID_192_" class="st26" d="M36.92,21.5c-0.51-0.22-2.74-0.93-3.86-0.74c-1.12,0.19-2.88,1.74-2.88,1.74
			c0.89-0.53,1.87-0.84,2.89-0.93c0.66,0,3.72,1.03,4.55,1.27C38.46,23.08,37.88,21.91,36.92,21.5z"/>
		
			<linearGradient id="XMLID_248_" gradientUnits="userSpaceOnUse" x1="169.1657" y1="19.7405" x2="162.8401" y2="17.2833" gradientTransform="matrix(1 0 0 -1 -131.41 44.79)">
			<stop  offset="0" style="stop-color:#F1C999"/>
			<stop  offset="0.51" style="stop-color:#E4B686"/>
			<stop  offset="1" style="stop-color:#DBA879"/>
		</linearGradient>
		<path id="XMLID_191_" class="st27" d="M33.95,23.68c-0.94,0.08-2.93,0.43-2.9,2.24c0.03,2.29,2.35,2.84,3.38,2.85
			c1.03-0.03,2.05-0.24,3-0.63c0.58-0.19,0.9-0.24,1.18-0.31C38.53,26.07,37.82,23.68,33.95,23.68z"/>
		
			<linearGradient id="XMLID_249_" gradientUnits="userSpaceOnUse" x1="167.6053" y1="18.1224" x2="169.7938" y2="18.1224" gradientTransform="matrix(1 0 0 -1 -131.41 44.79)">
			<stop  offset="0" style="stop-color:#FFFFFF"/>
			<stop  offset="0.46" style="stop-color:#FDFCFC"/>
			<stop  offset="0.76" style="stop-color:#F6F4F4"/>
			<stop  offset="1" style="stop-color:#ECE7E6"/>
		</linearGradient>
		<path id="XMLID_190_" class="st28" d="M36.24,25.06c0.47,0.44,0.78,1.03,0.88,1.67c0.04,0.6-0.22,1.19-0.69,1.54
			c0.65-0.25,1.32-0.44,2-0.58C38.43,27.69,37.61,25.9,36.24,25.06z"/>
		<path id="XMLID_189_" class="st29" d="M36.36,25.32c0.38,0.3,0.64,0.73,0.73,1.21c0.5,0.32,0.95,0.71,1.35,1.15
			C38.44,27.69,37.61,25.94,36.36,25.32z"/>
		
			<linearGradient id="XMLID_250_" gradientUnits="userSpaceOnUse" x1="163.602" y1="18.1874" x2="165.4258" y2="18.1874" gradientTransform="matrix(1 0 0 -1 -131.41 44.79)">
			<stop  offset="0" style="stop-color:#FFFFFF"/>
			<stop  offset="0.46" style="stop-color:#FDFCFC"/>
			<stop  offset="0.76" style="stop-color:#F6F4F4"/>
			<stop  offset="1" style="stop-color:#ECE7E6"/>
		</linearGradient>
		<path id="XMLID_188_" class="st30" d="M34.65,24.7c-0.95,0.09-2.12,0.59-3.51,1.79c0.64,1.14,1.78,1.9,3.06,2.02
			c-0.56-0.32-0.91-0.92-0.95-1.57C33.18,25.95,33.75,25.04,34.65,24.7z"/>
		
			<linearGradient id="XMLID_251_" gradientUnits="userSpaceOnUse" x1="169.7322" y1="15.3067" x2="164.4436" y2="19.061" gradientTransform="matrix(1 0 0 -1 -131.41 44.79)">
			<stop  offset="0" style="stop-color:#B89C8C"/>
			<stop  offset="1" style="stop-color:#725342"/>
		</linearGradient>
		<path id="XMLID_187_" class="st31" d="M37.09,26.48c-1.14-0.81-2.58-1.01-3.89-0.55c-0.15,0.33-0.22,0.69-0.2,1.05
			c0.05,0.65,0.42,1.23,1,1.53c0.82,0.08,1.65,0,2.45-0.23c0.48-0.35,0.75-0.94,0.69-1.54C37.12,26.65,37.11,26.57,37.09,26.48z"/>
		<path id="XMLID_186_" class="st29" d="M31.5,26.54l0.27,0.51c0.4-0.32,0.84-0.58,1.31-0.78c0.15-0.48,0.48-0.88,0.9-1.13
			C33.02,25.29,32.14,25.79,31.5,26.54z"/>
		
			<linearGradient id="XMLID_252_" gradientUnits="userSpaceOnUse" x1="173.6746" y1="14.9568" x2="168.2138" y2="17.8768" gradientTransform="matrix(1 0 0 -1 -131.41 44.79)">
			<stop  offset="0" style="stop-color:#B89C8C"/>
			<stop  offset="1" style="stop-color:#725342"/>
		</linearGradient>
		<path id="XMLID_185_" class="st32" d="M36.36,25.32c-0.17-0.09-0.35-0.15-0.54-0.19c-0.6-0.12-1.22-0.12-1.82,0
			c-0.44,0.24-0.77,0.64-0.92,1.13c0.66-0.3,1.39-0.43,2.11-0.38c0.68,0.06,1.34,0.28,1.92,0.64
			C37.01,26.05,36.75,25.61,36.36,25.32z"/>
		
			<radialGradient id="XMLID_253_" cx="166.1373" cy="16.8064" r="1.495" gradientTransform="matrix(1 0 0 -1.0299 -131.41 44.0205)" gradientUnits="userSpaceOnUse">
			<stop  offset="0" style="stop-color:#2B3B3B"/>
			<stop  offset="1" style="stop-color:#1D2827"/>
		</radialGradient>
		<path id="XMLID_184_" class="st33" d="M35.01,25.27c-0.69,0.08-1.19,0.72-1.11,1.43c0.08,0.71,0.7,1.22,1.39,1.14
			c0.67-0.08,1.16-0.69,1.11-1.38C36.33,25.74,35.71,25.2,35.01,25.27C35.01,25.27,35.01,25.27,35.01,25.27z"/>
		<path id="XMLID_183_" class="st34" d="M35.36,26.06c-0.17-0.09-0.38-0.02-0.47,0.16c0,0,0,0.01-0.01,0.01
			c-0.09,0.18-0.02,0.41,0.16,0.51c0.17,0.09,0.38,0.02,0.47-0.16c0,0,0-0.01,0.01-0.01C35.6,26.38,35.53,26.16,35.36,26.06z"/>
		<path id="XMLID_182_" class="st34" d="M36.55,26.57c-0.24-0.13-0.53-0.03-0.66,0.21c-0.12,0.24-0.03,0.55,0.2,0.67
			c0.24,0.12,0.53,0.03,0.66-0.22C36.87,27,36.78,26.7,36.55,26.57z"/>
		
			<linearGradient id="XMLID_254_" gradientUnits="userSpaceOnUse" x1="161.6161" y1="18.3768" x2="169.7946" y2="18.3768" gradientTransform="matrix(1 0 0 -1 -131.41 44.79)">
			<stop  offset="0" style="stop-color:#5B2B20"/>
			<stop  offset="0.31" style="stop-color:#4A2319"/>
			<stop  offset="0.66" style="stop-color:#3D1D15"/>
			<stop  offset="1" style="stop-color:#391B13"/>
		</linearGradient>
		<path id="XMLID_181_" class="st35" d="M32.56,24.78c-0.72,0.38-1.56,0.4-2.3,0.07c0,0.05-0.16,1.45,0.83,1.81
			c0.01,0.05,0.02,0.1,0.04,0.15c-0.26-0.03-0.52,0.1-0.66,0.33c0,0,0.41-0.22,1.31,0.46c0.72,0.55,1.58,0.87,2.47,0.93
			c-1.31-0.52-1.95-0.84-2.63-1.93c1-0.87,2.29-1.31,3.6-1.22c1.83,0.1,3.22,2.32,3.22,2.32C37.84,25.3,36,23.35,32.56,24.78z"/>
		<path id="XMLID_180_" class="st36" d="M35.98,23.88c-1.14-0.37-2.37-0.33-3.49,0.1c0,0,2.04-0.39,3.41,0.14
			c0.71,0.24,1.36,0.63,1.93,1.14C37.37,24.62,36.72,24.14,35.98,23.88z"/>
		<path id="XMLID_179_" class="st37" d="M35.46,25.19c-2.98-0.31-3.86,1.42-3.86,1.42c1.06-0.88,2.41-1.31,3.76-1.21
			c1.68,0.16,3.06,2.29,3.06,2.29S37.71,25.42,35.46,25.19z"/>
		
			<linearGradient id="XMLID_255_" gradientUnits="userSpaceOnUse" x1="183.0484" y1="19.9125" x2="175.7726" y2="17.088" gradientTransform="matrix(1 0 0 -1 -131.41 44.79)">
			<stop  offset="0" style="stop-color:#DBA879"/>
			<stop  offset="0.49" style="stop-color:#E4B686"/>
			<stop  offset="1" style="stop-color:#F1C999"/>
		</linearGradient>
		<path id="XMLID_178_" class="st38" d="M49.06,23.54c-3.87,0-4.58,2.39-4.66,4.15c0.4,0.08,0.79,0.18,1.18,0.31
			c0.96,0.39,1.97,0.6,3,0.63c1.04,0,3.35-0.55,3.38-2.84C51.98,23.97,49.99,23.62,49.06,23.54z"/>
		
			<linearGradient id="XMLID_256_" gradientUnits="userSpaceOnUse" x1="175.9315" y1="18.2592" x2="178.1201" y2="18.2592" gradientTransform="matrix(1 0 0 -1 -131.41 44.79)">
			<stop  offset="0" style="stop-color:#FFFFFF"/>
			<stop  offset="0.46" style="stop-color:#FDFCFC"/>
			<stop  offset="0.76" style="stop-color:#F6F4F4"/>
			<stop  offset="1" style="stop-color:#ECE7E6"/>
		</linearGradient>
		<path id="XMLID_177_" class="st39" d="M44.57,27.55c0.68,0.14,1.35,0.34,1.99,0.58c-0.47-0.36-0.73-0.94-0.68-1.54
			c0.1-0.65,0.42-1.24,0.9-1.67C45.39,25.76,44.57,27.55,44.57,27.55z"/>
		<path id="XMLID_176_" class="st29" d="M44.57,27.55c0.4-0.44,0.85-0.83,1.35-1.15c0.09-0.48,0.35-0.92,0.73-1.21
			C45.39,25.81,44.57,27.55,44.57,27.55z"/>
		
			<linearGradient id="XMLID_257_" gradientUnits="userSpaceOnUse" x1="180.8264" y1="18.3265" x2="182.6502" y2="18.3265" gradientTransform="matrix(1 0 0 -1 -131.41 44.79)">
			<stop  offset="0" style="stop-color:#FFFFFF"/>
			<stop  offset="0.46" style="stop-color:#FDFCFC"/>
			<stop  offset="0.76" style="stop-color:#F6F4F4"/>
			<stop  offset="1" style="stop-color:#ECE7E6"/>
		</linearGradient>
		<path id="XMLID_175_" class="st40" d="M49.76,26.8c-0.03,0.66-0.39,1.25-0.95,1.57c1.28-0.12,2.42-0.88,3.06-2.02
			c-1.4-1.19-2.56-1.7-3.51-1.79C49.26,24.9,49.83,25.82,49.76,26.8z"/>
		
			<linearGradient id="XMLID_258_" gradientUnits="userSpaceOnUse" x1="181.9435" y1="16.3591" x2="176.8009" y2="19.5732" gradientTransform="matrix(1 0 0 -1 -131.41 44.79)">
			<stop  offset="0" style="stop-color:#B89C8C"/>
			<stop  offset="1" style="stop-color:#725342"/>
		</linearGradient>
		<path id="XMLID_174_" class="st41" d="M45.91,26.35c-0.02,0.08-0.03,0.17-0.03,0.25c-0.06,0.6,0.2,1.19,0.68,1.54
			c0.8,0.23,1.63,0.31,2.45,0.23c0.57-0.29,0.95-0.87,1-1.52c0.02-0.36-0.05-0.73-0.2-1.05C48.5,25.33,47.05,25.53,45.91,26.35z"/>
		<path id="XMLID_173_" class="st29" d="M49.01,25.01c0.43,0.25,0.75,0.65,0.9,1.13c0.47,0.2,0.91,0.46,1.31,0.77l0.27-0.51
			C50.85,25.66,49.97,25.16,49.01,25.01z"/>
		
			<linearGradient id="XMLID_259_" gradientUnits="userSpaceOnUse" x1="186.1716" y1="18.2252" x2="179.5264" y2="19.013" gradientTransform="matrix(1 0 0 -1 -131.41 44.79)">
			<stop  offset="0" style="stop-color:#B89C8C"/>
			<stop  offset="1" style="stop-color:#725342"/>
		</linearGradient>
		<path id="XMLID_172_" class="st42" d="M49.01,25.01c-0.6-0.12-1.22-0.12-1.82,0c-0.19,0.04-0.37,0.1-0.54,0.19
			c-0.39,0.29-0.66,0.72-0.74,1.2c0.59-0.36,1.24-0.58,1.92-0.64c0.72-0.05,1.44,0.08,2.11,0.38
			C49.78,25.65,49.45,25.25,49.01,25.01z"/>
		
			<radialGradient id="XMLID_260_" cx="178.9576" cy="16.9415" r="1.495" gradientTransform="matrix(1 0 0 -1.0299 -131.41 44.0205)" gradientUnits="userSpaceOnUse">
			<stop  offset="0" style="stop-color:#2B3B3B"/>
			<stop  offset="1" style="stop-color:#1D2827"/>
		</radialGradient>
		<path id="XMLID_171_" class="st43" d="M48.01,25.13c-0.69-0.03-1.28,0.53-1.31,1.24c-0.03,0.71,0.51,1.32,1.2,1.34
			c0.68,0.03,1.25-0.5,1.3-1.19C49.25,25.8,48.71,25.17,48.01,25.13z"/>
		<path id="XMLID_170_" class="st34" d="M48.23,25.89c-0.18-0.1-0.39-0.03-0.5,0.14c-0.11,0.17-0.06,0.39,0.1,0.5
			c0,0,0.01,0.01,0.01,0.01c0.18,0.1,0.4,0.03,0.5-0.14C48.45,26.23,48.4,26,48.23,25.89C48.23,25.89,48.23,25.89,48.23,25.89z"/>
		<path id="XMLID_169_" class="st34" d="M49.42,26.43c-0.23-0.14-0.52-0.07-0.66,0.17c0,0,0,0.01-0.01,0.01
			c-0.13,0.24-0.06,0.55,0.18,0.69c0.23,0.14,0.52,0.07,0.66-0.16c0,0,0,0,0-0.01C49.73,26.88,49.65,26.57,49.42,26.43z"/>
		
			<linearGradient id="XMLID_261_" gradientUnits="userSpaceOnUse" x1="175.9315" y1="18.5206" x2="184.1105" y2="18.5206" gradientTransform="matrix(1 0 0 -1 -131.41 44.79)">
			<stop  offset="0" style="stop-color:#391B13"/>
			<stop  offset="0.34" style="stop-color:#3D1D15"/>
			<stop  offset="0.69" style="stop-color:#4A2319"/>
			<stop  offset="1" style="stop-color:#5B2B20"/>
		</linearGradient>
		<path id="XMLID_168_" class="st44" d="M52.74,24.71c-0.74,0.33-1.58,0.3-2.3-0.07c-3.45-1.43-5.29,0.52-5.88,2.91
			c0,0,1.39-2.2,3.21-2.32c1.31-0.09,2.6,0.35,3.6,1.22c-0.68,1.09-1.32,1.39-2.63,1.93c0.89-0.06,1.75-0.38,2.47-0.93
			c0.9-0.67,1.3-0.44,1.3-0.46c-0.14-0.24-0.39-0.37-0.66-0.34c0.01-0.05,0.02-0.1,0.03-0.15C52.91,26.17,52.74,24.76,52.74,24.71z"
			/>
		<path id="XMLID_167_" class="st36" d="M47.02,23.74c-0.74,0.26-1.39,0.74-1.85,1.39c0.56-0.51,1.22-0.89,1.93-1.13
			c1.35-0.54,3.41-0.15,3.41-0.15C49.39,23.42,48.16,23.38,47.02,23.74z"/>
		<path id="XMLID_166_" class="st37" d="M47.53,25.05c-2.22,0.23-2.96,2.5-2.96,2.5s1.37-2.13,3.06-2.29
			c1.36-0.11,2.7,0.32,3.76,1.21C51.39,26.47,50.51,24.74,47.53,25.05z"/>
		
			<linearGradient id="XMLID_262_" gradientUnits="userSpaceOnUse" x1="173.0721" y1="10.1064" x2="173.0535" y2="12.0393" gradientTransform="matrix(1 0 0 -1 -131.41 44.79)">
			<stop  offset="0" style="stop-color:#F7D9AB"/>
			<stop  offset="0.52" style="stop-color:#F6D7A8"/>
			<stop  offset="0.85" style="stop-color:#F3CFA0"/>
			<stop  offset="1" style="stop-color:#F1C999"/>
		</linearGradient>
		<path id="XMLID_165_" class="st45" d="M41.72,34.11c0.45-0.06,2.29-1.3,2.29-1.3h-4.72C39.28,32.81,41.27,34.17,41.72,34.11z"/>
		
			<linearGradient id="XMLID_263_" gradientUnits="userSpaceOnUse" x1="173.6324" y1="12.0466" x2="172.0128" y2="16.2311" gradientTransform="matrix(1 0 0 -1 -131.41 44.79)">
			<stop  offset="0" style="stop-color:#FFDEB3"/>
			<stop  offset="1" style="stop-color:#F7D9AB"/>
		</linearGradient>
		<path id="XMLID_164_" class="st46" d="M41.65,30.77c-1.25,0.03-1.61,0.36-1.51,0.7c0.22,0.83,0.75,0.99,1.54,0.99
			s1.46-0.19,1.59-1.09C43.31,31.11,42.9,30.74,41.65,30.77z"/>
		
			<linearGradient id="XMLID_264_" gradientUnits="userSpaceOnUse" x1="175.5233" y1="12.3835" x2="173.9449" y2="11.6011" gradientTransform="matrix(1 0 0 -1 -131.41 44.79)">
			<stop  offset="0" style="stop-color:#DBA879"/>
			<stop  offset="0.49" style="stop-color:#E4B686"/>
			<stop  offset="1" style="stop-color:#F1C999"/>
		</linearGradient>
		<path id="XMLID_163_" class="st47" d="M42.5,33.02c0,0,2.3,0.04,1.55-0.74C43.8,32.01,42.5,33.02,42.5,33.02z"/>
		
			<linearGradient id="XMLID_265_" gradientUnits="userSpaceOnUse" x1="170.6578" y1="12.2962" x2="172.3422" y2="11.6098" gradientTransform="matrix(1 0 0 -1 -131.41 44.79)">
			<stop  offset="0" style="stop-color:#DBA879"/>
			<stop  offset="0.49" style="stop-color:#E4B686"/>
			<stop  offset="1" style="stop-color:#F1C999"/>
		</linearGradient>
		<path id="XMLID_162_" class="st48" d="M39.29,32.38c-0.77,0.68,1.66,0.64,1.66,0.64S39.56,32.14,39.29,32.38z"/>
		<path id="XMLID_161_" class="st14" d="M41.67,32.71c-2.33-0.04-2.59-1.21-2.91-0.46c-0.13,0.31,0.12,0.4,0.53,0.55
			c0,0-0.13-0.34,0.39-0.31c0.38,0.03,0.68,0.85,2.03,0.82c1.44-0.04,1.63-0.79,2-0.81c0.14-0.02,0.28,0.07,0.3,0.22
			c0,0.03,0,0.06,0,0.09c0,0,0.68-0.37,0.42-0.69C43.96,31.53,43.82,32.74,41.67,32.71z"/>
		<path id="XMLID_160_" class="st49" d="M52.46,28.21c-0.72,0.2-1.21,0.69-1.1,1.09c0.1,0.4,0.77,0.57,1.49,0.36s1.21-0.69,1.1-1.09
			C53.84,28.17,53.17,28.01,52.46,28.21z"/>
		<path id="XMLID_159_" class="st49" d="M30.92,28.79c-0.72-0.13-1.35,0.1-1.43,0.51c-0.08,0.4,0.45,0.84,1.18,0.96
			c0.73,0.13,1.35-0.1,1.43-0.51C32.19,29.36,31.65,28.92,30.92,28.79z"/>
		
			<linearGradient id="XMLID_266_" gradientUnits="userSpaceOnUse" x1="185.7827" y1="29.0498" x2="186.3346" y2="11.9982" gradientTransform="matrix(1 0 0 -1 -131.41 44.79)">
			<stop  offset="0" style="stop-color:#6C342A"/>
			<stop  offset="0.29" style="stop-color:#5B2C23"/>
			<stop  offset="0.71" style="stop-color:#49231B"/>
			<stop  offset="1" style="stop-color:#422018"/>
		</linearGradient>
		<path id="XMLID_158_" class="st50" d="M54.82,28.65l0.32-2.36c0,0-0.63-4.32-1.01-5.12C54.14,21.16,54.49,27.1,54.82,28.65z"/>
		
			<linearGradient id="XMLID_267_" gradientUnits="userSpaceOnUse" x1="159.5136" y1="17.4617" x2="160.362" y2="27.0772" gradientTransform="matrix(1 0 0 -1 -131.41 44.79)">
			<stop  offset="0" style="stop-color:#6C342A"/>
			<stop  offset="0.29" style="stop-color:#5B2C23"/>
			<stop  offset="0.71" style="stop-color:#49231B"/>
			<stop  offset="1" style="stop-color:#422018"/>
		</linearGradient>
		<path id="XMLID_157_" class="st51" d="M28.12,27.94c0.45-1.83,0.9-7.09,0.9-7.09l-1.12,4.9L28.12,27.94z"/>
		
			<linearGradient id="XMLID_268_" gradientUnits="userSpaceOnUse" x1="161.8844" y1="-41.1645" x2="162.5431" y2="42.0603" gradientTransform="matrix(1 0 0 -1 -131.41 44.79)">
			<stop  offset="0.23" style="stop-color:#492319"/>
			<stop  offset="1" style="stop-color:#663024"/>
		</linearGradient>
		<path id="XMLID_156_" class="st52" d="M30.22,15.84C31.72,9.08,41.4,4.36,41.4,4.36s-8.48-2.15-14.92,7.88
			c-5.94,9.28-7.05,22.66-4.75,26.76c3.06,5.45,13.45,6.74,13.45,6.74c-5.53-6.93-7.56-12.39-6-21.36
			C29.79,20.91,29.76,17.94,30.22,15.84z"/>
		
			<linearGradient id="XMLID_269_" gradientUnits="userSpaceOnUse" x1="182.6456" y1="-43.581" x2="183.2996" y2="38.7833" gradientTransform="matrix(1 0 0 -1 -131.41 44.79)">
			<stop  offset="0.23" style="stop-color:#492319"/>
			<stop  offset="1" style="stop-color:#663024"/>
		</linearGradient>
		<path id="XMLID_155_" class="st53" d="M41.4,4.36c3.55,2.22,6.58,5.22,8.88,8.78c7.88,12.42,4.26,26.95-2.23,32.89
			c0,0,8.85-1.33,12.55-7.01c2.85-4.38,2.31-19.19-5.24-28.23C48.52,2.57,41.4,4.36,41.4,4.36z"/>
		
			<linearGradient id="XMLID_270_" gradientUnits="userSpaceOnUse" x1="172.3519" y1="-40.2137" x2="173.0059" y2="42.4086" gradientTransform="matrix(1 0 0 -1 -131.41 44.79)">
			<stop  offset="0.23" style="stop-color:#492319"/>
			<stop  offset="1" style="stop-color:#663024"/>
		</linearGradient>
		<path id="XMLID_154_" class="st54" d="M49.26,9.3c-5.16-4.01-9.91-2.81-13.69-1.28C24.32,12.85,28.7,31.5,28.7,31.5
			c0,0.19-0.14-17.5,7.33-19.29c0,0,3,5.57,12.16,6.7c6.19,0.77,6.38,13.13,6.38,13.13C55.93,20.45,53.84,12.86,49.26,9.3z"/>
		
			<linearGradient id="XMLID_271_" gradientUnits="userSpaceOnUse" x1="187.1831" y1="-45.9609" x2="184.7623" y2="14.4028" gradientTransform="matrix(1 0 0 -1 -131.41 44.79)">
			<stop  offset="0.23" style="stop-color:#492319"/>
			<stop  offset="1" style="stop-color:#663024"/>
		</linearGradient>
		<path id="XMLID_153_" class="st55" d="M47.38,11.79c0,0,18.76,18.28,0.68,34.24C48.07,46.03,73.67,31.73,47.38,11.79z"/>
		
			<linearGradient id="XMLID_272_" gradientUnits="userSpaceOnUse" x1="162.8345" y1="-46.9444" x2="160.4141" y2="13.4073" gradientTransform="matrix(1 0 0 -1 -131.41 44.79)">
			<stop  offset="0.23" style="stop-color:#492319"/>
			<stop  offset="1" style="stop-color:#663024"/>
		</linearGradient>
		<path id="XMLID_152_" class="st56" d="M29.38,14.97c-16.33,22.89,5.8,30.79,5.8,30.79C20.26,33.95,29.38,14.97,29.38,14.97z"/>
		
			<linearGradient id="XMLID_273_" gradientUnits="userSpaceOnUse" x1="174.0257" y1="22.4533" x2="173.9608" y2="43.9007" gradientTransform="matrix(1 0 0 -1 -131.41 44.79)">
			<stop  offset="0" style="stop-color:#683126"/>
			<stop  offset="0.38" style="stop-color:#6D3429"/>
			<stop  offset="0.8" style="stop-color:#7A3C32"/>
			<stop  offset="1" style="stop-color:#834238"/>
		</linearGradient>
		<path id="XMLID_151_" class="st57" d="M52.21,7.32C45.3,2.53,41.4,4.36,41.4,4.36C38.81,3.5,36,3.71,33.55,4.92
			c-7.02,3.71-9.68,12.32-9.68,12.32C31.23,0.94,41.65,5.37,41.65,5.37c14.49-1.04,19.7,18.3,19.7,18.3S59.08,12.07,52.21,7.32z"/>
		
			<linearGradient id="XMLID_274_" gradientUnits="userSpaceOnUse" x1="176.2074" y1="25.7415" x2="175.3786" y2="45.1255" gradientTransform="matrix(1 0 0 -1 -131.41 44.79)">
			<stop  offset="0" style="stop-color:#683126"/>
			<stop  offset="0.38" style="stop-color:#6D3429"/>
			<stop  offset="0.8" style="stop-color:#7A3C32"/>
			<stop  offset="1" style="stop-color:#834238"/>
		</linearGradient>
		<path id="XMLID_150_" class="st58" d="M38.16,8.69c0,0-0.12,2.92,2.97,5.06s9.79,3.6,9.79,3.6s-6.46-3.09-8.49-4.74
			C41.49,11.83,39.83,10.98,38.16,8.69z"/>
		
			<linearGradient id="XMLID_275_" gradientUnits="userSpaceOnUse" x1="183.9196" y1="38.5944" x2="186.4284" y2="-14.4398" gradientTransform="matrix(1 0 0 -1 -131.41 44.79)">
			<stop  offset="0.23" style="stop-color:#492319"/>
			<stop  offset="1" style="stop-color:#663024"/>
		</linearGradient>
		<path id="XMLID_149_" class="st59" d="M49.42,46.58c7.35-0.9,9.62-8.13,9.62-8.13C56.02,43.43,49.42,46.58,49.42,46.58z"/>
		
			<linearGradient id="XMLID_276_" gradientUnits="userSpaceOnUse" x1="157.2686" y1="41.1185" x2="160.0654" y2="-18.0868" gradientTransform="matrix(1 0 0 -1 -131.41 44.79)">
			<stop  offset="0.23" style="stop-color:#492319"/>
			<stop  offset="1" style="stop-color:#663024"/>
		</linearGradient>
		<path id="XMLID_148_" class="st60" d="M22.91,38.07c0,0,2.19,7.21,9.54,8.11C32.44,46.19,25.95,43.05,22.91,38.07z"/>
		
			<linearGradient id="XMLID_277_" gradientUnits="userSpaceOnUse" x1="172.7433" y1="22.3458" x2="170.6031" y2="44.0301" gradientTransform="matrix(1 0 0 -1 -131.41 44.79)">
			<stop  offset="0" style="stop-color:#683126"/>
			<stop  offset="0.59" style="stop-color:#4E261D"/>
			<stop  offset="1" style="stop-color:#422018"/>
		</linearGradient>
		<path id="XMLID_147_" class="st61" d="M35.77,11.31c0,0-0.27,2.85,2.79,5.4s6.95,2.36,6.95,2.36c-2.07-0.47-4.01-1.43-5.67-2.78
			C38.11,15,36.71,13.29,35.77,11.31z"/>
		
			<linearGradient id="XMLID_278_" gradientUnits="userSpaceOnUse" x1="181.6604" y1="25.349" x2="180.6371" y2="49.3564" gradientTransform="matrix(1 0 0 -1 -131.41 44.79)">
			<stop  offset="0" style="stop-color:#683126"/>
			<stop  offset="0.38" style="stop-color:#6D3429"/>
			<stop  offset="0.8" style="stop-color:#7A3C32"/>
			<stop  offset="1" style="stop-color:#834238"/>
		</linearGradient>
		<path id="XMLID_146_" class="st62" d="M51.67,9.52c-4.12-3.47-9.24-2.92-9.24-2.92c7.5,1.34,15,10.74,15,10.74
			C56.13,14.31,54.15,11.63,51.67,9.52z"/>
		
			<linearGradient id="XMLID_279_" gradientUnits="userSpaceOnUse" x1="165.4506" y1="29.2458" x2="164.7399" y2="45.9125" gradientTransform="matrix(1 0 0 -1 -131.41 44.79)">
			<stop  offset="0" style="stop-color:#683126"/>
			<stop  offset="0.38" style="stop-color:#6D3429"/>
			<stop  offset="0.8" style="stop-color:#7A3C32"/>
			<stop  offset="1" style="stop-color:#834238"/>
		</linearGradient>
		<path id="XMLID_145_" class="st63" d="M27.35,14.59c0,0,4.05-7.63,12.96-8.02C40.29,6.57,31.06,3.8,27.35,14.59z"/>
		
			<linearGradient id="XMLID_280_" gradientUnits="userSpaceOnUse" x1="172.8109" y1="12.6704" x2="168.868" y2="52.6328" gradientTransform="matrix(1 0 0 -1 -131.41 44.79)">
			<stop  offset="0" style="stop-color:#683126"/>
			<stop  offset="0.59" style="stop-color:#4E261D"/>
			<stop  offset="1" style="stop-color:#422018"/>
		</linearGradient>
		<path id="XMLID_144_" class="st64" d="M50.58,19.47c-1.56-1.34-3.77-1.27-8.78-3.25c-0.65-0.25-4.64-2.74-5.51-5.12
			c-1.48,0.56-2.85,1.38-4.05,2.42c-1.48,1.35-2.44,4.48-2.73,7.3c-0.32,3.1-0.64,7.09-0.64,7.09s1.48-7.88,1.92-9.16
			c0.51-1.5,1.91-5.31,5.24-6.38c1.02,1.69,2.42,3.1,4.08,4.11c3.35,2,7.25,2.32,8.68,2.83c1.43,0.51,2.53,0.81,3.77,3.25
			C52.21,21.35,51.52,20.28,50.58,19.47z"/>
		
			<linearGradient id="XMLID_281_" gradientUnits="userSpaceOnUse" x1="172.3703" y1="8.0342" x2="167.4258" y2="9.5076" gradientTransform="matrix(1 0 0 -1 -131.41 44.79)">
			<stop  offset="0" style="stop-color:#F7D9AB"/>
			<stop  offset="0.52" style="stop-color:#F6D7A8"/>
			<stop  offset="0.85" style="stop-color:#F3CFA0"/>
			<stop  offset="1" style="stop-color:#F1C999"/>
		</linearGradient>
		<path id="XMLID_143_" class="st65" d="M35.53,34.9c-0.22,0.84,1.57,0.82,3.03,1.47C37.42,35.9,35.62,34.57,35.53,34.9z"/>
		
			<linearGradient id="XMLID_282_" gradientUnits="userSpaceOnUse" x1="180.3871" y1="8.2645" x2="176.5834" y2="9.3993" gradientTransform="matrix(1 0 0 -1 -131.41 44.79)">
			<stop  offset="0" style="stop-color:#F7D9AB"/>
			<stop  offset="0.52" style="stop-color:#F6D7A8"/>
			<stop  offset="0.85" style="stop-color:#F3CFA0"/>
			<stop  offset="1" style="stop-color:#F1C999"/>
		</linearGradient>
		<path id="XMLID_142_" class="st66" d="M44.42,36.37c1.46-0.64,3.24-0.62,3.03-1.47C47.37,34.57,45.57,35.9,44.42,36.37z"/>
		<path id="XMLID_141_" class="st67" d="M46.71,35.11c-0.88,0.46-1.83,0.76-2.81,0.86c-0.32-0.02-4.44-0.07-4.7-0.06
			c-0.88-0.08-1.74-0.29-2.56-0.61c-0.28-0.16-0.56-0.3-0.86-0.41c-0.08,0.05,0.04,0.58,0.59,0.54c1.32,0.18,1.68,1.14,2.46,1.22
			c0.23,0.03,4.76,0,4.95,0c1.1,0.02,1.52-1.08,2.85-1.27c0.63,0.02,0.63-0.5,0.63-0.5S47.02,34.94,46.71,35.11z"/>
		<path id="XMLID_140_" class="st68" d="M42.95,35.52c-0.51,0-0.94,0.18-1.57,0.18c-0.29,0-0.95-0.18-1.35-0.18
			c-1.19,0.04-2.38-0.07-3.55-0.32c0.06,0.02,1.35,1.09,5.05,1.16c2.79,0.05,4.34-0.78,4.75-1.06
			C45.18,35.54,44.06,35.61,42.95,35.52z"/>
		
			<linearGradient id="XMLID_283_" gradientUnits="userSpaceOnUse" x1="172.8566" y1="9.238" x2="172.8427" y2="8.4182" gradientTransform="matrix(1 0 0 -1 -131.41 44.79)">
			<stop  offset="0" style="stop-color:#F26E7F"/>
			<stop  offset="0.02" style="stop-color:#F26F80"/>
			<stop  offset="0.24" style="stop-color:#F37986"/>
			<stop  offset="0.53" style="stop-color:#F37C88"/>
			<stop  offset="0.77" style="stop-color:#F37885"/>
			<stop  offset="1" style="stop-color:#F26D7D"/>
		</linearGradient>
		<path id="XMLID_139_" class="st69" d="M42.66,35.61c-0.43,0.11-0.86,0.18-1.3,0.21c-0.39-0.04-0.78-0.11-1.16-0.21
			c-0.67-0.02-1.35,0-2.02,0.05c-0.04,0.06,2.99,0.62,3.26,0.62c0.36,0,3.12-0.5,3.25-0.57C44.83,35.64,42.77,35.57,42.66,35.61z"/>
		
			<linearGradient id="XMLID_284_" gradientUnits="userSpaceOnUse" x1="169.1768" y1="7.3552" x2="176.6295" y2="7.3552" gradientTransform="matrix(1 0 0 -1 -131.41 44.79)">
			<stop  offset="0" style="stop-color:#DBA879"/>
			<stop  offset="0.49" style="stop-color:#E4B686"/>
			<stop  offset="1" style="stop-color:#F1C999"/>
		</linearGradient>
		<path id="XMLID_138_" class="st70" d="M37.77,36.27c0.76,1.2,2.05,2.37,3.85,2.32c0.9-0.03,2.18-0.65,3.6-2.22
			C45.22,36.37,41.39,37.19,37.77,36.27z"/>
		<path id="XMLID_137_" class="st68" d="M41.45,36.51c-3.6-0.09-4.17-0.93-4.67-0.98c0.69,0.52,1.33,1.1,1.91,1.73
			c1.59,1.26,3.79,1.29,5.4,0.06c0.54-0.36,1.74-1.6,2.35-1.9C45.89,35.4,44.86,36.6,41.45,36.51z"/>
		
			<linearGradient id="XMLID_285_" gradientUnits="userSpaceOnUse" x1="172.6029" y1="6.5261" x2="172.7917" y2="8.1845" gradientTransform="matrix(1 0 0 -1 -131.41 44.79)">
			<stop  offset="0" style="stop-color:#F26E7F"/>
			<stop  offset="0.02" style="stop-color:#F26F80"/>
			<stop  offset="0.24" style="stop-color:#F37986"/>
			<stop  offset="0.53" style="stop-color:#F37C88"/>
			<stop  offset="0.77" style="stop-color:#F37885"/>
			<stop  offset="1" style="stop-color:#F26D7D"/>
		</linearGradient>
		<path id="XMLID_136_" class="st71" d="M41.22,36.54c-2.11-0.07-3.17-0.53-3.11-0.38c0.24,0.5,0.61,0.92,1.07,1.2
			c0.72,0.34,1.51,0.5,2.3,0.46c1.15,0,1.42-0.05,2.09-0.41c0.48-0.29,0.88-0.69,1.18-1.17C44.75,36.14,43.41,36.6,41.22,36.54z"/>
		<path id="XMLID_135_" class="st72" d="M41.58,36.95c-0.23,0.17,0.72,0.25,1.14,0.22c0.42-0.03,1.15-0.31,1.08-0.43
			S41.58,36.95,41.58,36.95z"/>
	</g>
</g>
</svg>
