<svg xmlns="http://www.w3.org/2000/svg" viewBox="0 0 32 30" width="32" height="30" xmlns:v="https://vecta.io/nano"><path d="M1 11.6l2.8-.3 5.8-.5c.6-.1 1.2-.1 1.8-.2a.55.55 0 0 0 .5-.3l4-9.4c0-.1.1-.1.1-.3.1.3.1.4.1.4l3.9 9.2c.1.3.3.4.6.5l5.8.5 4.3.4h.1s0 .1.1.1c-.1 0-.2.1-.2.1l-7.8 6.7c-.1.1-.2.2-.1.4l2.4 10.2v.1c-.3-.2-.6-.4-.9-.5l-8.2-4.9c-.1-.1-.2-.1-.4 0l-8.8 5.3c-.1 0-.2.1-.3.2.1-.3.1-.6.2-.9L9 18.9c0-.2 0-.3-.1-.4l-7.8-6.7c.1 0 0-.1-.1-.2zm20.6 12.6V24l-1.4-6c0-.2 0-.3.1-.4l4.6-3.9.2-.2c-.4 0-.7-.1-1-.1l-5.3-.5c-.2 0-.2-.1-.3-.2l-2.4-5.6c0-.1-.1-.1-.1-.2v13.7c0 .2.1.2.2.3l4.8 2.9c.2.2.4.3.6.4z" fill="#ffcd00"/></svg>