<?xml version="1.0" encoding="utf-8"?>
<!-- Generator: Adobe Illustrator 21.1.0, SVG Export Plug-In . SVG Version: 6.00 Build 0)  -->
<svg version="1.1" id="Layer_1" xmlns="http://www.w3.org/2000/svg" xmlns:xlink="http://www.w3.org/1999/xlink" x="0px" y="0px"
	 viewBox="0 0 200 200" style="enable-background:new 0 0 200 200;" xml:space="preserve">
<style type="text/css">
	.st0{fill:#DD001B;}
</style>
<g>
	<path class="st0" d="M101,4.2c53.4,0.1,96.6,43.3,96.5,96.8c-0.1,53.4-43.3,96.5-96.8,96.5c-53.4,0-96.5-43.3-96.5-96.8
		C4.2,47.2,47.5,4.1,101,4.2z M144.6,41C121.8,21.7,75.1,17.6,45,51.4c-28.4,31.9-20.3,75.5-3.9,93.1C75.6,110,110.1,75.5,144.6,41z
		 M161.5,57.7c-34.6,34.6-69.2,69.1-103.6,103.6c21.3,17.4,63.1,22.1,93.4-5.5C179,130.6,183.6,85.5,161.5,57.7z"/>
</g>
</svg>
