<?xml version="1.0" encoding="utf-8"?>
<!-- Generator: Adobe Illustrator 22.1.0, SVG Export Plug-In . SVG Version: 6.00 Build 0)  -->
<svg version="1.1" baseProfile="tiny" id="Layer_1" xmlns="http://www.w3.org/2000/svg" xmlns:xlink="http://www.w3.org/1999/xlink"
	 x="0px" y="0px" viewBox="0 0 353 349" xml:space="preserve">
<g>
	<circle fill="#FFFFFF" cx="178.9" cy="176.8" r="160.6"/>
	<g>
		<g>
			<g>
				<path d="M178.3,343.7c-93.5,0-169.5-76-169.5-169.5S84.8,4.7,178.3,4.7c93.5,0,169.5,76,169.5,169.5S271.8,343.7,178.3,343.7z
					 M178.3,26.7C97,26.7,30.8,92.9,30.8,174.2S97,321.7,178.3,321.7s147.5-66.2,147.5-147.5S259.6,26.7,178.3,26.7z"/>
			</g>
			<g>
				<g>
					<path d="M223.6,158.5h93.9c-2.9-25-12.4-48-26.8-67.2L223.6,158.5z"/>
				</g>
				<g>
					<path d="M144.6,158.5L71.7,85.6c-16.9,20.3-28.1,45.4-31.3,72.9H144.6z"/>
				</g>
				<g>
					<path d="M200.5,36.9v98.4l67.8-67.8C249.2,51.8,226,40.9,200.5,36.9z"/>
				</g>
				<g>
					<path d="M144.6,191.2H40.4c3.2,27.6,14.4,52.7,31.3,72.9L144.6,191.2z"/>
				</g>
				<g>
					<path d="M167.7,135.3V35.8c-27,2.1-51.8,11.9-72.3,27.3L167.7,135.3z"/>
				</g>
				<g>
					<path d="M223.6,191.2l67.2,67.2c14.3-19.2,23.8-42.2,26.8-67.2H223.6z"/>
				</g>
				<g>
					<path d="M200.5,214.3v98.4c25.5-4,48.8-14.8,67.8-30.6L200.5,214.3z"/>
				</g>
				<g>
					<path d="M167.7,214.3l-72.3,72.3c20.5,15.3,45.3,25.1,72.3,27.3V214.3z"/>
				</g>
			</g>
			<g>
				<circle fill="#FFFFFF" cx="178.9" cy="176.8" r="110.7"/>
			</g>
			<g>
				<path d="M179.2,296.8c-66.1,0-120-53.8-120-120s53.8-120,120-120s120,53.8,120,120S245.3,296.8,179.2,296.8z M179.2,71.5
					c-58,0-105.3,47.2-105.3,105.3s47.2,105.3,105.3,105.3s105.3-47.2,105.3-105.3S237.2,71.5,179.2,71.5z"/>
			</g>
		</g>
	</g>
	<g>
		<g>
			<path fill="#FFCE06" d="M151.2,131c0,0,23.3-6.9,49.3,2.8c5.4,2-21.6-9.3-46.5,2"/>
		</g>
		<g>
			<path fill="#FECD0A" d="M201.9,133.1l1.8-2.9l15.4-26.9l-22.4,6.9l0.4,8.1l-7.1-2.1l-7.1-2.2l4.2-5.7l-10-25.1l-9.8,25.1l4.2,5.7
				l-7.1,2.2l-7.1,2.1l0.4-8l-22.4-6.8l15.1,26.1C153,128.8,176,123.7,201.9,133.1z"/>
		</g>
	</g>
	<g>
		<path d="M173.3,186.8c0,10.2-6.1,15.2-18.3,15.2h-16.9v-57h15.1c6.1,0,10.8,1.3,14.1,3.9c3.3,2.6,5,6.3,5,10.9c0,5.6-2.7,9.9-8,13
			C170.3,175.6,173.3,180.2,173.3,186.8z M160.7,161c0-5.1-2.5-7.7-7.5-7.7h-3.7v15.5h4.6C158.5,168.8,160.7,166.2,160.7,161z
			 M161.5,185.7c0-2.7-0.5-4.8-1.5-6.1c-1.3-1.7-3.6-2.6-6.9-2.6h-3.7v16.8h4.9C159.1,193.9,161.5,191.1,161.5,185.7z"/>
		<path d="M216.4,187.7c0,4.7-1.4,8.4-4.1,11.1c-3,3-7.5,4.5-13.5,4.5c-11.7,0-17.5-5.3-17.5-15.8v-29.2c0-4.4,1.6-7.9,4.7-10.5
			c3.1-2.6,7.5-3.9,13.2-3.9c5.5,0,9.8,1.4,12.9,4.2c2.9,2.6,4.3,6.1,4.3,10.4v5.5h-11.7c0-0.5,0.1-1.3,0.1-2.4
			c0.1-1,0.1-1.8,0.1-2.4c0-5-2-7.4-6.1-7.4c-3.9,0-5.9,2-5.9,5.9v31.8c0,4,2,5.9,5.9,5.9c3.9,0,5.9-2,5.9-5.9v-7.8h11.7V187.7z"/>
	</g>
	<text transform="matrix(1 0 0 1 101.7359 234.2504)" font-family="'Exo-Black'" font-size="29.9641px">A</text>
	<text transform="matrix(1 0 0 1 122.4708 234.2504)" font-family="'Exo-Black'" font-size="29.9641px">P</text>
	<text transform="matrix(1 0 0 1 141.4376 234.2504)" font-family="'Exo-Black'" font-size="29.9641px">P</text>
	<text transform="matrix(1 0 0 1 160.4048 234.2504)" font-family="'Exo-Black'" font-size="29.9641px">R</text>
	<text transform="matrix(1 0 0 1 179.5821 234.2504)" font-family="'Exo-Black'" font-size="29.9641px">O</text>
	<text transform="matrix(1 0 0 1 200.3467 234.2504)" font-family="'Exo-Black'" font-size="29.9641px">V</text>
	<text transform="matrix(1 0 0 1 220.3326 234.2504)" font-family="'Exo-Black'" font-size="29.9641px">E</text>
	<text transform="matrix(1 0 0 1 238.4307 234.2504)" font-family="'Exo-Black'" font-size="29.9641px">D</text>
</g>
</svg>
