<?xml version="1.0" encoding="utf-8"?>
<!-- Generator: Adobe Illustrator 23.0.1, SVG Export Plug-In . SVG Version: 6.00 Build 0)  -->
<svg version="1.1" id="Layer_1" xmlns="http://www.w3.org/2000/svg" xmlns:xlink="http://www.w3.org/1999/xlink" x="0px" y="0px"
	 viewBox="0 0 26 24.7" style="enable-background:new 0 0 26 24.7;" xml:space="preserve">
<style type="text/css">
	.st0{fill:#FFB500;}
</style>
<path class="st0" d="M13,3.4l2.7,5.4L16,9.5l0.8,0.1l6,0.9l-4.3,4.2l-0.6,0.6L18,16l1,5.9l-5.4-2.8L13,18.7l-0.7,0.4L7,21.9L8,16
	l0.1-0.8l-0.6-0.6l-4.3-4.2l6-0.9L10,9.5l0.4-0.7L13,3.4 M13,0L9,8.1L0,9.4l6.5,6.3L5,24.7l8-4.2l8,4.2l-1.5-8.9L26,9.4l-9-1.3
	C17,8.1,13,0,13,0z"/>
</svg>
