<?xml version="1.0" encoding="utf-8"?>
<!-- Generator: Adobe Illustrator 19.0.0, SVG Export Plug-In . SVG Version: 6.00 Build 0)  -->
<svg version="1.1" id="Layer_1" xmlns="http://www.w3.org/2000/svg" xmlns:xlink="http://www.w3.org/1999/xlink" x="0px" y="0px"
	 viewBox="218 23 496 496" style="enable-background:new 218 23 496 496;" xml:space="preserve">
<style type="text/css">
	.st0{fill:#E6E9ED;}
	.st1{fill:#B4DD7F;}
	.st2{fill:#F0D0B4;}
	.st3{fill:#FCD770;}
</style>
<path class="st0" d="M408.5,398h116.4v31.7H408.5V398z"/>
<path class="st1" d="M535.4,376.8V398H397.9v-21.2H535.4z"/>
<path class="st2" d="M424.3,260.4h116.4v46.3c0,14.3-5.7,28.1-15.9,38.3v31.7H408.5v-21.2c-5.1-5.1-9-11.1-11.7-17.6
	c-2.7-6.6-4.1-13.5-4.1-20.7v-78.1c0-5.8,4.8-10.6,10.6-10.6c5.8,0,11.1,2.4,15,6.2c3.8,3.9,6.2,9.2,6.2,15V260.4z"/>
<path class="st0" d="M625.4,207.5v52.9h-52.9V112.3h52.9v52.9c-11.7,0-21.2,9.5-21.2,21.2S613.7,207.5,625.4,207.5z"/>
<path class="st0" d="M360.8,239.3v21.2h-52.9v-52.9c11.7,0,21.2-9.5,21.2-21.2s-9.5-21.2-21.2-21.2v-52.9h52.9V239.3z"/>
<path class="st3" d="M572.5,239.3v21.2H424.3v-10.6c0-5.8-2.4-11.1-6.2-15c-3.9-3.8-9.2-6.2-15-6.2c-5.8,0-10.6,4.8-10.6,10.6v21.2
	h-31.7V112.3h211.6V239.3z"/>
<path class="st1" d="M519.5,186.4c0,29.2-23.7,52.9-52.9,52.9c-29.2,0-52.9-23.7-52.9-52.9s23.7-52.9,52.9-52.9
	C495.9,133.5,519.5,157.1,519.5,186.4z"/>
<path d="M625.4,170.5h5.3V107h-328v63.5h5.3c8.7,0,15.9,7.1,15.9,15.9c0,8.7-7.1,15.9-15.9,15.9h-5.3v63.5h84.6v51.6
	c0,15.1,5.6,29.4,15.9,40.4v13.7h-10.6v31.7h10.6V435h127v-31.7h10.6v-31.7h-10.6v-24.3c10.3-11,15.9-25.3,15.9-40.4v-41h84.6v-63.5
	h-5.3c-8.7,0-15.9-7.1-15.9-15.9C609.5,177.6,616.6,170.5,625.4,170.5z M519.5,424.4H413.7v-21.2h105.8V424.4z M530.1,392.7h-127
	v-10.6h127V392.7z M535.4,306.7c0,13.1-5.1,25.3-14.3,34.6l-1.5,1.5v28.6H413.7v-18.1l-1.5-1.5c-9.2-9.2-14.3-21.5-14.3-34.6v-78.1
	c0-2.9,2.4-5.3,5.3-5.3c8.7,0,15.9,7.1,15.9,15.9v34.4l2.1,1.6c11.9,8.9,19,23.2,19,38.1h10.6c0-17.3-7.9-33.9-21.2-44.9v-13.3
	h105.8V306.7z M620.1,212.3v42.9h-42.3v-15.9h-10.6v15.9H429.6v-5.3c0-14.6-11.9-26.5-26.5-26.5c-8.7,0-15.9,7.1-15.9,15.9v15.9
	h-21.2v-15.9h-10.6v15.9h-42.3v-42.9c12.1-2.5,21.2-13.1,21.2-25.9s-9.1-23.5-21.2-25.9v-42.9h42.3v15.9h10.6v-15.9h201v15.9h10.6
	v-15.9h42.3v42.9c-12.1,2.5-21.2,13.1-21.2,25.9C598.9,199.1,608,209.8,620.1,212.3z"/>
<path d="M466.6,128.2c-32.1,0-58.2,26.1-58.2,58.2s26.1,58.2,58.2,58.2s58.2-26.1,58.2-58.2S498.7,128.2,466.6,128.2z M466.6,234
	c-26.3,0-47.6-21.4-47.6-47.6s21.4-47.6,47.6-47.6s47.6,21.4,47.6,47.6S492.9,234,466.6,234z"/>
<path d="M447.8,166.1l5.9,8.8l12.9-8.6v46.5h10.6v-58.2H465L447.8,166.1z"/>
<path d="M355.5,144h10.6v21.2h-10.6V144z"/>
<path d="M355.5,175.8h10.6v21.2h-10.6V175.8z"/>
<path d="M355.5,207.5h10.6v21.2h-10.6V207.5z"/>
<path d="M567.2,144h10.6v21.2h-10.6V144z"/>
<path d="M567.2,175.8h10.6v21.2h-10.6V175.8z"/>
<path d="M567.2,207.5h10.6v21.2h-10.6V207.5z"/>
<path d="M588.3,313.3h10.6v10.6h-10.6V313.3z"/>
<path d="M588.3,334.5h10.6v10.6h-10.6V334.5z"/>
<path d="M598.9,323.9h10.6v10.6h-10.6V323.9z"/>
<path d="M577.7,323.9h10.6v10.6h-10.6V323.9z"/>
<path d="M339.7,276.3h10.6v10.6h-10.6V276.3z"/>
<path d="M339.7,297.5h10.6V308h-10.6V297.5z"/>
<path d="M350.3,286.9h10.6v10.6h-10.6V286.9z"/>
<path d="M329.1,286.9h10.6v10.6h-10.6V286.9z"/>
<path d="M323.8,392.7h10.6v10.6h-10.6V392.7z"/>
<path d="M323.8,413.8h10.6v10.6h-10.6V413.8z"/>
<path d="M334.4,403.3H345v10.6h-10.6V403.3z"/>
<path d="M313.2,403.3h10.6v10.6h-10.6V403.3z"/>
<path d="M561.9,392.7h10.6v10.6h-10.6V392.7z"/>
<path d="M561.9,413.8h10.6v10.6h-10.6V413.8z"/>
<path d="M572.5,403.3H583v10.6h-10.6V403.3z"/>
<path d="M551.3,403.3h10.6v10.6h-10.6V403.3z"/>
</svg>
