<svg xmlns="http://www.w3.org/2000/svg" xmlns:xlink="http://www.w3.org/1999/xlink" viewBox="0 0 113.8 150"><path d="M113.1 12.6v123.8c0 7.2-4.5 13.1-9.9 13.1H9.3c-5.5 0-10-5.9-10-13.1V12.6C-.7 5.3 3.8-.5 9.3-.5h93.9c3.3 0 6.3 2.2 8.1 5.5h.2v.4c1.1 2.3 1.6 4.7 1.6 7.2zm-2 123.8V12.6c0-2.3-.5-4.4-1.4-6.3v-.1l-.2-.3c-1.5-2.8-3.9-4.4-6.3-4.4H9.3c-4.4 0-8 5-8 11.1v123.8c0 6.1 3.6 11.1 8 11.1h93.9c4.4 0 7.9-5 7.9-11.1z" fill="#ffcd00"/><path d="M111.1 12.6v123.8c0 6.1-3.6 11.1-7.9 11.1H9.3c-4.4 0-8-5-8-11.1V12.6c0-6.1 3.6-11.1 8-11.1h93.9c2.4 0 4.8 1.7 6.3 4.4l.2.3v.1c.9 1.9 1.4 4.1 1.4 6.3z" fill="#f5f5f5"/><g fill="#212d33"><path d="M17.8 18.5h72.4c.6 0 6-.2 6 .2v111.2c0 .2.1.9-.1.9H18.4c-1 0-.5-2.6-.5-3.3V22c-.1-1.2-.1-2.3-.1-3.5" stroke="#153141" stroke-width=".027" stroke-miterlimit="10"/><use xlink:href="#B"/><use xlink:href="#C"/><use xlink:href="#D"/><use xlink:href="#E"/><use xlink:href="#F"/><use xlink:href="#G"/><use xlink:href="#B" x="17.3"/><use xlink:href="#C" x="17.3"/><path d="M58.1 12.7c1.2-.5 2.6-1 3.7-1.8 1-.7 2.5-2.8 1.6-4.1S60.6 7 60 7.9c-.9 1.3-1.3 3-1.8 4.5-.1.1-.1.2-.1.3"/><use xlink:href="#E" x="17.3"/><path d="M61.2 12.9c1-.3 2.3-.2 2.9.7.3.5.4 2.4-.7 2.1-.2-.1-.3-.9-.6-1.1-.4-.4-1.3-.4-1.8-.4-.7-.1-1.5 0-2.2-.1.7-.5 1.6-1 2.4-1.2"/><use xlink:href="#G" x="17.3"/><path d="M75.4 12.7L74 8.9c-.3-1.2-.6-4.1 1-4.6 1.5-.5 2 2.1 2 3.1 0 1.5-.8 3.1-1.3 4.5-.1.2-.2.5-.3.8"/><use xlink:href="#H"/><use xlink:href="#D" x="34.6"/><use xlink:href="#E" x="34.6"/><use xlink:href="#F" x="34.6"/><use xlink:href="#G" x="34.6"/><use xlink:href="#B" x="-17.3"/><path d="M23.4 12.7c-1.2-.5-2.6-1-3.7-1.8-1-.7-2.5-2.8-1.6-4.1s2.8.2 3.4 1.1c.9 1.3 1.3 3 1.8 4.4.1.1.1.3.1.4m.1 0c1.2-.5 2.6-1 3.7-1.8 1-.7 2.5-2.8 1.6-4.1S26 7 25.4 7.9c-.9 1.3-1.3 3-1.8 4.4-.1.1-.1.3-.1.4m-3.2.2c-1-.3-2.3-.2-2.9.7-.4.5-.4 2.4.6 2.1.2-.1.3-.9.6-1.1.4-.4 1.3-.4 1.8-.4.7-.1 1.5 0 2.2-.1-.7-.5-1.5-1-2.3-1.2"/><use xlink:href="#F" x="-17.3"/><use xlink:href="#G" x="-17.3"/><use xlink:href="#I"/><use xlink:href="#J"/><use xlink:href="#K"/><use xlink:href="#L"/><use xlink:href="#M"/><use xlink:href="#N"/><use xlink:href="#I" x="17.3"/><path d="M57.9 136.7c-1.2.5-2.6 1-3.7 1.8-1 .7-2.5 2.8-1.6 4.1s2.8-.2 3.4-1.1c.9-1.3 1.3-3 1.8-4.5 0-.1.1-.2.1-.3"/><use xlink:href="#K" x="17.3"/><path d="M54.7 136.5c-1 .3-2.2.2-2.9-.7-.3-.5-.4-2.4.7-2.1.2.1.3.9.6 1.1.4.4 1.3.4 1.8.4.7.1 1.5 0 2.2.1-.7.5-1.6 1-2.4 1.2m6.3 0c1 .3 2.2.2 2.9-.7.3-.5.4-2.4-.7-2.1-.2.1-.3.9-.6 1.1-.4.4-1.3.4-1.8.4-.7.1-1.5 0-2.2.1.8.5 1.6 1 2.4 1.2"/><use xlink:href="#N" x="17.3"/><use xlink:href="#I" x="34.6"/><use xlink:href="#O"/><use xlink:href="#P"/><use xlink:href="#L" x="34.6"/><use xlink:href="#M" x="34.6"/><use xlink:href="#N" x="34.6"/><path d="M91.4 12.7L90 8.9c-.3-1.2-.6-4.1 1-4.6 1.5-.5 2 2.1 2 3.1 0 1.5-.8 3.1-1.3 4.5-.1.2-.2.5-.3.8"/><use xlink:href="#H" x="16"/><use xlink:href="#D" x="50.6"/><use xlink:href="#E" x="50.6"/><use xlink:href="#F" x="50.6"/><use xlink:href="#G" x="50.6"/><use xlink:href="#I" x="50.6"/><use xlink:href="#O" x="16"/><use xlink:href="#P" x="16"/><use xlink:href="#L" x="50.6"/><use xlink:href="#M" x="50.6"/><use xlink:href="#N" x="50.6"/><use xlink:href="#I" x="-17.3"/><use xlink:href="#J" x="-17.3"/><use xlink:href="#K" x="-17.3"/><use xlink:href="#L" x="-17.3"/><use xlink:href="#M" x="-17.3"/><path d="M22.4 133.7c.1-1.3 2.3-.6 1.3 1.1-.7 1.2-1.1.1-1.3-1.1"/><use xlink:href="#Q"/><use xlink:href="#R"/><use xlink:href="#S"/><use xlink:href="#T"/><use xlink:href="#U"/><path d="M99.6 139.6c-1.1-.3-.6-2.7.9-1.5 1 .7.3 1.3-.9 1.5m2.6-22.1c1.2.6 2.5 1.4 3.8 1.8 1.2.3 3.4 0 3.6-1.6.2-1.5-1.9-2.2-3.1-2.1-1.4.2-2.9 1.1-4.2 1.8 0 .1-.1.1-.1.1"/><use xlink:href="#R" y="-21"/><path d="M102.2 117.6c.5-1.6 2.1-7.8 4.9-6.3 1.4.7.3 3-.5 3.8-1 1.1-2.7 1.7-4.1 2.3-.1 0-.2.1-.3.2"/><use xlink:href="#V"/><use xlink:href="#U" y="-21"/><path d="M99.6 118.5c-1.1-.3-.6-2.7.9-1.5 1 .8.3 1.3-.9 1.5"/><use xlink:href="#W"/><use xlink:href="#X"/><path d="M102.2 96.5c.5-1.6 2.1-7.8 4.9-6.3 1.4.7.3 3-.5 3.8-1 1.1-2.7 1.7-4.1 2.3-.1.1-.2.2-.3.2"/><use xlink:href="#V" y="-21"/><use xlink:href="#Y"/><path d="M99.6 97.5c-1.1-.3-.6-2.7.9-1.5 1 .8.3 1.3-.9 1.5"/><use xlink:href="#W" y="-42"/><use xlink:href="#X" y="-42"/><use xlink:href="#S" y="-84.1"/><path d="M102 58.2c.2 1 .3 2.6-.6 3.3-.6.5-2.1.3-1.8-.8.1-.2.8-.5 1-.7.3-.5.3-1.5.3-2.1 0-.8-.1-1.6.1-2.4.5.8.8 1.8 1 2.7"/><use xlink:href="#Y" y="-42"/><path d="M99.6 55.5c-1.1-.3-.6-2.7.9-1.5 1 .7.3 1.3-.9 1.5m2.6-22c1.2.6 2.5 1.4 3.8 1.7 1.2.3 3.4 0 3.6-1.6.2-1.5-1.9-2.2-3.1-2.1-1.4.2-2.9 1.1-4.2 1.8 0 .1-.1.2-.1.2"/><use xlink:href="#R" y="-105.1"/><use xlink:href="#S" y="-105.1"/><use xlink:href="#T" y="-105.1"/><use xlink:href="#Y" y="-63"/><path d="M99.6 34.5c-1.1-.3-.6-2.7.9-1.5 1 .7.3 1.3-.9 1.5"/><use xlink:href="#Q" y="-126.1"/><use xlink:href="#R" y="-126.1"/><use xlink:href="#S" y="-126.1"/><use xlink:href="#V" y="-105.1"/><path d="M102 8.8c.2-1 .3-2.6-.6-3.3-.6-.5-2.1-.3-1.8.8.1.2.8.4 1 .7.4.5.3 1.5.3 2.1l.1 2.5c.5-.8.8-1.8 1-2.8m-2.4 4.7c-1.1-.3-.6-2.7.9-1.5 1 .7.3 1.2-.9 1.5"/><use xlink:href="#W" y="-21"/><use xlink:href="#X" y="-21"/><path d="M102.2 75.5c.5-1.6 2.1-7.8 4.9-6.3 1.4.7.3 3-.5 3.8-1 1.1-2.7 1.7-4.1 2.3-.1.1-.2.2-.3.2"/><use xlink:href="#V" y="-42"/><use xlink:href="#Y" y="-21"/><path d="M99.6 76.5c-1.1-.3-.6-2.7.9-1.5 1 .8.3 1.3-.9 1.5"/><use xlink:href="#Z"/><use xlink:href="#a"/><use xlink:href="#b"/><use xlink:href="#c"/><use xlink:href="#d"/><use xlink:href="#e"/><path d="M11.6 117.5c-1.2.6-2.4 1.4-3.8 1.8-1.2.3-3.4 0-3.6-1.6-.2-1.5 1.9-2.2 3.1-2.1 1.4.2 2.9 1.1 4.2 1.8 0 .1 0 .1.1.1"/><use xlink:href="#a" y="-21"/><path d="M11.6 117.6c-.5-1.6-2.1-7.8-4.9-6.3-1.4.7-.3 3 .5 3.8 1 1.1 2.7 1.7 4.1 2.3.1.1.2.1.3.2"/><use xlink:href="#f"/><use xlink:href="#d" y="-21"/><path d="M14.1 118.5c1.1-.3.6-2.7-.9-1.5-1 .8-.2 1.3.9 1.5"/><use xlink:href="#g"/><use xlink:href="#h"/><path d="M11.6 96.5c-.5-1.6-2.1-7.8-4.9-6.3-1.4.7-.3 3 .5 3.8 1 1.1 2.7 1.7 4.1 2.3 0 .1.2.2.3.2"/><use xlink:href="#f" y="-21"/><use xlink:href="#i"/><path d="M14.1 97.5c1.1-.3.6-2.7-.9-1.5-1 .8-.2 1.3.9 1.5"/><use xlink:href="#g" y="-42"/><use xlink:href="#h" y="-42"/><use xlink:href="#b" y="-84.1"/><path d="M11.7 58.2c-.2 1-.3 2.6.6 3.3.6.5 2.1.3 1.8-.8-.1-.2-.8-.5-1-.7-.3-.5-.3-1.5-.3-2.1 0-.8.1-1.6-.1-2.4-.4.8-.8 1.8-1 2.7"/><use xlink:href="#i" y="-42"/><use xlink:href="#e" y="-84.1"/><path d="M11.6 33.5c-1.2.6-2.4 1.4-3.8 1.7-1.2.3-3.4 0-3.6-1.6-.2-1.5 1.9-2.2 3.1-2.1 1.4.2 2.9 1.1 4.2 1.8 0 .1 0 .2.1.2"/><use xlink:href="#a" y="-105.1"/><use xlink:href="#b" y="-105.1"/><use xlink:href="#c" y="-105.1"/><use xlink:href="#i" y="-63"/><use xlink:href="#e" y="-105.1"/><use xlink:href="#Z" y="-126.1"/><use xlink:href="#a" y="-126.1"/><use xlink:href="#b" y="-126.1"/><use xlink:href="#f" y="-105.1"/><path d="M11.7 8.8c-.2-1-.3-2.6.6-3.3.7-.5 2.2-.3 1.8.8-.1.2-.8.4-1 .7-.4.5-.3 1.5-.3 2.1l-.1 2.5c-.4-.8-.8-1.8-1-2.8"/><use xlink:href="#e" y="-126.1"/><use xlink:href="#g" y="-21"/><use xlink:href="#h" y="-21"/><path d="M11.6 75.5c-.5-1.6-2.1-7.8-4.9-6.3-1.4.7-.3 3 .5 3.8 1 1.1 2.7 1.7 4.1 2.3 0 .1.2.2.3.2"/><use xlink:href="#f" y="-42"/><use xlink:href="#i" y="-21"/><path d="M14.1 76.5c1.1-.3.6-2.7-.9-1.5-1 .8-.2 1.3.9 1.5"/></g><g fill="#fff"><path d="M56.9 101.5c-14.6 0-26.5-11.9-26.5-26.5s11.9-26.5 26.5-26.5S83.4 60.4 83.4 75s-11.9 26.5-26.5 26.5zm0-49.5c-12.7 0-23 10.3-23 23s10.3 23 23 23 23-10.3 23-23-10.3-23-23-23zM64 72.5h14.7c-.5-3.9-1.9-7.5-4.2-10.5L64 72.5zm-12.4 0L40.2 61.2c-2.6 3.2-4.4 7.1-4.9 11.4h16.3zm8.8-18.9V69L71 58.4c-3-2.5-6.6-4.2-10.6-4.8zm-8.8 24.1H35.3c.5 4.3 2.3 8.2 4.9 11.4l11.4-11.4zm3.6-8.8V53.4c-4.2.3-8.1 1.9-11.3 4.3l11.3 11.2zm8.8 8.8l10.5 10.5c2.2-3 3.7-6.6 4.2-10.5H64zm-3.6 3.6v15.4c4-.6 7.6-2.3 10.6-4.8L60.4 81.3zm-5.2 0L43.9 92.6c3.2 2.4 7.1 3.9 11.3 4.3V81.3z"/><circle cx="57" cy="75.4" r="17.3"/></g><path d="M57 94.2c-10.3 0-18.7-8.4-18.7-18.7S46.7 56.7 57 56.7s18.7 8.4 18.7 18.7S67.4 94.2 57 94.2zM57 59c-9.1 0-16.4 7.4-16.4 16.4S48 91.9 57 91.9s16.4-7.4 16.4-16.4S66.1 59 57 59z" fill="#231f20"/><path d="M50.9 70.5s5.5-1.6 11.6.7c1.3.5-5.1-2.2-10.9.5" fill="#ffcd03"/><path d="M62.8 71l4-7-5.3 1.6.1 1.9L60 67l-1.7-.5 1-1.3-2.3-5.9-2.3 5.9 1 1.3-3.4 1 .1-1.9-5.2-1.6 3.5 6.1c.6-.1 6-1.3 12.1.9z" fill="#fdcd08"/><path d="M56.2 83c0 2.4-1.4 3.6-4.3 3.6h-4V73.2h3.6c1.4 0 2.5.3 3.3.9s1.2 1.5 1.2 2.6c0 1.3-.6 2.3-1.9 3.1 1.4.5 2.1 1.6 2.1 3.2zm-3-6.1c0-1.2-.6-1.8-1.8-1.8h-.9v3.6h1.1c1.1.1 1.6-.6 1.6-1.8zm.2 5.8c0-.6-.1-1.1-.3-1.4-.3-.4-.8-.6-1.6-.6h-.9v3.9h1.2c1.1 0 1.6-.6 1.6-1.9zm12.9.5c0 1.1-.3 2-1 2.6-.7.7-1.8 1.1-3.2 1.1-2.7 0-4.1-1.2-4.1-3.7v-6.9c0-1 .4-1.9 1.1-2.5s1.8-.9 3.1-.9 2.3.3 3 1c.7.6 1 1.4 1 2.4v1.3h-2.8v-1.2c0-1.2-.5-1.8-1.4-1.8s-1.4.5-1.4 1.4v7.5c0 .9.5 1.4 1.4 1.4s1.4-.5 1.4-1.4v-1.8h2.8v1.5z" fill="#231f20"/><defs ><path id="B" d="M40.8 12.7l-1.4-3.8c-.3-1.2-.6-4.1 1-4.6 1.5-.5 2 2.1 2 3.1 0 1.5-.8 3.1-1.3 4.5-.1.2-.2.5-.3.8"/><path id="C" d="M40.8 12.7c-1.2-.5-2.6-1-3.7-1.8-1-.7-2.5-2.8-1.6-4.1s2.8.2 3.4 1.1c.9 1.3 1.3 3 1.8 4.4 0 .1 0 .3.1.4"/><path id="D" d="M40.8 12.7c1.2-.5 2.6-1 3.7-1.8 1-.7 2.5-2.8 1.6-4.1s-2.8.2-3.4 1.1c-.9 1.3-1.3 3-1.8 4.5-.1.1-.1.2-.1.3"/><path id="E" d="M37.6 12.9c-1-.3-2.3-.2-2.9.7-.3.5-.4 2.4.7 2.1.2-.1.3-.9.6-1.1.4-.4 1.3-.4 1.8-.4.7-.1 1.5 0 2.2-.1-.8-.6-1.6-1-2.4-1.2"/><path id="F" d="M43.9 12.9c1-.3 2.3-.2 2.9.7.3.5.4 2.4-.7 2.1-.2-.1-.3-.9-.6-1.1-.4-.4-1.3-.4-1.8-.4-.7-.1-1.5 0-2.2-.1.7-.6 1.6-1 2.4-1.2"/><path id="G" d="M39.9 15.7c.1 1.3 2.3.6 1.3-1.1-.7-1.2-1.2-.1-1.3 1.1"/><path id="H" d="M75.4 12.7c-1.2-.5-2.6-1-3.7-1.8-1-.7-2.5-2.8-1.6-4.1s2.8.2 3.4 1.1c.9 1.3 1.3 3 1.8 4.5 0 .1 0 .2.1.3"/><path id="I" d="M40.6 136.7l-1.4 3.8c-.3 1.2-.6 4.1 1 4.6 1.5.5 2-2.1 2-3.1 0-1.5-.8-3.1-1.3-4.5-.1-.2-.2-.5-.3-.8"/><path id="J" d="M40.6 136.7c-1.2.5-2.6 1-3.7 1.8-1 .7-2.5 2.8-1.6 4.1s2.8-.2 3.4-1.1c.9-1.3 1.3-3 1.8-4.4 0-.1 0-.3.1-.4"/><path id="K" d="M40.6 136.7c1.2.5 2.6 1 3.7 1.8 1 .7 2.5 2.8 1.6 4.1s-2.8-.2-3.4-1.1c-.9-1.3-1.3-3-1.8-4.5 0-.1-.1-.2-.1-.3"/><path id="L" d="M37.4 136.5c-1 .3-2.3.2-2.9-.7-.3-.5-.4-2.4.7-2.1.2.1.3.9.6 1.1.4.4 1.3.4 1.8.4.7.1 1.5 0 2.2.1-.7.5-1.6 1-2.4 1.2"/><path id="M" d="M43.7 136.5c1 .3 2.3.2 2.9-.7.3-.5.4-2.4-.7-2.1-.2.1-.3.9-.6 1.1-.4.4-1.3.4-1.8.4-.7.1-1.5 0-2.2.1.8.5 1.6 1 2.4 1.2"/><path id="N" d="M39.8 133.7c.1-1.3 2.3-.6 1.3 1.1-.8 1.2-1.2.1-1.3-1.1"/><path id="O" d="M75.2 136.7c-1.2.5-2.6 1-3.7 1.8-1 .7-2.5 2.8-1.6 4.1s2.8-.2 3.4-1.1c.9-1.3 1.3-3 1.8-4.4 0-.1.1-.3.1-.4"/><path id="P" d="M75.2 136.7c1.2.5 2.6 1 3.7 1.8 1 .7 2.5 2.8 1.6 4.1s-2.8-.2-3.4-1.1c-.9-1.3-1.3-3-1.8-4.4 0-.1 0-.3-.1-.4"/><path id="Q" d="M102.2 138.6c1.2.6 2.5 1.4 3.8 1.7 1.2.3 3.4 0 3.6-1.6.2-1.5-1.9-2.2-3.1-2.1-1.4.2-2.9 1.1-4.2 1.8 0 .1-.1.1-.1.2"/><path id="R" d="M102.2 138.6c.5 1.6 2.1 7.8 4.9 6.3 1.4-.7.3-3-.5-3.8-1-1.1-2.7-1.7-4.1-2.3-.1-.1-.2-.2-.3-.2"/><path id="S" d="M102.2 138.6c.5-1.6 2.1-7.8 4.9-6.3 1.4.7.3 3-.5 3.8-1 1.1-2.7 1.7-4.1 2.3-.1.1-.2.1-.3.2"/><path id="T" d="M102 142.3c.2 1 .3 2.6-.6 3.3-.6.5-2.1.3-1.8-.8.1-.2.8-.4 1-.7.4-.5.3-1.5.3-2.1l.1-2.5c.5.9.8 1.8 1 2.8"/><path id="U" d="M102 134.9c.2-1 .3-2.6-.6-3.3-.6-.5-2.1-.3-1.8.8.1.2.8.4 1 .7.4.5.3 1.5.3 2.1l.1 2.5c.5-.9.8-1.8 1-2.8"/><path id="V" d="M102 121.2c.2 1 .3 2.6-.6 3.3-.6.5-2.1.3-1.8-.8.1-.2.8-.4 1-.7.4-.5.3-1.5.3-2.1l.1-2.5c.5.9.8 1.9 1 2.8"/><path id="W" d="M102.2 96.5c1.2.6 2.5 1.4 3.8 1.7 1.2.3 3.4 0 3.6-1.6.2-1.5-1.9-2.2-3.1-2.1-1.4.2-2.9 1.1-4.2 1.8 0 .2-.1.2-.1.2"/><path id="X" d="M102.2 96.5c.5 1.6 2.1 7.8 4.9 6.3 1.4-.7.3-3-.5-3.8-1-1.1-2.7-1.7-4.1-2.3-.1-.1-.2-.1-.3-.2"/><path id="Y" d="M102 92.9c.2-1 .3-2.6-.6-3.3-.6-.5-2.1-.3-1.8.8.1.2.8.4 1 .7.4.5.3 1.5.3 2.1l.1 2.5c.5-.9.8-1.9 1-2.8"/><path id="Z" d="M11.6 138.6c-1.2.6-2.5 1.4-3.8 1.7-1.2.3-3.4 0-3.6-1.6-.2-1.5 1.9-2.2 3.1-2.1 1.4.2 2.9 1.1 4.2 1.8 0 .1 0 .1.1.2"/><path id="a" d="M11.6 138.6c-.5 1.6-2.1 7.8-4.9 6.3-1.4-.7-.3-3 .5-3.8 1-1.1 2.7-1.7 4.1-2.3 0-.1.2-.2.3-.2"/><path id="b" d="M11.6 138.6c-.5-1.6-2.1-7.8-4.9-6.3-1.4.7-.3 3 .5 3.8 1 1.1 2.7 1.7 4.1 2.3 0 .1.2.1.3.2"/><path id="c" d="M11.7 142.3c-.2 1-.3 2.6.6 3.3.6.5 2.1.3 1.8-.8-.1-.2-.8-.4-1-.7-.4-.5-.3-1.5-.3-2.1l-.1-2.5c-.4.9-.8 1.8-1 2.8"/><path id="d" d="M11.7 134.9c-.2-1-.3-2.6.6-3.3.6-.5 2.1-.3 1.8.8-.1.2-.8.4-1 .7-.4.5-.3 1.5-.3 2.1l-.1 2.5c-.4-.9-.8-1.8-1-2.8"/><path id="e" d="M14.1 139.6c1.1-.3.6-2.7-.9-1.5-1 .7-.2 1.3.9 1.5"/><path id="f" d="M11.7 121.2c-.2 1-.3 2.6.6 3.3.6.5 2.1.3 1.8-.8-.1-.2-.8-.4-1-.7-.4-.5-.3-1.5-.3-2.1l-.1-2.5c-.4.9-.8 1.9-1 2.8"/><path id="g" d="M11.6 96.5c-1.2.6-2.5 1.4-3.8 1.7-1.2.3-3.4 0-3.6-1.6-.2-1.5 1.9-2.2 3.1-2.1 1.4.2 2.9 1.1 4.2 1.8 0 .2 0 .2.1.2"/><path id="h" d="M11.6 96.5c-.5 1.6-2.1 7.8-4.9 6.3-1.4-.7-.3-3 .5-3.8 1-1.1 2.7-1.7 4.1-2.3 0-.1.2-.1.3-.2"/><path id="i" d="M11.7 92.9c-.2-1-.3-2.6.6-3.3.6-.5 2.1-.3 1.8.8-.1.2-.8.4-1 .7-.4.5-.3 1.5-.3 2.1l-.1 2.5c-.4-.9-.8-1.9-1-2.8"/></defs></svg>