<?xml version="1.0" encoding="utf-8"?>
<!-- Generator: Adobe Illustrator 13.0.0, SVG Export Plug-In . SVG Version: 6.00 Build 14948)  -->
<!DOCTYPE svg PUBLIC "-//W3C//DTD SVG 1.1//EN" "http://www.w3.org/Graphics/SVG/1.1/DTD/svg11.dtd">
<svg version="1.1" id="Layer_1" xmlns="http://www.w3.org/2000/svg" xmlns:xlink="http://www.w3.org/1999/xlink" x="0px" y="0px"
	 width="113.76px" height="150px" viewBox="0 0 113.76 150" enable-background="new 0 0 113.76 150" xml:space="preserve">
<path fill="#FF0000" d="M9.955,0C4.457,0,0,5.876,0,13.125v123.749c0,7.248,4.457,13.125,9.955,13.125h93.851
	c5.497,0,9.954-5.877,9.954-13.125V13.125C113.76,5.876,109.303,0,103.806,0H9.955z M19.041,2.743c0,0,15.796,11.535,16.115,21.5
	c0.264,8.279-8.531,10.951-13.901,6.337l4.648,11.131H12.227l4.641-11.125c-5.296,4.731-13.639,1.822-13.895-6.343
	C2.673,14.694,19.041,2.743,19.041,2.743z M23.767,45.234h27.395v3.04h-5.836c-1.243,0-2.202,0.323-2.877,0.972
	c-0.675,0.648-1.013,1.473-1.013,2.473v27.84l22.572-24.112c1.297-1.404,1.944-2.729,1.944-3.971c0-0.945-0.445-1.716-1.337-2.31
	c-0.892-0.595-2.351-0.892-4.376-0.892h-1.662v-3.04h24.598v3.04H81.27c-1.647,0-3.458,0.486-5.43,1.459
	c-1.973,0.973-3.796,2.323-5.471,4.052l-13.9,14.467l19.898,29.34c1.107,1.648,2.256,2.823,3.444,3.525
	c1.188,0.675,2.594,1.014,4.214,1.014h2.188v3.039H59.185v-3.039h3.079c2.242,0,3.729-0.189,4.458-0.567
	c0.757-0.379,1.134-0.852,1.134-1.418c0-0.514-0.161-1.027-0.485-1.541L50.836,74.29l-9.401,10.091v14.751
	c0,0.918,0.27,1.594,0.81,2.026c0.865,0.647,1.892,0.973,3.081,0.973h5.835v3.039H23.766v-3.039h5.268
	c1.351,0,2.351-0.271,2.999-0.811c0.648-0.567,0.973-1.297,0.973-2.188V51.272c0-0.945-0.365-1.675-1.095-2.188
	c-0.729-0.54-1.958-0.81-3.688-0.81h-4.458L23.767,45.234L23.767,45.234z M87.117,108.289h13.676l-4.648,11.13
	c5.369-4.614,14.165-1.943,13.9,6.336c-0.318,9.965-16.115,21.501-16.115,21.501s-16.367-11.952-16.066-21.501
	c0.256-8.165,8.598-11.073,13.895-6.342L87.117,108.289L87.117,108.289z"/>
<path fill="#FFFFFF" d="M9.955,0C4.457,0,0,5.876,0,13.125v123.749c0,7.248,4.457,13.125,9.955,13.125h93.851
	c5.497,0,9.954-5.877,9.954-13.125V13.125C113.76,5.876,109.303,0,103.806,0H9.955z M19.041,2.742c0,0,15.796,11.537,16.115,21.501
	c0.264,8.279-8.531,10.95-13.901,6.336l4.648,11.132H12.227l4.641-11.125c-5.296,4.731-13.639,1.822-13.895-6.343
	C2.673,14.694,19.041,2.743,19.041,2.742L19.041,2.742z M52.701,43.979c5.105,0,9.766,1.297,13.98,3.891
	c4.215,2.566,7.592,6.267,10.131,11.103c2.539,4.81,3.81,10.198,3.81,16.17c0,5.457-1,10.32-2.999,14.589
	c-1.973,4.269-5.078,8.172-9.32,11.711c0.432,1.108,0.904,2.62,1.418,4.539c0.945,3.593,1.852,5.93,2.716,7.01
	c0.864,1.081,1.851,1.621,2.958,1.621c1.026,0,1.904-0.58,2.634-1.742c0.757-1.135,1.162-3.039,1.216-5.714h2.432
	c-0.027,4.863-0.973,8.442-2.837,10.738c-1.864,2.297-4.296,3.445-7.294,3.445c-2.783,0-5.053-1.121-6.809-3.363
	c-1.729-2.216-2.877-6.483-3.444-12.806c-1.513,0.379-2.972,0.662-4.376,0.852c-1.405,0.188-2.742,0.283-4.012,0.283
	c-5.025,0-9.672-1.297-13.94-3.891c-4.242-2.62-7.618-6.362-10.131-11.225c-2.485-4.891-3.728-10.401-3.728-16.534
	c0-8.699,2.823-16.128,8.47-22.288C38.707,46.774,45.083,43.979,52.701,43.979L52.701,43.979z M52.822,47.059
	c-3.35,0-6.362,0.945-9.037,2.836c-2.647,1.892-4.728,4.85-6.241,8.875c-1.486,3.999-2.229,9.442-2.229,16.332
	c0,4.862,0.445,9.036,1.337,12.521c0.891,3.484,2.283,6.794,4.174,9.928c-0.054-1.242-0.082-2.242-0.082-2.998
	c0-3.35,1.068-6.105,3.202-8.267c2.161-2.162,4.984-3.242,8.469-3.242c3.512,0,6.457,1.175,8.835,3.525
	c1.782,1.782,3.457,4.876,5.024,9.279c1.459-2.756,2.526-5.74,3.202-8.955c0.674-3.215,1.013-7.241,1.013-12.076
	c0-6.809-0.743-12.185-2.229-16.129c-1.485-3.971-3.58-6.902-6.281-8.794C59.279,48.004,56.226,47.059,52.822,47.059L52.822,47.059z
	 M52.295,86.204c-2.54,0-4.62,0.812-6.241,2.432c-1.621,1.621-2.431,3.715-2.431,6.281c0,2.539,1,4.944,2.999,7.214
	c1.918,0.837,3.931,1.256,6.038,1.256c1.621,0,3.147-0.202,4.579-0.607c1.427-0.403,2.791-1.004,4.053-1.783
	c-0.054-4.863-0.688-8.389-1.905-10.577C57.847,87.609,55.483,86.204,52.295,86.204L52.295,86.204z M87.116,108.288h13.676
	l-4.647,11.131c5.369-4.614,14.165-1.943,13.9,6.336c-0.318,9.965-16.115,21.501-16.115,21.501s-16.367-11.952-16.066-21.501
	c0.256-8.165,8.598-11.073,13.895-6.342L87.116,108.288L87.116,108.288z"/>
<path fill="#FFFFFF" d="M9.955,0C4.457,0,0,5.876,0,13.125v123.749c0,7.249,4.457,13.125,9.955,13.125h93.851
	c5.497,0,9.954-5.876,9.954-13.125V13.125C113.76,5.876,109.303,0,103.806,0H9.955z M19.041,2.743c0,0,15.796,11.536,16.115,21.5
	c0.264,8.28-8.531,10.95-13.901,6.336l4.648,11.132H12.227l4.641-11.125c-5.296,4.731-13.639,1.822-13.895-6.343
	C2.673,14.694,19.041,2.743,19.041,2.743z M46.703,45.234h26.503v3.04h-3.769c-1.486,0-2.553,0.27-3.201,0.81
	c-0.621,0.541-0.933,1.324-0.933,2.351v38.863c0,2.999-0.729,5.714-2.188,8.146c-1.459,2.403-3.593,4.322-6.402,5.754
	c-2.81,1.405-5.984,2.107-9.523,2.107c-4.809,0-8.74-1.404-11.792-4.214c-3.053-2.837-4.58-6.296-4.58-10.375
	c0-3.025,0.77-5.443,2.31-7.253c1.54-1.811,3.431-2.716,5.673-2.716c1.837,0,3.351,0.594,4.539,1.783
	c1.189,1.161,1.783,2.647,1.783,4.458c0,1.566-0.486,2.89-1.459,3.971c-0.973,1.053-2.094,1.581-3.364,1.581
	c-0.486,0-1.162-0.136-2.026-0.406c-0.729-0.216-1.216-0.324-1.459-0.324c-0.459,0-0.824,0.19-1.094,0.568
	c-0.297,0.378-0.447,0.945-0.447,1.701c0,2.026,1.014,3.877,3.04,5.553c2.053,1.647,4.565,2.472,7.538,2.472
	c3.376,0,6.038-1.162,7.983-3.485c1.945-2.351,2.918-5.619,2.918-9.807V51.435c0-1.053-0.365-1.837-1.095-2.351
	c-0.702-0.54-1.917-0.81-3.646-0.81h-5.309V45.234L46.703,45.234z M87.117,108.289h13.676l-4.648,11.13
	c5.369-4.613,14.165-1.942,13.9,6.337c-0.318,9.965-16.115,21.5-16.115,21.5s-16.367-11.952-16.066-21.5
	c0.256-8.166,8.598-11.074,13.895-6.342L87.117,108.289L87.117,108.289z"/>
<path fill="#FFFFFF" d="M9.955,0C4.457,0,0,5.876,0,13.125v123.749c0,7.248,4.457,13.125,9.955,13.125h93.851
	c5.497,0,9.954-5.877,9.954-13.125V13.125C113.76,5.876,109.303,0,103.806,0H9.955z M19.041,2.743c0,0,15.797,11.536,16.115,21.5
	c0.265,8.279-8.531,10.951-13.901,6.337l4.648,11.131H12.227l4.641-11.125c-5.296,4.731-13.639,1.823-13.895-6.343
	C2.673,14.694,19.041,2.743,19.041,2.743z M51.647,43.979h2.714l21.519,54.829c0.864,2.215,2.634,3.323,5.309,3.323h1.863v3.039
	H59.145v-3.039h1.904c2.486,0,4.242-0.271,5.269-0.811c0.702-0.379,1.054-0.959,1.054-1.742c0-0.46-0.096-0.946-0.285-1.46
	l-4.982-12.725H38.436l-2.795,7.295c-0.729,1.945-1.094,3.484-1.094,4.619c0,1.324,0.607,2.459,1.823,3.404
	c1.243,0.946,3.04,1.419,5.39,1.419h2.026v3.039H22.064v-3.039c2.323,0,4.161-0.5,5.511-1.5c1.351-1.026,2.594-2.958,3.729-5.794
	L51.647,43.979L51.647,43.979z M50.472,55.527L39.733,82.233h21.195L50.472,55.527L50.472,55.527z M87.116,108.288h13.676
	l-4.647,11.132c5.369-4.615,14.165-1.944,13.9,6.336c-0.318,9.965-16.114,21.5-16.114,21.5s-16.368-11.951-16.067-21.5
	c0.256-8.166,8.598-11.074,13.895-6.343L87.116,108.288z"/>
<path fill="#FFFFFF" d="M9.955,0C4.457,0,0,5.876,0,13.125v123.75c0,7.248,4.457,13.124,9.955,13.124h93.851
	c5.497,0,9.954-5.876,9.954-13.124V13.125C113.76,5.876,109.303,0,103.806,0H9.955z M19.041,2.743c0,0,15.796,11.536,16.115,21.5
	c0.264,8.28-8.531,10.95-13.901,6.336l4.648,11.132H12.227l4.641-11.125c-5.296,4.731-13.639,1.823-13.895-6.343
	C2.673,14.694,19.041,2.743,19.041,2.743z M75.84,47.909c5.268,0,9.658,2.054,13.171,6.16c4.349,5.052,6.524,12.711,6.524,22.978
	c0,9.536-1.891,16.804-5.674,21.802c-3.782,4.971-8.349,7.456-13.697,7.456c-5.16,0-9.469-2.094-12.928-6.281
	c-4.322-5.268-6.484-12.873-6.484-22.814c0-9.457,2.041-16.98,6.12-22.572C66.141,50.151,70.463,47.909,75.84,47.909L75.84,47.909z
	 M32.763,48.963h1.864v50.575c0,0.756,0.271,1.337,0.811,1.741c0.784,0.568,1.742,0.852,2.877,0.852h7.861v3.04H17.04v-3.04h6.727
	c1.405,0,2.446-0.324,3.121-0.973c0.676-0.675,1.013-1.566,1.013-2.674V60.27c0-0.784-0.311-1.446-0.932-1.986
	s-1.418-0.812-2.391-0.812h-8.996v-2.795c4.214-0.541,7.632-1.257,10.252-2.148C28.454,51.61,30.764,50.421,32.763,48.963
	L32.763,48.963z M76.083,50.827c-3.565,0-6.349,1.715-8.348,5.146c-1.999,3.403-2.999,10.482-2.999,21.235
	c0,10.509,1.027,17.52,3.08,21.031c2.08,3.513,4.862,5.269,8.348,5.269c3.512,0,6.213-1.621,8.105-4.863
	c2.242-3.863,3.362-10.914,3.362-21.153c0-10.591-1.053-17.682-3.161-21.275C82.364,52.624,79.568,50.827,76.083,50.827
	L76.083,50.827z M87.116,108.289h13.676l-4.647,11.131c5.369-4.614,14.164-1.943,13.9,6.337c-0.318,9.964-16.115,21.5-16.115,21.5
	s-16.367-11.952-16.066-21.5c0.256-8.166,8.598-11.075,13.895-6.343L87.116,108.289L87.116,108.289z"/>
<path fill="#FFFFFF" d="M9.955,0C4.457,0,0,5.876,0,13.125v123.75c0,7.248,4.457,13.124,9.955,13.124h93.851
	c5.497,0,9.954-5.876,9.954-13.124V13.125C113.76,5.876,109.303,0,103.806,0H9.955z M19.041,2.742c0,0,15.797,11.537,16.115,21.501
	c0.265,8.28-8.531,10.95-13.901,6.336l4.648,11.132H12.227l4.641-11.125c-5.296,4.731-13.639,1.822-13.895-6.343
	C2.673,14.694,19.041,2.743,19.041,2.742L19.041,2.742z M52.944,47.909c5.592,0,10.253,2.323,13.98,6.971
	c3.729,4.646,5.593,11.171,5.593,19.573c0,6.97-1.041,12.859-3.121,17.669c-2.053,4.781-4.781,8.348-8.186,10.697
	c-3.404,2.324-7.24,3.485-11.509,3.485c-4.133,0-7.375-0.904-9.726-2.715c-2.323-1.837-3.485-4.025-3.485-6.565
	c0-1.675,0.473-3.025,1.418-4.052c0.973-1.026,2.188-1.54,3.648-1.54c1.324,0,2.444,0.445,3.363,1.337s1.378,1.959,1.378,3.202
	c0,0.892-0.419,1.877-1.256,2.958c-0.513,0.676-0.77,1.256-0.77,1.742c0,0.757,0.445,1.419,1.337,1.985
	c0.892,0.541,2.324,0.811,4.296,0.811c2.81,0,5.281-0.77,7.416-2.31c2.134-1.566,3.863-4.12,5.187-7.659
	c1.324-3.565,1.986-8.172,1.986-13.818l-0.082-3.607c-1.756,2.648-3.809,4.647-6.16,5.998c-2.35,1.324-4.983,1.985-7.901,1.985
	c-4.053,0-7.74-1.418-11.063-4.254c-3.296-2.837-4.944-7.012-4.944-12.522c0-5.377,1.824-9.942,5.471-13.698
	C43.488,49.801,47.865,47.909,52.944,47.909L52.944,47.909z M53.065,50.827c-3.025,0-5.511,1.27-7.457,3.81
	c-1.945,2.513-2.917,6.308-2.917,11.387c0,4.646,0.973,8.119,2.917,10.415c1.945,2.27,4.485,3.404,7.619,3.404
	c3.107,0,5.714-1.229,7.821-3.688c2.135-2.459,3.201-5.903,3.201-10.335c0-4.592-1.107-8.239-3.322-10.941
	C58.738,52.178,56.119,50.827,53.065,50.827L53.065,50.827z M87.116,108.289h13.676l-4.647,11.131
	c5.369-4.614,14.165-1.943,13.9,6.337c-0.318,9.964-16.114,21.5-16.114,21.5s-16.368-11.952-16.067-21.5
	c0.256-8.166,8.598-11.075,13.895-6.343L87.116,108.289z"/>
<path fill="#FFFFFF" d="M9.955,0C4.457,0,0,5.876,0,13.125v123.75c0,7.248,4.457,13.124,9.955,13.124h93.851
	c5.497,0,9.954-5.876,9.954-13.124V13.125C113.76,5.876,109.303,0,103.806,0H9.955z M19.041,2.743c0,0,15.797,11.536,16.115,21.5
	c0.264,8.28-8.531,10.951-13.901,6.337l4.648,11.131H12.227l4.641-11.125c-5.296,4.731-13.639,1.823-13.895-6.343
	C2.673,14.694,19.04,2.743,19.041,2.743L19.041,2.743z M53.997,47.909c3.377,0,6.31,0.581,8.794,1.743
	c2.514,1.161,4.418,2.741,5.715,4.741c1.323,1.999,1.985,4.093,1.985,6.281c0,5.079-3.202,9.307-9.604,12.685
	c4.322,1.566,7.442,3.619,9.361,6.159c1.918,2.513,2.877,5.552,2.877,9.118c0,4.35-1.391,8.146-4.174,11.387
	c-3.594,4.188-8.713,6.281-15.359,6.281c-5.862,0-10.496-1.404-13.899-4.214c-3.404-2.837-5.107-6.362-5.107-10.577
	c0-3.161,0.973-5.916,2.918-8.268c1.972-2.376,5.363-4.389,10.172-6.037c-7.105-3.054-10.658-7.768-10.658-14.144
	c0-4.133,1.594-7.686,4.782-10.657C45.015,49.409,49.081,47.909,53.997,47.909L53.997,47.909z M53.714,50.706
	c-3.54,0-6.294,0.864-8.267,2.594c-1.972,1.702-2.958,3.931-2.958,6.686c0,2.729,0.851,4.904,2.553,6.524
	c1.729,1.622,5.971,3.553,12.725,5.796c2.837-1.622,4.741-3.216,5.714-4.782c0.973-1.594,1.459-3.675,1.459-6.24
	c0-3.378-0.959-5.985-2.877-7.822S57.361,50.706,53.714,50.706L53.714,50.706z M50.715,78.344c-3.836,1.621-6.498,3.444-7.983,5.47
	c-1.486,2.026-2.23,4.512-2.23,7.457c0,3.837,1.122,6.821,3.364,8.956c2.269,2.107,5.525,3.161,9.767,3.161
	c4.484,0,7.969-1.054,10.455-3.161c2.485-2.134,3.729-4.944,3.729-8.43c0-3.16-1.08-5.551-3.242-7.172
	C62.44,83.004,57.82,80.91,50.715,78.344L50.715,78.344z M87.116,108.289h13.676l-4.647,11.131c5.369-4.614,14.165-1.943,13.9,6.337
	c-0.318,9.964-16.115,21.5-16.115,21.5s-16.367-11.951-16.066-21.5c0.256-8.166,8.598-11.075,13.895-6.343L87.116,108.289
	L87.116,108.289z"/>
<path fill="#FFFFFF" d="M9.955,0C4.457,0,0,5.876,0,13.125v123.75C0,144.124,4.457,150,9.955,150h93.851
	c5.497,0,9.954-5.876,9.954-13.125V13.125C113.76,5.876,109.303,0,103.806,0H9.955z M19.041,2.743c0,0,15.797,11.536,16.115,21.5
	c0.264,8.28-8.531,10.951-13.901,6.337l4.648,11.131H12.226l4.642-11.125c-5.296,4.731-13.639,1.823-13.895-6.343
	C2.673,14.694,19.04,2.743,19.041,2.743L19.041,2.743z M38.761,47.95c2.647,0.676,5.511,1.014,8.59,1.014h25.206v1.863
	c-3.701,6.511-6.47,12.021-8.307,16.534c-1.838,4.484-3.229,8.781-4.174,12.887c-0.945,4.107-1.566,8.889-1.864,14.346
	c-0.27,4.512-0.527,7.309-0.771,8.39c-0.243,1.053-0.742,1.863-1.499,2.43c-0.729,0.595-1.689,0.892-2.877,0.892
	c-1.351,0-2.405-0.458-3.161-1.377c-0.757-0.919-1.135-2.364-1.135-4.336c0-1.756,0.311-3.944,0.932-6.565
	c0.622-2.647,2.04-6.592,4.255-11.833c2.945-7.024,5.499-12.55,7.659-16.575l5.593-10.293H45.244c-1.621,0-2.837,0.567-3.647,1.702
	c-0.783,1.135-1.729,4.525-2.836,10.172h-2.917L38.761,47.95L38.761,47.95z M87.115,108.289h13.677l-4.647,11.132
	c5.369-4.614,14.165-1.943,13.9,6.336c-0.318,9.965-16.115,21.501-16.115,21.501v-0.001c0,0-16.367-11.951-16.066-21.5
	c0.256-8.166,8.598-11.075,13.894-6.343L87.115,108.289L87.115,108.289z"/>
<path fill="#FFFFFF" d="M9.955,0C4.457,0,0,5.876,0,13.125v123.749c0,7.249,4.457,13.125,9.955,13.125h93.851
	c5.497,0,9.954-5.876,9.954-13.125V13.125C113.76,5.876,109.303,0,103.806,0H9.955z M19.041,2.743c0,0,15.797,11.536,16.115,21.5
	c0.264,8.28-8.531,10.951-13.901,6.337l4.648,11.131H12.226l4.641-11.125c-5.296,4.731-13.638,1.823-13.894-6.343
	C2.673,14.694,19.04,2.743,19.041,2.743L19.041,2.743z M57.441,47.909c3.944,0,7.295,1.081,10.051,3.242
	c2.296,1.756,3.444,3.863,3.444,6.322c0,1.647-0.514,2.998-1.54,4.052c-1,1.054-2.229,1.58-3.688,1.58
	c-1.352,0-2.513-0.445-3.485-1.337c-0.945-0.892-1.418-1.945-1.418-3.16c0-0.811,0.324-1.729,0.972-2.757
	c0.596-0.945,0.893-1.688,0.893-2.228c0-0.757-0.365-1.378-1.095-1.865c-0.973-0.621-2.31-0.932-4.012-0.932
	c-2.621,0-5.012,0.824-7.173,2.473c-2.162,1.647-3.999,4.484-5.511,8.51c-1.486,3.998-2.229,8.496-2.229,13.494
	c0,0.729,0.04,1.824,0.121,3.282c2.107-2.81,4.323-4.822,6.646-6.038s4.876-1.823,7.659-1.823c4.485,0,8.239,1.526,11.264,4.579
	c3.054,3.026,4.58,6.862,4.58,11.509c0,5.593-1.797,10.239-5.39,13.94s-8.038,5.552-13.333,5.552c-3.728,0-7.051-0.986-9.969-2.958
	c-2.917-1.999-5.308-5.105-7.172-9.32c-1.837-4.215-2.755-9.132-2.755-14.751c0-6.078,1.134-11.59,3.404-16.534
	c2.27-4.943,5.16-8.646,8.672-11.104C49.917,49.152,53.605,47.909,57.441,47.909L57.441,47.909z M54.848,74.695
	c-3.377,0-6.146,1.23-8.308,3.688c-2.134,2.432-3.201,5.862-3.201,10.293c0,4.809,1.04,8.482,3.121,11.022
	c2.081,2.539,4.728,3.81,7.943,3.81c3.188,0,5.754-1.202,7.699-3.606c1.946-2.404,2.918-5.998,2.918-10.78
	c0-5.079-0.904-8.753-2.715-11.021C60.521,75.831,58.036,74.695,54.848,74.695L54.848,74.695z M87.115,108.289h13.677l-4.647,11.13
	c5.369-4.613,14.165-1.942,13.9,6.337c-0.318,9.965-16.115,21.5-16.115,21.5s-16.367-11.952-16.068-21.5
	c0.257-8.166,8.6-11.074,13.896-6.342L87.115,108.289L87.115,108.289z"/>
<path fill="#FFFFFF" d="M9.955,0C4.457,0,0,5.876,0,13.125v123.749c0,7.249,4.457,13.125,9.955,13.125h93.851
	c5.497,0,9.954-5.876,9.954-13.125V13.125C113.76,5.876,109.303,0,103.806,0H9.955z M19.041,2.742c0,0,15.797,11.536,16.115,21.501
	c0.265,8.279-8.531,10.95-13.901,6.336l4.648,11.132H12.227l4.641-11.125c-5.296,4.731-13.638,1.822-13.895-6.343
	C2.674,14.694,19.041,2.742,19.041,2.742L19.041,2.742z M40.787,47.909c6.835,1.567,12.414,2.351,16.736,2.351
	c2.026,0,3.932-0.189,5.715-0.567c1.782-0.405,3.119-0.865,4.011-1.378c0.46-0.244,0.757-0.364,0.892-0.364
	c0.271,0,0.406,0.202,0.406,0.607c0,0.945-0.609,2.202-1.824,3.769c-1.216,1.54-2.877,2.77-4.984,3.688
	c-2.08,0.919-4.485,1.378-7.213,1.378c-3.161,0-6.93-0.486-11.307-1.459l-1.337,15.48c2.053-1.026,4.012-1.797,5.875-2.31
	c1.864-0.514,3.634-0.771,5.309-0.771c5.296,0,9.739,1.756,13.333,5.269c3.62,3.512,5.43,7.848,5.43,13.008
	c0,5.728-1.918,10.442-5.754,14.144s-8.807,5.552-14.913,5.552c-4.674,0-8.484-1.324-11.429-3.972
	c-2.917-2.674-4.376-5.849-4.376-9.523c0-2.215,0.459-3.917,1.378-5.105c0.946-1.216,2.147-1.823,3.606-1.823
	c1.432,0,2.594,0.486,3.485,1.459c0.918,0.945,1.378,2.188,1.378,3.728c0,1.161-0.229,2.066-0.689,2.716
	c-0.432,0.648-1.243,1.188-2.432,1.62c-1.188,0.459-1.783,0.986-1.783,1.58c0,0.865,0.405,1.824,1.216,2.878
	c0.81,1.026,2.026,1.878,3.647,2.553c1.647,0.648,3.525,0.973,5.632,0.973c4.134,0,7.282-1.284,9.442-3.85
	c2.189-2.567,3.283-6.741,3.283-12.521c0-5.269-1.148-9.118-3.445-11.55c-2.296-2.432-5.228-3.647-8.793-3.647
	c-1.621,0-3.242,0.297-4.863,0.892c-1.621,0.594-3.242,1.485-4.863,2.675c-0.189,1.891-0.527,3.161-1.013,3.81
	c-0.486,0.621-1.108,0.932-1.865,0.932c-0.541,0-0.973-0.189-1.297-0.567c-0.324-0.379-0.486-0.905-0.486-1.58
	c0-1.188,0.553-2.364,1.661-3.525c0.324-0.352,0.554-0.662,0.689-0.933l0.933-11.915C40.558,56.905,40.76,52.34,40.787,47.909
	L40.787,47.909z M87.116,108.289h13.677l-4.647,11.131c5.369-4.614,14.165-1.943,13.9,6.336
	c-0.318,9.965-16.115,21.501-16.115,21.501s-16.368-11.952-16.067-21.501c0.256-8.166,8.598-11.074,13.895-6.343L87.116,108.289
	L87.116,108.289z"/>
<path fill="#FFFFFF" d="M9.955,0C4.457,0,0,5.876,0,13.125v123.749c0,7.249,4.457,13.125,9.955,13.125h93.851
	c5.497,0,9.954-5.876,9.954-13.125V13.125C113.76,5.876,109.303,0,103.806,0H9.955z M19.041,2.743c0,0,15.797,11.536,16.115,21.5
	c0.264,8.28-8.531,10.951-13.901,6.337l4.648,11.131H12.227l4.641-11.125c-5.296,4.731-13.638,1.823-13.894-6.343
	C2.674,14.694,19.041,2.743,19.041,2.743L19.041,2.743z M61.171,48.963h2.634v38.336h9.32v3.445h-9.32v8.631
	c0,0.756,0.297,1.364,0.892,1.824c0.864,0.621,1.864,0.932,2.999,0.932h3.444v3.039H48.648v-3.039h4.174
	c1.405,0,2.432-0.297,3.08-0.892c0.675-0.595,1.013-1.459,1.013-2.594v-7.901H33.979v-3.892L61.171,48.963L61.171,48.963z
	 M56.916,59.945L37.342,87.299h19.574V59.945L56.916,59.945z M87.116,108.289h13.677l-4.648,11.131
	c5.37-4.614,14.166-1.943,13.9,6.336c-0.317,9.965-16.114,21.501-16.114,21.501s-16.368-11.952-16.067-21.501
	c0.256-8.166,8.598-11.074,13.895-6.342L87.116,108.289z"/>
<path fill="#FF0000" d="M9.955,0C4.457,0,0,5.876,0,13.125v123.749c0,7.248,4.457,13.125,9.955,13.125h93.851
	c5.497,0,9.954-5.877,9.954-13.125V13.125C113.76,5.876,109.303,0,103.806,0H9.955z M19.041,2.743c0,0,15.797,11.536,16.115,21.5
	c0.264,8.279-8.531,10.95-13.901,6.336l4.648,11.132H12.227l4.641-11.125c-5.296,4.731-13.639,1.822-13.895-6.343
	C2.673,14.694,19.04,2.743,19.041,2.743L19.041,2.743z M52.944,47.909c5.08,0,9.131,1.364,12.158,4.093
	c3.025,2.729,4.538,6.105,4.538,10.132c0,2.891-0.823,5.389-2.472,7.496c-1.621,2.107-4.432,3.972-8.43,5.592
	c3.863,0.946,6.877,2.513,9.037,4.701c2.756,2.783,4.135,6.228,4.135,10.334c0,4.646-1.648,8.375-4.945,11.185
	c-3.755,3.242-8.645,4.863-14.669,4.863c-3.621,0-6.74-0.594-9.361-1.783c-2.594-1.188-4.539-2.796-5.835-4.822
	s-1.945-4.31-1.945-6.85c0-2.053,0.5-3.673,1.5-4.862c0.999-1.188,2.255-1.782,3.769-1.782c1.377,0,2.485,0.459,3.323,1.377
	c0.837,0.892,1.256,2.121,1.256,3.688c0,0.999-0.216,1.851-0.648,2.553c-0.432,0.676-1.188,1.311-2.269,1.905
	c-1.162,0.62-1.743,1.216-1.743,1.782c0,0.812,0.406,1.729,1.216,2.755c0.837,1,2.052,1.811,3.646,2.432
	c1.621,0.595,3.661,0.893,6.119,0.893c4.241,0,7.376-1.041,9.402-3.121c2.053-2.107,3.08-5.471,3.08-10.09
	c0-4.836-0.879-8.268-2.635-10.293c-1.729-2.054-4.309-3.081-7.74-3.081c-0.919,0-2.067,0.108-3.445,0.324
	c-1.107,0.162-1.904,0.244-2.391,0.244c-0.811,0-1.445-0.162-1.904-0.486c-0.432-0.352-0.648-0.784-0.648-1.298
	c0-0.566,0.203-0.998,0.608-1.296c0.432-0.324,1.121-0.486,2.067-0.486l2.228,0.081l1.946,0.081c3.431,0,6.01-0.878,7.74-2.634
	c1.729-1.756,2.594-4.472,2.594-8.146c0-4.512-0.824-7.712-2.473-9.604c-1.647-1.918-4.106-2.877-7.375-2.877
	c-2.999,0-5.39,0.54-7.173,1.62c-1.783,1.081-2.675,2.081-2.675,2.999c0,0.595,0.514,1.392,1.541,2.392
	c1.458,1.351,2.188,2.756,2.188,4.215c0,1.107-0.406,2.039-1.216,2.795c-0.81,0.758-1.851,1.136-3.121,1.136
	c-1.351,0-2.458-0.514-3.322-1.541c-0.837-1.026-1.256-2.458-1.256-4.295c0-2.864,1.026-5.403,3.08-7.618
	C43.339,49.477,47.514,47.909,52.944,47.909L52.944,47.909z M87.115,108.288h13.677l-4.647,11.132
	c5.369-4.615,14.165-1.944,13.9,6.336c-0.318,9.965-16.115,21.5-16.115,21.5s-16.367-11.951-16.066-21.5
	c0.256-8.166,8.598-11.074,13.895-6.343L87.115,108.288z"/>

</svg>
