<?xml version="1.0" encoding="utf-8"?>
<!-- Generator: Adobe Illustrator 23.0.1, SVG Export Plug-In . SVG Version: 6.00 Build 0)  -->
<svg version="1.1" id="Layer_1" xmlns="http://www.w3.org/2000/svg" xmlns:xlink="http://www.w3.org/1999/xlink" x="0px" y="0px"
	 viewBox="0 0 113.8 150" style="enable-background:new 0 0 113.8 150;" xml:space="preserve">
<style type="text/css">
	.st0{fill:#FFCD00;}
	.st1{fill:#F5F5F5;}
	.st2{fill:#212D33;stroke:#153141;stroke-width:2.700000e-02;stroke-miterlimit:10;}
	.st3{fill:#212D33;}
	.st4{fill:#FFFFFF;}
	.st5{fill:#231F20;}
	.st6{fill:#FFCD03;}
	.st7{fill:#FDCD08;}
</style>
<path class="st0" d="M113.1,12.6v123.8c0,7.2-4.5,13.1-9.9,13.1H9.3c-5.5,0-10-5.9-10-13.1V12.6c0-7.3,4.5-13.1,10-13.1h93.9
	c3.3,0,6.3,2.2,8.1,5.5h0.2v0.4C112.6,7.7,113.1,10.1,113.1,12.6z M111.1,136.4V12.6c0-2.3-0.5-4.4-1.4-6.3V6.2l-0.2-0.3
	c-1.5-2.8-3.9-4.4-6.3-4.4H9.3c-4.4,0-8,5-8,11.1v123.8c0,6.1,3.6,11.1,8,11.1h93.9C107.6,147.5,111.1,142.5,111.1,136.4z"/>
<path class="st1" d="M111.1,12.6v123.8c0,6.1-3.6,11.1-7.9,11.1H9.3c-4.4,0-8-5-8-11.1V12.6c0-6.1,3.6-11.1,8-11.1h93.9
	c2.4,0,4.8,1.7,6.3,4.4l0.2,0.3v0.1C110.6,8.2,111.1,10.4,111.1,12.6z"/>
<g>
	<path class="st2" d="M17.8,18.5h72.4c0.6,0,6-0.2,6,0.2v111.2c0,0.2,0.1,0.9-0.1,0.9H18.4c-1,0-0.5-2.6-0.5-3.3V22
		C17.8,20.8,17.8,19.7,17.8,18.5"/>
	<g>
		<path id="B" class="st3" d="M40.8,12.7l-1.4-3.8c-0.3-1.2-0.6-4.1,1-4.6c1.5-0.5,2,2.1,2,3.1c0,1.5-0.8,3.1-1.3,4.5
			C41,12.1,40.9,12.4,40.8,12.7"/>
	</g>
	<g>
		<path id="C" class="st3" d="M40.8,12.7c-1.2-0.5-2.6-1-3.7-1.8c-1-0.7-2.5-2.8-1.6-4.1s2.8,0.2,3.4,1.1c0.9,1.3,1.3,3,1.8,4.4
			C40.7,12.4,40.7,12.6,40.8,12.7"/>
	</g>
	<g>
		<path id="D" class="st3" d="M40.8,12.7c1.2-0.5,2.6-1,3.7-1.8c1-0.7,2.5-2.8,1.6-4.1S43.3,7,42.7,7.9c-0.9,1.3-1.3,3-1.8,4.5
			C40.8,12.5,40.8,12.6,40.8,12.7"/>
	</g>
	<g>
		<path id="E" class="st3" d="M37.6,12.9c-1-0.3-2.3-0.2-2.9,0.7c-0.3,0.5-0.4,2.4,0.7,2.1c0.2-0.1,0.3-0.9,0.6-1.1
			c0.4-0.4,1.3-0.4,1.8-0.4c0.7-0.1,1.5,0,2.2-0.1C39.2,13.5,38.4,13.1,37.6,12.9"/>
	</g>
	<g>
		<path id="F" class="st3" d="M43.9,12.9c1-0.3,2.3-0.2,2.9,0.7c0.3,0.5,0.4,2.4-0.7,2.1c-0.2-0.1-0.3-0.9-0.6-1.1
			c-0.4-0.4-1.3-0.4-1.8-0.4c-0.7-0.1-1.5,0-2.2-0.1C42.2,13.5,43.1,13.1,43.9,12.9"/>
	</g>
	<g>
		<path id="G" class="st3" d="M39.9,15.7c0.1,1.3,2.3,0.6,1.3-1.1C40.5,13.4,40,14.5,39.9,15.7"/>
	</g>
	<g>
		<path class="st3" d="M58.1,12.7l-1.4-3.8c-0.3-1.2-0.6-4.1,1-4.6c1.5-0.5,2,2.1,2,3.1c0,1.5-0.8,3.1-1.3,4.5
			C58.3,12.1,58.2,12.4,58.1,12.7"/>
	</g>
	<g>
		<path class="st3" d="M58.1,12.7c-1.2-0.5-2.6-1-3.7-1.8c-1-0.7-2.5-2.8-1.6-4.1s2.8,0.2,3.4,1.1c0.9,1.3,1.3,3,1.8,4.4
			C58,12.4,58,12.6,58.1,12.7"/>
	</g>
	<path class="st3" d="M58.1,12.7c1.2-0.5,2.6-1,3.7-1.8c1-0.7,2.5-2.8,1.6-4.1S60.6,7,60,7.9c-0.9,1.3-1.3,3-1.8,4.5
		C58.1,12.5,58.1,12.6,58.1,12.7"/>
	<g>
		<path class="st3" d="M54.9,12.9c-1-0.3-2.3-0.2-2.9,0.7c-0.3,0.5-0.4,2.4,0.7,2.1c0.2-0.1,0.3-0.9,0.6-1.1
			c0.4-0.4,1.3-0.4,1.8-0.4c0.7-0.1,1.5,0,2.2-0.1C56.5,13.5,55.7,13.1,54.9,12.9"/>
	</g>
	<path class="st3" d="M61.2,12.9c1-0.3,2.3-0.2,2.9,0.7c0.3,0.5,0.4,2.4-0.7,2.1c-0.2-0.1-0.3-0.9-0.6-1.1c-0.4-0.4-1.3-0.4-1.8-0.4
		c-0.7-0.1-1.5,0-2.2-0.1C59.5,13.6,60.4,13.1,61.2,12.9"/>
	<g>
		<path class="st3" d="M57.2,15.7c0.1,1.3,2.3,0.6,1.3-1.1C57.8,13.4,57.3,14.5,57.2,15.7"/>
	</g>
	<path class="st3" d="M75.4,12.7L74,8.9c-0.3-1.2-0.6-4.1,1-4.6c1.5-0.5,2,2.1,2,3.1c0,1.5-0.8,3.1-1.3,4.5
		C75.6,12.1,75.5,12.4,75.4,12.7"/>
	<g>
		<path id="H" class="st3" d="M75.4,12.7c-1.2-0.5-2.6-1-3.7-1.8c-1-0.7-2.5-2.8-1.6-4.1s2.8,0.2,3.4,1.1c0.9,1.3,1.3,3,1.8,4.5
			C75.3,12.5,75.3,12.6,75.4,12.7"/>
	</g>
	<g>
		<path class="st3" d="M75.4,12.7c1.2-0.5,2.6-1,3.7-1.8c1-0.7,2.5-2.8,1.6-4.1S77.9,7,77.3,7.9c-0.9,1.3-1.3,3-1.8,4.5
			C75.4,12.5,75.4,12.6,75.4,12.7"/>
	</g>
	<g>
		<path class="st3" d="M72.2,12.9c-1-0.3-2.3-0.2-2.9,0.7C69,14.1,68.9,16,70,15.7c0.2-0.1,0.3-0.9,0.6-1.1c0.4-0.4,1.3-0.4,1.8-0.4
			c0.7-0.1,1.5,0,2.2-0.1C73.8,13.5,73,13.1,72.2,12.9"/>
	</g>
	<g>
		<path class="st3" d="M78.5,12.9c1-0.3,2.3-0.2,2.9,0.7c0.3,0.5,0.4,2.4-0.7,2.1c-0.2-0.1-0.3-0.9-0.6-1.1
			c-0.4-0.4-1.3-0.4-1.8-0.4c-0.7-0.1-1.5,0-2.2-0.1C76.8,13.5,77.7,13.1,78.5,12.9"/>
	</g>
	<g>
		<path class="st3" d="M74.5,15.7c0.1,1.3,2.3,0.6,1.3-1.1C75.1,13.4,74.6,14.5,74.5,15.7"/>
	</g>
	<g>
		<path class="st3" d="M23.5,12.7l-1.4-3.8c-0.3-1.2-0.6-4.1,1-4.6c1.5-0.5,2,2.1,2,3.1c0,1.5-0.8,3.1-1.3,4.5
			C23.7,12.1,23.6,12.4,23.5,12.7"/>
	</g>
	<path class="st3" d="M23.4,12.7c-1.2-0.5-2.6-1-3.7-1.8c-1-0.7-2.5-2.8-1.6-4.1s2.8,0.2,3.4,1.1c0.9,1.3,1.3,3,1.8,4.4
		C23.4,12.4,23.4,12.6,23.4,12.7 M23.5,12.7c1.2-0.5,2.6-1,3.7-1.8c1-0.7,2.5-2.8,1.6-4.1S26,7,25.4,7.9c-0.9,1.3-1.3,3-1.8,4.4
		C23.5,12.4,23.5,12.6,23.5,12.7 M20.3,12.9c-1-0.3-2.3-0.2-2.9,0.7C17,14.1,17,16,18,15.7c0.2-0.1,0.3-0.9,0.6-1.1
		c0.4-0.4,1.3-0.4,1.8-0.4c0.7-0.1,1.5,0,2.2-0.1C21.9,13.6,21.1,13.1,20.3,12.9"/>
	<g>
		<path class="st3" d="M26.6,12.9c1-0.3,2.3-0.2,2.9,0.7c0.3,0.5,0.4,2.4-0.7,2.1c-0.2-0.1-0.3-0.9-0.6-1.1
			c-0.4-0.4-1.3-0.4-1.8-0.4c-0.7-0.1-1.5,0-2.2-0.1C24.9,13.5,25.8,13.1,26.6,12.9"/>
	</g>
	<g>
		<path class="st3" d="M22.6,15.7c0.1,1.3,2.3,0.6,1.3-1.1C23.2,13.4,22.7,14.5,22.6,15.7"/>
	</g>
	<g>
		<path id="I" class="st3" d="M40.6,136.7l-1.4,3.8c-0.3,1.2-0.6,4.1,1,4.6c1.5,0.5,2-2.1,2-3.1c0-1.5-0.8-3.1-1.3-4.5
			C40.8,137.3,40.7,137,40.6,136.7"/>
	</g>
	<g>
		<path id="J" class="st3" d="M40.6,136.7c-1.2,0.5-2.6,1-3.7,1.8c-1,0.7-2.5,2.8-1.6,4.1s2.8-0.2,3.4-1.1c0.9-1.3,1.3-3,1.8-4.4
			C40.5,137,40.5,136.8,40.6,136.7"/>
	</g>
	<g>
		<path id="K" class="st3" d="M40.6,136.7c1.2,0.5,2.6,1,3.7,1.8c1,0.7,2.5,2.8,1.6,4.1s-2.8-0.2-3.4-1.1c-0.9-1.3-1.3-3-1.8-4.5
			C40.7,136.9,40.6,136.8,40.6,136.7"/>
	</g>
	<g>
		<path id="L" class="st3" d="M37.4,136.5c-1,0.3-2.3,0.2-2.9-0.7c-0.3-0.5-0.4-2.4,0.7-2.1c0.2,0.1,0.3,0.9,0.6,1.1
			c0.4,0.4,1.3,0.4,1.8,0.4c0.7,0.1,1.5,0,2.2,0.1C39.1,135.8,38.2,136.3,37.4,136.5"/>
	</g>
	<g>
		<path id="M" class="st3" d="M43.7,136.5c1,0.3,2.3,0.2,2.9-0.7c0.3-0.5,0.4-2.4-0.7-2.1c-0.2,0.1-0.3,0.9-0.6,1.1
			c-0.4,0.4-1.3,0.4-1.8,0.4c-0.7,0.1-1.5,0-2.2,0.1C42.1,135.8,42.9,136.3,43.7,136.5"/>
	</g>
	<g>
		<path id="N" class="st3" d="M39.8,133.7c0.1-1.3,2.3-0.6,1.3,1.1C40.3,136,39.9,134.9,39.8,133.7"/>
	</g>
	<g>
		<path class="st3" d="M57.9,136.7l-1.4,3.8c-0.3,1.2-0.6,4.1,1,4.6c1.5,0.5,2-2.1,2-3.1c0-1.5-0.8-3.1-1.3-4.5
			C58.1,137.3,58,137,57.9,136.7"/>
	</g>
	<path class="st3" d="M57.9,136.7c-1.2,0.5-2.6,1-3.7,1.8c-1,0.7-2.5,2.8-1.6,4.1s2.8-0.2,3.4-1.1c0.9-1.3,1.3-3,1.8-4.5
		C57.8,136.9,57.9,136.8,57.9,136.7"/>
	<g>
		<path class="st3" d="M57.9,136.7c1.2,0.5,2.6,1,3.7,1.8c1,0.7,2.5,2.8,1.6,4.1s-2.8-0.2-3.4-1.1c-0.9-1.3-1.3-3-1.8-4.5
			C58,136.9,57.9,136.8,57.9,136.7"/>
	</g>
	<path class="st3" d="M54.7,136.5c-1,0.3-2.2,0.2-2.9-0.7c-0.3-0.5-0.4-2.4,0.7-2.1c0.2,0.1,0.3,0.9,0.6,1.1
		c0.4,0.4,1.3,0.4,1.8,0.4c0.7,0.1,1.5,0,2.2,0.1C56.4,135.8,55.5,136.3,54.7,136.5 M61,136.5c1,0.3,2.2,0.2,2.9-0.7
		c0.3-0.5,0.4-2.4-0.7-2.1c-0.2,0.1-0.3,0.9-0.6,1.1c-0.4,0.4-1.3,0.4-1.8,0.4c-0.7,0.1-1.5,0-2.2,0.1
		C59.4,135.8,60.2,136.3,61,136.5"/>
	<g>
		<path class="st3" d="M57.1,133.7c0.1-1.3,2.3-0.6,1.3,1.1C57.6,136,57.2,134.9,57.1,133.7"/>
	</g>
	<g>
		<path class="st3" d="M75.2,136.7l-1.4,3.8c-0.3,1.2-0.6,4.1,1,4.6c1.5,0.5,2-2.1,2-3.1c0-1.5-0.8-3.1-1.3-4.5
			C75.4,137.3,75.3,137,75.2,136.7"/>
	</g>
	<g>
		<path id="O" class="st3" d="M75.2,136.7c-1.2,0.5-2.6,1-3.7,1.8c-1,0.7-2.5,2.8-1.6,4.1s2.8-0.2,3.4-1.1c0.9-1.3,1.3-3,1.8-4.4
			C75.1,137,75.2,136.8,75.2,136.7"/>
	</g>
	<g>
		<path id="P" class="st3" d="M75.2,136.7c1.2,0.5,2.6,1,3.7,1.8c1,0.7,2.5,2.8,1.6,4.1s-2.8-0.2-3.4-1.1c-0.9-1.3-1.3-3-1.8-4.4
			C75.3,137,75.3,136.8,75.2,136.7"/>
	</g>
	<g>
		<path class="st3" d="M72,136.5c-1,0.3-2.3,0.2-2.9-0.7c-0.3-0.5-0.4-2.4,0.7-2.1c0.2,0.1,0.3,0.9,0.6,1.1c0.4,0.4,1.3,0.4,1.8,0.4
			c0.7,0.1,1.5,0,2.2,0.1C73.7,135.8,72.8,136.3,72,136.5"/>
	</g>
	<g>
		<path class="st3" d="M78.3,136.5c1,0.3,2.3,0.2,2.9-0.7c0.3-0.5,0.4-2.4-0.7-2.1c-0.2,0.1-0.3,0.9-0.6,1.1
			c-0.4,0.4-1.3,0.4-1.8,0.4c-0.7,0.1-1.5,0-2.2,0.1C76.7,135.8,77.5,136.3,78.3,136.5"/>
	</g>
	<g>
		<path class="st3" d="M74.4,133.7c0.1-1.3,2.3-0.6,1.3,1.1C74.9,136,74.5,134.9,74.4,133.7"/>
	</g>
	<path class="st3" d="M91.4,12.7L90,8.9c-0.3-1.2-0.6-4.1,1-4.6c1.5-0.5,2,2.1,2,3.1c0,1.5-0.8,3.1-1.3,4.5
		C91.6,12.1,91.5,12.4,91.4,12.7"/>
	<g>
		<path class="st3" d="M91.4,12.7c-1.2-0.5-2.6-1-3.7-1.8c-1-0.7-2.5-2.8-1.6-4.1s2.8,0.2,3.4,1.1c0.9,1.3,1.3,3,1.8,4.5
			C91.3,12.5,91.3,12.6,91.4,12.7"/>
	</g>
	<g>
		<path class="st3" d="M91.4,12.7c1.2-0.5,2.6-1,3.7-1.8c1-0.7,2.5-2.8,1.6-4.1S93.9,7,93.3,7.9c-0.9,1.3-1.3,3-1.8,4.5
			C91.4,12.5,91.4,12.6,91.4,12.7"/>
	</g>
	<g>
		<path class="st3" d="M88.2,12.9c-1-0.3-2.3-0.2-2.9,0.7C85,14.1,84.9,16,86,15.7c0.2-0.1,0.3-0.9,0.6-1.1c0.4-0.4,1.3-0.4,1.8-0.4
			c0.7-0.1,1.5,0,2.2-0.1C89.8,13.5,89,13.1,88.2,12.9"/>
	</g>
	<g>
		<path class="st3" d="M94.5,12.9c1-0.3,2.3-0.2,2.9,0.7c0.3,0.5,0.4,2.4-0.7,2.1c-0.2-0.1-0.3-0.9-0.6-1.1
			c-0.4-0.4-1.3-0.4-1.8-0.4c-0.7-0.1-1.5,0-2.2-0.1C92.8,13.5,93.7,13.1,94.5,12.9"/>
	</g>
	<g>
		<path class="st3" d="M90.5,15.7c0.1,1.3,2.3,0.6,1.3-1.1C91.1,13.4,90.6,14.5,90.5,15.7"/>
	</g>
	<g>
		<path class="st3" d="M91.2,136.7l-1.4,3.8c-0.3,1.2-0.6,4.1,1,4.6c1.5,0.5,2-2.1,2-3.1c0-1.5-0.8-3.1-1.3-4.5
			C91.4,137.3,91.3,137,91.2,136.7"/>
	</g>
	<g>
		<path class="st3" d="M91.2,136.7c-1.2,0.5-2.6,1-3.7,1.8c-1,0.7-2.5,2.8-1.6,4.1s2.8-0.2,3.4-1.1c0.9-1.3,1.3-3,1.8-4.4
			C91.1,137,91.2,136.8,91.2,136.7"/>
	</g>
	<g>
		<path class="st3" d="M91.2,136.7c1.2,0.5,2.6,1,3.7,1.8c1,0.7,2.5,2.8,1.6,4.1s-2.8-0.2-3.4-1.1c-0.9-1.3-1.3-3-1.8-4.4
			C91.3,137,91.3,136.8,91.2,136.7"/>
	</g>
	<g>
		<path class="st3" d="M88,136.5c-1,0.3-2.3,0.2-2.9-0.7c-0.3-0.5-0.4-2.4,0.7-2.1c0.2,0.1,0.3,0.9,0.6,1.1c0.4,0.4,1.3,0.4,1.8,0.4
			c0.7,0.1,1.5,0,2.2,0.1C89.7,135.8,88.8,136.3,88,136.5"/>
	</g>
	<g>
		<path class="st3" d="M94.3,136.5c1,0.3,2.3,0.2,2.9-0.7c0.3-0.5,0.4-2.4-0.7-2.1c-0.2,0.1-0.3,0.9-0.6,1.1
			c-0.4,0.4-1.3,0.4-1.8,0.4c-0.7,0.1-1.5,0-2.2,0.1C92.7,135.8,93.5,136.3,94.3,136.5"/>
	</g>
	<g>
		<path class="st3" d="M90.4,133.7c0.1-1.3,2.3-0.6,1.3,1.1C90.9,136,90.5,134.9,90.4,133.7"/>
	</g>
	<g>
		<path class="st3" d="M23.3,136.7l-1.4,3.8c-0.3,1.2-0.6,4.1,1,4.6c1.5,0.5,2-2.1,2-3.1c0-1.5-0.8-3.1-1.3-4.5
			C23.5,137.3,23.4,137,23.3,136.7"/>
	</g>
	<g>
		<path class="st3" d="M23.3,136.7c-1.2,0.5-2.6,1-3.7,1.8c-1,0.7-2.5,2.8-1.6,4.1s2.8-0.2,3.4-1.1c0.9-1.3,1.3-3,1.8-4.4
			C23.2,137,23.2,136.8,23.3,136.7"/>
	</g>
	<g>
		<path class="st3" d="M23.3,136.7c1.2,0.5,2.6,1,3.7,1.8c1,0.7,2.5,2.8,1.6,4.1s-2.8-0.2-3.4-1.1c-0.9-1.3-1.3-3-1.8-4.5
			C23.4,136.9,23.3,136.8,23.3,136.7"/>
	</g>
	<g>
		<path class="st3" d="M20.1,136.5c-1,0.3-2.3,0.2-2.9-0.7c-0.3-0.5-0.4-2.4,0.7-2.1c0.2,0.1,0.3,0.9,0.6,1.1
			c0.4,0.4,1.3,0.4,1.8,0.4c0.7,0.1,1.5,0,2.2,0.1C21.8,135.8,20.9,136.3,20.1,136.5"/>
	</g>
	<g>
		<path class="st3" d="M26.4,136.5c1,0.3,2.3,0.2,2.9-0.7c0.3-0.5,0.4-2.4-0.7-2.1c-0.2,0.1-0.3,0.9-0.6,1.1
			c-0.4,0.4-1.3,0.4-1.8,0.4c-0.7,0.1-1.5,0-2.2,0.1C24.8,135.8,25.6,136.3,26.4,136.5"/>
	</g>
	<path class="st3" d="M22.4,133.7c0.1-1.3,2.3-0.6,1.3,1.1C23,136,22.6,134.9,22.4,133.7"/>
	<g>
		<path id="Q" class="st3" d="M102.2,138.6c1.2,0.6,2.5,1.4,3.8,1.7c1.2,0.3,3.4,0,3.6-1.6c0.2-1.5-1.9-2.2-3.1-2.1
			c-1.4,0.2-2.9,1.1-4.2,1.8C102.3,138.5,102.2,138.5,102.2,138.6"/>
	</g>
	<g>
		<path id="R" class="st3" d="M102.2,138.6c0.5,1.6,2.1,7.8,4.9,6.3c1.4-0.7,0.3-3-0.5-3.8c-1-1.1-2.7-1.7-4.1-2.3
			C102.4,138.7,102.3,138.6,102.2,138.6"/>
	</g>
	<g>
		<path id="S" class="st3" d="M102.2,138.6c0.5-1.6,2.1-7.8,4.9-6.3c1.4,0.7,0.3,3-0.5,3.8c-1,1.1-2.7,1.7-4.1,2.3
			C102.4,138.5,102.3,138.5,102.2,138.6"/>
	</g>
	<g>
		<path id="T" class="st3" d="M102,142.3c0.2,1,0.3,2.6-0.6,3.3c-0.6,0.5-2.1,0.3-1.8-0.8c0.1-0.2,0.8-0.4,1-0.7
			c0.4-0.5,0.3-1.5,0.3-2.1l0.1-2.5C101.5,140.4,101.8,141.3,102,142.3"/>
	</g>
	<g>
		<path id="U" class="st3" d="M102,134.9c0.2-1,0.3-2.6-0.6-3.3c-0.6-0.5-2.1-0.3-1.8,0.8c0.1,0.2,0.8,0.4,1,0.7
			c0.4,0.5,0.3,1.5,0.3,2.1l0.1,2.5C101.5,136.8,101.8,135.9,102,134.9"/>
	</g>
	<path class="st3" d="M99.6,139.6c-1.1-0.3-0.6-2.7,0.9-1.5C101.5,138.8,100.8,139.4,99.6,139.6 M102.2,117.5
		c1.2,0.6,2.5,1.4,3.8,1.8c1.2,0.3,3.4,0,3.6-1.6c0.2-1.5-1.9-2.2-3.1-2.1c-1.4,0.2-2.9,1.1-4.2,1.8
		C102.3,117.5,102.2,117.5,102.2,117.5"/>
	<g>
		<path class="st3" d="M102.2,117.6c0.5,1.6,2.1,7.8,4.9,6.3c1.4-0.7,0.3-3-0.5-3.8c-1-1.1-2.7-1.7-4.1-2.3
			C102.4,117.7,102.3,117.6,102.2,117.6"/>
	</g>
	<path class="st3" d="M102.2,117.6c0.5-1.6,2.1-7.8,4.9-6.3c1.4,0.7,0.3,3-0.5,3.8c-1,1.1-2.7,1.7-4.1,2.3
		C102.4,117.4,102.3,117.5,102.2,117.6"/>
	<g>
		<path id="V" class="st3" d="M102,121.2c0.2,1,0.3,2.6-0.6,3.3c-0.6,0.5-2.1,0.3-1.8-0.8c0.1-0.2,0.8-0.4,1-0.7
			c0.4-0.5,0.3-1.5,0.3-2.1l0.1-2.5C101.5,119.3,101.8,120.3,102,121.2"/>
	</g>
	<g>
		<path class="st3" d="M102,113.9c0.2-1,0.3-2.6-0.6-3.3c-0.6-0.5-2.1-0.3-1.8,0.8c0.1,0.2,0.8,0.4,1,0.7c0.4,0.5,0.3,1.5,0.3,2.1
			l0.1,2.5C101.5,115.8,101.8,114.9,102,113.9"/>
	</g>
	<path class="st3" d="M99.6,118.5c-1.1-0.3-0.6-2.7,0.9-1.5C101.5,117.8,100.8,118.3,99.6,118.5"/>
	<g>
		<path id="W" class="st3" d="M102.2,96.5c1.2,0.6,2.5,1.4,3.8,1.7c1.2,0.3,3.4,0,3.6-1.6c0.2-1.5-1.9-2.2-3.1-2.1
			c-1.4,0.2-2.9,1.1-4.2,1.8C102.3,96.5,102.2,96.5,102.2,96.5"/>
	</g>
	<g>
		<path id="X" class="st3" d="M102.2,96.5c0.5,1.6,2.1,7.8,4.9,6.3c1.4-0.7,0.3-3-0.5-3.8c-1-1.1-2.7-1.7-4.1-2.3
			C102.4,96.6,102.3,96.6,102.2,96.5"/>
	</g>
	<path class="st3" d="M102.2,96.5c0.5-1.6,2.1-7.8,4.9-6.3c1.4,0.7,0.3,3-0.5,3.8c-1,1.1-2.7,1.7-4.1,2.3
		C102.4,96.4,102.3,96.5,102.2,96.5"/>
	<g>
		<path class="st3" d="M102,100.2c0.2,1,0.3,2.6-0.6,3.3c-0.6,0.5-2.1,0.3-1.8-0.8c0.1-0.2,0.8-0.4,1-0.7c0.4-0.5,0.3-1.5,0.3-2.1
			l0.1-2.5C101.5,98.3,101.8,99.3,102,100.2"/>
	</g>
	<g>
		<path id="Y" class="st3" d="M102,92.9c0.2-1,0.3-2.6-0.6-3.3c-0.6-0.5-2.1-0.3-1.8,0.8c0.1,0.2,0.8,0.4,1,0.7
			c0.4,0.5,0.3,1.5,0.3,2.1l0.1,2.5C101.5,94.8,101.8,93.8,102,92.9"/>
	</g>
	<path class="st3" d="M99.6,97.5c-1.1-0.3-0.6-2.7,0.9-1.5C101.5,96.8,100.8,97.3,99.6,97.5"/>
	<g>
		<path class="st3" d="M102.2,54.5c1.2,0.6,2.5,1.4,3.8,1.7c1.2,0.3,3.4,0,3.6-1.6c0.2-1.5-1.9-2.2-3.1-2.1
			c-1.4,0.2-2.9,1.1-4.2,1.8C102.3,54.5,102.2,54.5,102.2,54.5"/>
	</g>
	<g>
		<path class="st3" d="M102.2,54.5c0.5,1.6,2.1,7.8,4.9,6.3c1.4-0.7,0.3-3-0.5-3.8c-1-1.1-2.7-1.7-4.1-2.3
			C102.4,54.6,102.3,54.6,102.2,54.5"/>
	</g>
	<g>
		<path class="st3" d="M102.2,54.5c0.5-1.6,2.1-7.8,4.9-6.3c1.4,0.7,0.3,3-0.5,3.8c-1,1.1-2.7,1.7-4.1,2.3
			C102.4,54.4,102.3,54.4,102.2,54.5"/>
	</g>
	<path class="st3" d="M102,58.2c0.2,1,0.3,2.6-0.6,3.3c-0.6,0.5-2.1,0.3-1.8-0.8c0.1-0.2,0.8-0.5,1-0.7c0.3-0.5,0.3-1.5,0.3-2.1
		c0-0.8-0.1-1.6,0.1-2.4C101.5,56.3,101.8,57.3,102,58.2"/>
	<g>
		<path class="st3" d="M102,50.9c0.2-1,0.3-2.6-0.6-3.3c-0.6-0.5-2.1-0.3-1.8,0.8c0.1,0.2,0.8,0.4,1,0.7c0.4,0.5,0.3,1.5,0.3,2.1
			l0.1,2.5C101.5,52.8,101.8,51.8,102,50.9"/>
	</g>
	<path class="st3" d="M99.6,55.5c-1.1-0.3-0.6-2.7,0.9-1.5C101.5,54.7,100.8,55.3,99.6,55.5 M102.2,33.5c1.2,0.6,2.5,1.4,3.8,1.7
		c1.2,0.3,3.4,0,3.6-1.6c0.2-1.5-1.9-2.2-3.1-2.1c-1.4,0.2-2.9,1.1-4.2,1.8C102.3,33.4,102.2,33.5,102.2,33.5"/>
	<g>
		<path class="st3" d="M102.2,33.5c0.5,1.6,2.1,7.8,4.9,6.3c1.4-0.7,0.3-3-0.5-3.8c-1-1.1-2.7-1.7-4.1-2.3
			C102.4,33.6,102.3,33.5,102.2,33.5"/>
	</g>
	<g>
		<path class="st3" d="M102.2,33.5c0.5-1.6,2.1-7.8,4.9-6.3c1.4,0.7,0.3,3-0.5,3.8c-1,1.1-2.7,1.7-4.1,2.3
			C102.4,33.4,102.3,33.4,102.2,33.5"/>
	</g>
	<g>
		<path class="st3" d="M102,37.2c0.2,1,0.3,2.6-0.6,3.3c-0.6,0.5-2.1,0.3-1.8-0.8c0.1-0.2,0.8-0.4,1-0.7c0.4-0.5,0.3-1.5,0.3-2.1
			l0.1-2.5C101.5,35.3,101.8,36.2,102,37.2"/>
	</g>
	<g>
		<path class="st3" d="M102,29.9c0.2-1,0.3-2.6-0.6-3.3c-0.6-0.5-2.1-0.3-1.8,0.8c0.1,0.2,0.8,0.4,1,0.7c0.4,0.5,0.3,1.5,0.3,2.1
			l0.1,2.5C101.5,31.8,101.8,30.8,102,29.9"/>
	</g>
	<path class="st3" d="M99.6,34.5c-1.1-0.3-0.6-2.7,0.9-1.5C101.5,33.7,100.8,34.3,99.6,34.5"/>
	<g>
		<path class="st3" d="M102.2,12.5c1.2,0.6,2.5,1.4,3.8,1.7c1.2,0.3,3.4,0,3.6-1.6c0.2-1.5-1.9-2.2-3.1-2.1
			c-1.4,0.2-2.9,1.1-4.2,1.8C102.3,12.4,102.2,12.4,102.2,12.5"/>
	</g>
	<g>
		<path class="st3" d="M102.2,12.5c0.5,1.6,2.1,7.8,4.9,6.3c1.4-0.7,0.3-3-0.5-3.8c-1-1.1-2.7-1.7-4.1-2.3
			C102.4,12.6,102.3,12.5,102.2,12.5"/>
	</g>
	<g>
		<path class="st3" d="M102.2,12.5c0.5-1.6,2.1-7.8,4.9-6.3c1.4,0.7,0.3,3-0.5,3.8c-1,1.1-2.7,1.7-4.1,2.3
			C102.4,12.4,102.3,12.4,102.2,12.5"/>
	</g>
	<g>
		<path class="st3" d="M102,16.1c0.2,1,0.3,2.6-0.6,3.3c-0.6,0.5-2.1,0.3-1.8-0.8c0.1-0.2,0.8-0.4,1-0.7c0.4-0.5,0.3-1.5,0.3-2.1
			l0.1-2.5C101.5,14.2,101.8,15.2,102,16.1"/>
	</g>
	<path class="st3" d="M102,8.8c0.2-1,0.3-2.6-0.6-3.3c-0.6-0.5-2.1-0.3-1.8,0.8c0.1,0.2,0.8,0.4,1,0.7c0.4,0.5,0.3,1.5,0.3,2.1
		l0.1,2.5C101.5,10.8,101.8,9.8,102,8.8 M99.6,13.5c-1.1-0.3-0.6-2.7,0.9-1.5C101.5,12.7,100.8,13.2,99.6,13.5"/>
	<g>
		<path class="st3" d="M102.2,75.5c1.2,0.6,2.5,1.4,3.8,1.7c1.2,0.3,3.4,0,3.6-1.6c0.2-1.5-1.9-2.2-3.1-2.1
			c-1.4,0.2-2.9,1.1-4.2,1.8C102.3,75.5,102.2,75.5,102.2,75.5"/>
	</g>
	<g>
		<path class="st3" d="M102.2,75.5c0.5,1.6,2.1,7.8,4.9,6.3c1.4-0.7,0.3-3-0.5-3.8c-1-1.1-2.7-1.7-4.1-2.3
			C102.4,75.6,102.3,75.6,102.2,75.5"/>
	</g>
	<path class="st3" d="M102.2,75.5c0.5-1.6,2.1-7.8,4.9-6.3c1.4,0.7,0.3,3-0.5,3.8c-1,1.1-2.7,1.7-4.1,2.3
		C102.4,75.4,102.3,75.5,102.2,75.5"/>
	<g>
		<path class="st3" d="M102,79.2c0.2,1,0.3,2.6-0.6,3.3c-0.6,0.5-2.1,0.3-1.8-0.8c0.1-0.2,0.8-0.4,1-0.7c0.4-0.5,0.3-1.5,0.3-2.1
			l0.1-2.5C101.5,77.3,101.8,78.3,102,79.2"/>
	</g>
	<g>
		<path class="st3" d="M102,71.9c0.2-1,0.3-2.6-0.6-3.3c-0.6-0.5-2.1-0.3-1.8,0.8c0.1,0.2,0.8,0.4,1,0.7c0.4,0.5,0.3,1.5,0.3,2.1
			l0.1,2.5C101.5,73.8,101.8,72.8,102,71.9"/>
	</g>
	<path class="st3" d="M99.6,76.5c-1.1-0.3-0.6-2.7,0.9-1.5C101.5,75.8,100.8,76.3,99.6,76.5"/>
	<g>
		<path id="Z" class="st3" d="M11.6,138.6c-1.2,0.6-2.5,1.4-3.8,1.7c-1.2,0.3-3.4,0-3.6-1.6c-0.2-1.5,1.9-2.2,3.1-2.1
			c1.4,0.2,2.9,1.1,4.2,1.8C11.5,138.5,11.5,138.5,11.6,138.6"/>
	</g>
	<g>
		<path id="a" class="st3" d="M11.6,138.6c-0.5,1.6-2.1,7.8-4.9,6.3c-1.4-0.7-0.3-3,0.5-3.8c1-1.1,2.7-1.7,4.1-2.3
			C11.3,138.7,11.5,138.6,11.6,138.6"/>
	</g>
	<g>
		<path id="b" class="st3" d="M11.6,138.6c-0.5-1.6-2.1-7.8-4.9-6.3c-1.4,0.7-0.3,3,0.5,3.8c1,1.1,2.7,1.7,4.1,2.3
			C11.3,138.5,11.5,138.5,11.6,138.6"/>
	</g>
	<g>
		<path id="c" class="st3" d="M11.7,142.3c-0.2,1-0.3,2.6,0.6,3.3c0.6,0.5,2.1,0.3,1.8-0.8c-0.1-0.2-0.8-0.4-1-0.7
			c-0.4-0.5-0.3-1.5-0.3-2.1l-0.1-2.5C12.3,140.4,11.9,141.3,11.7,142.3"/>
	</g>
	<g>
		<path id="d" class="st3" d="M11.7,134.9c-0.2-1-0.3-2.6,0.6-3.3c0.6-0.5,2.1-0.3,1.8,0.8c-0.1,0.2-0.8,0.4-1,0.7
			c-0.4,0.5-0.3,1.5-0.3,2.1l-0.1,2.5C12.3,136.8,11.9,135.9,11.7,134.9"/>
	</g>
	<g>
		<path id="e" class="st3" d="M14.1,139.6c1.1-0.3,0.6-2.7-0.9-1.5C12.2,138.8,13,139.4,14.1,139.6"/>
	</g>
	<path class="st3" d="M11.6,117.5c-1.2,0.6-2.4,1.4-3.8,1.8c-1.2,0.3-3.4,0-3.6-1.6c-0.2-1.5,1.9-2.2,3.1-2.1
		c1.4,0.2,2.9,1.1,4.2,1.8C11.5,117.5,11.5,117.5,11.6,117.5"/>
	<g>
		<path class="st3" d="M11.6,117.6c-0.5,1.6-2.1,7.8-4.9,6.3c-1.4-0.7-0.3-3,0.5-3.8c1-1.1,2.7-1.7,4.1-2.3
			C11.3,117.7,11.5,117.6,11.6,117.6"/>
	</g>
	<path class="st3" d="M11.6,117.6c-0.5-1.6-2.1-7.8-4.9-6.3c-1.4,0.7-0.3,3,0.5,3.8c1,1.1,2.7,1.7,4.1,2.3
		C11.4,117.5,11.5,117.5,11.6,117.6"/>
	<g>
		<path id="f" class="st3" d="M11.7,121.2c-0.2,1-0.3,2.6,0.6,3.3c0.6,0.5,2.1,0.3,1.8-0.8c-0.1-0.2-0.8-0.4-1-0.7
			c-0.4-0.5-0.3-1.5-0.3-2.1l-0.1-2.5C12.3,119.3,11.9,120.3,11.7,121.2"/>
	</g>
	<g>
		<path class="st3" d="M11.7,113.9c-0.2-1-0.3-2.6,0.6-3.3c0.6-0.5,2.1-0.3,1.8,0.8c-0.1,0.2-0.8,0.4-1,0.7
			c-0.4,0.5-0.3,1.5-0.3,2.1l-0.1,2.5C12.3,115.8,11.9,114.9,11.7,113.9"/>
	</g>
	<path class="st3" d="M14.1,118.5c1.1-0.3,0.6-2.7-0.9-1.5C12.2,117.8,13,118.3,14.1,118.5"/>
	<g>
		<path id="g" class="st3" d="M11.6,96.5c-1.2,0.6-2.5,1.4-3.8,1.7c-1.2,0.3-3.4,0-3.6-1.6c-0.2-1.5,1.9-2.2,3.1-2.1
			c1.4,0.2,2.9,1.1,4.2,1.8C11.5,96.5,11.5,96.5,11.6,96.5"/>
	</g>
	<g>
		<path id="h" class="st3" d="M11.6,96.5c-0.5,1.6-2.1,7.8-4.9,6.3c-1.4-0.7-0.3-3,0.5-3.8c1-1.1,2.7-1.7,4.1-2.3
			C11.3,96.6,11.5,96.6,11.6,96.5"/>
	</g>
	<path class="st3" d="M11.6,96.5c-0.5-1.6-2.1-7.8-4.9-6.3c-1.4,0.7-0.3,3,0.5,3.8c1,1.1,2.7,1.7,4.1,2.3
		C11.3,96.4,11.5,96.5,11.6,96.5"/>
	<g>
		<path class="st3" d="M11.7,100.2c-0.2,1-0.3,2.6,0.6,3.3c0.6,0.5,2.1,0.3,1.8-0.8c-0.1-0.2-0.8-0.4-1-0.7
			c-0.4-0.5-0.3-1.5-0.3-2.1l-0.1-2.5C12.3,98.3,11.9,99.3,11.7,100.2"/>
	</g>
	<g>
		<path id="i" class="st3" d="M11.7,92.9c-0.2-1-0.3-2.6,0.6-3.3c0.6-0.5,2.1-0.3,1.8,0.8c-0.1,0.2-0.8,0.4-1,0.7
			c-0.4,0.5-0.3,1.5-0.3,2.1l-0.1,2.5C12.3,94.8,11.9,93.8,11.7,92.9"/>
	</g>
	<path class="st3" d="M14.1,97.5c1.1-0.3,0.6-2.7-0.9-1.5C12.2,96.8,13,97.3,14.1,97.5"/>
	<g>
		<path class="st3" d="M11.6,54.5c-1.2,0.6-2.5,1.4-3.8,1.7c-1.2,0.3-3.4,0-3.6-1.6c-0.2-1.5,1.9-2.2,3.1-2.1
			c1.4,0.2,2.9,1.1,4.2,1.8C11.5,54.5,11.5,54.5,11.6,54.5"/>
	</g>
	<g>
		<path class="st3" d="M11.6,54.5c-0.5,1.6-2.1,7.8-4.9,6.3c-1.4-0.7-0.3-3,0.5-3.8c1-1.1,2.7-1.7,4.1-2.3
			C11.3,54.6,11.5,54.6,11.6,54.5"/>
	</g>
	<g>
		<path class="st3" d="M11.6,54.5c-0.5-1.6-2.1-7.8-4.9-6.3c-1.4,0.7-0.3,3,0.5,3.8c1,1.1,2.7,1.7,4.1,2.3
			C11.3,54.4,11.5,54.4,11.6,54.5"/>
	</g>
	<path class="st3" d="M11.7,58.2c-0.2,1-0.3,2.6,0.6,3.3c0.6,0.5,2.1,0.3,1.8-0.8c-0.1-0.2-0.8-0.5-1-0.7c-0.3-0.5-0.3-1.5-0.3-2.1
		c0-0.8,0.1-1.6-0.1-2.4C12.3,56.3,11.9,57.3,11.7,58.2"/>
	<g>
		<path class="st3" d="M11.7,50.9c-0.2-1-0.3-2.6,0.6-3.3c0.6-0.5,2.1-0.3,1.8,0.8c-0.1,0.2-0.8,0.4-1,0.7c-0.4,0.5-0.3,1.5-0.3,2.1
			l-0.1,2.5C12.3,52.8,11.9,51.8,11.7,50.9"/>
	</g>
	<g>
		<path class="st3" d="M14.1,55.5c1.1-0.3,0.6-2.7-0.9-1.5C12.2,54.7,13,55.3,14.1,55.5"/>
	</g>
	<path class="st3" d="M11.6,33.5c-1.2,0.6-2.4,1.4-3.8,1.7c-1.2,0.3-3.4,0-3.6-1.6c-0.2-1.5,1.9-2.2,3.1-2.1
		c1.4,0.2,2.9,1.1,4.2,1.8C11.5,33.4,11.5,33.5,11.6,33.5"/>
	<g>
		<path class="st3" d="M11.6,33.5c-0.5,1.6-2.1,7.8-4.9,6.3c-1.4-0.7-0.3-3,0.5-3.8c1-1.1,2.7-1.7,4.1-2.3
			C11.3,33.6,11.5,33.5,11.6,33.5"/>
	</g>
	<g>
		<path class="st3" d="M11.6,33.5c-0.5-1.6-2.1-7.8-4.9-6.3c-1.4,0.7-0.3,3,0.5,3.8c1,1.1,2.7,1.7,4.1,2.3
			C11.3,33.4,11.5,33.4,11.6,33.5"/>
	</g>
	<g>
		<path class="st3" d="M11.7,37.2c-0.2,1-0.3,2.6,0.6,3.3c0.6,0.5,2.1,0.3,1.8-0.8c-0.1-0.2-0.8-0.4-1-0.7c-0.4-0.5-0.3-1.5-0.3-2.1
			l-0.1-2.5C12.3,35.3,11.9,36.2,11.7,37.2"/>
	</g>
	<g>
		<path class="st3" d="M11.7,29.9c-0.2-1-0.3-2.6,0.6-3.3c0.6-0.5,2.1-0.3,1.8,0.8c-0.1,0.2-0.8,0.4-1,0.7c-0.4,0.5-0.3,1.5-0.3,2.1
			l-0.1,2.5C12.3,31.8,11.9,30.8,11.7,29.9"/>
	</g>
	<g>
		<path class="st3" d="M14.1,34.5c1.1-0.3,0.6-2.7-0.9-1.5C12.2,33.7,13,34.3,14.1,34.5"/>
	</g>
	<g>
		<path class="st3" d="M11.6,12.5c-1.2,0.6-2.5,1.4-3.8,1.7c-1.2,0.3-3.4,0-3.6-1.6c-0.2-1.5,1.9-2.2,3.1-2.1
			c1.4,0.2,2.9,1.1,4.2,1.8C11.5,12.4,11.5,12.4,11.6,12.5"/>
	</g>
	<g>
		<path class="st3" d="M11.6,12.5c-0.5,1.6-2.1,7.8-4.9,6.3c-1.4-0.7-0.3-3,0.5-3.8c1-1.1,2.7-1.7,4.1-2.3
			C11.3,12.6,11.5,12.5,11.6,12.5"/>
	</g>
	<g>
		<path class="st3" d="M11.6,12.5c-0.5-1.6-2.1-7.8-4.9-6.3c-1.4,0.7-0.3,3,0.5,3.8c1,1.1,2.7,1.7,4.1,2.3
			C11.3,12.4,11.5,12.4,11.6,12.5"/>
	</g>
	<g>
		<path class="st3" d="M11.7,16.1c-0.2,1-0.3,2.6,0.6,3.3c0.6,0.5,2.1,0.3,1.8-0.8c-0.1-0.2-0.8-0.4-1-0.7c-0.4-0.5-0.3-1.5-0.3-2.1
			l-0.1-2.5C12.3,14.2,11.9,15.2,11.7,16.1"/>
	</g>
	<path class="st3" d="M11.7,8.8c-0.2-1-0.3-2.6,0.6-3.3C13,5,14.5,5.2,14.1,6.3c-0.1,0.2-0.8,0.4-1,0.7c-0.4,0.5-0.3,1.5-0.3,2.1
		l-0.1,2.5C12.3,10.8,11.9,9.8,11.7,8.8"/>
	<g>
		<path class="st3" d="M14.1,13.5c1.1-0.3,0.6-2.7-0.9-1.5C12.2,12.7,13,13.3,14.1,13.5"/>
	</g>
	<g>
		<path class="st3" d="M11.6,75.5c-1.2,0.6-2.5,1.4-3.8,1.7c-1.2,0.3-3.4,0-3.6-1.6c-0.2-1.5,1.9-2.2,3.1-2.1
			c1.4,0.2,2.9,1.1,4.2,1.8C11.5,75.5,11.5,75.5,11.6,75.5"/>
	</g>
	<g>
		<path class="st3" d="M11.6,75.5c-0.5,1.6-2.1,7.8-4.9,6.3c-1.4-0.7-0.3-3,0.5-3.8c1-1.1,2.7-1.7,4.1-2.3
			C11.3,75.6,11.5,75.6,11.6,75.5"/>
	</g>
	<path class="st3" d="M11.6,75.5c-0.5-1.6-2.1-7.8-4.9-6.3c-1.4,0.7-0.3,3,0.5,3.8c1,1.1,2.7,1.7,4.1,2.3
		C11.3,75.4,11.5,75.5,11.6,75.5"/>
	<g>
		<path class="st3" d="M11.7,79.2c-0.2,1-0.3,2.6,0.6,3.3c0.6,0.5,2.1,0.3,1.8-0.8c-0.1-0.2-0.8-0.4-1-0.7c-0.4-0.5-0.3-1.5-0.3-2.1
			l-0.1-2.5C12.3,77.3,11.9,78.3,11.7,79.2"/>
	</g>
	<g>
		<path class="st3" d="M11.7,71.9c-0.2-1-0.3-2.6,0.6-3.3c0.6-0.5,2.1-0.3,1.8,0.8c-0.1,0.2-0.8,0.4-1,0.7c-0.4,0.5-0.3,1.5-0.3,2.1
			l-0.1,2.5C12.3,73.8,11.9,72.8,11.7,71.9"/>
	</g>
	<path class="st3" d="M14.1,76.5c1.1-0.3,0.6-2.7-0.9-1.5C12.2,75.8,13,76.3,14.1,76.5"/>
</g>
<g>
	<g>
		<g>
			<path class="st4" d="M56.9,101.5c-14.6,0-26.5-11.9-26.5-26.5s11.9-26.5,26.5-26.5c14.6,0,26.5,11.9,26.5,26.5
				S71.5,101.5,56.9,101.5z M56.9,52c-12.7,0-23,10.3-23,23s10.3,23,23,23s23-10.3,23-23S69.6,52,56.9,52z"/>
		</g>
		<g>
			<g>
				<path class="st4" d="M64,72.5h14.7c-0.5-3.9-1.9-7.5-4.2-10.5L64,72.5z"/>
			</g>
			<g>
				<path class="st4" d="M51.6,72.5L40.2,61.2c-2.6,3.2-4.4,7.1-4.9,11.4H51.6z"/>
			</g>
			<g>
				<path class="st4" d="M60.4,53.6v15.4l10.6-10.6C68,55.9,64.4,54.2,60.4,53.6z"/>
			</g>
			<g>
				<path class="st4" d="M51.6,77.7H35.3c0.5,4.3,2.3,8.2,4.9,11.4L51.6,77.7z"/>
			</g>
			<g>
				<path class="st4" d="M55.2,68.9V53.4c-4.2,0.3-8.1,1.9-11.3,4.3L55.2,68.9z"/>
			</g>
			<g>
				<path class="st4" d="M64,77.7l10.5,10.5c2.2-3,3.7-6.6,4.2-10.5H64z"/>
			</g>
			<g>
				<path class="st4" d="M60.4,81.3v15.4c4-0.6,7.6-2.3,10.6-4.8L60.4,81.3z"/>
			</g>
			<g>
				<path class="st4" d="M55.2,81.3L43.9,92.6c3.2,2.4,7.1,3.9,11.3,4.3V81.3z"/>
			</g>
		</g>
		<g>
			<circle class="st4" cx="57" cy="75.4" r="17.3"/>
		</g>
		<g>
			<path class="st5" d="M57,94.2c-10.3,0-18.7-8.4-18.7-18.7S46.7,56.7,57,56.7s18.7,8.4,18.7,18.7S67.4,94.2,57,94.2z M57,59
				c-9.1,0-16.4,7.4-16.4,16.4S48,91.9,57,91.9s16.4-7.4,16.4-16.4S66.1,59,57,59z"/>
		</g>
		<g>
			<g>
				<path class="st6" d="M50.9,70.5c0,0,5.5-1.6,11.6,0.7c1.3,0.5-5.1-2.2-10.9,0.5"/>
			</g>
			<g>
				<path class="st7" d="M62.8,71l0.4-0.7l3.6-6.3l-5.3,1.6l0.1,1.9L60,67l-1.7-0.5l1-1.3L57,59.3l-2.3,5.9l1,1.3L54,67l-1.7,0.5
					l0.1-1.9L47.2,64l3.5,6.1C51.3,70,56.7,68.8,62.8,71z"/>
			</g>
		</g>
	</g>
	<g>
		<path class="st5" d="M56.2,83c0,2.4-1.4,3.6-4.3,3.6h-4V73.2h3.6c1.4,0,2.5,0.3,3.3,0.9c0.8,0.6,1.2,1.5,1.2,2.6
			c0,1.3-0.6,2.3-1.9,3.1C55.5,80.3,56.2,81.4,56.2,83z M53.2,76.9c0-1.2-0.6-1.8-1.8-1.8h-0.9v3.6h1.1
			C52.7,78.8,53.2,78.1,53.2,76.9z M53.4,82.7c0-0.6-0.1-1.1-0.3-1.4c-0.3-0.4-0.8-0.6-1.6-0.6h-0.9v3.9h1.2
			C52.9,84.6,53.4,84,53.4,82.7z"/>
		<path class="st5" d="M66.3,83.2c0,1.1-0.3,2-1,2.6c-0.7,0.7-1.8,1.1-3.2,1.1c-2.7,0-4.1-1.2-4.1-3.7v-6.9c0-1,0.4-1.9,1.1-2.5
			c0.7-0.6,1.8-0.9,3.1-0.9c1.3,0,2.3,0.3,3,1c0.7,0.6,1,1.4,1,2.4v1.3h-2.8c0-0.1,0-0.3,0-0.6c0-0.2,0-0.4,0-0.6
			c0-1.2-0.5-1.8-1.4-1.8c-0.9,0-1.4,0.5-1.4,1.4v7.5c0,0.9,0.5,1.4,1.4,1.4c0.9,0,1.4-0.5,1.4-1.4v-1.8h2.8V83.2z"/>
	</g>
</g>
</svg>
