<?xml version="1.0" encoding="utf-8"?>
<!-- Generator: Adobe Illustrator 19.0.0, SVG Export Plug-In . SVG Version: 6.00 Build 0)  -->
<svg version="1.1" id="Layer_1" xmlns="http://www.w3.org/2000/svg" xmlns:xlink="http://www.w3.org/1999/xlink" x="0px" y="0px"
	 viewBox="0 0 52.5 53.5" style="enable-background:new 0 0 52.5 53.5;" xml:space="preserve">
<style type="text/css">
	.st0{fill:#C12026;}
	.st1{fill:#E8E3D0;}
	.st2{fill:#683C7B;}
	.st3{fill:#552C65;}
	.st4{fill:#F3EFE4;}
	.st5{fill:#D7CEAD;}
	.st6{fill:#A91E22;}
</style>
<g id="XMLID_138_">
	<path id="XMLID_136_" class="st0" d="M45.6,38.9H7.7c-2.9,0-5.3-2.4-5.3-5.3V19.2c0-2.9,2.4-5.3,5.3-5.3h37.8
		c2.9,0,5.3,2.4,5.3,5.3v14.5C50.9,36.5,48.5,38.9,45.6,38.9"/>
	<path id="XMLID_135_" class="st1" d="M7.7,16.9c-1.3,0-2.3,1-2.3,2.3v14.5c0,1.3,1,2.3,2.3,2.3h37.8c1.3,0,2.3-1,2.3-2.3V19.2
		c0-1.3-1-2.3-2.3-2.3H7.7z"/>
	<rect id="XMLID_134_" x="7.7" y="19.2" class="st2" width="37.8" height="14.5"/>
	<path id="XMLID_133_" class="st3" d="M18.1,28.2c0-0.6-0.2-1.1-0.5-1.5c0,0-0.1-0.1-0.1-0.1v-2.3c0-0.1,0-0.2,0-0.3
		c0-0.1,0-0.2,0-0.3v0h0c0-0.3-0.1-0.5-0.2-0.7c-0.2-0.3-0.4-0.5-0.7-0.7c-0.3-0.2-0.6-0.3-1-0.3c-0.3-0.1-0.9-0.1-1.5-0.1h-3.2
		v11.8h7.4v-5.1h0C18.1,28.4,18.1,28.3,18.1,28.2"/>
	<path id="XMLID_153_" class="st4" d="M18.1,28.2c0,0.5-0.1,0.9-0.3,1.2c-0.2,0.3-0.4,0.6-0.7,0.9c-0.3,0.3-0.7,0.5-1.1,0.6
		C15.6,31,15.1,31,14.4,31h-3.7v-9.2H14c0.7,0,1.2,0,1.5,0.1c0.3,0.1,0.7,0.2,1,0.3c0.3,0.2,0.6,0.4,0.7,0.7c0.2,0.3,0.2,0.6,0.2,1
		c0,0.4-0.1,0.8-0.3,1.2c-0.2,0.3-0.5,0.6-0.9,0.8v0c0.6,0.1,1,0.4,1.4,0.7C17.9,27.1,18.1,27.6,18.1,28.2 M15.2,24.4
		c0-0.1,0-0.3-0.1-0.5c-0.1-0.2-0.2-0.3-0.4-0.3c-0.2-0.1-0.3-0.1-0.5-0.1c-0.2,0-0.5,0-0.9,0h-0.2v1.9h0.3c0.4,0,0.7,0,0.8,0
		c0.2,0,0.3-0.1,0.5-0.1c0.2-0.1,0.3-0.2,0.4-0.4C15.1,24.8,15.2,24.6,15.2,24.4 M15.7,28.1c0-0.3-0.1-0.5-0.2-0.7
		c-0.1-0.2-0.3-0.3-0.5-0.4c-0.1-0.1-0.3-0.1-0.6-0.1c-0.2,0-0.6,0-1,0h-0.4v2.3h0.1c0.6,0,1,0,1.2,0c0.2,0,0.5-0.1,0.7-0.2
		c0.2-0.1,0.4-0.2,0.5-0.4C15.7,28.6,15.7,28.4,15.7,28.1"/>
	<polygon id="XMLID_129_" class="st3" points="27.2,21.8 24.7,21.8 21.6,31 21.6,33.6 30.3,33.6 30.3,31 	"/>
	<path id="XMLID_149_" class="st4" d="M21.6,31l3.1-9.2h2.5l3.1,9.2H28l-0.6-1.9h-2.9L23.9,31H21.6z M26.9,27.5l-0.9-3l-0.9,3H26.9z
		"/>
	<path id="XMLID_126_" class="st3" d="M39.5,27.1c0.5-0.3,1-0.6,1.3-1c0.3-0.4,0.5-1,0.5-1.7c0-0.5-0.1-0.9-0.3-1.2
		c-0.2-0.3-0.5-0.6-0.8-0.8c-0.3-0.2-0.7-0.3-1-0.4c-0.4-0.1-0.8-0.1-1.3-0.1H34v11.8h8.5V31L39.5,27.1z"/>
	<path id="XMLID_145_" class="st4" d="M42.6,31h-2.8l-2.6-3.4h-0.8V31H34v-9.2h3.7c0.5,0,1,0,1.3,0.1c0.4,0.1,0.7,0.2,1,0.4
		c0.3,0.2,0.6,0.5,0.8,0.8c0.2,0.3,0.3,0.7,0.3,1.2c0,0.7-0.2,1.3-0.5,1.7c-0.3,0.4-0.7,0.8-1.3,1L42.6,31z M38.8,24.6
		c0-0.2,0-0.4-0.1-0.6c-0.1-0.2-0.2-0.3-0.4-0.4c-0.1-0.1-0.3-0.1-0.5-0.1c-0.2,0-0.4,0-0.7,0h-0.8V26H37c0.3,0,0.6,0,0.8-0.1
		c0.2,0,0.4-0.1,0.6-0.2c0.1-0.1,0.3-0.3,0.3-0.4C38.8,25.1,38.8,24.9,38.8,24.6"/>
	<rect id="XMLID_123_" x="10.8" y="33.6" class="st5" width="7.4" height="2.3"/>
	<rect id="XMLID_33_" x="21.6" y="33.6" class="st5" width="8.7" height="2.3"/>
	<rect id="XMLID_32_" x="34" y="33.6" class="st5" width="8.5" height="2.3"/>
	<rect id="XMLID_31_" x="10.8" y="36" class="st6" width="7.4" height="2.9"/>
	<rect id="XMLID_30_" x="21.6" y="36" class="st6" width="8.7" height="2.9"/>
	<rect id="XMLID_29_" x="34" y="36" class="st6" width="8.5" height="2.9"/>
</g>
</svg>
