<?xml version="1.0" encoding="utf-8"?>
<!-- Generator: Adobe Illustrator 21.1.0, SVG Export Plug-In . SVG Version: 6.00 Build 0)  -->
<svg version="1.1" id="Capa_1" xmlns="http://www.w3.org/2000/svg" xmlns:xlink="http://www.w3.org/1999/xlink" x="0px" y="0px"
	 viewBox="0 0 612 612" style="enable-background:new 0 0 612 612;" xml:space="preserve" width="612" height="612">
<style type="text/css">
	.st0{fill:#FFFFFF;}
	.st1{fill:#304A54;}
	.st2{fill:#FAFCFC;}
	.st3{fill:#FFFFFF;stroke:#FFFFFF;stroke-width:0.75;stroke-miterlimit:10;}
	.st4{fill:#212D33;}
	.st5{fill:#FFFFFF;stroke:#212D33;stroke-miterlimit:10;}
	.st6{fill:#212D33;stroke:#212D33;stroke-miterlimit:10;}
	.st7{fill:#03898F;}
	.st8{fill:#2A2A2A;}
</style>
<g>
	<path class="st8" d="M468.4,585.8c-17.5,0-33.8,0-50,0c-118.7,0-237.4,0-356,0c-19.1,0-33-9.9-37.2-26.8c-1-3.8-1.1-7.9-1.1-11.9
		c-0.1-160.2,0-320.4,0-480.5c0-21.3,9.3-35.2,26.9-39.6c4.4-1.1,9.1-1.2,13.7-1.2c160.2-0.1,320.4,0,480.5,0
		c24.3,0,38.9,14.5,38.9,38.9c0,61.7,0,123.5,0,185.2c0,1.7-0.2,3.4-0.4,5.8c-5.6-5.1-10.9-9.6-15.7-14.6c-1.2-1.3-1.4-4-1.4-6.1
		c-0.1-23.9,0-47.7-0.1-71.6c0-12,1.7-10.7-10.4-10.7c-83.8-0.1-167.6,0-251.4,0c-84.8,0-169.6,0-254.4,0c-8.9,0-8.9,0-8.9,8.6
		c0,127.7,0,255.4,0,383.1c0,3.8,0.1,7.7,1.1,11.3c2.2,8.2,9.5,12.6,20.3,12.6c43.3,0,86.6,0,129.9,0c85,0,170,0,255-0.1
		c3.8,0,6.2,1.2,8.5,4.2C459.6,576.8,463.6,580.7,468.4,585.8z M258.5,77.5c1.2,2.2,2.2,3.9,3.1,5.6c7.2,13.8,14.5,27.6,21.6,41.6
		c1.7,3.3,3.6,4.8,7.4,4.6c5.4-0.3,10.8-0.4,16.2,0c5.4,0.4,7.3-1.2,7.2-6.9c-0.4-19-0.2-38.1-0.2-57.1c0-13.8,0-13.6-14.1-13.7
		c-4.5,0-6,1.3-5.8,5.8c0.4,13.8,0.5,27.7,0.7,41.5c0,1.4-0.2,2.7-0.4,5.7c-8.8-17-16.9-32.4-24.8-47.9c-1.9-3.7-4.1-5.3-8.4-5
		c-5.6,0.3-11.2,0.3-16.8,0c-4.6-0.3-5.8,1.5-5.8,5.9c0.2,19.4,0.1,38.9,0.1,58.3c0,13.5,0,13.2,13.6,13.5c5.3,0.1,6.3-1.9,6.2-6.6
		C258.3,107.8,258.5,93,258.5,77.5z M161.5,89.1c3-4.3,6.8-7.9,8.3-12.3C174,64,166,53.8,150.4,52.5c-11.1-0.9-22.4-0.8-33.6-0.7
		c-1.5,0-4.2,2.5-4.2,3.9c-0.3,23.2-0.2,46.4,0,69.6c0,1.3,2.1,3.7,3.2,3.7c12.4-0.1,24.9,0.3,37.1-1.1c9.7-1.1,17-6.9,19.1-17.3
		C173.8,101.2,170.5,94.9,161.5,89.1z M422.5,90.1c0.2,0,0.4,0.1,0.6,0.1c0.2,3,0.2,6,0.6,9c1.7,15.4,10.4,26.8,24.8,29.5
		c8.4,1.6,17.5,1.1,26-0.3c10.6-1.7,17.7-9.1,21.2-19.2c4.3-12.7,4.3-25.6-0.2-38.3c-3.4-9.4-10.3-15.7-19.9-18.5
		c-9.2-2.7-18.5-2.8-27.8-0.3c-11.1,3-18.7,9.9-21.9,20.9C424.1,78.7,423.6,84.5,422.5,90.1z M400.8,55.7
		c-9.5-4.2-18.9-5.3-28.6-4.8c-22.2,1-35.3,13.3-37.1,35.3c-0.5,5.9,0.1,12.1,1.5,17.8c3.4,15.1,13.3,24.7,28.7,25.6
		c11.2,0.7,22.6-1.5,33.8-2.8c1.5-0.2,3.6-3.1,3.7-4.8c0.3-11.2,0.1-22.4,0.2-33.6c0-3.1-1.2-4.3-4.3-4.2
		c-8.6,0.1-17.2-0.1-25.8,0.1c-1.4,0-3.8,1.5-3.9,2.4c-0.3,4.1-0.7,8.6,0.6,12.4c0.5,1.3,5.8,1,8.8,1.4c0.9,0.1,1.9,0.3,3.1,0.5
		c0.2,1.8,0.2,3.4,0.4,4.9c0.8,5.1-1,7.1-6.5,7.1c-10.4-0.1-16.3-4.4-17.8-14.7c-0.7-4.9-0.7-10,0.1-14.9c1.5-9.7,8.1-15.3,18-14.9
		c6.2,0.2,12.4,1.8,19,2.8C396.6,66.3,398.7,61.1,400.8,55.7z M215.2,90.2c0-10.2,0-20.4,0-30.6c0-8,0-8-8.3-8
		c-2.2,0-4.4,0.2-6.6-0.1c-5.6-0.8-7.6,1.2-7.5,7.2c0.4,20.8,0.1,41.7,0.1,62.5c0,8,0,8,8.3,8c2,0,4,0,6,0c8,0,8,0,8-7.7
		C215.2,111.1,215.2,100.7,215.2,90.2z"/>
	<path class="st8" d="M132.2,306c0-13.2-0.1-26.5,0.1-39.7c0.1-4.2-1.4-5.5-5.5-5.5c-17.8,0.2-35.7,0.1-53.5,0.1
		c-1.6,0-3.2,0.1-4.8,0c-5.4-0.4-9-3.8-9.1-8.5c-0.1-5,3.6-8.7,9.3-8.8c14.8-0.2,29.7,0,44.5-0.2c6.1-0.1,14.2,1.6,17.8-1.6
		c3.1-2.7,1.2-11.3,1.2-17.2c0.1-15,0-30.1,0.2-45.1c0.1-5.4,3.8-8.9,8.5-8.9c4.8,0,8.3,3.5,8.7,8.8c0.1,1.6,0.1,3.2,0.1,4.8
		c0,17.6,0.2,35.3-0.1,52.9c-0.1,5,1.5,6.4,6.5,6.4c26.1-0.2,52.1-0.2,78.2,0c5.1,0,6.4-1.6,6.3-6.5c-0.2-18.8-0.2-37.7,0-56.5
		c0.1-7.9,6.9-12.6,12.7-8.6c2.3,1.5,4.4,5.1,4.4,7.8c0.4,18.4,0.3,36.9,0.1,55.3c0,1.8-1.5,3.9-2.9,5.3c-4.9,5.2-10.6,9.8-15,15.5
		c-3.1,4-6.1,5.3-11,5.2c-24.3-0.2-48.5,0-72.8-0.2c-4.9,0-6.6,1.3-6.5,6.4c0.2,26.1,0.2,52.1,0,78.2c0,4.9,1.4,6.5,6.4,6.5
		c25.7-0.2,51.3,0,77-0.2c3.7,0,6.2,1,8.7,4c3.5,4.3,7.6,8.3,11.9,11.8c3.2,2.5,4.4,5.1,4.4,9c-0.2,25.5,0.1,50.9-0.2,76.4
		c-0.1,5.9,1.9,7.3,7.5,7.3c25.5-0.3,50.9-0.3,76.4,0c5.4,0.1,7.2-1.3,7.2-7c-0.3-24.7,0-49.3-0.2-74c0-5,1-8.5,5.4-11.6
		c4.7-3.3,8.2-8.2,12.6-12c2.2-1.8,5.3-3.7,8-3.7c24.5-0.3,48.9-0.3,73.4,0c2.7,0,5.7,2,7.9,3.9c5.1,4.5,9.5,9.7,14.7,14.1
		c2.7,2.3,4,4.4,4,8c-0.1,24.3,0,48.5-0.2,72.8c0,2.3-1.7,5.1-3.4,6.9c-5.2,5.6-10.5,11-16.2,16c-2.1,1.9-5.2,3.7-7.9,3.7
		c-24.7,0.3-49.3,0.3-74,0.1c-5.3-0.1-6.9,1.4-6.8,6.8c0.3,17.6,0.1,35.3,0.1,52.9c0,1.6,0.1,3.2-0.1,4.8c-0.4,5.2-3.4,8.1-8.4,8.5
		c-4.7,0.4-8.7-3.4-8.8-8.6c-0.3-10.8-0.1-21.7-0.2-32.5c0-8.6-0.2-17.2,0.1-25.9c0.1-4.3-1-6-5.7-6c-26.5,0.2-52.9,0.2-79.4,0
		c-4.4,0-5.9,1.3-5.9,5.8c0.2,18.2,0.1,36.5,0,54.7c0,2.2,0.1,4.5-0.6,6.5c-1.5,4.2-4.9,6.5-9.4,5.7c-4.7-0.8-7.3-3.9-7.4-8.8
		c0-15-0.1-30.1-0.1-45.1c0-4.8-0.1-9.6,0-14.4c0.1-3-1.1-4.3-4.2-4.3c-27.5,0-54.9,0.1-82.4-0.1c-4.3,0-4.3,2.5-4.3,5.5
		c0,18,0,36.1,0,54.1c0,2,0.1,4-0.2,6c-0.8,4.6-3.8,7.2-8.3,7.2c-4.7,0.1-8-2.5-8.7-7.4c-0.3-2.2-0.3-4.4-0.3-6.6
		c0-17.2-0.2-34.5,0.1-51.7c0.1-5.4-1.2-7.3-6.9-7.2c-17.4,0.4-34.9,0.1-52.3,0.1c-1.2,0-2.4,0.1-3.6,0c-6.2-0.2-10.1-3.6-10.1-8.7
		c0-5.2,3.8-8.7,10-8.7c15-0.1,30.1-0.1,45.1-0.1c4,0,8-0.2,12,0.1c4.5,0.4,5.9-1.4,5.8-5.8c-0.2-23.5-0.1-46.9-0.1-70.4
		c0-14.7,0-14.7-14.9-14.7c-15.4,0-30.9,0-46.3,0c-2.4,0-5.7,0.2-6.8-1.2c-2.2-2.6-4.5-6.3-4.3-9.5c0.3-4.7,4.3-6.8,9.2-6.7
		c18.8,0,37.7-0.2,56.5,0.1c5.3,0.1,6.9-1.3,6.8-6.7C131.9,332.1,132.2,319.1,132.2,306C132.2,306,132.2,306,132.2,306z
		 M149.7,414.6C149.7,414.6,149.7,414.6,149.7,414.6c0,13.4,0.1,26.8-0.1,40.3c-0.1,3.9,1.3,5.2,5.2,5.2c26.8-0.1,53.7-0.1,80.5,0
		c3.9,0,5.2-1.2,5.2-5.2c-0.1-26.8-0.1-53.7,0-80.5c0-3.9-1.2-5.3-5.2-5.2c-26.8,0.1-53.7,0.2-80.5,0c-3.9,0-5.3,1.3-5.2,5.2
		C149.8,387.8,149.7,401.2,149.7,414.6z M366.3,414.6C366.3,414.6,366.2,414.6,366.3,414.6c0,13.4,0.1,26.8-0.1,40.3
		c-0.1,3.9,1.3,5.2,5.2,5.2c26.8-0.1,53.7-0.1,80.5,0c3.9,0,5.2-1.2,5.2-5.2c-0.1-26.8-0.1-53.7,0-80.5c0-3.9-1.2-5.3-5.2-5.2
		c-26.8,0.1-53.7,0.2-80.5,0c-3.9,0-5.3,1.3-5.2,5.2C366.4,387.8,366.3,401.2,366.3,414.6z"/>
	<path class="st8" d="M241.7,304.4c0.3-35.1,28-62.4,63-62c34.3,0.3,61.8,28.2,61.4,62.4c-0.3,35.2-27.8,62.2-63,62
		C269.1,366.6,241.5,338.6,241.7,304.4z"/>
	<path class="st8" d="M457.1,305.3c0.4-35.1,28.2-62.3,63.2-61.8c34.3,0.5,61.6,28.4,61.2,62.6c-0.5,35.2-28,62.1-63.2,61.8
		C484.2,367.7,456.7,339.5,457.1,305.3z"/>
	<path class="st8" d="M519.8,460.1c34.3,0.1,61.9,27.9,61.8,62.1c-0.2,35.2-27.5,62.4-62.7,62.4c-34.1,0-61.8-27.8-61.8-62.1
		C457.1,487.3,484.7,459.9,519.8,460.1z"/>
	<path class="st8" d="M411.8,243.4c12.8,0,25.7-0.3,38.5,0.1c5.8,0.2,7-1.9,6.9-7.2c-0.3-17.2-0.1-34.5-0.1-51.7c0-2,0-4,0.2-6
		c0.5-5.2,3.7-8.1,8.8-8c4.8,0.1,8.2,2.9,8.3,7.8c0.3,19.2,0.2,38.5,0.1,57.7c0,1.6-1.8,3.3-3.1,4.7c-5.6,5.7-11.1,11.5-17,16.9
		c-1.7,1.6-4.3,3.1-6.5,3.1c-23.8,0.2-47.7,0.2-71.5,0c-2.3,0-5-1.8-6.8-3.5c-5.9-5.6-11.7-11.4-17.2-17.5c-1.7-1.8-3.3-4.6-3.4-6.9
		c-0.3-17.2-0.2-34.5-0.1-51.7c0-6.7,3.4-10.7,8.8-10.6c5.3,0.1,8.6,4.1,8.6,10.8c0.1,17.6,0,35.3,0,52.9c0,9.2,0,9.2,8.9,9.2
		C387.3,243.4,399.6,243.4,411.8,243.4z"/>
	<path class="st8" d="M583.4,472c-5.3-4.9-10.3-9.2-14.9-13.9c-1.2-1.2-1.8-3.5-1.9-5.3c-0.1-25.8-0.1-51.7,0-77.5
		c0-1.9,0.9-4.3,2.2-5.7c4.5-4.6,9.3-8.8,14.5-13.6C583.4,394.7,583.4,433.1,583.4,472z"/>
	<path class="st8" d="M132.4,113.5c1.2-6.7,2.1-11.7,3-16.6c4.3,0.9,9.1,0.9,12.8,2.9c1.6,0.9,2.3,6.5,1.1,9
		C146.1,115.4,139.6,112,132.4,113.5z"/>
	<path class="st8" d="M133.7,81.6c0-4.8,0-8.7,0-13.1c5-0.8,10.2-2.1,13.8,2.3c1.2,1.5,1.3,5.3,0.3,7.1
		C144.7,83.2,139.2,81.3,133.7,81.6z"/>
	<path class="st8" d="M476.8,90.6c-0.7,4.2-1.1,8.2-2.2,12c-1.9,6.7-6.4,9.8-13.2,10c-7,0.2-11.5-2.6-13.9-9.1
		c-3.1-8.7-3.1-17.7,0.1-26.4c2.3-6.5,6.9-9.1,14-8.9c6.5,0.2,10.9,3.2,12.8,9.7C475.7,82,476.1,86.4,476.8,90.6z"/>
</g>
</svg>
