<?xml version="1.0" encoding="utf-8"?>
<!-- Generator: Adobe Illustrator 21.1.0, SVG Export Plug-In . SVG Version: 6.00 Build 0)  -->
<svg version="1.1" id="Capa_1" xmlns="http://www.w3.org/2000/svg" xmlns:xlink="http://www.w3.org/1999/xlink" x="0px" y="0px"
	 viewBox="0 0 612 612" style="enable-background:new 0 0 612 612;" xml:space="preserve">
<style type="text/css">
	.st0{fill:#FFFFFF;}
	.st1{fill:#304A54;}
	.st2{fill:#FAFCFC;}
	.st3{fill:#FFFFFF;stroke:#FFFFFF;stroke-width:0.75;stroke-miterlimit:10;}
	.st4{fill:#212D33;}
	.st5{fill:#FFFFFF;stroke:#212D33;stroke-miterlimit:10;}
	.st6{fill:#212D33;stroke:#212D33;stroke-miterlimit:10;}
	.st7{fill:#03898F;}
</style>
<g>
	<g>
		<path class="st0" d="M522.7,603.5c0,0.9-0.7,1.6-1.6,1.6H90.9c-0.9,0-1.6-0.7-1.6-1.6V173.2c0-0.9,0.7-1.6,1.6-1.6h430.3
			c0.9,0,1.6,0.7,1.6,1.6V603.5z"/>
	</g>
	<g>
		<path class="st5" d="M554.9,293.5c0,0.4-0.8,0.6-1.8,0.6H58.9c-1,0-1.8-0.3-1.8-0.6V118.7c0-0.4,0.8-0.6,1.8-0.6h494.2
			c1,0,1.8,0.3,1.8,0.6V293.5z"/>
		<path class="st6" d="M553.1,296.5H58.9c-3.1,0-4.2-1.6-4.2-3V118.7c0-1.4,1.1-3,4.2-3h494.2c3.1,0,4.2,1.6,4.2,3v174.8
			C557.2,294.9,556.2,296.5,553.1,296.5z M59.5,291.8h493.1V120.4H59.5V291.8z"/>
	</g>
	<g>
		<rect x="259.7" y="291" class="st7" width="92.6" height="310.9"/>
		<path class="st7" d="M354.6,604.3h-97.3V288.6h97.3V604.3z M262.1,599.6h87.9V293.4h-87.9V599.6z"/>
	</g>
	<g>
		<rect x="253.7" y="118" class="st7" width="104.7" height="176.1"/>
		<path class="st4" d="M360.7,296.5H251.3V115.7h109.4V296.5z M256,291.8h100V120.4H256V291.8z"/>
	</g>
	<g>
		<path class="st0" d="M509.7,118c8.9-28.3,6.1-57.1-10.3-79C467.9-3.1,397.8-3.8,343,37.3c-11.1,8.3-20.7,17.8-28.8,27.8
			c-9.1-7.2-20.7-11.5-33.2-11.5c-12.1,0-23.3,4-32.3,10.8c-4.4-4.2-9.2-8.3-14.4-12c-44.2-31.4-100.2-28.4-125.1,6.7
			C97.2,76,94.6,97.1,100,118H509.7z"/>
	</g>
</g>
</svg>
