<?xml version="1.0" encoding="utf-8"?>
<!-- Generator: Adobe Illustrator 21.1.0, SVG Export Plug-In . SVG Version: 6.00 Build 0)  -->
<svg version="1.1" id="Capa_1" xmlns="http://www.w3.org/2000/svg" xmlns:xlink="http://www.w3.org/1999/xlink" x="0px" y="0px"
	 viewBox="0 0 612 612" style="enable-background:new 0 0 612 612;" xml:space="preserve" width="612" height="612">
<style type="text/css">
	.st0{fill:#FFFFFF;}
	.st1{fill:#304A54;}
	.st2{fill:#FAFCFC;}
	.st3{fill:#FFFFFF;stroke:#FFFFFF;stroke-width:0.75;stroke-miterlimit:10;}
	.st4{fill:#212D33;}
	.st5{fill:#FFFFFF;stroke:#212D33;stroke-miterlimit:10;}
	.st6{fill:#212D33;stroke:#212D33;stroke-miterlimit:10;}
	.st7{fill:#03898F;}
	.st8{fill:#2A2A2A;}
	.st9{fill:#29BF29;}
	.st10{fill:#2DA9F6;stroke:#2DA9F6;stroke-width:8;stroke-miterlimit:10;}
	.st11{fill:#45707F;}
	.st12{fill:#2B393F;}
	.st13{fill:#FCFCFC;}
	.st14{fill:#FBFBFB;}
	.st15{fill:#FEFEFE;}
	.st16{fill:#292929;}
	.st17{fill:#FFA500;}
	.st18{fill:#2DA9F6;}
	.st19{fill:#A2A2A2;}
	.st20{fill:none;stroke:#2A2A2A;stroke-width:20;stroke-miterlimit:10;}
	.st21{fill:#FFFFFF;stroke:#2A2A2A;stroke-width:22;stroke-miterlimit:10;}
	.st22{fill:none;stroke:#212D33;stroke-width:50;stroke-miterlimit:10;}
</style>
<g>
	<path class="st4" d="M578.1,242.1c-0.7,2.4-8.8,20.2-18.7,39.2c-5.6,10.8-18.2,13-27.1,5.6c-6.2-5.2-7.6-14.2-2.9-22.8
		c14.1-25.9,23.6-53.5,29.3-82.3c5.2-26.3,8.8-52.9,3.1-79.6c-7.3-34.1-35.1-56.2-69.1-55.7c-33.2,0.5-61.7,24.5-68,57.7
		c-2.9,15,0,29.8,2.4,44.5c2.1,13.4,4.8,26.7,7.2,40c1.9,10.2-3.6,20-12.5,21.9c-10,2.3-19.7-3.6-21.5-14.5
		c-4.3-25.8-9.6-51.6-11.3-77.6c-3.3-50.5,38.2-98.9,88.6-105.6c21.3-2.8,40.7-0.6,58,6.9c3.9,1.7,23.6,10.6,39.9,31.4
		c39.2,50.2,21.9,123.4,16,148.7C588.9,210.9,589,206.3,578.1,242.1z"/>
	<path class="st4" d="M370.3,107.3c2.1,18.9,4.3,36.7,6.1,54.6c0.3,2.9-0.2,6.2-1.5,8.8c-8.8,17.8-8.1,35.2,3.3,51.2
		c12,16.8,29.2,23.6,49.5,19.2c19.8-4.3,32.5-17.1,37-36.8c4.2-18.5-1.5-34.4-15.7-47.2c-1.4-1.3-3.4-2.6-3.7-4.2
		c-2-13-3.6-26-5.6-40.2c5.5,0.6,9.5,0.9,13.4,1.4c7.9,1,15.8,2,23.6,3.4c11.2,2,15.7,6,17.3,17.3c2.7,19,5.3,38,6.8,57.2
		c2.6,31.3,4.8,62.7,6.3,94c0.6,13.3-0.2,26.8-1.6,40c-0.5,4.9-3.4,10.5-6.9,14c-82.8,83.2-165.9,166.2-248.9,249.2
		c-19.7,19.7-42.9,19.8-62.5,0.3C132.1,534.2,76.8,478.9,21.5,423.6c-15.2-15.2-18.3-33.6-8.3-50.8c2.3-4,5.5-7.6,8.7-10.8
		c83.1-83.2,166.2-166.4,249.5-249.4c2.4-2.4,6.1-5.1,9.3-5.1C310.9,107.1,341.1,107.3,370.3,107.3z M145.6,374.3
		c5.6,18.1,15.8,32.8,28.6,47.6c-7.3,6.9-14.4,13.6-21,19.7c7.5,7.6,14.5,14.5,22,22c6.8-7.2,13.9-14.8,21-22.4
		c2.8,1.6,4.7,2.6,6.4,3.7c10.4,6.5,21.6,10.1,33.9,11c29.9,2.2,63.8-27.7,55.4-63c-3.6-15.1-10.6-29.4-15.7-44.2
		c-2.3-6.5-4.8-13.2-5.7-20c-1.6-12,8.3-19.5,19.8-15.5c3.7,1.3,7.6,3.3,10.4,6.1c5.8,5.7,11.5,11.6,16,18.3
		c5.1,7.6,8.8,16.1,13.2,24.5c10.2-5.9,20.4-11.8,30.8-17.8c-4.9-15.5-14.1-27.8-25.4-40.7c6.9-6,13.5-11.9,19.3-16.9
		c-7.8-7.8-14.8-14.9-22.8-22.9c-6.1,6.4-12.8,13.4-19.5,20.4c-12.2-8-24.9-13-39.4-13.2c-27.9-0.4-56.1,25.5-50.2,56.6
		c2.3,12,7,23.6,11,35.3c3.1,9.1,7.3,17.9,10.3,27.1c2.5,7.7,1.1,15.2-5.8,20.4c-7,5.3-14.3,3.7-21.3,0c-9.7-5.1-17.1-13-22.6-22.1
		c-6.3-10.3-11.5-21.3-17.4-32.4C167,361.6,156.6,367.8,145.6,374.3z"/>
</g>
</svg>
