<?xml version="1.0" encoding="utf-8"?>
<!-- Generator: Adobe Illustrator 17.0.0, SVG Export Plug-In . SVG Version: 6.00 Build 0)  -->
<!DOCTYPE svg PUBLIC "-//W3C//DTD SVG 1.1//EN" "http://www.w3.org/Graphics/SVG/1.1/DTD/svg11.dtd">
<svg version="1.1" id="Capa_1" xmlns="http://www.w3.org/2000/svg" xmlns:xlink="http://www.w3.org/1999/xlink" x="0px" y="0px"
	 width="612px" height="612px" viewBox="3330.5 642.5 612 612" enable-background="new 3330.5 642.5 612 612" xml:space="preserve">
<g>
	<path fill="#212D33" d="M3349.94,821.895c-10.736,0-19.44,8.704-19.44,19.44v151.738c0,10.736,8.704,19.44,19.44,19.44
		c10.736,0,19.44-8.704,19.44-19.44V841.335C3369.381,830.599,3360.677,821.895,3349.94,821.895z M3761.887,708.491h-80.882
		c-10.736,0-19.44,8.704-19.44,19.44v17.561l-260.331,77.199c-8.253,2.447-13.914,10.031-13.914,18.637v151.665
		c-0.005,0.972,0.088,1.952,0.233,2.934c0.026,0.181,0.052,0.363,0.083,0.542c0.145,0.804,0.321,1.607,0.573,2.405l55.109,175.999
		c2.602,8.313,10.272,13.637,18.546,13.637c1.921,0,3.875-0.288,5.806-0.892l80.252-25.094c4.922-1.54,9.031-4.972,11.421-9.539
		c2.392-4.567,2.869-9.899,1.33-14.821l-27.31-87.271l128.199,38.025v17.558c0,10.736,8.704,19.44,19.44,19.44h80.882
		c10.736,0,19.44-8.704,19.44-19.44V727.931C3781.327,717.195,3772.623,708.491,3761.887,708.491z M3517.761,1131.218
		l-43.147,13.492l-38.398-122.632l52.24,15.493L3517.761,1131.218z M3509.552,1003.277c-0.054-0.016-0.111-0.034-0.166-0.049
		l-83.184-24.674V855.84l235.365-69.793v262.319L3509.552,1003.277L3509.552,1003.277z M3742.447,1087.039h-42.001V747.374h42.001
		V1087.039z M3913.609,1026.041l-84.117-42.066c-9.606-4.798-21.281-0.912-26.084,8.694c-4.803,9.604-0.91,21.281,8.694,26.084
		l84.117,42.066c2.792,1.397,5.757,2.055,8.681,2.055c7.131,0,13.997-3.937,17.403-10.749
		C3927.103,1042.521,3923.21,1030.844,3913.609,1026.041L3913.609,1026.041z M3820.812,852.486c2.921,0,5.889-0.661,8.678-2.058
		l84.119-42.061c9.604-4.803,13.497-16.478,8.694-26.081c-4.801-9.604-16.48-13.497-26.081-8.694l-84.119,42.061
		c-9.604,4.803-13.497,16.478-8.694,26.081C3806.815,848.549,3813.681,852.486,3820.812,852.486L3820.812,852.486z M3923.06,897.764
		h-70.239c-10.736,0-19.44,8.704-19.44,19.44s8.704,19.44,19.44,19.44h70.239c10.736,0,19.44-8.704,19.44-19.44
		C3942.5,906.465,3933.796,897.764,3923.06,897.764z"/>
</g>
</svg>
