<?xml version="1.0" encoding="utf-8"?>
<!-- Generator: Adobe Illustrator 21.1.0, SVG Export Plug-In . SVG Version: 6.00 Build 0)  -->
<svg version="1.1" id="Capa_1" xmlns="http://www.w3.org/2000/svg" xmlns:xlink="http://www.w3.org/1999/xlink" x="0px" y="0px"
	 viewBox="0 0 612 612" style="enable-background:new 0 0 612 612;" xml:space="preserve">
<style type="text/css">
	.st0{fill:#FFFFFF;}
</style>
<g>
	<path class="st0" d="M19.4,179.4C8.7,179.4,0,188.1,0,198.8v151.7C0,361.3,8.7,370,19.4,370c10.7,0,19.4-8.7,19.4-19.4V198.8
		C38.9,188.1,30.2,179.4,19.4,179.4z M431.4,66h-80.9c-10.7,0-19.4,8.7-19.4,19.4V103L70.7,180.2c-8.3,2.4-13.9,10-13.9,18.6v151.7
		c0,1,0.1,2,0.2,2.9c0,0.2,0.1,0.4,0.1,0.5c0.1,0.8,0.3,1.6,0.6,2.4l55.1,176c2.6,8.3,10.3,13.6,18.5,13.6c1.9,0,3.9-0.3,5.8-0.9
		l80.3-25.1c4.9-1.5,9-5,11.4-9.5c2.4-4.6,2.9-9.9,1.3-14.8l-27.3-87.3l128.2,38V464c0,10.7,8.7,19.4,19.4,19.4h80.9
		c10.7,0,19.4-8.7,19.4-19.4V85.4C450.8,74.7,442.1,66,431.4,66z M187.3,488.7l-43.1,13.5l-38.4-122.6l52.2,15.5L187.3,488.7z
		 M179.1,360.8c-0.1,0-0.1,0-0.2,0l-83.2-24.7V213.3l235.4-69.8v262.3L179.1,360.8L179.1,360.8z M411.9,444.5h-42V104.9h42V444.5z
		 M583.1,383.5L499,341.5c-9.6-4.8-21.3-0.9-26.1,8.7c-4.8,9.6-0.9,21.3,8.7,26.1l84.1,42.1c2.8,1.4,5.8,2.1,8.7,2.1
		c7.1,0,14-3.9,17.4-10.7C596.6,400,592.7,388.3,583.1,383.5L583.1,383.5z M490.3,210c2.9,0,5.9-0.7,8.7-2.1l84.1-42.1
		c9.6-4.8,13.5-16.5,8.7-26.1c-4.8-9.6-16.5-13.5-26.1-8.7l-84.1,42.1c-9.6,4.8-13.5,16.5-8.7,26.1C476.3,206,483.2,210,490.3,210
		L490.3,210z M592.6,255.3h-70.2c-10.7,0-19.4,8.7-19.4,19.4s8.7,19.4,19.4,19.4h70.2c10.7,0,19.4-8.7,19.4-19.4
		C612,264,603.3,255.3,592.6,255.3z"/>
</g>
</svg>
