<?xml version="1.0" encoding="utf-8"?>
<!-- Generator: Adobe Illustrator 19.0.0, SVG Export Plug-In . SVG Version: 6.00 Build 0)  -->
<svg version="1.1" id="Layer_1" xmlns="http://www.w3.org/2000/svg" xmlns:xlink="http://www.w3.org/1999/xlink" x="0px" y="0px"
     viewBox="0 0 80 80" style="enable-background:new 0 0 80 80;" xml:space="preserve">
<style type="text/css">
	.st0{fill:#439042;}
	.st1{fill:#F0EFEF;}
	.st2{fill:#C9C8C8;}
	.st3{fill:#ED2224;}
	.st4{fill:#010101;}
</style>
    <g id="XMLID_876_">
	<path id="XMLID_874_" class="st0" d="M3.3,40C3.3,19.7,19.7,3.3,40,3.3c20.3,0,36.7,16.4,36.7,36.7c0,20.3-16.4,36.7-36.7,36.7
		C19.7,76.7,3.3,60.3,3.3,40"/>
</g>
    <g id="XMLID_883_">
	<path id="XMLID_881_" class="st1" d="M43,29H24.3c-1.8,0-3.3,1.5-3.3,3.3v28c0,1.8,1.5,3.3,3.3,3.3H43c1.8,0,3.3-1.5,3.3-3.3v-28
		C46.3,30.5,44.9,29,43,29"/>
        <path id="XMLID_880_" class="st2" d="M58.9,19.7v28c0,1.8-1.5,3.3-3.3,3.3h-9.3V32.3c0-1.8-1.5-3.3-3.3-3.3h-9.4v-9.3
		c0-1.8,1.5-3.3,3.3-3.3h18.7C57.5,16.4,58.9,17.9,58.9,19.7"/>
        <path id="XMLID_879_" class="st3" d="M38.6,23c2,0,2.1-3.2,0-3.2C36.6,19.8,36.6,23,38.6,23"/>
        <path id="XMLID_878_" class="st3" d="M54,23c2,0,2.1-3.2,0-3.2C51.9,19.8,51.9,23,54,23"/>
        <path id="XMLID_877_" class="st3" d="M54,47.6c2,0,2.1-3.2,0-3.2C51.9,44.4,51.9,47.6,54,47.6"/>
        <path id="XMLID_875_" class="st3" d="M54.4,29.3v8.6L46.3,46V32.6c0-2-1.6-3.5-3.5-3.5h-4.4l7.9-7.7l0,0L54.4,29.3"/>
        <path id="XMLID_873_" class="st4" d="M37.7,50.1c-0.4,0.1-0.8,0.2-1.1,0.3c-1.2,0.2-1.9-0.3-2.3-0.7c-0.3-0.3-0.8-0.3-1.2,0
		c-0.6,0.6-1.6,1.1-3.4,0.5c-3.3-1.2-3.8-6.2,0-7.8c3.3-1.4,3.9-3.5,4-4c0-0.1,0-0.1,0-0.1s0.2,2.5,4,4.1
		C41.5,43.8,40.9,48.9,37.7,50.1"/>
        <path id="XMLID_872_" class="st4" d="M36.7,52.6C36.7,52.6,36.7,52.6,36.7,52.6c-1.5-1.2-2.4-2.9-2.4-4.8v-1h-1.2v1
		c0,1.9-0.9,3.6-2.4,4.7c0,0,0,0-0.1,0c-0.4,0.3-0.4,0.9-0.1,1.2c0.3,0.4,0.9,0.4,1.2,0.1c0.2-0.2,2-1.5,3.8,0
		c0.2,0.1,0.4,0.2,0.6,0.2c0.3,0,0.5-0.1,0.7-0.3C37.2,53.5,37.1,52.9,36.7,52.6"/>
</g>
</svg>
