<?xml version="1.0" encoding="utf-8"?>
<!-- Generator: Adobe Illustrator 17.0.0, SVG Export Plug-In . SVG Version: 6.00 Build 0)  -->
<!DOCTYPE svg PUBLIC "-//W3C//DTD SVG 1.1//EN" "http://www.w3.org/Graphics/SVG/1.1/DTD/svg11.dtd">
<svg version="1.1" id="Capa_1" xmlns="http://www.w3.org/2000/svg" xmlns:xlink="http://www.w3.org/1999/xlink" x="0px" y="0px"
	 width="612px" height="612px" viewBox="660.5 642.5 612 612" enable-background="new 660.5 642.5 612 612" xml:space="preserve">
<path fill="#212D33" d="M1239.39,987.049l33.11-24.623l-30.6-27.731l27.851-30.48l-35.262-21.396l21.516-35.142l-38.489-14.344
	l14.463-38.609l-40.76-6.694l6.933-40.641l-41.238,1.076l-0.956-41.238l-40.282,8.845l-8.726-40.402l-37.891,16.256l-16.137-38.011
	l-34.186,23.189l-23.07-34.186L966.5,672.204l-29.046-29.405l-23.07,34.186l-34.186-23.189l-16.137,38.011L826.17,675.55
	l-8.726,40.402l-40.282-8.845l-0.956,41.358l-41.238-1.076l6.933,40.641l-40.76,6.694l14.583,38.728l-38.728,14.344l21.516,35.142
	l-35.262,21.396l27.851,30.361l-30.6,27.731l33.11,24.623l-24.862,32.991l37.174,17.93l-18.169,37.055l39.923,10.638l-10.758,39.804
	l41.119,2.869l-2.988,41.238l40.999-5.02l4.781,40.999l39.326-12.67l12.431,39.326l36.218-19.842l19.723,36.337l31.795-26.416
	l26.177,31.915l26.177-31.915l31.795,26.416l19.723-36.337l36.218,19.842l12.431-39.326l39.326,12.67l4.781-40.999l40.999,5.02
	l-2.988-41.238l41.119-2.869l-10.758-39.804l39.923-10.638l-18.169-37.055l37.174-17.93L1239.39,987.049z M1030.927,896.564
	c9.204,0,16.615,7.411,16.615,16.615c0,9.204-7.411,16.615-16.615,16.615H916.775c-0.837,6.096-1.315,12.312-1.315,18.766
	c0,5.618,0.359,11.236,0.956,16.615h114.391c9.204,0,16.615,7.411,16.615,16.615s-7.411,16.615-16.615,16.615H924.903
	c15.539,38.728,48.53,65.503,86.66,65.503c23.309,0,45.78-10.16,63.352-28.688c6.335-6.694,16.854-6.933,23.548-0.598
	c6.694,6.335,6.933,16.854,0.598,23.548c-23.906,25.102-54.984,38.967-87.497,38.967c-56.18,0-103.992-41.238-121.922-98.733
	h-43.868c-9.204,0-16.615-7.411-16.615-16.615c0-9.204,7.411-16.615,16.615-16.615h37.174c-0.598-5.498-0.837-10.997-0.837-16.615
	c0-6.335,0.359-12.551,1.076-18.766h-37.413c-9.204,0-16.615-7.411-16.615-16.615c0-9.204,7.411-16.615,16.615-16.615h44.585
	c18.408-56.419,65.862-96.701,121.324-96.701c32.513,0,63.591,13.866,87.497,38.967c6.335,6.694,6.096,17.212-0.598,23.548
	c-6.694,6.335-17.212,6.096-23.548-0.598c-17.571-18.527-40.043-28.688-63.352-28.688c-37.413,0-69.926,25.819-85.823,63.471
	H1030.927z"/>
</svg>
