<?xml version="1.0" encoding="utf-8"?>
<!-- Generator: Adobe Illustrator 17.0.0, SVG Export Plug-In . SVG Version: 6.00 Build 0)  -->
<!DOCTYPE svg PUBLIC "-//W3C//DTD SVG 1.1//EN" "http://www.w3.org/Graphics/SVG/1.1/DTD/svg11.dtd">
<svg version="1.1" id="Capa_1" xmlns="http://www.w3.org/2000/svg" xmlns:xlink="http://www.w3.org/1999/xlink" x="0px" y="0px"
	 width="612px" height="612px" viewBox="0 642.5 612 612" enable-background="new 0 642.5 612 612" xml:space="preserve">
<g>
	<path fill="#212D33" d="M548.373,748.527l-111.523-29.524v49.008l99.45,26.297c12.67,3.347,20.201,16.376,16.854,28.927
		l-96.82,366.244c-3.347,12.551-16.376,20.201-29.046,16.854l-76.38-20.201c-2.869,0.239-5.737,0.837-8.726,0.837H174.24
		c3.825,1.793,7.77,3.466,12.073,4.542l228.902,60.602c37.891,10.041,76.859-12.551,86.78-50.442l96.94-366.124
		C608.856,797.535,586.384,758.568,548.373,748.527z"/>
	<path fill="#212D33" d="M342.062,642.503H81.723c-39.206,0-71.002,31.795-71.002,71.002v378.794
		c0,39.206,31.795,71.002,71.002,71.002h260.459c39.206,0,71.002-31.795,71.002-71.002V713.505
		C413.183,674.298,381.269,642.503,342.062,642.503z M365.73,1092.299c0,13.029-10.638,23.667-23.667,23.667H81.723
		c-13.029,0-23.667-10.638-23.667-23.667V713.505c0-13.029,10.638-23.667,23.667-23.667h260.459
		c13.029,0,23.667,10.638,23.667,23.667v378.794H365.73z M315.765,912.763c0,32.752-21.994,53.67-53.311,53.67
		c-16.256,0-32.632-10.997-41.955-20.081c0,0,8.726,40.282,24.623,70.762c2.032,3.945-67.655,4.064-65.862,0
		c15.42-32.991,24.145-70.882,24.145-70.882c-9.323,8.606-27.253,20.201-42.195,20.201c-31.317,0-53.311-20.798-53.43-53.55
		c0-54.865,103.514-126.823,103.514-126.823h0.598C211.893,786.18,315.765,857.898,315.765,912.763z M317.08,716.732
		c-0.359-0.956-0.717-1.793-1.195-2.391s-1.434-0.837-2.869-0.837h-13.507c-1.434,0-2.391,0.239-2.869,0.837
		c-0.478,0.478-0.956,1.315-1.315,2.271l-20.559,65.145c-0.359,1.195-0.478,1.912-0.12,2.271c0.239,0.359,0.837,0.478,1.673,0.478
		h11.834c1.076,0,1.793-0.239,2.391-0.717c0.598-0.478,1.076-1.195,1.315-2.271l3.825-13.029h21.277l3.586,12.67
		c0.359,1.076,0.717,2.032,1.195,2.51c0.359,0.598,1.195,0.837,2.51,0.837h13.268c0.837,0,1.195-0.239,1.434-0.717
		c0.12-0.359,0.12-1.076-0.12-1.913L317.08,716.732z M299.27,755.58l3.227-11.953l3.586-13.029h0.478l3.466,13.029l3.227,11.834
		H299.27V755.58z M134.676,1021.298c-1.195,0-2.032,0.239-2.51,0.837c-0.478,0.478-0.837,1.434-1.195,2.51l-3.586,12.67h-21.157
		l-3.825-13.029c-0.359-1.195-0.837-1.913-1.315-2.271c-0.598-0.359-1.315-0.717-2.391-0.717H86.863
		c-0.837,0-1.315,0.12-1.554,0.478c-0.239,0.359-0.239,1.076,0.12,2.271l20.559,65.145c0.359,0.956,0.837,1.793,1.315,2.271
		c0.478,0.478,1.434,0.837,2.869,0.837h13.387c1.434,0,2.51-0.239,2.988-0.837s0.837-1.315,1.195-2.391l21.396-65.264
		c0.239-0.837,0.239-1.434,0.12-1.913c-0.12-0.478-0.598-0.717-1.315-0.717h-13.268V1021.298z M120.571,1062.058l-3.466,13.029
		h-0.478l-3.586-13.029l-3.227-11.953h13.866L120.571,1062.058z"/>
	<path fill="#212D33" d="M505.223,814.389c-0.12-1.076-0.239-1.912-0.598-2.63c-0.359-0.717-1.195-1.195-2.63-1.554l-13.029-3.466
		c-1.315-0.359-2.391-0.359-2.988,0c-0.598,0.359-1.195,1.076-1.793,1.912l-36.935,57.495c-0.717,1.076-0.956,1.793-0.717,2.152
		c0.12,0.359,0.598,0.717,1.434,0.837l11.475,3.108c0.956,0.239,1.793,0.239,2.51,0c0.598-0.239,1.315-0.837,1.913-1.793
		l7.052-11.595l20.559,5.498l0.12,13.268c0,1.195,0.12,2.152,0.478,2.749c0.239,0.598,0.956,1.076,2.152,1.434l12.79,3.466
		c0.717,0.239,1.315,0.12,1.554-0.239c0.239-0.359,0.359-0.956,0.359-1.793L505.223,814.389z M477.969,847.26l6.216-10.758
		l6.813-11.595l0.478,0.12l-0.12,13.507v12.312L477.969,847.26z"/>
</g>
</svg>
