<?xml version="1.0" encoding="utf-8"?>
<!-- Generator: Adobe Illustrator 17.0.0, SVG Export Plug-In . SVG Version: 6.00 Build 0)  -->
<!DOCTYPE svg PUBLIC "-//W3C//DTD SVG 1.1//EN" "http://www.w3.org/Graphics/SVG/1.1/DTD/svg11.dtd">
<svg version="1.1" id="Capa_1" xmlns="http://www.w3.org/2000/svg" xmlns:xlink="http://www.w3.org/1999/xlink" x="0px" y="0px"
	 width="612px" height="612px" viewBox="1992.5 642.5 612 612" enable-background="new 1992.5 642.5 612 612" xml:space="preserve">
<g>
	<g>
		<path fill="#212D33" d="M2141.852,951.847c0,0,109.49-108.893,109.49-199.856c0-60.483-49.008-109.491-109.49-109.491
			c-60.483,0-109.491,49.008-109.491,109.491C2032.361,848.094,2141.852,951.847,2141.852,951.847z M2084.835,751.991
			c0-31.556,25.58-57.016,57.016-57.016s57.016,25.58,57.016,57.016c0,31.437-25.58,57.016-57.016,57.016
			S2084.835,783.427,2084.835,751.991z"/>
		<path fill="#212D33" d="M2546.345,790.48l-8.845,2.869l-47.573,4.184l-13.387,21.396l-9.682-3.108l-37.891-34.066l-5.499-17.691
			l-7.291-18.886l-23.787-21.396l-27.97-5.498l-0.717,12.79l27.492,26.775l13.388,15.778l-15.181,7.889l-12.312-3.586l-18.408-7.65
			l0.598-14.941l-24.265-9.921l-8.009,34.903l-24.384,5.498l2.391,19.484l31.676,6.096l5.499-31.198l26.177,3.945l12.192,7.172
			h19.603l13.387,26.775l35.501,35.979l-2.63,13.985l-28.568-3.706l-49.486,24.982l-35.62,42.673l-4.662,18.886h-12.79
			l-23.787-10.997l-23.07,10.997l5.738,24.384l10.041-11.714l17.69-0.478l-1.195,21.874l14.702,4.303l14.583,16.495l23.906-6.694
			l27.253,4.303l31.676,8.487l15.898,1.793l26.775,30.481l51.757,30.48l-33.469,64.069l-35.381,16.495l-13.387,36.577
			l-51.159,34.186l-5.498,19.723c130.767-31.556,228.065-148.936,228.065-289.505C2596.788,894.95,2578.141,837.934,2546.345,790.48
			z"/>
		<path fill="#212D33" d="M2332.982,1112.138l-21.635-40.282l19.962-41.597l-19.962-5.977l-22.353-22.472l-49.605-11.116
			l-16.495-34.425v20.44h-7.292l-31.437-42.553c-15.3,18.408-27.014,30.122-28.448,31.556L2142.21,979.1l-13.866-13.148
			c-3.586-3.466-66.938-64.188-98.374-138.059c-18.647,38.967-29.405,82.357-29.405,128.496
			c0,164.595,133.516,298.111,298.111,298.111c12.67,0,25.102-1.076,37.413-2.63l-3.108-36.099c0,0,13.746-53.67,13.746-55.463
			C2346.728,1158.516,2332.982,1112.138,2332.982,1112.138z"/>
		<path fill="#212D33" d="M2275.129,715.414l21.994,3.586l53.311-5.02l14.583-16.137l20.679-13.866l29.285,4.423l10.638-1.554
			c-38.609-18.049-81.52-28.568-126.942-28.568c-21.277,0-41.836,2.51-61.798,6.694c15.539,16.973,26.656,37.891,31.437,61.2
			L2275.129,715.414z M2311.347,687.922l30.48-16.734l19.483,11.236l-28.329,21.516l-27.014,2.749l-12.192-7.889L2311.347,687.922z"
			/>
	</g>
</g>
</svg>
