<?xml version="1.0" encoding="utf-8"?>
<!-- Generator: Adobe Illustrator 19.0.0, SVG Export Plug-In . SVG Version: 6.00 Build 0)  -->
<svg version="1.1" id="Layer_1" xmlns="http://www.w3.org/2000/svg" xmlns:xlink="http://www.w3.org/1999/xlink" x="0px" y="0px"
	 viewBox="0 0 52.5 53.5" style="enable-background:new 0 0 52.5 53.5;" xml:space="preserve">
<style type="text/css">
	.st0{fill:#C12026;}
	.st1{fill:#A91E22;}
	.st2{fill:#FCD81F;}
	.st3{fill:#FABE21;}
</style>
<g id="XMLID_136_">
	<path id="XMLID_155_" class="st0" d="M26.2,6.5c-8.8,0-16.3,5.7-19.1,13.6h38.2C42.6,12.2,35.1,6.5,26.2,6.5 M26.2,47
		c8.8,0,16.3-5.7,19.1-13.6H7.2C9.9,41.3,17.4,47,26.2,47"/>
	<path id="XMLID_132_" class="st1" d="M7.2,33.4c0.1,0.4,0.3,0.8,0.5,1.3h37.2c0.2-0.4,0.3-0.8,0.5-1.3H7.2z"/>
	<path id="XMLID_151_" class="st2" d="M26.2,44c7.2,0,13.4-4.4,16-10.7H10.3C12.9,39.6,19.1,44,26.2,44 M26.2,9.5
		c-7.2,0-13.4,4.4-16,10.7h31.9C39.6,13.9,33.4,9.5,26.2,9.5"/>
	<path id="XMLID_129_" class="st3" d="M10.3,33.4c0.2,0.4,0.4,0.8,0.6,1.3h30.8c0.2-0.4,0.4-0.8,0.6-1.3H10.3z"/>
	<path id="XMLID_147_" class="st0" d="M26.2,15.1c-4,0-7.5,2-9.6,5h19.1C33.7,17.1,30.2,15.1,26.2,15.1 M26.2,38.4c4,0,7.5-2,9.6-5
		H16.7C18.8,36.4,22.3,38.4,26.2,38.4"/>
	<path id="XMLID_138_" class="st0" d="M9.2,26.3L9.2,26.3c0.4-0.2,0.7-0.5,0.9-0.8c0.2-0.4,0.3-0.8,0.3-1.2c0-0.4-0.1-0.7-0.2-1
		c-0.2-0.3-0.4-0.5-0.8-0.7c-0.3-0.2-0.6-0.3-1-0.3c-0.4-0.1-0.9-0.1-1.6-0.1H3.6v9.4h3.8c0.7,0,1.2-0.1,1.6-0.2
		c0.4-0.1,0.8-0.3,1.2-0.6c0.3-0.2,0.5-0.5,0.7-0.9c0.2-0.4,0.3-0.8,0.3-1.2c0-0.6-0.2-1.1-0.5-1.5C10.2,26.7,9.8,26.4,9.2,26.3
		 M6,23.8h0.2c0.4,0,0.7,0,0.9,0c0.2,0,0.4,0,0.6,0.1C7.8,24,7.9,24.1,8,24.2c0.1,0.2,0.1,0.3,0.1,0.5c0,0.2,0,0.4-0.1,0.5
		c-0.1,0.2-0.2,0.3-0.4,0.4c-0.2,0.1-0.3,0.1-0.5,0.1c-0.2,0-0.4,0-0.8,0H6V23.8z M8.5,29.1c-0.1,0.2-0.3,0.3-0.5,0.4
		c-0.2,0.1-0.5,0.2-0.7,0.2c-0.2,0-0.7,0-1.3,0H6v-2.4h0.4c0.4,0,0.8,0,1,0c0.2,0,0.4,0,0.6,0.1c0.2,0.1,0.4,0.2,0.5,0.4
		c0.1,0.2,0.2,0.4,0.2,0.7C8.7,28.8,8.6,29,8.5,29.1 M28.3,27.4l-3-5.4h-2.9v9.4h2.2v-6.5l3.6,6.5h2.3v-9.4h-2.2V27.4z M48.4,26.9
		c-0.3-0.4-0.8-0.7-1.5-1c-0.3-0.1-0.6-0.2-0.9-0.3c-0.3-0.1-0.6-0.1-0.9-0.2c-0.5-0.1-0.8-0.2-1-0.4c-0.2-0.1-0.3-0.3-0.3-0.6
		c0-0.2,0.1-0.3,0.2-0.4c0.1-0.1,0.2-0.2,0.4-0.3c0.2-0.1,0.4-0.1,0.5-0.2c0.2,0,0.3,0,0.6,0c0.5,0,1,0.1,1.5,0.3
		c0.5,0.2,0.9,0.5,1.3,0.8h0.2v-2.1c-0.4-0.2-0.9-0.3-1.5-0.5c-0.6-0.1-1.1-0.2-1.7-0.2c-1.1,0-2,0.3-2.8,0.8
		c-0.7,0.5-1.1,1.3-1.1,2.1c0,0.7,0.2,1.2,0.5,1.6c0.3,0.4,0.8,0.8,1.6,1c0.3,0.1,0.7,0.2,1,0.3c0.4,0.1,0.7,0.2,1,0.2
		c0.3,0.1,0.5,0.2,0.7,0.3c0.2,0.1,0.3,0.3,0.3,0.6c0,0.2-0.1,0.4-0.2,0.5c-0.1,0.1-0.3,0.2-0.4,0.3c-0.1,0.1-0.3,0.1-0.5,0.1
		c-0.2,0-0.4,0-0.5,0c-0.5,0-1.1-0.1-1.7-0.3c-0.6-0.2-1.1-0.5-1.6-0.9h-0.2v2.2c0.5,0.2,1,0.4,1.5,0.5c0.5,0.1,1.2,0.2,1.9,0.2
		c1.2,0,2.2-0.3,3-0.9c0.7-0.6,1.1-1.3,1.1-2.3C48.9,27.9,48.7,27.3,48.4,26.9 M37.7,27.9c0,0.7-0.1,1.2-0.4,1.5
		c-0.3,0.3-0.7,0.5-1.2,0.5c-0.6,0-1-0.2-1.2-0.5c-0.2-0.3-0.4-0.8-0.4-1.5v-5.9h-2.4v6c0,1.2,0.3,2.1,1,2.7
		c0.7,0.6,1.6,0.9,2.9,0.9c1.3,0,2.3-0.3,2.9-0.9c0.7-0.6,1-1.5,1-2.7v-6h-2.4V27.9z M16.5,21.9c-1.4,0-2.5,0.4-3.3,1.3
		c-0.8,0.9-1.2,2.1-1.2,3.6c0,1.5,0.4,2.7,1.2,3.6c0.8,0.9,1.9,1.3,3.3,1.3c1.4,0,2.5-0.4,3.3-1.3c0.8-0.9,1.2-2.1,1.2-3.6
		c0-1.5-0.4-2.7-1.2-3.6C19,22.3,17.9,21.9,16.5,21.9 M18.4,28.2c-0.1,0.4-0.3,0.7-0.5,1c-0.2,0.3-0.4,0.4-0.7,0.6
		c-0.3,0.1-0.5,0.2-0.8,0.2c-0.3,0-0.5-0.1-0.8-0.2c-0.3-0.1-0.5-0.3-0.7-0.6c-0.2-0.3-0.4-0.6-0.5-1c-0.1-0.4-0.2-0.9-0.2-1.4
		c0-0.6,0.1-1,0.2-1.4c0.1-0.4,0.3-0.7,0.5-1c0.2-0.3,0.4-0.4,0.7-0.6c0.2-0.1,0.5-0.2,0.8-0.2c0.3,0,0.5,0.1,0.8,0.2
		c0.3,0.1,0.5,0.3,0.7,0.6c0.2,0.3,0.3,0.6,0.5,1c0.1,0.4,0.2,0.9,0.2,1.4C18.6,27.3,18.5,27.8,18.4,28.2"/>
	<path id="XMLID_29_" class="st1" d="M16.7,33.4c0.3,0.4,0.6,0.9,1,1.3h17.1c0.4-0.4,0.7-0.8,1-1.3H16.7z"/>
</g>
</svg>
