<?xml version="1.0" encoding="utf-8"?>
<!-- Generator: Adobe Illustrator 21.1.0, SVG Export Plug-In . SVG Version: 6.00 Build 0)  -->
<svg version="1.1" id="Capa_1" xmlns="http://www.w3.org/2000/svg" xmlns:xlink="http://www.w3.org/1999/xlink" x="0px" y="0px"
	 viewBox="0 0 612 612" style="enable-background:new 0 0 612 612;" xml:space="preserve">
<style type="text/css">
	.st0{fill:#212D33;}
	.st1{fill:#FFFFFF;}
</style>
<rect x="134" y="122.1" class="st0" width="344" height="344"/>
<path class="st1" d="M370.4,253.1c9.2,0,16.6,7.4,16.6,16.6s-7.4,16.6-16.6,16.6H256.3c-0.8,6.1-1.3,12.3-1.3,18.8
	c0,5.6,0.4,11.2,1,16.6h114.4c9.2,0,16.6,7.4,16.6,16.6s-7.4,16.6-16.6,16.6H264.4c15.5,38.7,48.5,65.5,86.7,65.5
	c23.3,0,45.8-10.2,63.4-28.7c6.3-6.7,16.9-6.9,23.5-0.6s6.9,16.9,0.6,23.5c-23.9,25.1-55,39-87.5,39c-56.2,0-104-41.2-121.9-98.7
	h-43.9c-9.2,0-16.6-7.4-16.6-16.6s7.4-16.6,16.6-16.6h37.2c-0.6-5.5-0.8-11-0.8-16.6c0-6.3,0.4-12.6,1.1-18.8h-37.4
	c-9.2,0-16.6-7.4-16.6-16.6s7.4-16.6,16.6-16.6h44.6c18.4-56.4,65.9-96.7,121.3-96.7c32.5,0,63.6,13.9,87.5,39
	c6.3,6.7,6.1,17.2-0.6,23.5c-6.7,6.3-17.2,6.1-23.5-0.6c-17.6-18.5-40-28.7-63.4-28.7c-37.4,0-69.9,25.8-85.8,63.5L370.4,253.1
	L370.4,253.1z M578.9,343.5l33.1-24.6l-30.6-27.7l27.9-30.5L574,239.3l21.5-35.1L557,189.8l14.5-38.6l-40.8-6.7l6.9-40.6l-41.2,1.1
	l-1-41.2l-40.3,8.8l-8.7-40.4l-37.9,16.3l-16.1-38l-34.2,23.2L335.2-0.6L306,28.7L277-0.7l-23.1,34.2l-34.2-23.2l-16.1,38L165.7,32
	l-8.7,40.4l-40.3-8.8l-1,41.4l-41.2-1.1l6.9,40.6l-40.8,6.7L55.2,190l-38.7,14.3L38,239.4L2.7,260.8l27.9,30.4L0,318.9l33.1,24.6
	l-24.9,33l37.2,17.9l-18.2,37.1l39.9,10.6L56.4,482l41.1,2.9l-3,41.2l41-5l4.8,41l39.3-12.7l12.4,39.3l36.2-19.8l19.7,36.3
	l31.8-26.4l26.2,31.9l26.2-31.9l31.8,26.4l19.7-36.3l36.2,19.8l12.4-39.3l39.3,12.7l4.8-41l41,5l-3-41.2l41.1-2.9l-10.8-39.8
	l39.9-10.6l-18.2-37.1l37.2-17.9L578.9,343.5z"/>
</svg>
