<?xml version="1.0" encoding="utf-8"?>
<!-- Generator: Adobe Illustrator 17.0.0, SVG Export Plug-In . SVG Version: 6.00 Build 0)  -->
<!DOCTYPE svg PUBLIC "-//W3C//DTD SVG 1.1//EN" "http://www.w3.org/Graphics/SVG/1.1/DTD/svg11.dtd">
<svg version="1.1" id="Capa_1" xmlns="http://www.w3.org/2000/svg" xmlns:xlink="http://www.w3.org/1999/xlink" x="0px" y="0px"
	 width="612px" height="612px" viewBox="2660.5 0 612 612" enable-background="new 2660.5 0 612 612" xml:space="preserve">
<g>
	<path fill="#212D33" d="M3258.591,83.391h-584.182c-7.682,0-13.909,6.229-13.909,13.913v417.392
		c0,7.684,6.227,13.913,13.909,13.913h584.182c7.682,0,13.909-6.229,13.909-13.913V97.304
		C3272.5,89.62,3266.273,83.391,3258.591,83.391z M3244.682,467.127l-172.306-172.341l-19.667,19.673l186.271,186.324h-544.958
		l186.271-186.324l-19.667-19.673l-172.306,172.341v-355.91h556.364V467.127z"/>
	<path fill="#212D33" d="M3216.572,111.217L2966.5,361.36l-250.072-250.143h-28.11v11.228l268.348,268.425
		c5.422,5.433,14.22,5.44,19.651,0.017c0.006-0.006,0.011-0.011,0.017-0.017l268.348-268.425v-11.228H3216.572z"/>
</g>
</svg>
