<?xml version="1.0" encoding="utf-8"?>
<!-- Generator: Adobe Illustrator 17.0.0, SVG Export Plug-In . SVG Version: 6.00 Build 0)  -->
<!DOCTYPE svg PUBLIC "-//W3C//DTD SVG 1.1//EN" "http://www.w3.org/Graphics/SVG/1.1/DTD/svg11.dtd">
<svg version="1.1" id="Capa_1" xmlns="http://www.w3.org/2000/svg" xmlns:xlink="http://www.w3.org/1999/xlink" x="0px" y="0px"
	 width="612px" height="612px" viewBox="3330.5 0 612 612" enable-background="new 3330.5 0 612 612" xml:space="preserve">
<path fill="#212D33" d="M3886.5,194.212h-317.836c-30.775,0-56,25.225-56,56v201.296c0,30.775,25.225,56,56,56H3886.5
	c30.775,0,56-25.225,56-56V250.212C3942.626,219.311,3917.274,194.212,3886.5,194.212z M3912.355,452.265
	c0,11.099-9.081,20.306-20.306,20.306h-324.016c-11.099,0-20.306-9.081-20.306-20.306V310.626h364.629V452.265z M3912.355,257.275
	h-364.629v-7.694c0-11.099,9.081-20.306,20.306-20.306h324.016c11.099,0,20.306,9.081,20.306,20.306V257.275z"/>
<path fill="#212D33" d="M3564.628,159.654h197.134l-40.108-81.225c-13.748-27.748-47.423-39.099-75.171-25.351l-284.792,140.756
	c-27.748,13.748-39.099,47.423-25.351,75.171l89.297,180.486c11.982,24.342,39.604,36.198,64.955,29.261
	c-7.568-12.739-11.856-27.495-11.856-43.261V245.671C3478.61,198.374,3517.331,159.654,3564.628,159.654L3564.628,159.654z
	 M3605.114,450.751c10.973,0,20.937-4.919,27.495-12.739c6.685,7.82,16.522,12.739,27.495,12.739
	c20.054,0,36.324-16.27,36.324-36.324s-16.27-36.324-36.324-36.324c-10.973,0-20.937,4.919-27.495,12.739
	c-6.685-7.82-16.522-12.739-27.495-12.739c-20.054,0-36.324,16.27-36.324,36.324S3585.06,450.751,3605.114,450.751L3605.114,450.751
	z"/>
</svg>
