<?xml version="1.0" encoding="utf-8"?>
<!-- Generator: Adobe Illustrator 21.1.0, SVG Export Plug-In . SVG Version: 6.00 Build 0)  -->
<svg version="1.1" id="Capa_1" xmlns="http://www.w3.org/2000/svg" xmlns:xlink="http://www.w3.org/1999/xlink" x="0px" y="0px"
	 viewBox="0 0 612 612" style="enable-background:new 0 0 612 612;" xml:space="preserve">
<style type="text/css">
	.st0{fill:#FFFFFF;}
	.st1{fill:#304A54;}
	.st2{fill:#FAFCFC;}
	.st3{fill:#FFFFFF;stroke:#FFFFFF;stroke-width:0.75;stroke-miterlimit:10;}
	.st4{fill:#212D33;}
	.st5{fill:#FFFFFF;stroke:#212D33;stroke-miterlimit:10;}
	.st6{fill:#212D33;stroke:#212D33;stroke-miterlimit:10;}
	.st7{fill:#03898F;}
	.st8{fill:#2A2A2A;}
</style>
<g>
	<path class="st4" d="M101,604c-2.5-18-5-36.1-7.5-54.1c-5.1-36.3-10.3-72.5-15.6-108.8c-0.8-5.2,0.6-7.8,5.2-10.4
		c41.6-23.4,84-45.1,126.4-66.9c0.7-0.3,1.4-0.6,2.8-1.1c1.8,9.8,3.5,19.4,5.5,30c6-5.7,11.6-10.4,19.4-11.2
		c1.5-0.2,2.9-0.6,4.5,0.1c8.3,3.3,16.6,6.6,24.8,9.9c1.2,0.5,2.9,1,2.6,2.7c-0.8,5.2,3,7.7,6,10.6c2.8,2.6,2.6,4.7-0.1,7.2
		c-3,2.9-6.8,5.4-5.7,10.6c0.3,1.7-1.8,2.2-3.3,2.8c-7.7,3.1-15.5,6.1-23.2,9.2c-4.4,1.8-8.4,0.1-12.4-1.2c-2.9-1-3.9-0.8-3.1,2.6
		c1.3,5.3,0.7,11.5,3.4,15.8c6.5,10.4,8.8,22.3,13.3,33.4c12.1,29.6,26,58,46.2,83c3.8,4.7,8.1,8.9,11.8,13.6
		c2.7,3.4,4.6,3.5,7.7,0.1c13.5-14.4,24.9-30.2,34.7-47.3c13.6-23.8,23.3-49.3,32.9-75c3.2-8.7,6.4-17.2,7.6-26.3
		c-0.4-0.3-0.8-0.7-1-0.6c-8,3.7-15.6,2.4-23.2-1.5c-4.1-2.1-8.6-3.6-12.9-5.2c-3.2-1.1-5.4-2.3-5.1-6.5c0.2-3.3-3.1-5.3-5.3-7.3
		c-3.2-2.9-3.3-5.2-0.1-8.1c3-2.6,6.3-5.2,5.4-10.2c-0.4-1.8,1.8-2.3,3.2-2.8c7.7-3.1,15.4-6.5,23.2-9.1c7.4-2.5,13.5,1,19.3,5.3
		c1.7,1.3,3.2,2.8,5.3,4.7c3.4-9.8,3.4-19.7,6.1-29.6c4.2,2.1,8.3,4.2,12.4,6.3c39.5,20.3,78.9,40.7,117.6,62.5
		c3.9,2.2,4.9,4.3,4.3,8.6c-5.8,39.3-11.3,78.6-16.9,118c-2.2,15.3-4.2,30.7-6.3,46.1C374.3,604,237.6,604,101,604z"/>
	<path class="st4" d="M177.7,170.7c-1.6-10.5-2.2-19.4-1.8-28.5c1.2-25.8,3.1-51.5,12.8-75.8c3.5-8.7,7.8-17.4,17.2-21
		c4.7-1.7,7.5-3.6,9.4-8.4c2.2-5.8,7.8-9,13.1-11.9c14.4-8.1,30.2-12,46.3-14.4c30.4-4.6,60.7-3.4,90.5,4.6
		c40.5,10.9,62,38.5,68.7,79.1c3.6,22.2,1.3,44.5,2,66.9c-4.5-19.6-15.1-35-30.9-47.1c-1.2-0.9-2.5-1.8-3.7-2.8
		c-11.1-8.1-21.9-12.2-36.4-6.4c-16.6,6.6-34.5,10.7-52.3,13.4c-14.8,2.3-29.8,0.6-44.8,0.8c-11.4,0.2-22.9,0.2-34.4,0
		c-19.5-0.5-33.7,8.4-44.1,24.3C184.2,151.5,181.4,160.5,177.7,170.7z"/>
	<path class="st4" d="M327.9,380.4c6.4,1.7,11.8,4.7,14.2,11.4c2.1,5.1,0.9,9.3-3.7,12.5c-3.3,2.4-4.2,4.8-0.3,7.7
		c4.3,3.2,5.8,7.5,5.1,12.7c-4.1,6.4-9.6,10.8-17.4,11.8c-1.6,0-3.2,0-4.7,0c-6.2,0-12.4,0-18.6,0c-1.6,0-3.2,0-4.7,0
		c-5.2-0.2-10.5-0.3-15.7-0.5c-1.7-0.7-3.4-1.5-5.1-2.2c-3-2.5-5.8-5.1-7.2-8.9c-2.1-5.1-0.9-9.3,3.6-12.5c3.3-2.4,4.2-4.8,0.4-7.7
		c-4.3-3.2-5.8-7.5-5.1-12.7c4-5.7,8.8-10.3,15.9-11.7c0.5,0,1,0.1,1.5,0.1c1.6,0,3.1,0,4.7-0.1c6.2,0,12.4,0,18.6,0
		c1.6,0,3.1,0,4.7,0C318.8,380.2,323.4,380.3,327.9,380.4z"/>
</g>
</svg>
