<?xml version="1.0" encoding="utf-8"?>
<!-- Generator: Adobe Illustrator 21.1.0, SVG Export Plug-In . SVG Version: 6.00 Build 0)  -->
<svg version="1.1" id="Capa_1" xmlns="http://www.w3.org/2000/svg" xmlns:xlink="http://www.w3.org/1999/xlink" x="0px" y="0px"
	 viewBox="0 0 612 612" style="enable-background:new 0 0 612 612;" xml:space="preserve">
<style type="text/css">
	.st0{fill:#FFFFFF;}
	.st1{fill:#304A54;}
	.st2{fill:#FAFCFC;}
	.st3{fill:#FFFFFF;stroke:#FFFFFF;stroke-width:0.75;stroke-miterlimit:10;}
	.st4{fill:#212D33;}
	.st5{fill:#FFFFFF;stroke:#212D33;stroke-miterlimit:10;}
	.st6{fill:#212D33;stroke:#212D33;stroke-miterlimit:10;}
	.st7{fill:#03898F;}
	.st8{fill:#2A2A2A;}
	.st9{fill:#29BF29;}
	.st10{fill:#2DA9F6;stroke:#2DA9F6;stroke-width:8;stroke-miterlimit:10;}
	.st11{fill:#45707F;}
	.st12{fill:#2B393F;}
	.st13{fill:#FCFCFC;}
	.st14{fill:#FBFBFB;}
	.st15{fill:#FEFEFE;}
	.st16{fill:#292929;}
	.st17{fill:#FFA500;}
</style>
<g>
	<path class="st10" d="M599.9,358.8c-1.2,3-2.2,6-3.6,8.9c-6.6,13-17.3,20.7-31.9,20.8c-36.3,0.4-72.7,0.1-109,0.1
		c-0.9,0-1.9-0.1-2.8-0.2c0-5.9,0-11.6,0-18.2c2.3,0,4.5,0,6.6,0c33.7,0,67.3,0,101,0c14.3,0,21.3-7.1,21.3-21.6
		c0-89.7,0-179.4,0-269.1c0-14.4-7-21.5-21.4-21.5c-123.9,0-247.9,0-371.8,0c-12.4,0-20,7.6-20,20c0,29.5-0.1,58.9,0.1,88.4
		c0,3.9-1,5.7-4.8,6.8c-4.5,1.3-8.7,3.6-13.6,5.8c0-9.1,0-17.7,0-26.2c0-25.1-0.1-50.1,0-75.2c0.1-22.1,15.8-37.9,38-38
		c124.5-0.1,249-0.1,373.5,0c18.5,0,31.7,9.9,37.2,27.4c0.3,0.9,0.8,1.6,1.2,2.5C599.9,166,599.9,262.4,599.9,358.8z"/>
	<path class="st10" d="M289.2,461.2c0,12.4,0,24.7,0,37.1c0,11.5,0.1,23,0,34.4c-0.2,23-17,39.6-40.1,39.6c-38.6,0-77.3,0-115.9,0
		c-24.2,0-40.1-16-40.2-40.3c0-14.5,0.1-29.1,0.2-43.6c0-2,0-4,0-6c-0.5-0.1-1-0.2-1.5-0.2c-3.5,8.3-6.9,16.7-10.6,25
		c-2.6,5.7-5.1,11.6-8.7,16.7c-9.9,13.8-27,19.4-40.3,13.7c-13.8-5.9-22.2-22.7-19.4-39.2c0.7-4.3,2-8.6,3.6-12.6
		c14.7-37.3,29-74.8,44.5-111.8c12.9-30.7,35.1-52.9,66.2-65.7c1.5-0.6,3.9-0.7,5,0.2c4.8,3.7,9.2,7.9,14,12.2
		c-13.8,4.3-26.6,10.2-37.6,19.3c-14.1,11.7-24.8,26-31.6,43C62.3,419,48.1,455.3,33.7,491.5c-2.6,6.5-4.3,13.1-2,20.1
		c3.1,9.4,11.4,13,19.3,7c4.8-3.6,8.9-9.1,11.2-14.6c15.7-36.5,30.9-73.2,46.2-109.8c0.7-1.7,1.5-3.4,3.4-5c0,2.1,0,4.3,0,6.4
		c-0.2,45.1-0.4,90.3-0.6,135.4c-0.1,15.4,7.5,22.9,22.8,22.9c37.5,0,75,0,112.5,0c16.5,0,24.2-7.6,24.2-24.3c0-43.2,0-86.5,0-129.7
		c0-2.1,0-4.1,0-7.7c1.7,2.3,2.6,3.3,3.3,4.5c15.9,26.8,31.7,53.6,47.6,80.4c5.4,9.2,13.8,10.4,21.7,3.1c1.4-1.3,2.6-2.8,3.8-4.3
		c21.3-28,42.8-55.9,63.8-84.1c3-4,4.5-9.7,5-14.7c0.5-5.1-2.2-9.6-7.5-11.8c-5-2.1-9.9-1.3-14,2c-2.3,1.9-4.3,4.3-6.2,6.7
		c-16.5,21.1-32.9,42.2-49.7,63.9c-1.4-2-2.5-3.6-3.6-5.3c-16.8-26-34.2-51.6-50.2-78.1c-9.9-16.4-24.3-25.3-41.7-30.8
		c-2.4-0.7-4.7-1.5-7.5-2.4c5.2-4.5,10.1-8.9,15.2-13c0.9-0.7,3.2-0.1,4.7,0.4c19.6,6.8,35.4,18.7,46.7,36.2
		c11.8,18.3,23.3,36.8,34.9,55.2c1,1.6,1.9,3.2,3.3,5.5c2.3-2.9,4.3-5.4,6.2-7.9c9.6-12.4,19.2-24.8,28.8-37.2
		c11.8-15.2,30-19.2,44.6-9.9c14,8.8,18.6,27.9,10.8,44.3c-1.2,2.6-2.8,5-4.5,7.3c-21.5,28.3-43.1,56.6-64.7,84.9
		c-9,11.8-20.5,18.3-35.8,15.1c-8.2-1.7-14.6-6-18.8-13.6c-5.2-9.5-11-18.7-16.5-28C290.1,460.9,289.6,461.1,289.2,461.2z"/>
	<path class="st10" d="M255.6,251.1c-0.2,35.7-29.2,64.3-64.8,64.1c-35.2-0.3-64-29.5-63.7-64.8c0.3-35.3,29.4-64,64.7-63.8
		C227.2,186.8,255.8,215.8,255.6,251.1z M237.2,251.1c0-25.5-20.5-46.1-45.8-46.1c-25.3,0-46,20.7-46,46c0,25.2,20.8,45.8,46.2,45.8
		C216.6,296.8,237.3,276.1,237.2,251.1z"/>
</g>
</svg>
