<?xml version="1.0" encoding="utf-8"?>
<!-- Generator: Adobe Illustrator 21.1.0, SVG Export Plug-In . SVG Version: 6.00 Build 0)  -->
<svg version="1.1" id="Capa_1" xmlns="http://www.w3.org/2000/svg" xmlns:xlink="http://www.w3.org/1999/xlink" x="0px" y="0px"
	 viewBox="0 0 612 612" style="enable-background:new 0 0 612 612;" xml:space="preserve">
<style type="text/css">
	.st0{fill:#FFFFFF;}
	.st1{fill:#304A54;}
	.st2{fill:#FAFCFC;}
	.st3{fill:#FFFFFF;stroke:#FFFFFF;stroke-width:0.75;stroke-miterlimit:10;}
	.st4{fill:#212D33;}
	.st5{fill:#FFFFFF;stroke:#212D33;stroke-miterlimit:10;}
	.st6{fill:#212D33;stroke:#212D33;stroke-miterlimit:10;}
	.st7{fill:#03898F;}
	.st8{fill:#2A2A2A;}
	.st9{fill:#29BF29;}
	.st10{fill:#2DA9F6;stroke:#2DA9F6;stroke-width:8;stroke-miterlimit:10;}
	.st11{fill:#45707F;}
	.st12{fill:#2B393F;}
	.st13{fill:#FCFCFC;}
	.st14{fill:#FBFBFB;}
	.st15{fill:#FEFEFE;}
	.st16{fill:#292929;}
	.st17{fill:#FFA500;}
	.st18{fill:#2DA9F6;}
</style>
<g>
	<g>
		<path class="st18" d="M330.3,432.8c-26.5,0-53.1,0-79.6-0.1c-2.8,0-5.6-0.5-8.2-1.3c-6-2-9.6-6.7-9.4-13c0.2-7.7,0.9-15.3,1.7-23
			c1-10.1,2.2-20.1,3.3-30.2c1.4-12.5,2.8-24.9,4.2-37.4c1.1-9.9,2.1-19.9,3.2-29.8c0.9-8.5,1.6-17,2.9-25.4
			c1.6-9.9,7.3-14.5,17.5-14.5c26.5-0.1,53.1,0,79.6,0c17.6,0,35.2,0.1,52.8,0c11.1-0.1,18.4,4.8,19.1,17.3
			c1,16.4,2.3,32.8,3.5,49.3c1.4,18.7,2.9,37.4,4.3,56.2c0.9,11.8,1.8,23.6,2.2,35.4c0.4,10-6.4,16.5-16.4,16.6
			C384.1,432.8,357.2,432.8,330.3,432.8z M288.7,431.9C288.7,431.9,288.7,431.9,288.7,431.9c4,0,8.1,0,12.1,0c6.6,0,7.9-1,8.3-7.4
			c0.9-13.4,1.6-26.8,2.4-40.2c0.5-8.4,1-16.8,1.6-25.2c0.9-14,1.9-28,2.8-42c0.6-8.5,1.1-17,1.7-25.5c0.7-10,1.3-19.9,2-29.9
			c0.2-2.6-0.9-3.5-3.4-3.5c-8.1,0-16.1-0.1-24.2-0.1c-4.4,0-6.2,1.6-6.7,6.1c-0.7,6.9-1.1,13.9-1.6,20.8c-0.8,9-1.6,18-2.4,26.9
			c-1.1,12.3-2.3,24.5-3.4,36.8c-1.1,11.9-2.1,23.8-3.2,35.7c-1.3,14.2-2.8,28.4-4.1,42.6c-0.3,3.7,0.8,4.8,4.6,4.8
			C279.7,432,284.2,431.9,288.7,431.9z M372.9,340.2c-4.7,1.4-9.7,2.3-14.2,4.4c-11.3,5.2-13.9,16.6-6.1,26.3c1.6,2,1.7,3.2,0.4,5.3
			c-4.4,7.2-5.1,14.6-0.1,22c9.3,13.6,33.4,17.2,46.3,6.9c6.8-5.4,8.9-13.3,5.5-21.3c-1.3-3-3-5.9-4.7-8.7c-1.2-2-1.2-3.7-0.2-5.8
			c3.4-6.8,2.3-13.1-3-18.5C390.3,344.3,382.3,341.1,372.9,340.2z"/>
		<path class="st18" d="M434.7,305.1c-0.8-9.4-1.7-18.7-2.5-28.3c1.4-0.1,2.6-0.2,3.8-0.2c2.9-0.2,5.9,0,8.8-0.7
			c8.7-1.9,14.1-9.7,13.3-18.5c-0.8-9.1-8.2-15.7-18-15.9c-13.2-0.2-26.4-0.1-39.6-0.1c-56.1,0-112.2,0-168.4,0.1
			c-4.1,0-8.4,0.3-12.3,1.4c-8.2,2.4-12.6,10.1-11.4,18.9c1,7.5,7.6,13.8,15.4,14.3c2.8,0.2,5.6,0,9.1,0c-0.5,9.8-1.1,19.2-1.6,28.8
			c-1.9,0.1-3.3,0.2-4.8,0.2c-22.3,0-44.5,0.1-66.8,0c-10.2,0-13.6-3.4-13.6-13.7c-0.1-21.4-0.1-42.8,0-64.2
			c0-10.6,3.7-14.3,14.4-14.3c52.1-0.1,104.2-0.1,156.3-0.1c62.4,0,124.7,0,187.1,0c1.2,0,2.4,0,3.7,0c6.6,0.3,9.7,3.2,9.7,9.8
			c0.1,24.5,0.1,48.9,0,73.4c0,6.1-2.9,9-8.6,9.1c-24,0.1-47.9,0-71.9,0C436.2,305.3,435.7,305.2,434.7,305.1z"/>
	</g>
	<g>
		<path class="st18" d="M587,290.8c-1.4-9.9-2.2-19.9-4.2-29.7c-20.2-97.5-76.9-164.5-171.2-195.9c-142.5-47.4-293.8,40.2-325.5,187
			c-16.5,76.7,0,146.9,47.5,209.6c1.3,1.7,2.6,3.4,4.5,6.1c-11-1.7-20.9-3.2-30.7-4.9c-21.3-3.5-42.6-7-63.8-10.5
			c-9.5-1.6-16.8,2.8-18.3,11.2c-1.5,8.1,4,15.1,13.5,16.7c29.9,4.9,59.9,9.7,89.8,14.6c12.4,2,24.9,4,37.3,6.1
			c11.7,2,17.8-2.2,19.6-13.9c6.8-42.8,13.6-85.5,20.5-128.3c1-6.4,0.1-12.1-5.7-16c-4.6-3.1-9.5-3.5-14.5-0.9
			c-5.1,2.6-7,7.2-7.8,12.5c-3,19.3-6.1,38.6-9.1,57.9c-2,12.9-4.1,25.9-6.4,40c-2.3-2.7-3.8-4.4-5.2-6.2
			C52.8,313.2,123.6,118,291.3,84.9c122-24,239.5,56.2,263.5,178.6c24.2,123.3-58.5,243.2-182.6,264.5c-12.2,2.1-24.7,2.5-37.1,3.3
			c-7.4,0.5-12.6,3.6-14.7,9.4c-3.5,9.7,3.5,19.1,14.6,19c42.3-0.4,82.4-9.8,119.3-30.6c73.5-41.4,116.8-104.2,130.2-187.5
			c1.1-6.6,1.6-13.3,2.4-20C587,311.3,587,301.1,587,290.8z"/>
	</g>
</g>
</svg>
