<?xml version="1.0" encoding="utf-8"?>
<!-- Generator: Adobe Illustrator 21.1.0, SVG Export Plug-In . SVG Version: 6.00 Build 0)  -->
<svg version="1.1" id="Capa_1" xmlns="http://www.w3.org/2000/svg" xmlns:xlink="http://www.w3.org/1999/xlink" x="0px" y="0px"
	 viewBox="0 0 612 612" style="enable-background:new 0 0 612 612;" xml:space="preserve">
<style type="text/css">
	.st0{fill:#FFFFFF;}
	.st1{fill:#304A54;}
	.st2{fill:#FAFCFC;}
	.st3{fill:#FFFFFF;stroke:#FFFFFF;stroke-width:0.75;stroke-miterlimit:10;}
	.st4{fill:#212D33;}
	.st5{fill:#FFFFFF;stroke:#212D33;stroke-miterlimit:10;}
	.st6{fill:#212D33;stroke:#212D33;stroke-miterlimit:10;}
	.st7{fill:#03898F;}
	.st8{fill:#2A2A2A;}
	.st9{fill:#29BF29;}
	.st10{fill:#2DA9F6;stroke:#2DA9F6;stroke-width:8;stroke-miterlimit:10;}
	.st11{fill:#45707F;}
	.st12{fill:#2B393F;}
	.st13{fill:#FCFCFC;}
	.st14{fill:#FBFBFB;}
	.st15{fill:#FEFEFE;}
	.st16{fill:#292929;}
	.st17{fill:#FFA500;}
	.st18{fill:#2DA9F6;}
	.st19{fill:#A2A2A2;}
	.st20{fill:none;stroke:#2A2A2A;stroke-width:20;stroke-miterlimit:10;}
	.st21{fill:#FFFFFF;stroke:#2A2A2A;stroke-width:22;stroke-miterlimit:10;}
	.st22{fill:none;}
	.st23{fill:none;stroke:#212D33;stroke-width:50;stroke-miterlimit:10;}
	.st24{fill:#990D0D;}
</style>
<g>
	<path class="st0" d="M2.9,188.9c31.8-44.4,63.5-88.8,95.2-133.2c3.2-4.5,6.9-6.2,12.4-6.2c65.1,0.1,130.1-0.1,195.2-0.1
		c62.5,0,125,0.2,187.5,0.3c3.4,0,6.7,0.1,10.1-0.1c4.9-0.3,8.7,1.5,11.6,5.6c30.4,42.7,60.9,85.4,91.3,128.1
		c4.1,5.7,3.6,13-1.2,18.9c-41.1,50.4-82.3,100.8-123.4,151.3c-55.4,68-110.9,136-166.3,204c-5.6,6.9-11.8,7-17.2,0.4
		c-49.7-61-99.3-122-149-183C100.7,315.3,52.1,255.7,3.5,196.1C3.4,196,3.1,196,2.9,196C2.9,193.6,2.9,191.2,2.9,188.9z
		 M306.7,527.5c1.3-3.1,2.1-5,2.9-7c32.6-80.7,65.2-161.3,97.8-242c0.8-2,1.6-4.1,2.7-5.9c2.6-3.9,6.4-5.4,10.8-3.8
		c4.6,1.7,6.8,5.3,6,10.2c-0.4,2.1-1.1,4.2-1.9,6.2c-27.2,67.6-54.5,135.1-81.8,202.6c-0.8,1.9-1.4,3.9-2.1,5.8
		c0.4,0.2,0.8,0.4,1.2,0.7C421.5,397.2,500.8,300,581,201.7c-6.3,0-11.1,0.1-16,0c-7-0.2-11.3-3.9-11.4-9.5
		c-0.1-5.7,4.2-9.3,11.2-9.4c5.4-0.1,10.9,0,17.8,0c-25.1-35.1-49.3-69.1-74.2-103.8c-1.8,4.3-3.2,7.5-4.5,10.8
		c-1.4,3.5-2.6,7-4.2,10.4c-3.2,6.7-10.8,8.5-15.5,3.8c-3.6-3.6-3.3-7.7-1.5-12.1c3-7.4,5.9-14.8,9.1-22.6c-53.6,0-106.5,0-160.3,0
		c2.3,2.2,3.8,3.7,5.4,5.2c22.6,21.1,45.3,42.3,67.9,63.4c1.6,1.5,3.2,3,4.4,4.7c2.9,4.1,2.4,8.4-1.1,11.8
		c-3.3,3.3-7.3,3.8-11.4,1.3c-1.8-1.1-3.4-2.7-5-4.1c-26.7-24.9-53.4-49.8-80-74.6c-1.6-1.5-3.1-2.9-5-4.6
		c-39.3,36.6-78.2,73-118.4,110.5c3.9,0,6,0,8.1,0c57,0,114,0,171,0c2.4,0,4.8-0.1,7.1,0.2c5,0.7,7.8,4,8,8.8
		c0.2,4.5-2.1,8.1-6.8,9.2c-2.6,0.6-5.5,0.7-8.2,0.7c-61.5,0-123.1,0-184.6,0c-2.3,0-4.6,0-7.8,0C219,310.4,262.6,418.3,306.7,527.5
		z M271.9,495.2c0.3-0.2,0.6-0.5,0.8-0.7c-0.2-0.7-0.4-1.4-0.7-2.1c-38.5-95.5-77.1-190.9-115.5-286.4c-1.5-3.7-3.6-4.3-7.1-4.3
		c-36.9,0.1-73.7,0.1-110.6,0.1c-1.6,0-3.3,0.3-5.9,0.5C113,300.4,192.4,397.8,271.9,495.2z M121.6,69.1c14.8,36.6,29.2,72.4,44,109
		c38.9-36.3,77.4-72.2,116.7-109C228,69.1,175.3,69.1,121.6,69.1z M105,78.7c-25,35-49.3,69-74,103.6c39.1,0,76.9,0,115.8,0
		C132.9,147.8,119.2,113.9,105,78.7z"/>
	<path class="st0" d="M534.4,194.5c-1.4,1.4-3.5,4.9-6.6,6.6c-9.3,5.2-19,9.5-28.3,14.7c-3,1.7-5.9,4.5-7.6,7.5
		c-5.1,9.1-9.6,18.5-14.2,27.9c-2.1,4.2-5.1,8.1-9.7,7c-3.5-0.8-7.3-3.9-9.1-7c-5.4-9.3-9.8-19.3-14.9-28.8c-1.3-2.4-3.6-4.7-6-6
		c-9.3-5-18.9-9.7-28.4-14.4c-4-2-7.6-4.5-7.7-9.6c-0.1-5.3,3.5-8,7.8-10.1c9.2-4.5,18.4-8.9,27.4-13.9c3-1.7,5.8-4.6,7.5-7.6
		c5-8.9,9.4-18.2,13.9-27.3c2-4.1,4.6-7.4,9.7-7.4c5.1-0.1,7.7,3.2,9.7,7.3c4.8,9.7,9.6,19.4,14.7,28.9c1.2,2.2,3.3,4.4,5.6,5.6
		c9.7,5.2,19.6,10.1,29.4,15C531.5,184.7,534.3,187.4,534.4,194.5z M468.2,227.5c5.7-18.4,17.5-29.7,35.6-35.4
		c-18-5.9-30-16.9-35.6-35.5c-5.7,18.4-17.5,29.6-35.8,35.6C450.9,197.5,462.2,209.4,468.2,227.5z"/>
</g>
</svg>
