<?xml version="1.0" encoding="utf-8"?>
<!-- Generator: Adobe Illustrator 21.1.0, SVG Export Plug-In . SVG Version: 6.00 Build 0)  -->
<svg version="1.1" id="Capa_1" xmlns="http://www.w3.org/2000/svg" xmlns:xlink="http://www.w3.org/1999/xlink" x="0px" y="0px"
	 viewBox="0 0 612 612" style="enable-background:new 0 0 612 612;" xml:space="preserve">
<style type="text/css">
	.st0{fill:#FFFFFF;}
	.st1{fill:#304A54;}
	.st2{fill:#FAFCFC;}
	.st3{fill:#FFFFFF;stroke:#FFFFFF;stroke-width:0.75;stroke-miterlimit:10;}
	.st4{fill:#212D33;}
	.st5{fill:#FFFFFF;stroke:#212D33;stroke-miterlimit:10;}
	.st6{fill:#212D33;stroke:#212D33;stroke-miterlimit:10;}
	.st7{fill:#03898F;}
	.st8{fill:#2A2A2A;}
	.st9{fill:#29BF29;}
	.st10{fill:#2DA9F6;stroke:#2DA9F6;stroke-width:8;stroke-miterlimit:10;}
	.st11{fill:#45707F;}
	.st12{fill:#2B393F;}
	.st13{fill:#FCFCFC;}
	.st14{fill:#FBFBFB;}
	.st15{fill:#FEFEFE;}
	.st16{fill:#292929;}
	.st17{fill:#FFA500;}
	.st18{fill:#2DA9F6;}
	.st19{fill:#A2A2A2;}
	.st20{fill:none;stroke:#2A2A2A;stroke-width:20;stroke-miterlimit:10;}
	.st21{fill:#FFFFFF;stroke:#2A2A2A;stroke-width:22;stroke-miterlimit:10;}
	.st22{fill:none;}
	.st23{fill:none;stroke:#212D33;stroke-width:50;stroke-miterlimit:10;}
	.st24{fill:#990D0D;}
</style>
<g>
	<path class="st24" d="M307.8,54.1c6,1,11.9,2.1,17.9,2.9c33.7,4.9,67.5,9.8,101.2,14.7c13,1.9,26,3.7,38.9,5.7
		c1.9,0.3,4.1,1.2,5.5,2.4c18.4,15.4,36.6,31,54.9,46.5c0.7,0.6,1.3,1.2,2.1,1.9c-0.8,0.8-1.5,1.5-2.2,2.1
		c-18,15.3-36.1,30.6-54.1,46c-2.3,2-4.8,2.6-7.5,3c-42.2,6.1-84.4,12.3-126.6,18.4c-9.8,1.4-19.6,3.2-29.5,4.1
		c-4.7,0.4-9.7-0.5-14.5-1.2c-33.9-4.9-67.9-9.8-101.8-14.8c-16-2.3-32.1-4.7-48.1-7.1c-1-0.2-2.1-0.6-2.9-1.3
		c-19.1-16.1-38.1-32.3-57.1-48.4c-0.2-0.2-0.4-0.4-1.4-1.5c0.7-0.3,1.6-0.5,2.1-1c18.6-15.7,37.2-31.5,55.8-47.2
		c1.1-0.9,2.5-1.6,3.9-1.8c26.3-3.9,52.7-7.7,79.1-11.5c26.3-3.8,52.5-7.6,78.8-11.5c0.5-0.1,0.9-0.3,1.3-0.5
		C305,54.1,306.4,54.1,307.8,54.1z"/>
	<path class="st24" d="M604.4,206.9c-0.2,3.8-0.5,7.5-0.6,11.3c-0.1,4.6,0,9.3,0,13.9c-0.4,0.1-0.7,0.1-1.1,0.2
		c-11.7-23.9-23.3-47.8-35-71.6c0.2-0.2,0.4-0.3,0.6-0.5c12,9.4,24,18.8,36,28.2C604.4,194.6,604.4,200.8,604.4,206.9z"/>
	<path class="st24" d="M7.6,221.3c0.2-2,0.4-3.9,0.5-5.9c0.3-8.7,0.4-17.5,0.7-26.2c0-1.1,0.6-2.6,1.5-3.2
		c10.3-8.3,20.8-16.4,31.2-24.5c0.3-0.2,0.6-0.3,1.5-0.8c-5,9.9-9.8,19.3-14.6,28.6c-6.3,12.4-12.7,24.8-19,37.1
		c-0.5,1-1.2,1.8-1.7,2.7C7.6,226.4,7.6,223.9,7.6,221.3z"/>
	<path class="st24" d="M305.5,557.9c-38.4-73.2-76.6-146-114.9-219c75.1,0,149.8,0,225.1,0C379,411.9,342.4,484.6,305.5,557.9z"/>
	<path class="st24" d="M339.4,529.8c4.5-8.9,8.9-17.7,13.4-26.6c27.3-54.3,54.7-108.6,82-163c1.3-2.5,2.9-3.9,5.5-4.7
		c45.1-14.8,90.2-29.7,135.3-44.6c0.5-0.2,1.1-0.3,2.1,0C498.3,370.7,419,450.5,339.8,530.3C339.6,530.1,339.5,530,339.4,529.8z"/>
	<path class="st24" d="M269.6,528.4C190.3,448.8,111,369.2,31.7,289.5c0.1-0.2,0.2-0.3,0.2-0.5c1.9,0.6,3.8,1.2,5.7,1.9
		c43.1,14.7,86.3,29.5,129.4,44.3c1.2,0.4,2.6,1.5,3.2,2.7c33,62.9,66,125.8,99,188.7c0.3,0.5,0.5,1,0.8,1.5
		C269.9,528.2,269.7,528.3,269.6,528.4z"/>
	<path class="st24" d="M407.9,320.8c-70,0-139.2,0-209,0c35.8-32.7,71.2-65,106.7-97.4C339.6,255.8,373.5,288,407.9,320.8z"/>
	<path class="st24" d="M590.2,267.5c-49.2,16.2-97.7,32.2-146.8,48.5c11.6-38.8,23.1-76.9,34.7-115.5
		C515.4,222.8,552.5,244.9,590.2,267.5z"/>
	<path class="st24" d="M286,217.4c-35.2,32.1-69.9,63.8-105,95.9c-10.2-38.6-20.3-76.7-30.5-115.6
		C195.6,204.3,240.4,210.8,286,217.4z"/>
	<path class="st24" d="M163.2,315.3c-48.3-16.5-95.9-32.8-144.1-49.3c38.2-22,75.8-43.6,113.8-65.5C143,238.7,153,276.6,163.2,315.3
		z"/>
	<path class="st24" d="M425.7,313.4c-33.7-32.1-67-63.7-100.8-95.9c45.4-6.6,90.1-13.1,135.5-19.7
		C448.8,236.5,437.3,274.7,425.7,313.4z"/>
	<path class="st24" d="M72,142.2c17.2,14.6,34.1,28.9,51.2,43.5c-34.6,19.9-68.9,39.7-103.2,59.4c-0.2-0.1-0.3-0.2-0.5-0.3
		C37,210.7,54.4,176.7,72,142.2z"/>
	<path class="st24" d="M487.9,185.8c17.2-14.6,34.1-28.9,51.2-43.5c17,34.7,33.8,69.2,50.7,103.7c-0.1,0.2-0.3,0.3-0.4,0.5
		C555.8,226.4,522.1,206.2,487.9,185.8z"/>
</g>
</svg>
