<?xml version="1.0" encoding="utf-8"?>
<!-- Generator: Adobe Illustrator 21.1.0, SVG Export Plug-In . SVG Version: 6.00 Build 0)  -->
<svg version="1.1" id="Capa_1" xmlns="http://www.w3.org/2000/svg" xmlns:xlink="http://www.w3.org/1999/xlink" x="0px" y="0px"
	 viewBox="0 0 612 450.4" style="enable-background:new 0 0 612 450.4;" xml:space="preserve">
<style type="text/css">
	.st0{fill:#FFFFFF;}
	.st1{fill:#304A54;}
	.st2{fill:#FAFCFC;}
	.st3{fill:#FFFFFF;stroke:#FFFFFF;stroke-width:0.75;stroke-miterlimit:10;}
	.st4{fill:#212D33;}
	.st5{fill:#FFFFFF;stroke:#212D33;stroke-miterlimit:10;}
	.st6{fill:#212D33;stroke:#212D33;stroke-miterlimit:10;}
	.st7{fill:#03898F;}
	.st8{fill:#2A2A2A;}
	.st9{fill:#29BF29;}
	.st10{fill:#2DA9F6;stroke:#2DA9F6;stroke-width:8;stroke-miterlimit:10;}
	.st11{fill:#45707F;}
	.st12{fill:#2B393F;}
	.st13{fill:#FCFCFC;}
	.st14{fill:#FBFBFB;}
	.st15{fill:#FEFEFE;}
	.st16{fill:#292929;}
	.st17{fill:#FFA500;}
	.st18{fill:#2DA9F6;}
</style>
<g>
	<path class="st7" d="M25.7,5.3c186.9,0,373.8,0,560.7,0c0.2,0.2,0.4,0.4,0.5,0.7c-1.9,1.7-3.8,3.4-5.6,5.3
		c-73,73-146.1,146.1-219.1,219.1c-15.9,15.9-31.7,31.7-47.6,47.6c-5.6,5.6-11.5,5.7-17.1,0.1C209.7,190.2,121.9,102.4,34.1,14.6
		c-2.9-2.9-6-5.6-9-8.4C25.3,5.8,25.5,5.6,25.7,5.3z"/>
	<path class="st7" d="M26.2,445.1C92.4,378.6,158.7,312,225.1,245.2c1.1,1,2,1.8,2.8,2.6c16.7,16.6,33.6,33,49.9,49.9
		c15.7,16.2,40.9,16.1,56.2,0.3c16.5-17.1,33.7-33.5,50.5-50.2c0.8-0.8,1.6-1.5,2.1-2c66.5,66.5,132.9,132.9,199.3,199.3
		C399.5,445.1,212.7,445.1,26.2,445.1z"/>
	<path class="st7" d="M5.2,425.3c0-133.7,0-266.6,0-399c66.5,66.3,133.1,132.8,199.3,198.8C138.4,291.6,72,358.2,5.2,425.3z"/>
	<path class="st7" d="M407.4,225c66.4-66,133.1-132.3,199.4-198.2c0,131.9,0,264.8,0,397.7C540.4,358.1,474,291.7,407.4,225z"/>
</g>
</svg>
