<?xml version="1.0" encoding="utf-8"?>
<!-- Generator: Adobe Illustrator 21.1.0, SVG Export Plug-In . SVG Version: 6.00 Build 0)  -->
<svg version="1.1" id="Capa_1" xmlns="http://www.w3.org/2000/svg" xmlns:xlink="http://www.w3.org/1999/xlink" x="0px" y="0px"
	 viewBox="0 0 612 612" style="enable-background:new 0 0 612 612;" xml:space="preserve">
<style type="text/css">
	.st0{fill:#FFFFFF;}
	.st1{fill:#304A54;}
	.st2{fill:#FAFCFC;}
	.st3{fill:#FFFFFF;stroke:#FFFFFF;stroke-width:0.75;stroke-miterlimit:10;}
	.st4{fill:#212D33;}
	.st5{fill:#FFFFFF;stroke:#212D33;stroke-miterlimit:10;}
	.st6{fill:#212D33;stroke:#212D33;stroke-miterlimit:10;}
	.st7{fill:#03898F;}
	.st8{fill:#2A2A2A;}
</style>
<g>
	<path class="st8" d="M367.8,415.4c-42.5,0-85,0-127.6,0c-10.4,0-12.4-1.9-13.1-12c-1.2-19.5-17-35.1-36.7-36.2
		c-8.7-0.5-11.5-3.3-11.5-11.9c0-33.1,0-66.2,0-99.4c0-8.2,3.4-11.6,11.7-12.1c19.9-1.2,35.3-16.5,36.5-36.2c0.6-9.3,3.4-12,12.8-12
		c85.2,0,170.5,0,255.7,0c9.3,0,11.9,2.3,12.6,11.4c1.7,20.9,16.4,35.4,37.3,36.9c7.7,0.5,10.9,3.9,10.9,11.5c0,33.5,0,67,0,100.5
		c0,7.8-2.9,10.8-10.3,11.3c-21.3,1.2-36.5,16.2-38,37.5c-0.6,8.7-2.8,10.8-11.7,10.8C453.7,415.4,410.7,415.4,367.8,415.4z
		 M299.5,305.8c-0.1,37.9,30.1,68.3,68,68.5c37.1,0.2,68.6-30.7,68.7-67.5c0.1-37.7-30.5-68.9-67.8-69.1
		C330.2,237.4,299.7,267.6,299.5,305.8z"/>
	<path class="st8" d="M367.5,154.5c66,0,132.1,0,198.1,0c15.6,0,27.4,8.7,31,22.8c0.8,3.2,1,6.6,1,9.9c0,79-0.3,157.9,0.3,236.9
		c0.2,20.9-15.6,33.7-33.8,33.6c-131.5-0.3-263-0.2-394.5-0.2c-19.7,0-32.5-12.6-32.6-32.2c-0.1-15.3,0-30.6,0-45.9
		c0-4.6,1.2-8.6,6.3-10c6.8-1.9,11.9,2.1,12,9.5c0.1,15.1,0,30.2,0,45.3c0,10.8,4.1,14.9,14.9,14.9c131.5,0,263,0,394.5,0
		c10.7,0,14.9-4.2,14.9-15c0-78.4,0-156.8,0-235.2c0-12.1-3.8-16-15.7-16c-131.1,0-262.2,0-393.3,0c-11.3,0-15.3,4-15.3,15.1
		c0,17,0,34.1,0,51.1c0,6.5-3.2,10.1-8.8,10.3c-5.4,0.2-9.3-3.1-9.4-9c-0.2-19.4-0.6-38.8,0.2-58.2c0.7-16.3,14.2-27.7,31.4-27.8
		c45.7-0.1,91.3,0,137,0C326.4,154.5,347,154.5,367.5,154.5z"/>
	<path class="st8" d="M68.3,275.8c-14.7,0-29.4,0.1-44.1,0c-7.1-0.1-10.3-3.1-10.2-9.2c0.1-5.8,3.4-8.8,10.1-8.8
		c20.4-0.1,40.7,0,61.1,0c9.4,0,18.8-0.1,28.2,0c6.4,0.1,10,3.4,10,8.9c0,5.5-3.5,9-9.9,9.1C98.5,275.9,83.4,275.8,68.3,275.8z"/>
	<path class="st8" d="M68.9,354.3c-14.7,0-29.4,0-44.1,0c-7.3,0-10.6-2.7-10.8-8.7c-0.2-6.3,3.1-9.4,10.6-9.4
		c29.4-0.1,58.7,0,88.1,0c7,0,10.6,3.2,10.6,8.9c0,5.9-3.8,9.1-11.1,9.1C97.9,354.3,83.4,354.3,68.9,354.3z"/>
	<path class="st8" d="M118.6,315.2c-10.8,0-21.5,0-32.3,0c-7.6,0-11.1-2.9-11.2-9c-0.1-6.4,3.4-9.4,11.3-9.4
		c21.7-0.1,43.4-0.1,65.1,0c7.4,0,10.9,3.1,10.9,9.3c0,6.1-3.6,9.1-11,9.1C140.5,315.3,129.6,315.2,118.6,315.2z"/>
	<path class="st8" d="M286.9,66.1c11.3,0,22.7-0.1,34,0c6.8,0,10.6,3.4,10.6,9.1c0,5.4-4.1,9.1-10.7,9.1c-22.7,0.1-45.4,0.1-68,0
		c-7.4,0-10.8-3.2-10.6-9.5c0.2-5.8,3.6-8.7,10.7-8.7C264.2,66.1,275.5,66.1,286.9,66.1z"/>
	<path class="st8" d="M229.2,545.9c-11.3,0-22.7,0-34,0c-6.9,0-10.4-3.1-10.5-9c-0.1-6.1,3.2-9.1,10.3-9.1c22.9-0.1,45.8-0.1,68.7,0
		c6.8,0,10.5,3.6,10.3,9.3c-0.2,5.7-3.9,8.8-10.8,8.9C251.9,546,240.5,545.9,229.2,545.9z"/>
	<path class="st8" d="M426.4,103.6c11.2,0,22.3,0,33.5,0c7.6,0,11.1,3,11,9.1c-0.1,5.7-3.8,8.9-10.7,8.9c-22.7,0.1-45.5,0.1-68.2,0
		c-6.9,0-10.5-3.3-10.4-9.2c0.1-5.8,3.7-8.8,10.7-8.8C403.6,103.5,415,103.6,426.4,103.6z"/>
	<path class="st8" d="M364.1,508.4c-11.4,0-22.7,0.1-34.1,0c-7,0-10.4-3.1-10.3-9.1c0.1-5.9,3.2-8.8,10-8.9
		c23.1-0.1,46.3-0.1,69.4,0c6.4,0,10.1,3.5,10,9c-0.1,5.4-4,8.9-10.2,9C387.2,508.5,375.6,508.4,364.1,508.4z"/>
	<path class="st8" d="M286.7,490.5c5.1,0,8.9,3.7,9,8.8c0.1,5.4-3.7,9.2-9.1,9.2c-5.5,0-9.1-3.7-8.9-9.3
		C277.8,494.3,281.7,490.5,286.7,490.5z"/>
	<path class="st8" d="M210.2,84.9c-5.1,0-9-3.6-9.1-8.6c-0.1-5.4,3.7-9.1,9.2-9c5.2,0.1,8.8,3.7,8.8,8.8
		C219,81.2,215.2,84.9,210.2,84.9z"/>
	<path class="st8" d="M357.7,112.8c-0.1,4.9-4.1,8.8-9.1,8.8c-4.9,0-8.9-4-8.9-8.9c0-5.2,4.2-9.2,9.3-9.1
		C354,103.8,357.8,107.9,357.7,112.8z"/>
	<path class="st8" d="M152.8,528c5.2,0.1,8.9,3.9,8.7,9c-0.2,5-4.7,9.1-9.7,8.9c-5-0.2-8.5-4.2-8.3-9.4
		C143.8,531.5,147.8,527.8,152.8,528z"/>
	<path class="st8" d="M418,305.9c0.1,27.4-22.7,50.3-50,50.4c-27.2,0.1-50.2-22.8-50.3-50.1c-0.1-27.1,23-50.4,50.1-50.4
		C395.1,255.7,417.9,278.5,418,305.9z"/>
</g>
</svg>
