<?xml version="1.0" encoding="utf-8"?>
<!-- Generator: Adobe Illustrator 19.0.0, SVG Export Plug-In . SVG Version: 6.00 Build 0)  -->
<svg version="1.1" id="Layer_1" xmlns="http://www.w3.org/2000/svg" xmlns:xlink="http://www.w3.org/1999/xlink" x="0px" y="0px"
	 viewBox="0 0 80 80" style="enable-background:new 0 0 80 80;" xml:space="preserve">
<style type="text/css">
	.st0{fill:#512C87;}
	.st1{fill:#F9F8F7;}
</style>
<g id="XMLID_876_">
	<path id="XMLID_874_" class="st0" d="M3.3,40C3.3,19.7,19.7,3.3,40,3.3c20.3,0,36.7,16.4,36.7,36.7c0,20.3-16.4,36.7-36.7,36.7
		C19.7,76.7,3.3,60.3,3.3,40"/>
	<path id="XMLID_873_" class="st1" d="M60.1,31H44.3c-0.2,0-0.3,0-0.5,0.1l-3.2,2.1c-0.1,0.1-0.3,0.1-0.5,0.1H19.9
		c-0.5,0-0.9,0.4-0.8,0.9l1.2,20.2c0,0.4,0.4,0.8,0.8,0.8h37.9c0.4,0,0.8-0.3,0.8-0.8l1.2-22.6C61,31.4,60.6,31,60.1,31"/>
	<path id="XMLID_872_" class="st1" d="M22.1,33.2v-4.4c0-0.1,0.1-0.2,0.2-0.2h35.2c0.1,0,0.1,0.1,0.1,0.1v2.1h1.2v-2.6
		c0-0.5-0.4-0.8-0.8-0.8H37.2v-0.7c0-1-0.8-1.8-1.8-1.8H22.7c-1,0-1.8,0.8-1.8,1.8v6.6H22.1z"/>
</g>
</svg>
