<?xml version="1.0" encoding="utf-8"?>
<!-- Generator: Adobe Illustrator 21.1.0, SVG Export Plug-In . SVG Version: 6.00 Build 0)  -->
<svg version="1.1" id="Capa_1" xmlns="http://www.w3.org/2000/svg" xmlns:xlink="http://www.w3.org/1999/xlink" x="0px" y="0px"
	 viewBox="0 0 612 612" style="enable-background:new 0 0 612 612;" xml:space="preserve" width="612" height="612">
<style type="text/css">
	.st0{fill:#FFFFFF;}
	.st1{fill:#304A54;}
	.st2{fill:#FAFCFC;}
	.st3{fill:#FFFFFF;stroke:#FFFFFF;stroke-width:0.75;stroke-miterlimit:10;}
	.st4{fill:#212D33;}
	.st5{fill:#FFFFFF;stroke:#212D33;stroke-miterlimit:10;}
	.st6{fill:#212D33;stroke:#212D33;stroke-miterlimit:10;}
	.st7{fill:#03898F;}
	.st8{fill:#2A2A2A;}
	.st9{fill:#29BF29;}
	.st10{fill:#2DA9F6;stroke:#2DA9F6;stroke-width:8;stroke-miterlimit:10;}
	.st11{fill:#45707F;}
	.st12{fill:#2B393F;}
	.st13{fill:#FCFCFC;}
	.st14{fill:#FBFBFB;}
	.st15{fill:#FEFEFE;}
	.st16{fill:#292929;}
	.st17{fill:#FFA500;}
	.st18{fill:#2DA9F6;}
	.st19{fill:#A2A2A2;}
	.st20{fill:none;stroke:#2A2A2A;stroke-width:20;stroke-miterlimit:10;}
	.st21{fill:#FFFFFF;stroke:#2A2A2A;stroke-width:22;stroke-miterlimit:10;}
	.st22{fill:none;stroke:#212D33;stroke-width:50;stroke-miterlimit:10;}
</style>
<g>
	<path class="st4" d="M497.1,44.1c0,22,0,43.7,0,66.1c-11.5,0-22.9,0-34.7,0c0,92.1,0,183.6,0,275.4c-139.7,0-279.1,0-418.8,0
		c0-91.7,0-183.2,0-275.3c-11.8,0-23.2,0-34.7,0c0-22.3,0-44.1,0-66.2C171.5,44.1,334,44.1,497.1,44.1z M252.8,303.3
		c49.9,0,99.7,0,149.6,0c15.1,0,24.5-9.1,24.6-24.3c0.2-33.9,0.2-67.7,0.1-101.6c0-14.5-9.8-23.9-24.2-23.9c-99.9,0-199.7,0-299.6,0
		c-14.5,0-24.1,9.4-24.2,23.9c-0.1,34,0,68,0.1,102c0,14.7,9.4,23.9,24,23.9C153.1,303.3,203,303.3,252.8,303.3z"/>
	<path class="st4" d="M496.9,481.7c-162.7,0-324.9,0-487.6,0c0.5-1.6,0.9-3,1.4-4.3c10.5-26.2,21-52.3,31.3-78.5
		c1.2-2.9,2.5-4.2,5.9-4.2c136.8,0.1,273.6,0.1,410.4,0.1c2.5,0,4.2,0.2,5.3,3c10.8,27.3,21.7,54.5,32.6,81.7
		C496.4,480,496.5,480.6,496.9,481.7z"/>
	<path class="st4" d="M493.1,491.5c0,25.6,0,50.9,0,76.4c-162.6,0-325.1,0-487.8,0c0-25.4,0-50.8,0-76.4
		C167.8,491.5,330.2,491.5,493.1,491.5z M129.1,506c-25.7,0-51.1,0-76.6,0c0,16.1,0,31.9,0,47.7c25.7,0,51,0,76.6,0
		C129.1,537.7,129.1,521.9,129.1,506z M158,505.8c0,16.2,0,32,0,48c25.6,0,51,0,76.5,0c0-16.1,0-32,0-48
		C208.9,505.8,183.6,505.8,158,505.8z M340,553.8c0-16.3,0-32.1,0-47.8c-25.7,0-51.1,0-76.5,0c0,16.1,0,31.8,0,47.8
		C289.1,553.8,314.5,553.8,340,553.8z M445.6,553.8c0-16.3,0-32.1,0-47.8c-25.7,0-51.1,0-76.5,0c0,16.1,0,31.8,0,47.8
		C394.7,553.8,420,553.8,445.6,553.8z"/>
	<path class="st4" d="M468,186.2c15.6,0,31,0,46.6,0c0,9.1,0,17.9,0,27.1c16.2,0,32.1,0,48.4,0c0-1.7,0-3.3,0-4.8
		c0-18-0.1-36,0.1-54.1c0-3.1-0.8-4.9-3.7-6.4c-12.8-7-18.9-21.6-15.1-35.7c3.7-14,16.3-23.6,30.9-23.5c14.4,0.1,26.8,9.7,30.4,23.6
		c3.7,14.1-2.4,28.8-15.2,35.7c-2.9,1.6-3.6,3.4-3.6,6.5c0.1,25.1,0.1,50.3,0.1,75.4c0,2.2,0,4.3,0,7c-24.1,0-47.8,0-72.1,0
		c0,11,0,21.5,0,32.2c-15.9,0-31.2,0-46.8,0C468,241.4,468,214,468,186.2z"/>
	<path class="st4" d="M253,160.1c49.9,0,99.7,0,149.6,0c12,0,18.3,6.2,18.3,18.2c0,33.3,0,66.6,0,99.9c0,12.4-6.4,18.7-18.9,18.7
		c-99,0-198,0-297,0c-14,0-19.8-5.8-19.8-19.9c0-33,0-66,0-99c0-5.9,1.3-11.3,6.4-14.5c3.2-2,7.5-3.2,11.4-3.3
		C152.9,160.1,202.9,160.1,253,160.1z M252.4,291.2c47.7,0,95.3,0,143,0c12.6,0,19.7-7.2,19.7-19.7c0-28.8,0-57.5,0-86.3
		c0-12.2-7.3-19.5-19.6-19.5c-94.9,0-189.8,0-284.7,0c-12.8,0-20.1,7.2-20.1,19.9c0,28.5,0,57,0,85.4c0,13,7.3,20.1,20.3,20.1
		C158.2,291.2,205.3,291.2,252.4,291.2z"/>
	<path class="st4" d="M294.2,184c0,30,0,59.7,0,89.6c-28.8,0-57.3,0-86.1,0c0-29.9,0-59.6,0-89.6C236.7,184,265.2,184,294.2,184z
		 M283.9,204.1c-20.7,0-40.4,0-60.1,0.1c-0.8,0-2.2,1.5-2.2,2.3c-0.2,6.4-0.2,12.8,0,19.2c0,0.8,1.4,2.3,2.2,2.4
		c5.6,0.2,11.2,0.1,17.3,0.1c0-3.7,0-6.9,0-10.2c5.3,0,10.2,0,15.6,0c-7.5,13.7-14.8,26.9-22.5,41c9.6,0,18.1-0.1,26.7,0.1
		c3,0.1,4.3-0.9,5.3-3.7c5.4-15.5,11-30.9,16.4-46.4C283,207.6,283.3,206.3,283.9,204.1z"/>
	<path class="st4" d="M390.4,273.6c-28.8,0-57.3,0-85.9,0c0-29.9,0-59.6,0-89.6c28.6,0,57.2,0,85.9,0
		C390.4,213.8,390.4,243.6,390.4,273.6z M352.6,217.9c-7.6,13.9-14.8,27-22.5,41.1c9.7,0,18.3-0.1,27,0.1c2.9,0.1,4-1,4.9-3.6
		c5.4-15.5,11-30.9,16.5-46.4c0.5-1.4,0.8-2.9,1.3-5c-20.4,0-40.2,0-59.9,0.1c-0.8,0-2.3,1.7-2.4,2.6c-0.2,6.2-0.2,12.5,0,18.7
		c0,0.9,1.3,2.4,2.1,2.5c5.6,0.2,11.2,0.1,17.5,0.1c0-3.7,0-7,0-10.3C342.4,217.9,347.1,217.9,352.6,217.9z"/>
	<path class="st4" d="M198.7,273.7c-28.9,0-57.3,0-86.1,0c0-29.9,0-59.6,0-89.7c28.5,0,57.2,0,86.1,0
		C198.7,213.9,198.7,243.6,198.7,273.7z M138,258.9c10.3,0,19.4,0.1,28.5-0.1c1.1,0,2.7-1.9,3.2-3.2c5.7-15.7,11.3-31.4,16.9-47.1
		c0.4-1.2,0.6-2.4,0.9-3.6c-0.8-0.3-1.2-0.6-1.6-0.6c-19.3,0-38.6-0.1-57.9,0c-0.9,0-2.6,1.8-2.7,2.8c-0.3,6.1-0.1,12.2-0.1,18.3
		c0,2.3,1,3,3.2,2.9c4.5-0.1,9-0.1,13.5,0c2.2,0,3.2-0.8,3.1-3c-0.1-2.4,0-4.8,0-7.1c5.4,0,10.1,0,15.3,0
		C152.9,231.7,145.7,244.8,138,258.9z"/>
</g>
</svg>
