<?xml version="1.0" encoding="utf-8"?>
<!-- Generator: Adobe Illustrator 17.0.0, SVG Export Plug-In . SVG Version: 6.00 Build 0)  -->
<!DOCTYPE svg PUBLIC "-//W3C//DTD SVG 1.1//EN" "http://www.w3.org/Graphics/SVG/1.1/DTD/svg11.dtd">
<svg version="1.1" id="Capa_1" xmlns="http://www.w3.org/2000/svg" xmlns:xlink="http://www.w3.org/1999/xlink" x="0px" y="0px"
	 width="612px" height="612px" viewBox="0 0 612 612" enable-background="new 0 0 612 612" xml:space="preserve">
<g>
	<path fill="#212D33" d="M438.56,326.201l-0.12,3.705c0,10.877,2.51,18.527,7.889,22.95c5.259,4.423,14.224,6.574,27.134,6.574
		l3.466,0.12v12.192h12.312V359.67l3.825-0.12c12.909,0,21.994-2.271,27.134-6.933c5.14-4.662,7.77-12.67,7.77-24.026
		c0-10.519-2.391-17.93-7.052-21.874c-4.781-3.945-13.866-6.335-27.492-7.052l-4.064-0.12v-27.014h2.869
		c10.041,0,15.061,3.945,15.061,12.073l0.12,1.913h17.332v-2.51c0-10.638-2.51-17.81-7.53-21.755
		c-5.02-3.945-14.344-5.857-28.09-5.857v-10.519H476.81v10.519c-14.344,0-24.145,2.032-29.285,6.096
		c-5.379,4.064-8.009,11.595-8.009,22.711c0,11.355,2.63,19.125,7.889,23.309s15.061,6.216,29.405,6.216v29.285l-2.749-0.12
		c-7.411,0-12.073-0.956-14.224-2.869s-3.227-6.216-3.227-12.909v-1.913L438.56,326.201L438.56,326.201z M489.241,315.323
		c8.248,0,13.627,0.837,16.256,2.63s3.945,5.379,3.945,10.877c0,10.041-5.857,15.061-17.571,15.061h-2.63L489.241,315.323
		L489.241,315.323z M474.18,298.709c-10.758,0-16.137-4.423-16.137-13.388c0-8.606,5.379-12.79,16.256-12.79l2.63-0.12v26.416
		C475.137,298.709,474.18,298.709,474.18,298.709z M257.351,326.201l-0.12,3.705c0,10.877,2.63,18.527,7.889,22.95
		c5.259,4.423,14.344,6.574,27.134,6.574l3.466,0.12v12.192h12.312V359.67l3.705-0.12c12.909,0,21.994-2.271,27.134-6.933
		c5.14-4.662,7.77-12.67,7.77-24.026c0-10.519-2.391-17.93-7.172-21.874s-13.866-6.335-27.492-7.052l-4.064-0.12v-27.014h2.869
		c10.041,0,14.941,3.945,14.941,12.073l0.12,1.913h17.691v-2.51c0-10.638-2.51-17.81-7.53-21.755
		c-5.02-3.945-14.344-5.857-28.09-5.857v-10.519h-12.312v10.519c-14.344,0-24.145,2.032-29.405,6.096
		c-5.259,4.064-8.009,11.595-8.009,22.711c0,11.355,2.63,19.125,7.889,23.309c5.259,4.184,15.061,6.216,29.405,6.216v29.285
		l-2.749-0.12c-7.411,0-12.073-0.956-14.224-2.869c-2.152-1.913-3.227-6.216-3.227-12.909v-1.913L257.351,326.201L257.351,326.201z
		 M308.032,315.323c8.248,0,13.627,0.837,16.256,2.63c2.51,1.793,3.945,5.379,3.945,10.877c0,10.041-5.857,15.061-17.571,15.061
		h-2.63L308.032,315.323L308.032,315.323z M292.971,298.709c-10.758,0-16.137-4.423-16.137-13.388c0-8.606,5.379-12.79,16.256-12.79
		l2.63-0.12v26.416C293.927,298.709,293.091,298.709,292.971,298.709z M166.387,306.717c-4.781-3.945-13.866-6.335-27.492-7.052
		l-4.064-0.12v-27.014h2.869c10.041,0,14.941,3.945,14.941,12.073l0.12,1.913h17.691v-2.51c0-10.638-2.51-17.81-7.53-21.755
		c-5.02-3.945-14.344-5.857-28.09-5.857v-10.519H122.52v10.519c-14.344,0-24.145,2.032-29.405,6.096
		c-5.259,4.064-8.009,11.595-8.009,22.711c0,11.355,2.63,19.125,7.889,23.309s15.061,6.216,29.405,6.216v29.285l-2.749-0.12
		c-7.411,0-12.073-0.956-14.224-2.869c-2.152-1.913-3.227-6.216-3.227-12.909v-1.913H84.27l-0.12,3.705
		c0,10.877,2.63,18.527,7.889,22.95c5.259,4.423,14.344,6.574,27.134,6.574l3.466,0.12v12.073h12.312V359.55l3.705-0.12
		c12.909,0,21.994-2.271,27.134-6.933s7.77-12.67,7.77-24.026C173.559,317.953,171.169,310.662,166.387,306.717z M122.639,298.828
		c-1.673-0.12-2.63-0.12-2.749-0.12c-10.758,0-16.137-4.423-16.137-13.388c0-8.606,5.379-12.79,16.256-12.79l2.63-0.12
		C122.639,272.412,122.639,298.828,122.639,298.828z M137.461,344.011h-2.63v-28.568c8.248,0,13.627,0.956,16.256,2.63
		c2.63,1.793,3.945,5.379,3.945,10.877C155.152,338.991,149.295,344.011,137.461,344.011z M612,245.756h-29.285v-94.908H29.285
		v94.908H0v125.866h29.285v89.529h553.43v-89.529H612V245.756L612,245.756z M381.066,185.512v240.855H230.934V185.512H381.066z
		 M64.069,185.512H196.27v240.855H64.069V185.512z M547.931,426.487H415.73V185.512h132.202V426.487z"/>
</g>
</svg>
