<?xml version="1.0" encoding="utf-8"?>
<!-- Generator: Adobe Illustrator 19.0.0, SVG Export Plug-In . SVG Version: 6.00 Build 0)  -->
<svg version="1.1" id="Layer_1" xmlns="http://www.w3.org/2000/svg" xmlns:xlink="http://www.w3.org/1999/xlink" x="0px" y="0px"
	 viewBox="0 0 80 80" style="enable-background:new 0 0 80 80;" xml:space="preserve">
<style type="text/css">
	.st0{fill:#FFCE06;}
	.st1{fill:#4A4A4A;}
</style>
<g id="XMLID_876_">
	<path id="XMLID_874_" class="st0" d="M3.3,40C3.3,19.7,19.7,3.3,40,3.3c20.3,0,36.7,16.4,36.7,36.7c0,20.3-16.4,36.7-36.7,36.7
		C19.7,76.7,3.3,60.3,3.3,40"/>
	<g id="XMLID_873_">
		<path id="XMLID_883_" class="st1" d="M56.9,34.6H40.8v8.7h16.1c0.7,0,1.3-0.6,1.3-1.3v-6.1C58.2,35.2,57.6,34.6,56.9,34.6"/>
		<path id="XMLID_882_" class="st1" d="M21.8,35.9v6.1c0,0.7,0.6,1.3,1.3,1.3h15.7v-8.7H23.1C22.4,34.6,21.8,35.2,21.8,35.9"/>
		<path id="XMLID_881_" class="st1" d="M24,57.9c0,0.7,0.6,1.3,1.3,1.3h13.5V44.4H24V57.9z"/>
		<path id="XMLID_880_" class="st1" d="M40.8,59.2h13.5c0.7,0,1.3-0.6,1.3-1.3V44.4H40.8V59.2z"/>
		<path id="XMLID_875_" class="st1" d="M44.8,33.2c3,0,5-0.4,6.1-1.2c1.3-1,2.2-2.4,2.5-4c0.3-1.6-0.1-3.3-1.1-4.6
			c-1-1.3-2.4-2.2-4-2.5c-1.6-0.3-3.3,0.1-4.6,1.1c-1.2,0.8-2.2,2.6-3.1,5.6c-0.2,0.6-0.4,1.2-0.5,1.8c-0.1-0.5-0.3-1.2-0.5-1.8
			c-1-2.9-2-4.7-3.1-5.6c-2.8-2-6.6-1.4-8.6,1.4c-1,1.3-1.4,3-1.1,4.6c0.3,1.6,1.1,3.1,2.5,4c1.1,0.8,3.1,1.2,6.1,1.2
			c0,0,0.1,0,0.1,0c2.1,0,3.9-0.2,4-0.2l0.7-0.1l0.7,0.1c0.1,0,1.9,0.2,4,0.2C44.7,33.2,44.7,33.2,44.8,33.2 M30.7,29.8
			c-0.8-0.5-1.2-1.3-1.4-2.3c-0.1-0.9,0.1-1.8,0.6-2.6c0.7-0.9,1.7-1.4,2.8-1.4c0.7,0,1.4,0.2,2,0.7c0.2,0.2,1.1,1,2.1,4.2
			c0.2,0.8,0.5,1.5,0.6,2.1C34.9,30.6,31.7,30.5,30.7,29.8 M45.3,24.1c0.8-0.5,1.7-0.8,2.6-0.6c0.9,0.1,1.7,0.6,2.3,1.4
			c0.5,0.8,0.8,1.7,0.6,2.6c-0.1,0.9-0.6,1.7-1.4,2.3c-0.2,0.2-1.2,0.7-4.6,0.7c-0.8,0-1.6,0-2.2-0.1C43.2,27.9,44.3,24.9,45.3,24.1
			"/>
	</g>
</g>
</svg>
