<?xml version="1.0" encoding="utf-8"?>
<!-- Generator: Adobe Illustrator 21.1.0, SVG Export Plug-In . SVG Version: 6.00 Build 0)  -->
<svg version="1.1" id="Capa_1" xmlns="http://www.w3.org/2000/svg" xmlns:xlink="http://www.w3.org/1999/xlink" x="0px" y="0px"
	 viewBox="0 0 612 612" style="enable-background:new 0 0 612 612;" xml:space="preserve">
<style type="text/css">
	.st0{fill:#FFFFFF;}
	.st1{fill:#304A54;}
	.st2{fill:#FAFCFC;}
	.st3{fill:#FFFFFF;stroke:#FFFFFF;stroke-width:0.75;stroke-miterlimit:10;}
	.st4{fill:#212D33;}
	.st5{fill:#FFFFFF;stroke:#212D33;stroke-miterlimit:10;}
	.st6{fill:#212D33;stroke:#212D33;stroke-miterlimit:10;}
	.st7{fill:#03898F;}
	.st8{fill:#2A2A2A;}
	.st9{fill:#29BF29;}
	.st10{fill:#2DA9F6;}
	.st11{fill:#45707F;}
	.st12{fill:#2B393F;}
	.st13{fill:#FCFCFC;}
	.st14{fill:#FBFBFB;}
	.st15{fill:#FEFEFE;}
	.st16{fill:#292929;}
	.st17{fill:#FFA500;}
</style>
<g>
	<path class="st9" d="M80.6,11.7c149.9,0,299.9,0,449.8,0c0.6,0.4,1.2,1,1.9,1.2c13,4.2,18.5,11.8,18.6,25.5c0,13.6,0,27.2,0,40.8
		c0,2,0.2,4,0.4,6.6c8.2,0,15.8,0,23.8,0c0.1,2.6,0.4,4.7,0.4,6.8c0,160.4,0,320.9,0,481.3c0,16.6-9.9,26.4-26.5,26.4
		c-153.9,0-307.8,0-461.7-0.1c-4.7,0-9.5-0.7-14.2-1.8c-17.8-4-36.4-21.9-36.4-49C37,430.2,36.7,311,36.7,191.8
		c0-43.5-0.1-87,0.1-130.5c0.1-23.2,14.7-42,36.7-47.6C75.8,13,78.2,12.3,80.6,11.7z M182.8,343C182.7,343,182.7,343,182.8,343
		c0,75.1,0,150.3,0,225.4c0,8.3,0,8.3,8,8.3c117.7,0,235.4,0,353.1,0c8.2,0,8.3,0,8.3-8.1c0-44.9,0-89.7,0-134.6
		c0-106,0-212,0.1-318c0-5.1-1.2-6.9-6.7-6.9c-118.7,0.2-237.3,0.2-356,0c-5.2,0-6.8,1.3-6.8,6.7C182.8,191.6,182.8,267.3,182.8,343
		z M526.9,35.9c-2.3-0.1-3.8-0.3-5.3-0.3c-144.9,0-289.8,0-434.7,0c-15.5,0-27.2,11.2-26.9,25.5C60.4,75.4,71.5,85.7,87,85.7
		c144.5,0,289,0,433.5,0c2,0,4.1,0,6.7,0c0-15.2,0-29.7,0-44.2C527.3,39.7,527,38.1,526.9,35.9z"/>
	<path class="st9" d="M350.6,459.5c0-14.4-0.1-28.8,0.1-43.1c0.1-4.2-1.1-6-5.5-7.4c-55.4-17.8-90.2-55.2-100.1-112.4
		c-13.9-80.2,39.1-147.9,108.8-163.3c77.6-17.1,151.5,28.5,170.7,105.6c17.7,71.3-21.6,146.2-95.5,169.2c-6.4,2-8.3,4.6-8.2,11.1
		c0.4,26.7,0.2,53.4,0.2,80.1c0,18.2-13.3,33.6-30.8,35.6c-18.1,2-34.7-9.1-38.7-26.7c-1.4-6.1-0.9-12.6-1-18.9
		C350.6,479.3,350.7,469.4,350.6,459.5C350.6,459.5,350.6,459.5,350.6,459.5z M493.9,272.6c-0.2-59.7-49.1-108.5-108.4-108.2
		c-59.8,0.3-108.1,49.3-107.9,109.3c0.3,59.3,49.6,107.2,110.1,107C445.4,380.5,494.1,330.9,493.9,272.6z"/>
</g>
</svg>
