<?xml version="1.0" encoding="utf-8"?>
<!-- Generator: Adobe Illustrator 21.1.0, SVG Export Plug-In . SVG Version: 6.00 Build 0)  -->
<svg version="1.1" id="Capa_1" xmlns="http://www.w3.org/2000/svg" xmlns:xlink="http://www.w3.org/1999/xlink" x="0px" y="0px"
	 viewBox="0 0 612 612" style="enable-background:new 0 0 612 612;" xml:space="preserve">
<style type="text/css">
	.st0{fill:#FFFFFF;}
	.st1{fill:#304A54;}
	.st2{fill:#FAFCFC;}
	.st3{fill:#FFFFFF;stroke:#FFFFFF;stroke-width:0.75;stroke-miterlimit:10;}
	.st4{fill:#212D33;}
	.st5{fill:#FFFFFF;stroke:#212D33;stroke-miterlimit:10;}
	.st6{fill:#212D33;stroke:#212D33;stroke-miterlimit:10;}
	.st7{fill:#03898F;}
	.st8{fill:#2A2A2A;}
</style>
<g>
	<path class="st0" d="M1353.4-2515.7c-10.7,0-19.4,8.7-19.4,19.4v151.7c0,10.7,8.7,19.4,19.4,19.4c10.7,0,19.4-8.7,19.4-19.4v-151.7
		C1372.9-2507,1364.2-2515.7,1353.4-2515.7z M1765.4-2629.1h-80.9c-10.7,0-19.4,8.7-19.4,19.4v17.6l-260.3,77.2
		c-8.3,2.4-13.9,10-13.9,18.6v151.7c0,1,0.1,2,0.2,2.9c0,0.2,0.1,0.4,0.1,0.5c0.1,0.8,0.3,1.6,0.6,2.4l55.1,176
		c2.6,8.3,10.3,13.6,18.5,13.6c1.9,0,3.9-0.3,5.8-0.9l80.3-25.1c4.9-1.5,9-5,11.4-9.5c2.4-4.6,2.9-9.9,1.3-14.8l-27.3-87.3l128.2,38
		v17.6c0,10.7,8.7,19.4,19.4,19.4h80.9c10.7,0,19.4-8.7,19.4-19.4v-378.5C1784.8-2620.4,1776.1-2629.1,1765.4-2629.1z
		 M1521.3-2206.3l-43.1,13.5l-38.4-122.6l52.2,15.5L1521.3-2206.3z M1513.1-2334.3c-0.1,0-0.1,0-0.2,0l-83.2-24.7v-122.7l235.4-69.8
		v262.3L1513.1-2334.3L1513.1-2334.3z M1745.9-2250.5h-42v-339.7h42V-2250.5z M1917.1-2311.5l-84.1-42.1c-9.6-4.8-21.3-0.9-26.1,8.7
		c-4.8,9.6-0.9,21.3,8.7,26.1l84.1,42.1c2.8,1.4,5.8,2.1,8.7,2.1c7.1,0,14-3.9,17.4-10.7C1930.6-2295,1926.7-2306.7,1917.1-2311.5
		L1917.1-2311.5z M1824.3-2485.1c2.9,0,5.9-0.7,8.7-2.1l84.1-42.1c9.6-4.8,13.5-16.5,8.7-26.1c-4.8-9.6-16.5-13.5-26.1-8.7
		l-84.1,42.1c-9.6,4.8-13.5,16.5-8.7,26.1C1810.3-2489,1817.2-2485.1,1824.3-2485.1L1824.3-2485.1z M1926.6-2439.8h-70.2
		c-10.7,0-19.4,8.7-19.4,19.4s8.7,19.4,19.4,19.4h70.2c10.7,0,19.4-8.7,19.4-19.4C1946-2431.1,1937.3-2439.8,1926.6-2439.8z"/>
</g>
<polygon class="st1" points="2725.1,-2135.8 2682.3,-2340.3 2639.5,-2544.8 2838,-2479.6 3036.4,-2414.5 2880.8,-2275.2 "/>
<path class="st2" d="M2297-2689.1c-157.6,0-285.4,127.8-285.4,285.4c0,24.4,9.7,189.3,0.3,314.8c108.9-24.7,258.1-29.4,285.1-29.4
	c157.6,0,285.4-127.8,285.4-285.4S2454.6-2689.1,2297-2689.1z M2278.3-2283.2l-4.7,5c-1.3,1.3-2.8,2-4.5,2.1
	c-1.8,0.1-3.5-0.1-5.2-0.4l-113.6-19.3l70.4,66.2c1,1,1.6,2.2,1.6,3.7c0,1.5-0.4,2.7-1.4,3.8l-5.5,5.9c-1,1.1-2.2,1.6-3.7,1.6
	c-1.5,0-2.7-0.4-3.8-1.4l-92.4-86.9c-1-1-1.6-2.2-1.6-3.7c0-1.5,0.4-2.7,1.4-3.8l4.7-5c1.3-1.3,2.8-2,4.5-2.1
	c1.8-0.1,3.5,0.1,5.2,0.4l113.6,19.3l-70.4-66.2c-1-1-1.6-2.2-1.6-3.7c0-1.5,0.4-2.7,1.4-3.8l5.5-5.9c1-1,2.2-1.6,3.7-1.6
	c1.5,0,2.7,0.4,3.8,1.4l92.4,86.9c1,1,1.6,2.2,1.6,3.7C2279.8-2285.5,2279.3-2284.2,2278.3-2283.2z M2363-2373.3l-54.3,57.8
	c-1,1.1-2.2,1.6-3.7,1.6c-1.5,0-2.7-0.4-3.8-1.4l-92.4-86.9c-1-1-1.6-2.2-1.6-3.7c0-1.5,0.4-2.7,1.4-3.8l53.3-56.6
	c1-1,2.2-1.6,3.7-1.6c1.5,0,2.7,0.4,3.8,1.4l5.1,4.8c1,1,1.6,2.2,1.6,3.7c0,1.5-0.4,2.7-1.4,3.8l-44.1,46.9l30.2,28.4l41.2-43.8
	c1-1,2.2-1.6,3.7-1.6c1.5,0,2.7,0.4,3.8,1.4l5.1,4.8c1,1,1.6,2.2,1.6,3.7c0,1.5-0.4,2.7-1.4,3.8l-41.2,43.8l31.3,29.5l45.2-48.1
	c1-1,2.2-1.6,3.7-1.6c1.5,0,2.7,0.4,3.8,1.4l5.1,4.8c1,1,1.6,2.2,1.6,3.7C2364.5-2375.6,2364-2374.3,2363-2373.3z M2451-2466.8
	l-5.4,5.7c-2.1,2.2-4.3,3.2-6.6,2.9c-2.4-0.2-4.9-1.1-7.6-2.6l-60.1-31.8l35.4,58.1c1.7,2.6,2.7,5.1,3.1,7.5
	c0.4,2.4-0.4,4.6-2.5,6.8l-5.4,5.7c-2.2,2.3-4.3,3.3-6.5,3c-2.2-0.3-4.7-1.3-7.5-3l-104.9-65.5c-0.6-0.4-1-0.7-1.3-0.9
	c-0.9-0.8-1.3-1.8-1.3-3c0-1.2,0.3-2.2,1.2-3.1l5.4-5.7c0.9-1,2-1.6,3.4-1.9c1.4-0.3,2.9,0,4.6,1.1l92.8,59.8l-41.8-69
	c-0.5-0.8-0.9-2.1-1.4-3.7c-0.4-1.7,0.2-3.3,1.8-5.1l4.6-4.9c1.6-1.7,3.3-2.4,4.9-2.1c1.7,0.3,2.9,0.7,3.8,1.1l71.4,37.5l-65.4-89
	c-1.2-1.6-1.6-3.1-1.4-4.5c0.2-1.4,0.8-2.6,1.7-3.5l5.4-5.7c0.8-0.9,1.8-1.3,3-1.3c1.2,0,2.2,0.3,3.1,1.2c0.3,0.3,0.6,0.7,1,1.2
	l71.8,100.7c1.9,2.7,3.1,5.2,3.5,7.3C2454-2471.3,2453.2-2469.1,2451-2466.8z"/>
<path class="st1" d="M3325-3086.2c0,129.7-105.2,234.9-234.9,234.9c-22.2,0-145.1,3.8-234.7,24.2c7.8-103.3-0.2-239-0.2-259.1
	c0-129.7,105.2-234.9,234.9-234.9S3325-3216,3325-3086.2z"/>
<text transform="matrix(0.6851 -0.7284 0.7284 0.6851 3010.394 -2918.6487)" style="font-family:'Rubik-Regular'; font-size:161.5992px;">NEW</text>
<g>
	<path class="st3" d="M2276.9-1434.4c-0.1-1.8-0.3-3.2-0.3-4.5c0-51.2,0.1-102.5,0.2-153.7c0-5.9,0.6-11.7,0.7-17.6
		c0.1-6,2.8-10.4,8-12.9c5.6-2.7,11.3-5.1,17.3-6.7c10.2-2.7,18.9-7.5,25.9-15.2c19.6-21.6,39.4-43,58.4-65
		c14-16.2,19.9-36,22.8-56.8c1.3-9,2.3-18.1,3.3-27.2c1-9.3,5.8-13.8,15.2-14.1c25.8-0.8,49.3,20.8,51.8,47.4
		c1.4,14.7-1.3,28.8-5.6,42.8c-4.9,16-9.6,32-14.4,48c-0.4,1.3-0.6,2.6-0.9,4.2c18.1-1,35.7-1.8,53.3-3.1c13.4-1,26.8-2.1,40.2,0.5
		c22.8,4.4,36.1,23.1,32.6,46.2c-2.3,15.3-4.6,30.7-6.9,46c-4.8,31.2-9.6,62.3-14.4,93.5c-7.3,47.9-43.2,67-77.7,70.1
		c-24.8,2.2-49.2-1.3-73.6-4.8c-36.5-5.2-72.9-11.2-109.4-16.5c-6.6-1-13.4-0.4-20.1-0.5C2281.2-1434.5,2279.2-1434.4,2276.9-1434.4
		z M2437.6-1781.2c-1.1,7.3-2,14-3,20.8c-3.8,24.6-11.6,47.7-28,66.8c-19,22.1-38.8,43.5-58.4,65.1c-10.7,11.8-23.7,20-39.4,23.3
		c-5.2,1.1-6.7,3.6-6.7,8.8c0.2,44,0,87.9,0,131.9c0,1.3,0.2,2.7,0.3,4.2c1.5,0.3,2.8,0.8,4.1,1c40.7,6.1,81.4,12.5,122.2,18.3
		c19.6,2.8,39.4,5,59.3,2.5c22.2-2.8,45.5-15.1,50.5-46.1c1.6-9.7,3-19.4,4.5-29.1c5.7-37.5,11.5-74.9,17.1-112.4
		c1.5-10-2.9-16.1-12.9-17.3c-7.6-0.9-15.5-1-23.2-0.7c-13.4,0.5-26.8,1.6-40.2,2.4c-5.7,0.4-11.6-0.1-17,1.3
		c-18.2,5-39.1-12.6-31.4-35.8c5.6-17,10.8-34.2,15.4-51.5c2.3-8.6,4.1-17.5,4.2-26.4C2455.3-1766.1,2449.5-1775.4,2437.6-1781.2z"
		/>
	<path class="st3" d="M2329.8-1821.3c0,40.4,0,80.8,0,121.1c0,1,0.3,2.1-0.1,2.9c-0.8,2.1-1.4,5.2-3,5.9c-1.5,0.7-4.7-0.6-6.2-2
		c-12.7-12.3-25.2-24.9-37.8-37.4c-5.2-5.2-10.2-10.7-15.8-15.5c-2.6-2.2-6.6-4.2-9.9-4.2c-39.7,0-79.4-0.2-119.1,0.7
		c-55.7,1.2-103.9-28.9-125.3-79.5c-6.3-14.7-7.7-30.6-8.3-46.3c-0.9-21.8-1.3-43.6-1.1-65.5c0.4-39,30.4-68.5,69.5-68.8
		c26.8-0.2,53.5,0.1,80.3,0.1c36.1-0.1,72.2-0.5,108.3-0.5c29.4,0,56.3,19.2,64.9,46.9c2.4,7.7,3.4,16.1,3.5,24.2
		C2330-1899.7,2329.8-1860.5,2329.8-1821.3z M2303.9-1745.9c0.1-2.7,0.3-4.3,0.3-5.9c0-62.7,0-125.4,0-188
		c0-26.4-19.3-45.1-45.7-44.6c-9,0.2-18,0.4-27.1,0.4c-52.7,0-105.3,0-158,0c-25.6,0-44.4,18.3-44.7,43.8c-0.2,21.2-0.2,42.3,1,63.5
		c0.7,12.2,2,24.9,6.1,36.2c14.6,39.6,55,65.8,97.1,65.3c40.7-0.6,81.4-0.4,122.1-0.9c12.8-0.2,23.3,4,32,13.4
		C2292.1-1757.2,2297.7-1752,2303.9-1745.9z"/>
	<path class="st3" d="M2248.4-1533.4c0,32.4,0,64.8,0,97.3c0,12.1-6,18.1-18.1,18.1c-20.9,0-41.7,0-62.6,0c-12.1,0-18.2-6-18.2-18.1
		c0-65,0-130,0-195.1c0-12.4,6.1-18.4,18.4-18.4c20.7,0,41.4,0,62.1,0c12.5,0,18.4,5.9,18.4,18.4
		C2248.4-1598.6,2248.4-1566,2248.4-1533.4z"/>
	<path class="st3" d="M2145.1-1856.1c0.9-3.6,1.5-7.6,2.9-11.4c1.6-4.2,0.4-6.9-3.1-9.3c-3-2.1-5.8-4.5-8.4-7.2
		c-1.1-1.1-2-3.5-1.6-4.7c0.4-1.3,2.6-2.5,4.2-2.7c3.6-0.6,7.3-0.7,11-0.7c4.2,0,6.9-1.3,8.1-5.7c1-3.5,2.5-6.9,4.2-10.2
		c0.8-1.4,2.7-3.4,3.8-3.2c1.6,0.2,3.5,1.9,4.2,3.5c1.9,3.8,2.9,8,4.9,11.7c1,1.8,3.5,3.5,5.6,3.9c4.1,0.9,8.5,0.6,12.6,1.3
		c1.5,0.2,3.6,1.7,4,2.9c0.4,1.3-0.6,3.9-1.8,4.6c-11.3,6.4-14.7,15.2-9.1,27.2c0.6,1.2-0.2,4-1.3,4.8c-1.1,0.8-4,0.8-4.9-0.1
		c-9.8-9.1-19.1-9.1-29.2-0.2C2148.1-1849,2144.7-1851.5,2145.1-1856.1z"/>
	<path class="st3" d="M2228.2-1856c1-3.8,1.9-8.3,3.3-12.7c0.9-3.1,0.3-5.2-2.3-7.1c-3.3-2.4-6.4-5-9.3-7.9
		c-1.1-1.1-2.4-3.6-1.9-4.6c0.7-1.4,3.1-3.2,4.5-3c13,1.7,20.4-3.7,23-16.4c0.3-1.4,2.7-3.1,4.3-3.3c1.1-0.1,3,1.8,3.7,3.3
		c1.8,3.6,3.3,7.4,4.6,11.3c1.1,3.3,2.9,4.7,6.4,4.7c4.2,0,8.5,0.4,12.7,1c4.3,0.7,5.3,4.1,2.2,7.2c-2.2,2.2-4.6,4.4-7.2,6
		c-5.1,3.2-6.9,7.1-4.3,12.9c1.2,2.7,1.8,5.7,2.1,8.6c0.2,1.6-0.3,4-1.4,4.8c-1.1,0.8-4,0.8-5-0.2c-9.8-9.2-19.2-8.9-29.3-0.1
		C2231.4-1849.1,2228.1-1851.4,2228.2-1856z"/>
	<path class="st3" d="M2061.8-1855.8c1.1-4.4,2.6-8.8,3.2-13.3c0.3-2.1-0.7-4.9-2.1-6.4c-2.8-3.1-6.5-5.4-9.5-8.4
		c-1.1-1.1-2.1-3.4-1.7-4.7c0.4-1.3,2.8-3,4.1-2.8c13.4,1.8,21-3.9,23.7-17c0.2-1.2,2.6-2.7,4.1-2.8c1.1-0.1,2.9,1.6,3.5,2.9
		c1.9,4,3,8.4,5.1,12.2c1,1.8,3.5,3.6,5.5,4c4.1,0.9,8.4,0.6,12.6,1.3c1.5,0.2,3.6,1.6,4,2.9c0.4,1.3-0.6,4-1.7,4.6
		c-11.4,6.4-14.5,15.2-9.1,27.2c0.6,1.2-0.2,4-1.3,4.7c-1.1,0.8-4,0.8-4.9-0.1c-9.8-9.1-19.1-9.1-29.2-0.2
		C2064.9-1849,2061.4-1851.6,2061.8-1855.8z"/>
</g>
<rect x="1450.8" y="-1896.6" class="st4" width="344" height="344"/>
<path class="st0" d="M1687.2-1765.6c9.2,0,16.6,7.4,16.6,16.6s-7.4,16.6-16.6,16.6h-114.2c-0.8,6.1-1.3,12.3-1.3,18.8
	c0,5.6,0.4,11.2,1,16.6h114.4c9.2,0,16.6,7.4,16.6,16.6s-7.4,16.6-16.6,16.6h-105.9c15.5,38.7,48.5,65.5,86.7,65.5
	c23.3,0,45.8-10.2,63.4-28.7c6.3-6.7,16.9-6.9,23.5-0.6s6.9,16.9,0.6,23.5c-23.9,25.1-55,39-87.5,39c-56.2,0-104-41.2-121.9-98.7
	h-43.9c-9.2,0-16.6-7.4-16.6-16.6s7.4-16.6,16.6-16.6h37.2c-0.6-5.5-0.8-11-0.8-16.6c0-6.3,0.4-12.6,1.1-18.8h-37.4
	c-9.2,0-16.6-7.4-16.6-16.6s7.4-16.6,16.6-16.6h44.6c18.4-56.4,65.9-96.7,121.3-96.7c32.5,0,63.6,13.9,87.5,39
	c6.3,6.7,6.1,17.2-0.6,23.5c-6.7,6.3-17.2,6.1-23.5-0.6c-17.6-18.5-40-28.7-63.4-28.7c-37.4,0-69.9,25.8-85.8,63.5L1687.2-1765.6
	L1687.2-1765.6z M1895.7-1675.1l33.1-24.6l-30.6-27.7l27.9-30.5l-35.3-21.4l21.5-35.1l-38.5-14.3l14.5-38.6l-40.8-6.7l6.9-40.6
	l-41.2,1.1l-1-41.2l-40.3,8.8l-8.7-40.4l-37.9,16.3l-16.1-38l-34.2,23.2l-23.1-34.2l-29.2,29.3l-29-29.4l-23.1,34.2l-34.2-23.2
	l-16.1,38l-37.9-16.3l-8.7,40.4l-40.3-8.8l-1,41.4l-41.2-1.1l6.9,40.6l-40.8,6.7l14.6,38.7l-38.7,14.3l21.5,35.1l-35.3,21.4
	l27.9,30.4l-30.6,27.7l33.1,24.6l-24.9,33l37.2,17.9l-18.2,37.1l39.9,10.6l-10.8,39.8l41.1,2.9l-3,41.2l41-5l4.8,41l39.3-12.7
	l12.4,39.3l36.2-19.8l19.7,36.3l31.8-26.4l26.2,31.9l26.2-31.9l31.8,26.4l19.7-36.3l36.2,19.8l12.4-39.3l39.3,12.7l4.8-41l41,5
	l-3-41.2l41.1-2.9l-10.8-39.8l39.9-10.6l-18.2-37.1l37.2-17.9L1895.7-1675.1z"/>
<g>
	<g>
		<path class="st0" d="M1195.8-1416.2c0,0.9-0.7,1.6-1.6,1.6H764c-0.9,0-1.6-0.7-1.6-1.6v-430.3c0-0.9,0.7-1.6,1.6-1.6h430.3
			c0.9,0,1.6,0.7,1.6,1.6V-1416.2z"/>
	</g>
	<g>
		<path class="st5" d="M1228-1726.2c0,0.4-0.8,0.6-1.8,0.6H732c-1,0-1.8-0.3-1.8-0.6V-1901c0-0.4,0.8-0.6,1.8-0.6h494.2
			c1,0,1.8,0.3,1.8,0.6V-1726.2z"/>
		<path class="st6" d="M1226.2-1723.2H732c-3.1,0-4.2-1.6-4.2-3V-1901c0-1.4,1.1-3,4.2-3h494.2c3.1,0,4.2,1.6,4.2,3v174.8
			C1230.4-1724.8,1229.3-1723.2,1226.2-1723.2z M732.6-1727.9h493.1v-171.4H732.6V-1727.9z"/>
	</g>
	<g>
		<rect x="932.8" y="-1728.7" class="st7" width="92.6" height="310.9"/>
		<path class="st7" d="M1027.8-1415.4h-97.3V-1731h97.3V-1415.4z M935.2-1420.1h87.9v-306.2h-87.9V-1420.1z"/>
	</g>
	<g>
		<rect x="926.8" y="-1901.6" class="st7" width="104.7" height="176.1"/>
		<path class="st4" d="M1033.8-1723.2H924.4V-1904h109.4V-1723.2z M929.1-1727.9h100v-171.4h-100V-1727.9z"/>
	</g>
	<g>
		<path class="st0" d="M1182.9-1901.6c8.9-28.3,6.1-57.1-10.3-79c-31.5-42.1-101.6-42.9-156.5-1.8c-11.1,8.3-20.7,17.8-28.8,27.8
			c-9.1-7.2-20.7-11.5-33.2-11.5c-12.1,0-23.3,4-32.3,10.8c-4.4-4.2-9.2-8.3-14.4-12c-44.2-31.4-100.2-28.4-125.1,6.7
			c-11.9,16.8-14.6,38-9.2,58.9H1182.9z"/>
	</g>
</g>
<g>
	<path class="st8" d="M985.8-1342c10.2,2.6,20.3,5.4,30.6,7.7c60.7,13.6,121.5,27,182.2,40.5c12.3,2.7,19.2,11.7,19.3,25.2
		c0,70,0,140,0,209.9c0,35.3,0.6,70.5-0.1,105.8c-1.1,52-25.4,90.3-72.4,112.3c-50.9,23.9-102.8,45.8-154.1,68.8
		c-8.2,3.7-15.9,3.8-24.2,0.1c-51.4-23-103.2-44.9-154.1-68.8c-47-22-72-60.2-72.4-112.2c-0.8-104.1,0-208.2-0.4-312.4
		c-0.1-17.3,7.8-26.4,24.2-29.9c68.8-14.9,137.5-30.4,206.3-45.7c1-0.2,2-0.8,3-1.2C977.6-1342,981.7-1342,985.8-1342z
		 M1170.3-1250.7c-1.8-0.6-3.1-1.1-4.6-1.5c-60.4-13.4-120.8-26.9-181.2-40.2c-3.5-0.8-7.5-0.8-11,0c-56,12.3-112.1,24.9-168.1,37.4
		c-5.6,1.3-13.4,0.9-16.2,4.5c-3,3.8-1.3,11.3-1.3,17.2c0,94.1-0.1,188.1,0,282.2c0,31.4,14.1,53.8,43,66.6
		c47.8,21.3,95.7,42.5,143.5,63.8c3.4,1.5,6.1,1.5,9.5,0c19.7-8.9,39.5-17.6,59.2-26.4c28.3-12.6,56.5-25.1,84.8-37.7
		c18.8-8.4,33-21.4,38.7-41.6c2.5-8.7,3.5-18,3.6-27c0.2-97,0.2-194.1,0.2-291.1C1170.3-1246.6,1170.3-1248.6,1170.3-1250.7z"/>
	<path class="st8" d="M1074.9-1160.7c11.8,11.7,22.8,22.7,33.5,33.3c-54.8,54.8-109.7,109.7-164.3,164.4
		c-30.4-30.4-61.2-61.3-91.6-91.7c10.6-10.6,21.6-21.7,32.6-32.8c19,19.2,38.6,38.9,58.1,58.6
		C987.7-1073.5,1031.5-1117.2,1074.9-1160.7z"/>
</g>
<g>
	<path class="st8" d="M1353.5-1055.9c0.2-157.4,129.2-286.3,286.4-286.1c158.3,0.2,287.6,129.8,286.7,287.2
		c-0.9,157.7-128.8,285.4-286.1,285.8C1482.6-768.6,1353.3-897.8,1353.5-1055.9z M1487.3-1256.4c110.5,126.7,220.6,253,330.7,379.2
		c82.1-76.7,106.8-222.7,22.4-332.1C1749.6-1327,1588.9-1335.8,1487.3-1256.4z M1792.8-855.1c-110.3-126.4-220.5-252.8-330.7-379.2
		c-92.7,89.6-104.5,247.3-6.3,351.7C1554.6-777.5,1706.2-784.3,1792.8-855.1z"/>
	<path class="st8" d="M1753.5-1136.3c26.4,5.8,52.3,11.4,78.2,17c0.7,0.1,1.4,0.3,2,0.6c24.8,9.6,19.1,4.2,25.2,29.8
		c1.1,4.8,0,8.3-4.8,9.8c-16.8,5.6-33.5,11.6-50.5,16.4c-11.2,3.1-23,4.4-33.7,6.3c2.4,17.5,4.9,34.8,7.4,53.1
		c26.4-0.7,54.4,4,81.7-9.7c-5.9,34.7-19,64.7-39,93.1c-88.8-101.8-177-202.9-266.5-305.6c8.8-4,16.3-8.8,24.4-11
		c39.7-10.9,80-11.7,119.7-1.1c35,9.3,52.2,32.9,54.6,70.5C1752.8-1156.6,1753.1-1146,1753.5-1136.3z"/>
	<path class="st8" d="M1753.1-858.4c-66.3,36.3-133.8,41.8-202.2,11.6c-71.7-31.7-113.9-88.2-130.5-166.7
		c28.8,13.7,57.7,9.9,85.2,10.2c2.5-18.2,4.9-35.4,7.4-52.9c-12.7-2.4-26.5-4.2-39.7-7.8c-15.2-4.2-30.1-10-45-15.4
		c-6.2-2.3-7.3-6.6-6.6-13.7c1.3-13.1,8.1-20,20-22.8c22.1-5.4,44.4-10.4,66.5-15.8c4.8-1.2,7.6,0.9,10.6,4.3
		c41.8,48.1,83.7,96.1,125.6,144.1c32.6,37.4,65.3,74.8,97.9,112.2C1745.5-867.3,1748.8-863.4,1753.1-858.4z"/>
</g>
<g>
	<path class="st8" d="M2251.1-1118.4c-41.8,0-83.5,0-125.3,0c-19.1,0-31.7-11.7-31.8-30.8c-0.3-41.7-0.3-83.5,0-125.2
		c0.1-19.7,12.3-31.3,31.9-31.3c84.1,0,168.3,0,252.4,0c17.9,0,30.6,12.8,30.6,30.8c0.1,42,0.1,83.9,0,125.9
		c0,18-12.6,30.6-30.7,30.7C2335.9-1118.3,2293.5-1118.4,2251.1-1118.4z"/>
	<path class="st8" d="M2288.7-1045.5c16.7-6.9,28.5-18.9,40.1-32.5c1.5,2.1,2.8,3.7,3.9,5.5c42.5,67.2,85.1,134.3,127.6,201.5
		c11,17.3,4.8,37.1-13.1,41.9c-10.8,2.9-22.3-1.6-29.2-12.3c-10.6-16.2-20.8-32.6-31.1-48.9c-31.8-50.1-63.6-100.3-95.4-150.4
		C2290.6-1041.9,2289.9-1043.4,2288.7-1045.5z"/>
	<path class="st8" d="M2177.2-1074.6c11.1,14.5,24.5,24.7,41,31.3c-0.7,1.6-1.2,2.9-2,4.1c-40,65.6-80.1,131.2-120.1,196.8
		c-6.9,11.3-17.7,17-28.1,14.9c-18.5-3.8-26.8-23.3-16.9-40.5c6.9-11.9,14.2-23.6,21.4-35.3c33.9-55.6,67.9-111.2,101.9-166.8
		C2175.1-1071.4,2175.9-1072.6,2177.2-1074.6z"/>
	<path class="st8" d="M2229.4-1039.8c17,3.6,33.6,3.4,50.6-1.7c0.2,2.2,0.5,3.9,0.5,5.7c0,74.2,0.1,148.4,0,222.7
		c0,14.4-11.2,25.6-25.3,25.7c-15,0.1-26.2-10.3-26.2-25.1c-0.1-74.2-0.1-148.4-0.1-222.6
		C2228.9-1036.7,2229.2-1038.1,2229.4-1039.8z"/>
	<path class="st8" d="M2529-1303.1c7.1-6.8,14.2-13.6,21.3-20.3c59.4,55.3,54.9,167.4,1,222.4c-6.9-7.1-13.8-14.3-20.8-21.4
		C2574.7-1170.5,2578.3-1250.8,2529-1303.1z"/>
	<path class="st8" d="M2000.7-1157.9c0-36,0-71.3,0-107.4c4.6,1.1,8.5,1.9,12.4,2.9c17.9,4.4,35.8,9,53.8,13.1
		c4.2,1,5.1,2.7,5.1,6.6c-0.2,20.6-0.1,41.1-0.1,61.7c0,3.2-0.3,5.1-4.2,6.1C2045.6-1169.5,2023.6-1163.8,2000.7-1157.9z"/>
	<path class="st8" d="M2496.7-1136.6c-6.9-7.4-13.4-14.4-20.2-21.7c27.3-35.4,28.5-71.5-1-108c7.1-6.8,14.4-13.7,21.6-20.7
		C2539.2-1245.1,2530.3-1169.5,2496.7-1136.6z"/>
	<path class="st8" d="M2183.4-1095.7c44.7,0,87.9,0,131.2,0c-4.3,10.7-28.1,30.8-58.1,32.3
		C2227.4-1061.9,2203.6-1073.2,2183.4-1095.7z"/>
	<path class="st8" d="M2449.7-1176.7c-6.2-8-12.2-15.7-18.2-23.3c8.1-11.8,8.1-11.8-1.3-24.1c6.7-7.1,13.5-14.4,20.2-21.6
		C2470.5-1229.7,2470.3-1193.8,2449.7-1176.7z"/>
</g>
<g>
	<path class="st8" d="M468.4-775.7c-17.5,0-33.8,0-50,0c-118.7,0-237.4,0-356,0c-19.1,0-33-9.9-37.2-26.8c-1-3.8-1.1-7.9-1.1-11.9
		c-0.1-160.2,0-320.4,0-480.5c0-21.3,9.3-35.2,26.9-39.6c4.4-1.1,9.1-1.2,13.7-1.2c160.2-0.1,320.4,0,480.5,0
		c24.3,0,38.9,14.5,38.9,38.9c0,61.7,0,123.5,0,185.2c0,1.7-0.2,3.4-0.4,5.8c-5.6-5.1-10.9-9.6-15.7-14.6c-1.2-1.3-1.4-4-1.4-6.1
		c-0.1-23.9,0-47.7-0.1-71.6c0-12,1.7-10.7-10.4-10.7c-83.8-0.1-167.6,0-251.4,0c-84.8,0-169.6,0-254.4,0c-8.9,0-8.9,0-8.9,8.6
		c0,127.7,0,255.4,0,383.1c0,3.8,0.1,7.7,1.1,11.3c2.2,8.2,9.5,12.6,20.3,12.6c43.3,0,86.6,0,129.9,0c85,0,170,0,255-0.1
		c3.8,0,6.2,1.2,8.5,4.2C459.6-784.6,463.6-780.8,468.4-775.7z M258.5-1284c1.2,2.2,2.2,3.9,3.1,5.6c7.2,13.8,14.5,27.6,21.6,41.6
		c1.7,3.3,3.6,4.8,7.4,4.6c5.4-0.3,10.8-0.4,16.2,0c5.4,0.4,7.3-1.2,7.2-6.9c-0.4-19-0.2-38.1-0.2-57.1c0-13.8,0-13.6-14.1-13.7
		c-4.5,0-6,1.3-5.8,5.8c0.4,13.8,0.5,27.7,0.7,41.5c0,1.4-0.2,2.7-0.4,5.7c-8.8-17-16.9-32.4-24.8-47.9c-1.9-3.7-4.1-5.3-8.4-5
		c-5.6,0.3-11.2,0.3-16.8,0c-4.6-0.3-5.8,1.5-5.8,5.9c0.2,19.4,0.1,38.9,0.1,58.3c0,13.5,0,13.2,13.6,13.5c5.3,0.1,6.3-1.9,6.2-6.6
		C258.3-1253.6,258.5-1268.4,258.5-1284z M161.5-1272.3c3-4.3,6.8-7.9,8.3-12.3c4.3-12.8-3.8-22.9-19.4-24.3
		c-11.1-0.9-22.4-0.8-33.6-0.7c-1.5,0-4.2,2.5-4.2,3.9c-0.3,23.2-0.2,46.4,0,69.6c0,1.3,2.1,3.7,3.2,3.7c12.4-0.1,24.9,0.3,37.1-1.1
		c9.7-1.1,17-6.9,19.1-17.3C173.8-1260.3,170.5-1266.6,161.5-1272.3z M422.5-1271.3c0.2,0,0.4,0.1,0.6,0.1c0.2,3,0.2,6,0.6,9
		c1.7,15.4,10.4,26.8,24.8,29.5c8.4,1.6,17.5,1.1,26-0.3c10.6-1.7,17.7-9.1,21.2-19.2c4.3-12.7,4.3-25.6-0.2-38.3
		c-3.4-9.4-10.3-15.7-19.9-18.5c-9.2-2.7-18.5-2.8-27.8-0.3c-11.1,3-18.7,9.9-21.9,20.9C424.1-1282.8,423.6-1277,422.5-1271.3z
		 M400.8-1305.8c-9.5-4.2-18.9-5.3-28.6-4.8c-22.2,1-35.3,13.3-37.1,35.3c-0.5,5.9,0.1,12.1,1.5,17.8c3.4,15.1,13.3,24.7,28.7,25.6
		c11.2,0.7,22.6-1.5,33.8-2.8c1.5-0.2,3.6-3.1,3.7-4.8c0.3-11.2,0.1-22.4,0.2-33.6c0-3.1-1.2-4.3-4.3-4.2
		c-8.6,0.1-17.2-0.1-25.8,0.1c-1.4,0-3.8,1.5-3.9,2.4c-0.3,4.1-0.7,8.6,0.6,12.4c0.5,1.3,5.8,1,8.8,1.4c0.9,0.1,1.9,0.3,3.1,0.5
		c0.2,1.8,0.2,3.4,0.4,4.9c0.8,5.1-1,7.1-6.5,7.1c-10.4-0.1-16.3-4.4-17.8-14.7c-0.7-4.9-0.7-10,0.1-14.9c1.5-9.7,8.1-15.3,18-14.9
		c6.2,0.2,12.4,1.8,19,2.8C396.6-1295.2,398.7-1300.3,400.8-1305.8z M215.2-1271.2c0-10.2,0-20.4,0-30.6c0-8,0-8-8.3-8
		c-2.2,0-4.4,0.2-6.6-0.1c-5.6-0.8-7.6,1.2-7.5,7.2c0.4,20.8,0.1,41.7,0.1,62.5c0,8,0,8,8.3,8c2,0,4,0,6,0c8,0,8,0,8-7.7
		C215.2-1250.4,215.2-1260.8,215.2-1271.2z"/>
	<path class="st8" d="M132.2-1055.4c0-13.2-0.1-26.5,0.1-39.7c0.1-4.2-1.4-5.5-5.5-5.5c-17.8,0.2-35.7,0.1-53.5,0.1
		c-1.6,0-3.2,0.1-4.8,0c-5.4-0.4-9-3.8-9.1-8.5c-0.1-5,3.6-8.7,9.3-8.8c14.8-0.2,29.7,0,44.5-0.2c6.1-0.1,14.2,1.6,17.8-1.6
		c3.1-2.7,1.2-11.3,1.2-17.2c0.1-15,0-30.1,0.2-45.1c0.1-5.4,3.8-8.9,8.5-8.9c4.8,0,8.3,3.5,8.7,8.8c0.1,1.6,0.1,3.2,0.1,4.8
		c0,17.6,0.2,35.3-0.1,52.9c-0.1,5,1.5,6.4,6.5,6.4c26.1-0.2,52.1-0.2,78.2,0c5.1,0,6.4-1.6,6.3-6.5c-0.2-18.8-0.2-37.7,0-56.5
		c0.1-7.9,6.9-12.6,12.7-8.6c2.3,1.5,4.4,5.1,4.4,7.8c0.4,18.4,0.3,36.9,0.1,55.3c0,1.8-1.5,3.9-2.9,5.3c-4.9,5.2-10.6,9.8-15,15.5
		c-3.1,4-6.1,5.3-11,5.2c-24.3-0.2-48.5,0-72.8-0.2c-4.9,0-6.6,1.3-6.5,6.4c0.2,26.1,0.2,52.1,0,78.2c0,4.9,1.4,6.5,6.4,6.5
		c25.7-0.2,51.3,0,77-0.2c3.7,0,6.2,1,8.7,4c3.5,4.3,7.6,8.3,11.9,11.8c3.2,2.5,4.4,5.1,4.4,9c-0.2,25.5,0.1,50.9-0.2,76.4
		c-0.1,5.9,1.9,7.3,7.5,7.3c25.5-0.3,50.9-0.3,76.4,0c5.4,0.1,7.2-1.3,7.2-7c-0.3-24.7,0-49.3-0.2-74c0-5,1-8.5,5.4-11.6
		c4.7-3.3,8.2-8.2,12.6-12c2.2-1.8,5.3-3.7,8-3.7c24.5-0.3,48.9-0.3,73.4,0c2.7,0,5.7,2,7.9,3.9c5.1,4.5,9.5,9.7,14.7,14.1
		c2.7,2.3,4,4.4,4,8c-0.1,24.3,0,48.5-0.2,72.8c0,2.3-1.7,5.1-3.4,6.9c-5.2,5.6-10.5,11-16.2,16c-2.1,1.9-5.2,3.7-7.9,3.7
		c-24.7,0.3-49.3,0.3-74,0.1c-5.3-0.1-6.9,1.4-6.8,6.8c0.3,17.6,0.1,35.3,0.1,52.9c0,1.6,0.1,3.2-0.1,4.8c-0.4,5.2-3.4,8.1-8.4,8.5
		c-4.7,0.4-8.7-3.4-8.8-8.6c-0.3-10.8-0.1-21.7-0.2-32.5c0-8.6-0.2-17.2,0.1-25.9c0.1-4.3-1-6-5.7-6c-26.5,0.2-52.9,0.2-79.4,0
		c-4.4,0-5.9,1.3-5.9,5.8c0.2,18.2,0.1,36.5,0,54.7c0,2.2,0.1,4.5-0.6,6.5c-1.5,4.2-4.9,6.5-9.4,5.7c-4.7-0.8-7.3-3.9-7.4-8.8
		c0-15-0.1-30.1-0.1-45.1c0-4.8-0.1-9.6,0-14.4c0.1-3-1.1-4.3-4.2-4.3c-27.5,0-54.9,0.1-82.4-0.1c-4.3,0-4.3,2.5-4.3,5.5
		c0,18,0,36.1,0,54.1c0,2,0.1,4-0.2,6c-0.8,4.6-3.8,7.2-8.3,7.2c-4.7,0.1-8-2.5-8.7-7.4c-0.3-2.2-0.3-4.4-0.3-6.6
		c0-17.2-0.2-34.5,0.1-51.7c0.1-5.4-1.2-7.3-6.9-7.2c-17.4,0.4-34.9,0.1-52.3,0.1c-1.2,0-2.4,0.1-3.6,0c-6.2-0.2-10.1-3.6-10.1-8.7
		c0-5.2,3.8-8.7,10-8.7c15-0.1,30.1-0.1,45.1-0.1c4,0,8-0.2,12,0.1c4.5,0.4,5.9-1.4,5.8-5.8c-0.2-23.5-0.1-46.9-0.1-70.4
		c0-14.7,0-14.7-14.9-14.7c-15.4,0-30.9,0-46.3,0c-2.4,0-5.7,0.2-6.8-1.2c-2.2-2.6-4.5-6.3-4.3-9.5c0.3-4.7,4.3-6.8,9.2-6.7
		c18.8,0,37.7-0.2,56.5,0.1c5.3,0.1,6.9-1.3,6.8-6.7C131.9-1029.4,132.2-1042.4,132.2-1055.4
		C132.2-1055.4,132.2-1055.4,132.2-1055.4z M149.7-946.8C149.7-946.8,149.7-946.8,149.7-946.8c0,13.4,0.1,26.8-0.1,40.3
		c-0.1,3.9,1.3,5.2,5.2,5.2c26.8-0.1,53.7-0.1,80.5,0c3.9,0,5.2-1.2,5.2-5.2c-0.1-26.8-0.1-53.7,0-80.5c0-3.9-1.2-5.3-5.2-5.2
		c-26.8,0.1-53.7,0.2-80.5,0c-3.9,0-5.3,1.3-5.2,5.2C149.8-973.7,149.7-960.3,149.7-946.8z M366.3-946.8
		C366.3-946.8,366.2-946.8,366.3-946.8c0,13.4,0.1,26.8-0.1,40.3c-0.1,3.9,1.3,5.2,5.2,5.2c26.8-0.1,53.7-0.1,80.5,0
		c3.9,0,5.2-1.2,5.2-5.2c-0.1-26.8-0.1-53.7,0-80.5c0-3.9-1.2-5.3-5.2-5.2c-26.8,0.1-53.7,0.2-80.5,0c-3.9,0-5.3,1.3-5.2,5.2
		C366.4-973.7,366.3-960.3,366.3-946.8z"/>
	<path class="st8" d="M241.7-1057.1c0.3-35.1,28-62.4,63-62c34.3,0.3,61.8,28.2,61.4,62.4c-0.3,35.2-27.8,62.2-63,62
		C269.1-994.9,241.5-1022.9,241.7-1057.1z"/>
	<path class="st8" d="M457.1-1056.1c0.4-35.1,28.2-62.3,63.2-61.8c34.3,0.5,61.6,28.4,61.2,62.6c-0.5,35.2-28,62.1-63.2,61.8
		C484.2-993.8,456.7-1021.9,457.1-1056.1z"/>
	<path class="st8" d="M519.8-901.4c34.3,0.1,61.9,27.9,61.8,62.1c-0.2,35.2-27.5,62.4-62.7,62.4c-34.1,0-61.8-27.8-61.8-62.1
		C457.1-874.2,484.7-901.5,519.8-901.4z"/>
	<path class="st8" d="M411.8-1118c12.8,0,25.7-0.3,38.5,0.1c5.8,0.2,7-1.9,6.9-7.2c-0.3-17.2-0.1-34.5-0.1-51.7c0-2,0-4,0.2-6
		c0.5-5.2,3.7-8.1,8.8-8c4.8,0.1,8.2,2.9,8.3,7.8c0.3,19.2,0.2,38.5,0.1,57.7c0,1.6-1.8,3.3-3.1,4.7c-5.6,5.7-11.1,11.5-17,16.9
		c-1.7,1.6-4.3,3.1-6.5,3.1c-23.8,0.2-47.7,0.2-71.5,0c-2.3,0-5-1.8-6.8-3.5c-5.9-5.6-11.7-11.4-17.2-17.5c-1.7-1.8-3.3-4.6-3.4-6.9
		c-0.3-17.2-0.2-34.5-0.1-51.7c0-6.7,3.4-10.7,8.8-10.6c5.3,0.1,8.6,4.1,8.6,10.8c0.1,17.6,0,35.3,0,52.9c0,9.2,0,9.2,8.9,9.2
		C387.3-1118,399.6-1118,411.8-1118z"/>
	<path class="st8" d="M583.4-889.5c-5.3-4.9-10.3-9.2-14.9-13.9c-1.2-1.2-1.8-3.5-1.9-5.3c-0.1-25.8-0.1-51.7,0-77.5
		c0-1.9,0.9-4.3,2.2-5.7c4.5-4.6,9.3-8.8,14.5-13.6C583.4-966.8,583.4-928.4,583.4-889.5z"/>
	<path class="st8" d="M132.4-1248c1.2-6.7,2.1-11.7,3-16.6c4.3,0.9,9.1,0.9,12.8,2.9c1.6,0.9,2.3,6.5,1.1,9
		C146.1-1246.1,139.6-1249.4,132.4-1248z"/>
	<path class="st8" d="M133.7-1279.9c0-4.8,0-8.7,0-13.1c5-0.8,10.2-2.1,13.8,2.3c1.2,1.5,1.3,5.3,0.3,7.1
		C144.7-1278.2,139.2-1280.2,133.7-1279.9z"/>
	<path class="st8" d="M476.8-1270.8c-0.7,4.2-1.1,8.2-2.2,12c-1.9,6.7-6.4,9.8-13.2,10c-7,0.2-11.5-2.6-13.9-9.1
		c-3.1-8.7-3.1-17.7,0.1-26.4c2.3-6.5,6.9-9.1,14-8.9c6.5,0.2,10.9,3.2,12.8,9.7C475.7-1279.4,476.1-1275,476.8-1270.8z"/>
</g>
<g>
	<path class="st8" d="M3270.5-914c-3.3,3.3-6.1,7.1-9.8,9.8c-22.2,16.3-47.7,25.9-73.9,33.5c-40.3,11.8-81.5,18.2-123.2,22
		c-41.2,3.8-82.4,4.9-123.7,3.2c-59.4-2.6-118.1-9.3-174.9-28.1c-23.1-7.6-45.2-17.3-64.4-32.6c-2.7-2.2-4.7-5.2-7.1-7.8
		c0-19.9,0-39.8,0-59.7c1.8-5.2,5.1-5.1,9.1-2.4c1.1,0.7,2.3,1.3,3.4,2c20.8,14.3,43.8,23.7,67.8,31c49.1,15,99.6,21.7,150.7,24.5
		c70.5,3.9,140.7,0.8,210.3-12.2c44.4-8.3,87.8-19.8,126.2-45.2c5.8-3.9,6.7-3.3,9.6,3.4C3270.5-953,3270.5-933.5,3270.5-914z"/>
	<path class="st8" d="M2693.5-1033.4c8.4-25.6,30.1-36.7,52.2-46.8c28.5-13,58.7-20.4,89.4-26.1c35.8-6.6,72-10.4,108.4-11.6
		c3.6-0.1,7.3,0.3,10.9,0.5c0.1,0.7,0.3,1.5,0.4,2.2c-2.7,0.9-5.4,2.3-8.2,2.7c-18.2,2.4-36.5,4.3-54.7,6.9
		c-31,4.4-62,9.5-90.2,24.3c-13.2,6.9-24.6,15.9-30.1,30.5c-5.9,15.7-3.5,29.9,8.6,41.9c11.9,11.8,26.6,18.6,42,24.3
		c25.5,9.4,52,14.3,78.8,17.7c33,4.3,66.2,5.6,99.4,4.6c45.7-1.4,90.9-5.9,134.7-20.1c14.5-4.7,28.3-10.8,40.8-19.8
		c29.4-21.1,21.8-52.2,1.9-68.9c-15.4-12.8-33.5-20.2-52.7-24.2c-26.9-5.6-54.2-9.4-81.4-13.8c-9.4-1.5-19-2.3-28.5-3.6
		c-2.2-0.3-4.3-1.5-6.5-2.3c0-0.7,0.1-1.4,0.1-2.2c2.7-0.3,5.4-0.9,8.1-0.8c18.7,1.1,37.5,1.9,56.2,3.7c33.6,3.3,66.9,8.8,99.5,17.9
		c23,6.4,45.5,14.2,66,26.6c10,6.1,19.4,13.1,25.7,23.2c2.5,4,4.1,8.7,6.1,13.1c0,3,0,6,0,9c-5.5,22.2-22,34.3-41,43.3
		c-13.5,6.4-27.6,11.8-41.9,16.1c-48.8,14.5-99,20.2-149.7,22.8c-71.6,3.8-142.9,1.2-213.6-11.4c-29.2-5.2-58-12.2-84.9-24.9
		c-20.7-9.8-39.8-21.4-46-45.9C2693.5-1027.4,2693.5-1030.4,2693.5-1033.4z"/>
	<path class="st8" d="M2981.8-1266.3c2.3,3.4,3.8,5.2,4.9,7.3c6.9,13.3,13.8,26.7,20.4,40.1c2.4,4.9,5.2,6.1,10.3,3.9
		c16.7-7.1,33.6-14,50.4-20.8c2.3-0.9,6.6-1.6,7.5-0.5c2.2,2.8,3.4,6.7,3.8,10.2c0.1,1.2-3.3,3.2-5.4,4.1
		c-17.1,7.2-34.3,14.1-51.4,21.4c-2.8,1.2-5.8,3.2-7.4,5.6c-10.2,15.6-19,31.9-21.3,50.9c-1.8,15.1,0.5,29.9,3.5,44.7
		c5.2,25.7,10.3,51.4,15.5,77.1c1.3,6.5-1.2,11.3-6.1,15.3c-12.6,10.3-36.1,10.7-49.2,1c-6.3-4.6-7.8-10.8-6.4-17.9
		c3.8-19.5,7.8-38.9,11.5-58.5c2.8-14.5,5.7-29.1,7.6-43.7c2.1-15.2-1.7-29.8-7.4-43.9c-2-4.8-5.2-4.5-9.1-2.8
		c-19.1,7.8-38.2,15.6-57.3,23.4c-6.4,2.6-12.7-2.2-11.5-9.2c0.3-1.7,3.1-3.5,5.1-4.4c18.1-7.6,36.3-15.3,54.7-22.3
		c6.5-2.5,9.8-6.3,11.9-12.6c6.8-19.9,14.1-39.5,21.3-59.3C2978.6-1259.6,2979.9-1262.1,2981.8-1266.3z"/>
	<path class="st8" d="M2832.7-1043.5c30.9-23.2,67.4-31,104.3-37.8c0.3,0.6,0.7,1.2,1,1.7c-1.8,1.4-3.4,3-5.3,4.1
		c-19.9,11.8-38.9,24.8-55.9,40.7c-1.2,1.1-3.3,2-4.8,1.7c-11.9-2.4-23.8-5.1-35.6-7.7c-1.1-0.2-2.1-0.7-3.2-1
		C2833-1042.4,2832.8-1042.9,2832.7-1043.5z"/>
	<path class="st8" d="M2861.2-1010.6c0,12.4-8.5,20.9-20.8,20.9c-11.8,0-20.4-8.8-20.4-20.8c0-12.3,8.5-20.8,20.9-20.7
		C2852.9-1031.1,2861.3-1022.7,2861.2-1010.6z"/>
	<path class="st8" d="M3052.8-1089.8c7.7,0.1,12.5,4.9,12.5,12.6c0,7.9-5.3,13.2-12.9,13c-7.2-0.2-12.5-5.8-12.5-13.2
		C3040-1084.7,3045.3-1089.9,3052.8-1089.8z"/>
	<path class="st8" d="M3107.4-1067.3c-0.1,7-4.7,11.6-11.7,11.6c-7.1,0-12.1-5.1-11.9-12.1c0.2-7,5.4-11.9,12.4-11.6
		C3103.1-1079.2,3107.5-1074.4,3107.4-1067.3z"/>
	<path class="st8" d="M3133-1044.8c-7,0.1-11.3-4.1-11.3-11c0-7,4.2-11.3,11.1-11.3c6.6,0,11.4,4.8,11.3,11.3
		C3143.9-1049.3,3139.4-1044.9,3133-1044.8z"/>
	<path class="st8" d="M3170.4-1048c5.4,0,9.3,3.7,9.5,8.9c0.2,5.4-4,9.8-9.3,9.9c-5.4,0.1-9.3-4.1-9.3-9.7
		C3161.4-1044.5,3164.9-1048,3170.4-1048z"/>
	<path class="st8" d="M3151.9-1020c5.2,0,8.3,3,8.4,8.3c0.1,5.2-3,8.5-8.1,8.6c-5.3,0.1-8.9-3.4-8.8-8.6
		C3143.5-1016.6,3146.9-1019.9,3151.9-1020z"/>
</g>
<g id="KENO_1_">
	<g id="XMLID_293_">
		<rect id="XMLID_294_" x="3122.7" y="-1965.7" class="st4" width="144.8" height="144.8"/>
		<rect id="XMLID_297_" x="2911.1" y="-1965.7" class="st4" width="144.8" height="144.8"/>
		<rect id="XMLID_298_" x="2696.5" y="-1782.5" class="st4" width="144.8" height="144.8"/>
		<rect id="XMLID_299_" x="2696.5" y="-1605.4" class="st4" width="144.8" height="144.8"/>
		<rect id="XMLID_300_" x="2911.1" y="-1607.4" class="st4" width="144.8" height="144.8"/>
		<rect id="XMLID_301_" x="3122.7" y="-1782.5" class="st4" width="144.8" height="144.8"/>
		<path id="XMLID_304_" class="st4" d="M2769.4-1970.8c-41.5,0-75.9,34.4-75.9,75.9c0,41.5,34.4,75.9,75.9,75.9
			c41.5,0,75.9-34.4,75.9-75.9C2845.3-1936.4,2810.9-1970.8,2769.4-1970.8z M2769.4-1839.2c-30.4,0-55.7-25.3-55.7-55.7
			c0-30.4,24.3-55.7,55.7-55.7c31.4,0,55.7,25.3,55.7,55.7C2825.1-1864.5,2799.8-1839.2,2769.4-1839.2z"/>
		<path id="XMLID_307_" class="st4" d="M2769.4-1944.5c-28.3,0-50.6,22.3-50.6,49.6c0,27.3,23.3,49.6,50.6,49.6
			c28.3,0,50.6-22.3,50.6-49.6C2820-1922.2,2796.8-1944.5,2769.4-1944.5z M2769.4-1855.4c-22.3,0-40.5-17.2-40.5-39.5
			c0-21.3,18.2-39.5,40.5-39.5c22.3,0,40.5,17.2,40.5,39.5C2809.9-1872.6,2791.7-1855.4,2769.4-1855.4z"/>
		<polygon id="XMLID_308_" class="st4" points="2759.3,-1908 2777.5,-1908 2777.5,-1908 2760.3,-1874.6 2768.4,-1874.6 
			2785.6,-1910.1 2785.6,-1915.1 2759.3,-1915.1 		"/>
		<path id="XMLID_311_" class="st4" d="M2983-1796.7c-41.5,0-75.9,34.4-75.9,75.9c0,41.5,34.4,75.9,75.9,75.9
			c41.5,0,75.9-34.4,75.9-75.9C3058.9-1762.3,3025.5-1796.7,2983-1796.7z M2983-1665.1c-30.4,0-55.7-25.3-55.7-55.7
			s25.3-55.7,55.7-55.7s55.7,25.3,55.7,55.7S3014.4-1665.1,2983-1665.1z"/>
		<path id="XMLID_314_" class="st4" d="M2983-1770.4c-28.3,0-50.6,22.3-50.6,49.6s23.3,49.6,50.6,49.6c28.3,0,50.6-22.3,50.6-49.6
			S3011.4-1770.4,2983-1770.4z M2983-1681.3c-22.3,0-40.5-17.2-40.5-39.5c0-21.3,18.2-39.5,40.5-39.5c22.3,0,40.5,17.2,40.5,39.5
			C3023.5-1698.5,3005.3-1681.3,2983-1681.3z"/>
		<polygon id="XMLID_315_" class="st4" points="2953.7,-1732.9 2972.9,-1732.9 2972.9,-1732.9 2955.7,-1698.5 2963.8,-1698.5 
			2981,-1733.9 2981,-1739 2953.7,-1739 		"/>
		<path id="XMLID_316_" class="st4" d="M3012.4-1732.9v-6.1h-21.3l-3,20.2c2,0,3,0,5.1,0c8.1,0,11.1,3,11.1,8.1s-4,7.1-9.1,7.1
			c-4,0-7.1-1-9.1-2l-2,6.1c2,1,6.1,2,11.1,2c10.1,0,16.2-6.1,16.2-14.2c0-5.1-2-8.1-5.1-10.1c-3-2-6.1-3-10.1-3c-1,0-2,0-3,0l1-8.1
			H3012.4z"/>
		<path id="XMLID_319_" class="st4" d="M3194.6-1608.4c-41.5,0-75.9,34.4-75.9,75.9c0,41.5,34.4,75.9,75.9,75.9
			c41.5,0,75.9-34.4,75.9-75.9C3270.5-1574,3237.1-1608.4,3194.6-1608.4z M3194.6-1476.8c-30.4,0-55.7-25.3-55.7-55.7
			c0-30.4,25.3-55.7,55.7-55.7s55.7,25.3,55.7,55.7C3250.3-1502.1,3226-1476.8,3194.6-1476.8z"/>
		<path id="XMLID_322_" class="st4" d="M3194.6-1582.1c-28.3,0-50.6,22.3-50.6,49.6c0,27.3,23.3,49.6,50.6,49.6
			c27.3,0,50.6-22.3,50.6-49.6C3245.2-1559.8,3222.9-1582.1,3194.6-1582.1z M3194.6-1493c-22.3,0-40.5-17.2-40.5-39.5
			c0-21.3,18.2-39.5,40.5-39.5c22.3,0,40.5,17.2,40.5,39.5C3236.1-1511.2,3217.9-1493,3194.6-1493z"/>
		<polygon id="XMLID_323_" class="st4" points="3164.2,-1549.7 3166.2,-1543.6 3173.3,-1547.7 3173.3,-1547.7 3173.3,-1514.3 
			3180.4,-1514.3 3180.4,-1554.7 3174.3,-1554.7 		"/>
		<path id="XMLID_326_" class="st4" d="M3210.8-1540.6c-4,0-7.1,2-9.1,4l0,0c1-6.1,5.1-11.1,13.2-12.1c2,0,3,0,4,0v-6.1
			c-1,0-2,0-4,0c-6.1,0-11.1,2-14.2,6.1c-4,4-7.1,10.1-7.1,18.2c0,10.1,5.1,17.2,15.2,17.2c8.1,0,14.2-7.1,14.2-14.2
			C3223.9-1535.5,3217.9-1540.6,3210.8-1540.6z M3209.8-1519.3L3209.8-1519.3c-5.1,0-7.1-4-8.1-10.1c0-1,0-2,0-2c1-2,4-4,7.1-4
			c4,0,7.1,3,7.1,8.1S3212.8-1519.3,3209.8-1519.3z"/>
	</g>
</g>
<g>
	<path class="st4" d="M305.4-216.5c-80.9,0-161.8,0-242.7,0c-34.5,0-48.1-13.8-48.1-48.5c0-75.1,0-150.2,0-225.4
		c0-30.3,14.7-45.1,45-45.1c164.7,0,329.4,0,494.1,0c28.6,0,43.8,15.4,43.8,44.1c0,76.9,0,153.9,0,230.8c0,28.5-15.4,44-43.9,44
		C470.8-216.5,388.1-216.5,305.4-216.5z M472.7-330.2c5.8,1.1,11.4,2.7,16.9,2.9c8,0.3,16-0.6,24.1-0.6c17.1-0.2,31-16.1,23.6-30
		c-6.7-12.6-18-22.8-27.4-34c-6.4-7.6-15.5-13.9-19.4-22.6c-9.2-20.5-17-25.5-38.3-19.2c-9.2-11.9-20.5-15.7-34.9-8.6
		c-1.9,0.9-5.7-1-8.1-2.5c-12.3-7.7-22.5-6.6-33,3.6c-3.5,3.4-7.6,6-10.1,8.1c-6.8-5.2-11.8-11.1-18.1-13.5
		c-12.7-4.7-26-8-39.2-10.8c-10.9-2.3-21.4,0-30.4,7.4c-1.8,1.4-5.2,3.4-6.4,2.6c-14.1-9.3-26.5-5.4-39.7,6.8
		c-0.1-17.5-5.1-29.8-22.9-31.3c-16.7-1.4-23.7,12.9-35.9,24.3c4.5-16.2,4.9-28.6-8.5-36.4c-13.4-7.8-24.7-2.9-34.2,7.9
		c-8.5-12.7-17.9-16.9-30.4-13.7c-10.9,2.7-16,10.7-17.7,25.3c-1.2,10.3-2.5,20.8-5.3,30.7c-5,17.5-12.2,34.4-16.8,52
		c-4.4,17.2-7.6,34.9-9.7,52.6c-1.5,12.7,5.3,23.5,16.8,25.5c12.3,2.2,23.6,6.1,35.3,9.8c12.4,4,26.9,1,40.5,1.2
		c4,0.1,8.4-0.1,11.9,1.4c13.5,5.9,23.3,3.3,31.3-9.4c3.7-5.9,7.1-12.1,9.4-16.1c9.6,1.8,17.7,2.7,25.3,5c8.6,2.6,20,3.9,24.8,10.1
		c12.2,15.8,27.6,16.1,43.6,12.6c16-3.5,31.4-9.5,47.2-14.5c15.1,15.9,29.8,15.3,45.2-2c19.5,13.3,23.9,11.8,50.7-17.4
		C451.8-314.8,457.8-315.9,472.7-330.2z"/>
	<path class="st4" d="M136.4-369.6c0-15.3,0-29.4,0-44.4c17.1,0,33.4,0,50.7,0c0.5,5,1,10.1,1.6,16.4c-8.8,0-16.6-0.6-24.3,0.3
		c-3.7,0.4-7.1,3.6-10.6,5.5c3.2,2.3,6.3,6.2,9.8,6.5c16.4,1.7,26.2,11.1,26.3,26.7c0.2,13.4-10,24.9-23.4,26.4
		c-14.8,1.7-27.3-7.6-30.4-22.8c-0.2-1,0.2-2,0.4-3.6c7.7-0.4,15.3-3.1,20.9,5.8c1.3,2.1,7.8,2.9,10.3,1.5c2.4-1.4,4.7-7.2,3.7-9.6
		c-1.5-3.6-5.7-7.8-9.3-8.3C154.3-370.4,145.9-369.6,136.4-369.6z"/>
	<path class="st4" d="M353-359.9c8.8,3,15.3,5.3,21.8,7.3c2.2,0.7,5.5,1.5,6.8,0.5c1.8-1.5,3.5-5,3-7c-0.5-2-3.8-4.3-6.1-4.5
		c-10.8-1.3-18.9-5.5-22.9-16.4c-4.3-11.8-2.1-20.3,7.5-28.7c3.7-3.3,6.7-7.5,11-12.5c2.8,0,7.4,0,12.6,0
		c0,12.9,20.3,14.6,15.5,30.8c-6.8,0.9-13.9,3.9-20.1-3.6c-0.9-1-5.8,1.3-8.8,2c1.3,2.9,2.1,6.3,4.2,8.4c1.4,1.4,4.8,0.7,7.2,1.4
		c9.1,2.7,16.3,7.9,18.3,17.7c2.1,10,0.7,19.2-7.7,26.4c-3.5,3-6.5,6.7-10.8,11.3C370.8-325.3,357.6-336.9,353-359.9z"/>
	<path class="st4" d="M208.4-373.7c0-5.7-0.5-11.5,0.1-17.2c1.2-12,10-21,22-23.2c10.9-2,23.9,3.2,27.8,13.8
		c6.5,17.8,7.3,36.5-0.1,54.3c-4.7,11.3-16.5,15.7-28.8,13.4c-11.7-2.2-20.2-11.5-21.2-23.8c-0.5-5.7-0.1-11.5-0.1-17.2
		C208.3-373.7,208.3-373.7,208.4-373.7z M225.1-375.8c-0.2,0-0.5,0-0.7,0.1c0.4,6-0.4,12.5,1.5,18c1.3,3.7,6.3,7.7,10,8.2
		c2.4,0.3,7.6-5.3,8.1-8.8c1.3-9.8,1.7-20,0.6-29.8c-0.4-3.4-6.5-8.4-9.9-8.4c-3.2,0-7.4,5.3-9.2,9.1
		C223.9-384.3,225.1-379.7,225.1-375.8z"/>
	<path class="st4" d="M280.5-374.1c0-5-0.2-10,0-15c0.8-14.3,11.5-24.8,25.6-25.3c13.9-0.5,27,10.5,27.8,24.5
		c0.7,11.4,0.6,22.9-0.1,34.4c-0.7,12.8-13.3,23.4-26.5,23.5c-13.9,0.2-25.2-9.2-26.7-22.8c-0.7-6.4-0.1-12.9-0.1-19.3
		C280.5-374.1,280.5-374.1,280.5-374.1z M297-373.7c0,0,0.1,0,0.1,0c0,5.4-1.2,11.1,0.4,16c1.1,3.4,5.8,7.2,9.4,7.7
		c2.9,0.4,9-3.6,9.2-6c0.9-11.3,1-22.9-0.3-34.1c-0.3-2.7-7.1-6.7-10.5-6.3c-3.1,0.3-6.8,5.3-8.1,9C296-383.4,297-378.4,297-373.7z"
		/>
</g>
<g>
	<path class="st4" d="M978-666c0.8,0,1.5,0,2.3,0c1.3,1.5,2.4,3.2,3.9,4.6c67.2,63.1,134.5,126.2,201.8,189.2
		c25.9,24.2,46.1,52.4,60.2,84.9c10.8,24.8,18.7,50.7,17,77.9c-2.7,43.7-22.3,79.6-59.1,103.3c-50.4,32.4-103.9,31.3-157.1,6.4
		c-12.8-6-24.1-15.3-36.7-23.4c9.1,23.1,17.8,46.4,27.4,69.2c9.7,23,20.5,45.6,30.7,68.1c-59.2,0-119,0-179.2,0
		c24-44.3,41.4-90.8,59.1-137.9c-1.4,0.4-1.9,0.5-2.1,0.7c-1,0.8-2,1.7-3,2.5c-32.7,28-70.9,39.8-113.6,38.1
		c-35.6-1.4-67.7-12.4-93.1-38.1c-38.8-39.2-49.9-85.6-34.1-138.6c13.8-46.3,39.6-84.7,74.8-117.4c66-61.3,131.6-123.2,197.3-184.8
		C975.5-662.8,976.7-664.5,978-666z"/>
</g>
<g>
	<path class="st4" d="M1435-78c-2.5-18-5-36.1-7.5-54.1c-5.1-36.3-10.3-72.5-15.6-108.8c-0.8-5.2,0.6-7.8,5.2-10.4
		c41.6-23.4,84-45.1,126.4-66.9c0.7-0.3,1.4-0.6,2.8-1.1c1.8,9.8,3.5,19.4,5.5,30c6-5.7,11.6-10.4,19.4-11.2
		c1.5-0.2,2.9-0.6,4.5,0.1c8.3,3.3,16.6,6.6,24.8,9.9c1.2,0.5,2.9,1,2.6,2.7c-0.8,5.2,3,7.7,6,10.6c2.8,2.6,2.6,4.7-0.1,7.2
		c-3,2.9-6.8,5.4-5.7,10.6c0.3,1.7-1.8,2.2-3.3,2.8c-7.7,3.1-15.5,6.1-23.2,9.2c-4.4,1.8-8.4,0.1-12.4-1.2c-2.9-1-3.9-0.8-3.1,2.6
		c1.3,5.3,0.7,11.5,3.4,15.8c6.5,10.4,8.8,22.3,13.3,33.4c12.1,29.6,26,58,46.2,83c3.8,4.7,8.1,8.9,11.8,13.6
		c2.7,3.4,4.6,3.5,7.7,0.1c13.5-14.4,24.9-30.2,34.7-47.3c13.6-23.8,23.3-49.3,32.9-75c3.2-8.7,6.4-17.2,7.6-26.3
		c-0.4-0.3-0.8-0.7-1-0.6c-8,3.7-15.6,2.4-23.2-1.5c-4.1-2.1-8.6-3.6-12.9-5.2c-3.2-1.1-5.4-2.3-5.1-6.5c0.2-3.3-3.1-5.3-5.3-7.3
		c-3.2-2.9-3.3-5.2-0.1-8.1c3-2.6,6.3-5.2,5.4-10.2c-0.4-1.8,1.8-2.3,3.2-2.8c7.7-3.1,15.4-6.5,23.2-9.1c7.4-2.5,13.5,1,19.3,5.3
		c1.7,1.3,3.2,2.8,5.3,4.7c3.4-9.8,3.4-19.7,6.1-29.6c4.2,2.1,8.3,4.2,12.4,6.3c39.5,20.3,78.9,40.7,117.6,62.5
		c3.9,2.2,4.9,4.3,4.3,8.6c-5.8,39.3-11.3,78.6-16.9,118c-2.2,15.3-4.2,30.7-6.3,46.1C1708.3-78,1571.6-78,1435-78z"/>
	<path class="st4" d="M1511.7-511.2c-1.6-10.5-2.2-19.4-1.8-28.5c1.2-25.8,3.1-51.5,12.8-75.8c3.5-8.7,7.8-17.4,17.2-21
		c4.7-1.7,7.5-3.6,9.4-8.4c2.2-5.8,7.8-9,13.1-11.9c14.4-8.1,30.2-12,46.3-14.4c30.4-4.6,60.7-3.4,90.5,4.6
		c40.5,10.9,62,38.5,68.7,79.1c3.6,22.2,1.3,44.5,2,66.9c-4.5-19.6-15.1-35-30.9-47.1c-1.2-0.9-2.5-1.8-3.7-2.8
		c-11.1-8.1-21.9-12.2-36.4-6.4c-16.6,6.6-34.5,10.7-52.3,13.4c-14.8,2.3-29.8,0.6-44.8,0.8c-11.4,0.2-22.9,0.2-34.4,0
		c-19.5-0.5-33.7,8.4-44.1,24.3C1518.2-530.5,1515.4-521.5,1511.7-511.2z"/>
	<path class="st4" d="M1661.9-301.6c6.4,1.7,11.8,4.7,14.2,11.4c2.1,5.1,0.9,9.3-3.7,12.5c-3.3,2.4-4.2,4.8-0.3,7.7
		c4.3,3.2,5.8,7.5,5.1,12.7c-4.1,6.4-9.6,10.8-17.4,11.8c-1.6,0-3.2,0-4.7,0c-6.2,0-12.4,0-18.6,0c-1.6,0-3.2,0-4.7,0
		c-5.2-0.2-10.5-0.3-15.7-0.5c-1.7-0.7-3.4-1.5-5.1-2.2c-3-2.5-5.8-5.1-7.2-8.9c-2.1-5.1-0.9-9.3,3.6-12.5c3.3-2.4,4.2-4.8,0.4-7.7
		c-4.3-3.2-5.8-7.5-5.1-12.7c4-5.7,8.8-10.3,15.9-11.7c0.5,0,1,0.1,1.5,0.1c1.6,0,3.1,0,4.7-0.1c6.2,0,12.4,0,18.6,0
		c1.6,0,3.1,0,4.7,0C1652.8-301.7,1657.4-301.7,1661.9-301.6z"/>
</g>
<g>
	<path class="st4" d="M2278.3-423.4c7.5,0.7,11.5,2.2,14,8.3c20.3,51,41,102,61.5,152.9c0.5,1.3,1.1,2.6,1.5,4
		c4.2,12.6,3.6,14.8-7.6,21.7c-46.3,28.5-92.7,56.9-139,85.4c-6.2,3.8-12.2,8-18.5,11.6c-8.6,4.9-12.6,3.6-17-5.1
		c-1.8-3.4-3.3-7-4.5-10.6c-17.2-49.2-34.3-98.4-51.3-147.6c-2-5.9-3.5-12-5.1-18.1c-1.3-4.8-0.1-9,3.9-11.9c4.9-3.5,9.9-7,15.2-9.9
		c40.5-22.3,81.2-44.5,121.7-66.8c4.9-2.7,9.4-6.3,14.4-9.1C2271.3-420.9,2275.7-422.3,2278.3-423.4z M2180.8-194.9
		c-0.1,13.9,9.1,24.1,21.8,24.1c12.6,0.1,22-10.5,22-24.7c0-13.2-8.8-22.7-21-22.6C2190.2-218,2180.9-208.5,2180.8-194.9z
		 M2258.7-284.2c0-13-7.4-22-18.2-22c-14.6-0.1-24.1,9.1-24.2,23.5c-0.1,13.7,9.3,24.6,21.3,24.6
		C2249.7-258.1,2258.7-269.3,2258.7-284.2z M2181.2-308c0.2-17.1-9.2-26.5-22.3-23.9c-10.7,2.1-18.9,12.2-19.3,24.1
		c-0.5,12.7,7,22,19.2,23.9c9.7,1.5,18-5.2,21.2-17.3C2180.7-304,2181-306.8,2181.2-308z M2290.6-368.4c0.4-13.3-7.6-22.9-19.2-23.5
		c-12.9-0.6-21.7,7.2-22.8,19.9c-1.2,14.7,6.6,25.8,19.1,27C2280.4-343.9,2290.2-353.9,2290.6-368.4z M2312.7-278
		c-13-0.4-22,8.5-22.3,21.8c-0.3,12.7,8,22,19.6,22.3c11.4,0.3,20.5-10,20.9-23.6C2331.3-269.3,2323.8-277.7,2312.7-278z"/>
	<path class="st4" d="M2318-603.1c5.3,1.8,9.2,2.6,12.5,4.4c16.3,8.4,32.5,17.1,48.7,25.7c23.5,12.6,47.1,25,70.4,38
		c15.8,8.8,16.1,9.3,10.6,26.5c-18.1,56.3-36.8,112.4-55.1,168.7c-1.5,4.5-4,5.9-8.2,4.1c-5.6-2.3-11.5-4-16.6-7.1
		c-15.4-9.3-30.5-19.1-45.5-29c-2.3-1.5-4.2-4.3-5.3-6.9c-9.8-23-19.4-46.1-29-69.3c-1.6-3.9-4.1-5.9-8.1-7.2
		c-5.7-1.8-11.2-4.5-16.8-6.8c-4.6-1.9-5.5-5-3.9-9.7c9-27.2,17.6-54.6,26.5-81.8c4.6-14,9.3-28,14.4-41.8
		C2313.6-598.3,2316.2-600.6,2318-603.1z M2360.7-445.3c5.3,1.3,9.8-1.5,12.8-6.6c6-10.1,6.7-20.8,1.4-31.3
		c-5.7-11.3-19.8-12.6-27.6-2.8c-6.7,8.3-8,18-4.9,28.1C2345.2-448.8,2350.3-445.3,2360.7-445.3z M2385.3-367c7.9,0,10.2-0.8,13.5-6
		c6.6-10.4,7.3-21.4,1.7-32.2c-5.7-11-20.2-12-27.7-2.1c-6,7.9-7.6,16.8-5,26.4C2370.3-371.2,2375.7-367,2385.3-367z M2351.5-551.4
		c-0.3-0.2-0.7-0.4-1-0.6c-0.7-3.3-1.2-6.8-2.3-9.9c-2.8-7.8-8.2-11.8-15.7-12c-6.9-0.2-12.5,3.7-15.6,11.1
		c-3.3,7.8-3.6,15.7,0.1,23.4c5.3,11.3,20.9,14,27.8,4.3C2348.2-539.8,2349.4-546,2351.5-551.4z"/>
	<path class="st4" d="M2514.1-521.7c22.1,2.1,44.3,4,66.4,6.2c6.8,0.7,9,3.6,6.7,10.3c-5.6,16-11.6,31.9-17.7,47.7
		c-14.4,37.5-28.9,75-43.2,112.6c-1.5,3.9-3.6,5.4-7.8,5.9c-29.5,3.4-59,7.2-88.5,10.7c-7.6,0.9-10.3-1.9-8.3-9.4
		c3.9-14.6,8-29.2,12.8-43.6c12.8-39,25.9-77.8,38.9-116.7c0.3-0.8,0.5-1.5,0.8-2.3c7-18,10.3-20.3,29.5-20.5c3.4,0,6.9,0,10.3,0
		C2514-521,2514-521.4,2514.1-521.7z M2505.2-484.3c-0.1-2,0.2-3.4-0.3-4.3c-1.9-3.8-3.4-9.5-6.4-10.5c-3.1-1-8.6,1.7-11.5,4.4
		c-7.7,7.2-10.9,16.8-10.2,27.4c0.3,4.6,1.9,8.7,6.9,10.4c5,1.7,8.8-0.6,11.9-3.9C2501.9-467.7,2504.7-475.9,2505.2-484.3z
		 M2466.4-373.4c0-1.2,0.4-2.6-0.1-3.6c-1.7-3.8-2.8-9.2-5.8-10.9c-4.9-2.7-9.7,0.7-12.9,5c-6.3,8.5-9.4,18-7.2,28.4
		c0.7,3.2,3.7,7.6,6.4,8.3c3.1,0.7,8-1.2,10.6-3.6C2464-356,2466.1-364.5,2466.4-373.4z M2568.1-489c-0.6-1.1-1.5-5.2-3.5-5.9
		c-3.1-1-7.7-0.7-10.5,1c-8.7,5.3-13.3,21.5-9.5,30.8c2.3,5.6,4.3,6.4,9.6,3.7C2565.5-465.1,2567.3-475.7,2568.1-489z M2503.3-368.9
		c1.9,4.1,2.8,10.5,5.9,11.9c5.6,2.5,10.7-1.9,14.2-6.8c4.8-6.9,6.9-14.5,5.2-23c-1.8-8.4-5.4-10.1-12.8-5.7
		C2507-387.2,2505-378.7,2503.3-368.9z"/>
	<path class="st4" d="M2176.7-480.8c2.7,0.8,5.1,1.3,7.3,2.1c21.1,7.5,42.3,14.8,63.3,22.6c5.8,2.2,11.2,5.5,16.6,8.6
		c4,2.3,4,5.6,0.3,8.2c-7.3,5.1-14.4,10.4-22.2,14.8c-46,25.7-92.2,51.2-138.5,76.5c-2.7,1.5-7.3,1.8-10,0.5
		c-23.8-11.6-47.4-23.6-70.8-35.8c-3.6-1.9-6.3-5.3-9.5-8c3.4-3,6.4-6.8,10.3-8.8c34.1-18.1,68.4-35.8,102.5-53.8
		c15-7.9,29.8-16.2,44.8-24.3C2172.8-479.3,2174.8-480,2176.7-480.8z M2183.3-462.2c-17-6.8-38.1,2.6-39.4,17.2
		C2159.5-441,2179.2-449.5,2183.3-462.2z M2241.6-439.8c-15.9-5.5-35.1,2.4-39.5,16C2215.2-416.5,2236.6-425,2241.6-439.8z
		 M2094.5-419.1c16.1,5.6,36-3.2,39.3-17.2C2119.1-441.8,2096.6-432.2,2094.5-419.1z M2187.8-410.7c-13.8-7.2-38.5,3.8-41.5,15.1
		C2159.5-388,2180.8-395.6,2187.8-410.7z M2082.3-410.8c-21-2.6-37.5,5.2-39.3,18.3C2063.2-388.4,2082.4-398.2,2082.3-410.8z
		 M2134-382.8c-15.3-6.7-39.3,4.1-39.1,17.3C2113.6-362.4,2129.8-369.4,2134-382.8z"/>
	<path class="st4" d="M2008.1-369.1c6.6,2.9,13.3,5.4,19.8,8.6c20.6,10.2,41.2,20.6,61.7,31.1c1.8,0.9,3.5,2.9,4.1,4.8
		c20.4,58.5,40.6,117.1,60.8,175.7c0.7,2.1,0.4,4.5,0.5,6.8c-2.2-0.6-4.8-0.7-6.5-2c-25.1-17-50-34.3-75.1-51.2
		c-6.1-4.1-10-9.1-12.5-16.1c-16-44.7-32.5-89.2-48.7-133.8c-2.6-7.3-4.2-14.9-6.3-22.4C2006.6-368.2,2007.4-368.6,2008.1-369.1z
		 M2067.1-280.1c-1.3,17.7,8.4,34.1,21.1,36.3C2090.2-256.8,2079.2-277.4,2067.1-280.1z"/>
	<path class="st4" d="M2336.9-615.1c5.8,0.3,11.5,0.6,17.3,1c24.4,1.6,48.8,3,73.1,5c12.4,1,23.8,5.1,35,10.8
		c35.4,18,71.2,35.4,106.7,53.2c5,2.5,9.6,5.9,14.4,8.9c-0.3,0.8-0.6,1.6-0.8,2.4c-2,0-4.1,0.1-6.1,0c-21-0.9-42-1.9-63-2.7
		c-8.7-0.3-17.4,0.8-26,0c-7.3-0.7-15.1-1.7-21.4-5c-30.5-16.1-60.6-33.1-90.9-49.6c-9.7-5.3-19.8-10.1-29.6-15.3
		c-3.4-1.9-6.4-4.5-9.6-6.8C2336.3-613.8,2336.6-614.4,2336.9-615.1z M2454.8-563.8c9.1,9.7,20.9,12.6,34.9,14.5
		C2479.7-561.2,2467.6-563.4,2454.8-563.8z M2463.4-584.8c-5.9-9.6-20.5-15.5-33.2-13.7C2439.3-589.2,2450.6-586.4,2463.4-584.8z"/>
</g>
<g>
	<path class="st8" d="M3043.8-266.6c-42.5,0-85,0-127.6,0c-10.4,0-12.4-1.9-13.1-12c-1.2-19.5-17-35.1-36.7-36.2
		c-8.7-0.5-11.5-3.3-11.5-11.9c0-33.1,0-66.2,0-99.4c0-8.2,3.4-11.6,11.7-12.1c19.9-1.2,35.3-16.5,36.5-36.2c0.6-9.3,3.4-12,12.8-12
		c85.2,0,170.5,0,255.7,0c9.3,0,11.9,2.3,12.6,11.4c1.7,20.9,16.4,35.4,37.3,36.9c7.7,0.5,10.9,3.9,10.9,11.5c0,33.5,0,67,0,100.5
		c0,7.8-2.9,10.8-10.3,11.3c-21.3,1.2-36.5,16.2-38,37.5c-0.6,8.7-2.8,10.8-11.7,10.8C3129.7-266.6,3086.7-266.6,3043.8-266.6z
		 M2975.5-376.2c-0.1,37.9,30.1,68.3,68,68.5c37.1,0.2,68.6-30.7,68.7-67.5c0.1-37.7-30.5-68.9-67.8-69.1
		C3006.2-444.5,2975.7-414.4,2975.5-376.2z"/>
	<path class="st8" d="M3043.5-527.5c66,0,132.1,0,198.1,0c15.6,0,27.4,8.7,31,22.8c0.8,3.2,1,6.6,1,9.9c0,79-0.3,157.9,0.3,236.9
		c0.2,20.9-15.6,33.7-33.8,33.6c-131.5-0.3-263-0.2-394.5-0.2c-19.7,0-32.5-12.6-32.6-32.2c-0.1-15.3,0-30.6,0-45.9
		c0-4.6,1.2-8.6,6.3-10c6.8-1.9,11.9,2.1,12,9.5c0.1,15.1,0,30.2,0,45.3c0,10.8,4.1,14.9,14.9,14.9c131.5,0,263,0,394.5,0
		c10.7,0,14.9-4.2,14.9-15c0-78.4,0-156.8,0-235.2c0-12.1-3.8-16-15.7-16c-131.1,0-262.2,0-393.3,0c-11.3,0-15.3,4-15.3,15.1
		c0,17,0,34.1,0,51.1c0,6.5-3.2,10.1-8.8,10.3c-5.4,0.2-9.3-3.1-9.4-9c-0.2-19.4-0.6-38.8,0.2-58.2c0.7-16.3,14.2-27.7,31.4-27.8
		c45.7-0.1,91.3,0,137,0C3002.4-527.5,3023-527.5,3043.5-527.5z"/>
	<path class="st8" d="M2744.3-406.2c-14.7,0-29.4,0.1-44.1,0c-7.1-0.1-10.3-3.1-10.2-9.2c0.1-5.8,3.4-8.8,10.1-8.8
		c20.4-0.1,40.7,0,61.1,0c9.4,0,18.8-0.1,28.2,0c6.4,0.1,10,3.4,10,8.9c0,5.5-3.5,9-9.9,9.1C2774.5-406.1,2759.4-406.2,2744.3-406.2
		z"/>
	<path class="st8" d="M2744.9-327.7c-14.7,0-29.4,0-44.1,0c-7.3,0-10.6-2.7-10.8-8.7c-0.2-6.3,3.1-9.4,10.6-9.4
		c29.4-0.1,58.7,0,88.1,0c7,0,10.6,3.2,10.6,8.9c0,5.9-3.8,9.1-11.1,9.1C2773.9-327.7,2759.4-327.7,2744.9-327.7z"/>
	<path class="st8" d="M2794.6-366.8c-10.8,0-21.5,0-32.3,0c-7.6,0-11.1-2.9-11.2-9c-0.1-6.4,3.4-9.4,11.3-9.4
		c21.7-0.1,43.4-0.1,65.1,0c7.4,0,10.9,3.1,10.9,9.3c0,6.1-3.6,9.1-11,9.1C2816.5-366.7,2805.6-366.8,2794.6-366.8z"/>
	<path class="st8" d="M2962.9-615.9c11.3,0,22.7-0.1,34,0c6.8,0,10.6,3.4,10.6,9.1c0,5.4-4.1,9.1-10.7,9.1c-22.7,0.1-45.4,0.1-68,0
		c-7.4,0-10.8-3.2-10.6-9.5c0.2-5.8,3.6-8.7,10.7-8.7C2940.2-615.9,2951.5-615.9,2962.9-615.9z"/>
	<path class="st8" d="M2905.2-136.1c-11.3,0-22.7,0-34,0c-6.9,0-10.4-3.1-10.5-9c-0.1-6.1,3.2-9.1,10.3-9.1
		c22.9-0.1,45.8-0.1,68.7,0c6.8,0,10.5,3.6,10.3,9.3c-0.2,5.7-3.9,8.8-10.8,8.9C2927.9-136,2916.5-136.1,2905.2-136.1z"/>
	<path class="st8" d="M3102.4-578.4c11.2,0,22.3,0,33.5,0c7.6,0,11.1,3,11,9.1c-0.1,5.7-3.8,8.9-10.7,8.9c-22.7,0.1-45.5,0.1-68.2,0
		c-6.9,0-10.5-3.3-10.4-9.2c0.1-5.8,3.7-8.8,10.7-8.8C3079.6-578.4,3091-578.4,3102.4-578.4z"/>
	<path class="st8" d="M3040.1-173.6c-11.4,0-22.7,0.1-34.1,0c-7,0-10.4-3.1-10.3-9.1c0.1-5.9,3.2-8.8,10-8.9
		c23.1-0.1,46.3-0.1,69.4,0c6.4,0,10.1,3.5,10,9c-0.1,5.4-4,8.9-10.2,9C3063.2-173.5,3051.6-173.6,3040.1-173.6z"/>
	<path class="st8" d="M2962.7-191.5c5.1,0,8.9,3.7,9,8.8c0.1,5.4-3.7,9.2-9.1,9.2c-5.5,0-9.1-3.7-8.9-9.3
		C2953.8-187.7,2957.7-191.5,2962.7-191.5z"/>
	<path class="st8" d="M2886.2-597.1c-5.1,0-9-3.6-9.1-8.6c-0.1-5.4,3.7-9.1,9.2-9c5.2,0.1,8.8,3.7,8.8,8.8
		C2895-600.8,2891.2-597.1,2886.2-597.1z"/>
	<path class="st8" d="M3033.7-569.2c-0.1,4.9-4.1,8.8-9.1,8.8c-4.9,0-8.9-4-8.9-8.9c0-5.2,4.2-9.2,9.3-9.1
		C3030-578.2,3033.8-574.1,3033.7-569.2z"/>
	<path class="st8" d="M2828.8-154c5.2,0.1,8.9,3.9,8.7,9c-0.2,5-4.7,9.1-9.7,8.9c-5-0.2-8.5-4.2-8.3-9.4
		C2819.8-150.5,2823.8-154.2,2828.8-154z"/>
	<path class="st8" d="M3094-376.1c0.1,27.4-22.7,50.3-50,50.4c-27.2,0.1-50.2-22.8-50.3-50.1c-0.1-27.1,23-50.4,50.1-50.4
		C3071.1-426.3,3093.9-403.5,3094-376.1z"/>
</g>
<g>
	<path class="st8" d="M5.9,411.5c7.5-2.1,14.9-4.2,22.8-6.4c1.5,5.5,2.7,10.4,4.2,15.2c1.8,5.7,5.2,7.6,10,6.2
		c4.9-1.4,7.1-5,5.7-10.5c-6.8-26.2-13.8-52.4-20.8-78.5c-1.8-6.7-3.6-13.5-5.6-20.7c7.6-2,14.9-4,22.7-6.1
		c3.6,13.5,7.2,26.6,10.7,39.7c5.5,20.7,11.3,41.4,16.1,62.2c3.2,13.9-2.3,23.8-15.5,29c-6.6,2.6-13.8,4.6-20.8,4.9
		c-10.5,0.5-18.9-4.4-22.9-14.8c-2.3-5.9-4.4-11.9-6.6-17.9C5.9,413,5.9,412.2,5.9,411.5z"/>
	<path class="st8" d="M446.2,478.8c0-11.7-0.3-22.5,0.1-33.2c0.3-9.5,4-12.7,13.5-13.1c14.2-0.6,28.5-1.2,42.7-1.9
		c1.5-0.1,3-0.3,5.4-0.6c-4.2-8.1-8.1-15.6-12-23.1c-5.7-11-3.2-17,8.9-20.4c19.9-5.6,39.9-11.1,59.8-16.6c1.7-0.5,3.4-0.9,5.1-1.1
		c6.2-0.8,11.6,2.4,12.8,7.6c1.4,5.8-1.6,11-8.1,13c-10.8,3.3-21.7,6.3-32.6,9.4c-7.1,2-14.2,4.1-21.9,6.3c5.1,9.7,9.9,19,14.7,28.4
		c5.5,10.6,1.6,17.8-10.1,18.4c-15.8,0.8-31.6,1.3-47.4,2c-2.9,0.1-5.8,0.3-9.2,0.5c-0.5,12-1,23.7-1.3,35.3
		c-0.4,11.6-5.2,15.3-16.6,12.7c-15-3.5-30.1-6.8-45-10.5c-3.7-0.9-5.6-0.1-7.3,3.3c-5.8,11.7-11.9,23.3-18,34.8
		c-4.6,8.8-10.2,10.3-18.6,5c-12.1-7.6-24-15.3-36.1-23c-0.3-0.2-0.7-0.3-1.5-0.6c-12,11.2-24.1,22.5-36.2,33.9
		c-9.8,9.2-15.4,8.4-22.7-3.2c-5.9-9.4-11.7-18.9-17.8-28.7c-15.5,8.1-31,15.4-45.7,24.2c-14,8.4-23.8,4.2-23-13.7
		c0.4-8.7,0.1-17.5,0.1-27.3c-13.6,3.3-25.4,6.3-37.2,9.2c-6.2,1.5-12.5,3.2-18.7,4.7c-7,1.7-12.8-1.4-14.3-7.4
		c-1.6-6.1,1.9-11.4,9-13.3c22.1-5.8,44.2-11.5,66.3-17.2c9.2-2.3,15.2,2.2,15.7,11.9c0.4,6.8,0.4,13.7,0.7,20.5
		c0.1,2.3,0.4,4.6,0.7,7.7c4.9-2.5,9.2-4.7,13.5-7c10.2-5.3,20.4-10.8,30.6-16c7.1-3.6,12.3-2.1,16.5,4.5
		c5.8,9.2,11.5,18.5,17.6,28.4c1.6-1.3,3-2.3,4.2-3.4c10.1-9.5,20.2-19,30.4-28.4c6.1-5.6,10.3-6,17.3-1.6
		c9.6,6,19.1,12.2,28.6,18.3c1.6,1,3.3,1.9,5.5,3.2c5-9.5,9.8-18.6,14.5-27.7c1.5-2.9,3-5.9,4.6-8.8c3.4-6.1,7.2-7.9,14-6.5
		c7.8,1.7,15.6,3.5,23.4,5.3C429,474.7,436.6,476.5,446.2,478.8z"/>
	<path class="st8" d="M338.3,86.8c-11.3,10.6-22.1,20.7-33,30.8c-7.9,7.4-11.1,7.7-20.1,2.1c-10.7-6.8-21.4-13.6-32.7-20.9
		c-2.5,4.8-4.9,9.2-7.2,13.6c-3.9,7.4-7.7,14.9-11.6,22.4c-3.7,7.1-7.5,9-15.2,7.2c-12.8-2.8-25.5-5.9-38.2-8.8
		c-2.4-0.6-4.9-1.1-9.1-2c0,10.9,0.1,21,0,31.1c-0.1,11.1-3.6,14.5-14.8,14.9c-15.4,0.6-30.8,1.4-47.4,2.1c3.7,7.1,7,13.4,10.3,19.7
		c1.4,2.6,2.8,5.1,4,7.8c2.7,6.6,0.2,13.2-6.6,15.1c-22.7,6.5-45.5,12.8-68.3,18.8c-6.8,1.8-12.3-1.7-13.8-7.6
		c-1.4-5.8,1.9-10.9,8.9-12.9c17.6-5.2,35.2-10.2,53.7-15.5c-3.1-6-6-11.6-8.9-17.2c-2.3-4.5-4.9-8.9-7-13.5
		c-3.7-7.9,0.5-15.5,9.2-16c17.6-1,35.1-1.7,52.7-2.1c4.8-0.1,6.5-1.6,6.5-6.4c0-10,0.4-19.9,0.8-29.9c0.4-10.7,5.7-14.9,16-12.5
		c15.2,3.5,30.4,6.9,45.6,10.7c4,1,5.9,0.1,7.7-3.6c5.8-11.7,11.9-23.3,18-34.9c4.4-8.4,10.2-9.9,18.2-4.8
		c12.3,7.8,24.7,15.7,37.4,23.9c8.6-8,17.1-16,25.6-24c4.4-4.1,8.8-8.3,13.3-12.4c6.5-5.9,13.5-5.1,18.2,2.2
		c6.6,10.4,13,20.8,19.8,31.8c4.7-2.4,9.1-4.7,13.6-7c12.3-6.4,24.5-12.9,36.8-19.3c9.9-5.1,17.5-0.6,17.9,10.5
		c0.4,10.5,0.9,21,1.4,32.4c7.7-1.9,15-3.6,22.3-5.4c11-2.7,21.9-5.5,32.9-8.2c6.7-1.6,12.2,1.3,13.8,7.3c1.7,6.3-1.2,11.5-8,13.3
		c-22.6,6-45.3,11.9-68,17.6c-8.4,2.1-14-2.6-14.5-11.3c-0.5-9.3-0.9-18.7-1.4-28.9c-2.2,1-3.9,1.7-5.5,2.6
		c-12.6,6.6-25.2,13.2-37.9,19.8c-8.1,4.2-13,2.9-17.8-4.7C350,105.8,344.4,96.7,338.3,86.8z"/>
	<path class="st8" d="M536,287.1c-0.3,15.4-7.3,26-21,31.3c-8.4,3.2-17.6,5.1-26.6,6c-11.5,1.2-20.6-4.2-26.4-14.1
		c-3.5-6-6.7-12.5-8.5-19.1c-5.1-19.6-10.6-39.2-13.6-59.1c-2.8-19.4,5.5-30.3,24.2-36.7c5.1-1.8,10.5-3,15.9-3.8
		c14.2-2,26.4,2.6,32.3,15.8c6.7,15,11.6,30.9,16.4,46.7C532,264.9,533.6,276.1,536,287.1z M511.4,286.1c-0.1-0.7-0.2-2.9-0.7-5
		c-4.5-17.1-8.8-34.3-13.7-51.3c-1.3-4.6-3.9-9-6.8-12.8c-4.2-5.6-10.1-7-16.8-4.7c-6.3,2.1-10.2,6.5-10.4,13.3
		c-0.1,4.2,0,8.7,1,12.7c4,15.9,8.3,31.6,12.6,47.4c1,3.5,2.5,7,4.3,10.2c4.4,7.8,10.7,10.4,18.6,8.1
		C507.6,301.7,511.4,296.4,511.4,286.1z"/>
	<path class="st8" d="M249,256c7.6-2.1,14.7-4,22.6-6.1c4.8,17.6,9.5,35.1,14.5,53.5c4.5-19.6,8.8-37.9,12.8-56.3
		c0.8-3.5,2.1-5.4,5.7-6.2c6.6-1.4,13.2-3.4,20.8-5.5c-1.1,4.7-2,8.8-3.1,12.8c-3.7,13.9-7.3,27.9-11.2,41.8
		c-1.2,4.3-0.7,7.4,2.3,11c14.8,17.6,29.3,35.5,44,53.3c0.7,0.9,1.3,1.9,2.5,3.5c-8.1,2.2-15.6,4.5-23.3,6.2c-1.4,0.3-3.7-1.6-4.9-3
		c-9.1-11-18-22.1-27-33.2c-1.3-1.6-2.7-3.2-4.7-5.5c-2.8,7.9-5.8,14.6-2.9,22.8c3.1,8.8,4.9,17.9,7.5,27.5
		c-7.6,2.1-14.6,4-22.6,6.2C271,337.9,260,297.1,249,256z"/>
	<path class="st8" d="M177.1,406.8c-7.2,1.9-14.3,4-21.4,5.6c-1.1,0.3-3.4-1.4-4.1-2.8c-3.7-7.1-7.3-14.2-10.6-21.5
		c-1.5-3.2-3.1-4.4-6.7-3.3c-5.7,1.8-11.6,3.5-17.5,4.7c-4.6,0.9-5.3,3.1-4.8,7.4c0.9,8.7,1.3,17.5,1.9,26.9
		c-7.9,2.2-15.7,4.3-23.9,6.5c-0.2-1.6-0.5-2.7-0.5-3.8c-1.2-40.8-2.2-81.6-3.5-122.3c-0.1-3.8,1.2-5.1,4.6-5.9
		c7.4-1.7,14.7-3.8,22-5.9c2.8-0.8,4.5-0.6,6.1,2.4c19.2,36.6,38.4,73.2,57.7,109.8C176.6,405.1,176.7,405.6,177.1,406.8z
		 M130.2,366.9c-8.6-19-16.9-37.3-24.7-54.6c1.7,19.1,3.5,39.1,5.3,59.5c1.5-0.2,2.7-0.3,3.8-0.6
		C119.7,369.8,124.7,368.4,130.2,366.9z"/>
	<path class="st8" d="M382.2,296.9c4.6,17.4,9,34.1,13.6,51.4c-7.8,2.1-14.9,4-22.6,6.1c-11-41-21.9-81.7-33-123
		c17.5-4.5,34.5-9.4,51.8-13.1c11-2.4,19.9,2.7,26,12c6.7,10.3,9.9,21.7,8.6,34c-1.4,13.9-10.3,21.9-22.7,26.4
		C397,293,389.8,294.7,382.2,296.9z M377.4,278.8c4.7-1.2,8.8-2.2,12.9-3.4c9.8-2.9,13.4-8.1,12.2-18.2c-0.5-3.8-1.6-7.6-3-11.2
		c-2-5.3-6.2-8.2-11.9-7.2c-6.5,1-12.8,2.6-19.8,4.1C371,255.3,374.1,266.9,377.4,278.8z"/>
	<path class="st8" d="M229,346.3c7.3-1.9,14.6-3.8,22.4-5.9c2.8,11.2,4.6,21.8,2.5,32.7c-0.4,1.9-1,3.8-1.8,5.5
		c-6.8,14.6-20.3,17.8-34.4,19.5c-12.6,1.6-23.4-2.4-30.2-13.6c-3.5-5.8-6.6-12.1-8.4-18.5c-5-18.2-10-36.5-13.6-55
		c-5.3-27.3,9.2-40.7,35-44.8c16.9-2.7,28.1,4.2,34.9,20c1.7,3.9,2.9,8,4.5,12.6c-4.1,1.2-7.6,2.3-11.1,3.2c-3.6,1-7.1,1.8-11.1,2.9
		c-1.7-4-3.3-8-5.1-11.8c-2.2-4.6-5.3-8.6-11.1-7.9c-6,0.7-11.4,3.8-12.5,9.9c-1,5.8-1,12.1,0.3,17.8c3.6,15.6,7.9,31,12.4,46.3
		c1.5,4.9,4,9.8,7,14c3.9,5.4,10.9,6.7,16.9,4.1c5.9-2.6,6.7-7.9,6.3-13.3C231.5,358.3,230.1,352.5,229,346.3z"/>
	<path class="st8" d="M606.1,291.9c-7.6,2.1-14.7,4-22.6,6.1c-9.4-35-18.7-69.7-28.2-105c-9,2.3-17.6,4.6-26.9,7
		c-1.6-5.9-3.1-11.6-4.7-17.7c25.8-6.9,50.8-13.6,76.2-20.5c1.6,5.9,3.1,11.4,4.8,17.6c-9,2.5-17.6,4.9-26.6,7.4
		C587.4,221.9,596.6,256.5,606.1,291.9z"/>
</g>
</svg>
