<?xml version="1.0" encoding="utf-8"?>
<!-- Generator: Adobe Illustrator 21.1.0, SVG Export Plug-In . SVG Version: 6.00 Build 0)  -->
<svg version="1.1" id="Capa_1" xmlns="http://www.w3.org/2000/svg" xmlns:xlink="http://www.w3.org/1999/xlink" x="0px" y="0px"
	 viewBox="0 0 612 612" style="enable-background:new 0 0 612 612;" xml:space="preserve" width="612" height="612">
<style type="text/css">
	.st0{fill:#FFFFFF;}
	.st1{fill:#304A54;}
	.st2{fill:#FAFCFC;}
	.st3{fill:#FFFFFF;stroke:#FFFFFF;stroke-width:0.75;stroke-miterlimit:10;}
	.st4{fill:#212D33;}
	.st5{fill:#FFFFFF;stroke:#212D33;stroke-miterlimit:10;}
	.st6{fill:#212D33;stroke:#212D33;stroke-miterlimit:10;}
	.st7{fill:#03898F;}
	.st8{fill:#2A2A2A;}
</style>
<g id="KENO_1_">
	<g id="XMLID_293_">
		<rect id="XMLID_294_" x="446.7" y="53.9" class="st4" width="144.8" height="144.8"/>
		<rect id="XMLID_297_" x="235.1" y="53.9" class="st4" width="144.8" height="144.8"/>
		<rect id="XMLID_298_" x="20.5" y="237.2" class="st4" width="144.8" height="144.8"/>
		<rect id="XMLID_299_" x="20.5" y="414.3" class="st4" width="144.8" height="144.8"/>
		<rect id="XMLID_300_" x="235.1" y="412.3" class="st4" width="144.8" height="144.8"/>
		<rect id="XMLID_301_" x="446.7" y="237.2" class="st4" width="144.8" height="144.8"/>
		<path id="XMLID_304_" class="st4" d="M93.4,48.9c-41.5,0-75.9,34.4-75.9,75.9s34.4,75.9,75.9,75.9s75.9-34.4,75.9-75.9
			S134.9,48.9,93.4,48.9z M93.4,180.5c-30.4,0-55.7-25.3-55.7-55.7S62,69.1,93.4,69.1s55.7,25.3,55.7,55.7S123.8,180.5,93.4,180.5z"
			/>
		<path id="XMLID_307_" class="st4" d="M93.4,75.2c-28.3,0-50.6,22.3-50.6,49.6s23.3,49.6,50.6,49.6c28.3,0,50.6-22.3,50.6-49.6
			S120.8,75.2,93.4,75.2z M93.4,164.3c-22.3,0-40.5-17.2-40.5-39.5c0-21.3,18.2-39.5,40.5-39.5s40.5,17.2,40.5,39.5
			S115.7,164.3,93.4,164.3z"/>
		<polygon id="XMLID_308_" class="st4" points="83.3,111.6 101.5,111.6 101.5,111.6 84.3,145 92.4,145 109.6,109.6 109.6,104.6 
			83.3,104.6 		"/>
		<path id="XMLID_311_" class="st4" d="M307,223c-41.5,0-75.9,34.4-75.9,75.9s34.4,75.9,75.9,75.9s75.9-34.4,75.9-75.9
			S349.5,223,307,223z M307,354.6c-30.4,0-55.7-25.3-55.7-55.7c0-30.4,25.3-55.7,55.7-55.7c30.4,0,55.7,25.3,55.7,55.7
			C362.7,329.3,338.4,354.6,307,354.6z"/>
		<path id="XMLID_314_" class="st4" d="M307,249.3c-28.3,0-50.6,22.3-50.6,49.6s23.3,49.6,50.6,49.6c28.3,0,50.6-22.3,50.6-49.6
			S335.4,249.3,307,249.3z M307,338.4c-22.3,0-40.5-17.2-40.5-39.5c0-21.3,18.2-39.5,40.5-39.5s40.5,17.2,40.5,39.5
			C347.5,321.2,329.3,338.4,307,338.4z"/>
		<polygon id="XMLID_315_" class="st4" points="277.7,286.8 296.9,286.8 296.9,286.8 279.7,321.2 287.8,321.2 305,285.8 305,280.7 
			277.7,280.7 		"/>
		<path id="XMLID_316_" class="st4" d="M336.4,286.8v-6.1h-21.3l-3,20.2c2,0,3,0,5.1,0c8.1,0,11.1,3,11.1,8.1c0,5.1-4,7.1-9.1,7.1
			c-4,0-7.1-1-9.1-2l-2,6.1c2,1,6.1,2,11.1,2c10.1,0,16.2-6.1,16.2-14.2c0-5.1-2-8.1-5.1-10.1s-6.1-3-10.1-3c-1,0-2,0-3,0l1-8.1
			H336.4z"/>
		<path id="XMLID_319_" class="st4" d="M518.6,411.3c-41.5,0-75.9,34.4-75.9,75.9s34.4,75.9,75.9,75.9c41.5,0,75.9-34.4,75.9-75.9
			S561.1,411.3,518.6,411.3z M518.6,542.9c-30.4,0-55.7-25.3-55.7-55.7s25.3-55.7,55.7-55.7c30.4,0,55.7,25.3,55.7,55.7
			S550,542.9,518.6,542.9z"/>
		<path id="XMLID_322_" class="st4" d="M518.6,437.6c-28.3,0-50.6,22.3-50.6,49.6s23.3,49.6,50.6,49.6c27.3,0,50.6-22.3,50.6-49.6
			S546.9,437.6,518.6,437.6z M518.6,526.7c-22.3,0-40.5-17.2-40.5-39.5c0-21.3,18.2-39.5,40.5-39.5c22.3,0,40.5,17.2,40.5,39.5
			C560.1,508.5,541.9,526.7,518.6,526.7z"/>
		<polygon id="XMLID_323_" class="st4" points="488.2,470 490.2,476.1 497.3,472 497.3,472 497.3,505.4 504.4,505.4 504.4,464.9 
			498.3,464.9 		"/>
		<path id="XMLID_326_" class="st4" d="M534.8,479.1c-4,0-7.1,2-9.1,4l0,0c1-6.1,5.1-11.1,13.2-12.1c2,0,3,0,4,0v-6.1c-1,0-2,0-4,0
			c-6.1,0-11.1,2-14.2,6.1c-4,4-7.1,10.1-7.1,18.2c0,10.1,5.1,17.2,15.2,17.2c8.1,0,14.2-7.1,14.2-14.2
			C547.9,484.2,541.9,479.1,534.8,479.1z M533.8,500.4L533.8,500.4c-5.1,0-7.1-4-8.1-10.1c0-1,0-2,0-2c1-2,4-4,7.1-4
			c4,0,7.1,3,7.1,8.1C539.8,497.3,536.8,500.4,533.8,500.4z"/>
	</g>
</g>
</svg>
