<?xml version="1.0" encoding="utf-8"?>
<!-- Generator: Adobe Illustrator 21.1.0, SVG Export Plug-In . SVG Version: 6.00 Build 0)  -->
<svg version="1.1" id="Capa_1" xmlns="http://www.w3.org/2000/svg" xmlns:xlink="http://www.w3.org/1999/xlink" x="0px" y="0px"
	 viewBox="0 0 612 612" style="enable-background:new 0 0 612 612;" xml:space="preserve">
<style type="text/css">
	.st0{fill:#FFFFFF;}
	.st1{fill:#304A54;}
	.st2{fill:#FAFCFC;}
	.st3{fill:#FFFFFF;stroke:#FFFFFF;stroke-width:0.75;stroke-miterlimit:10;}
	.st4{fill:#212D33;}
	.st5{fill:#FFFFFF;stroke:#212D33;stroke-miterlimit:10;}
	.st6{fill:#212D33;stroke:#212D33;stroke-miterlimit:10;}
	.st7{fill:#03898F;}
	.st8{fill:#2A2A2A;}
</style>
<g>
	<path d="M260.1,243.1c-41.8,0-83.5,0-125.3,0c-19.1,0-31.7-11.7-31.8-30.8c-0.3-41.7-0.3-83.5,0-125.2
		c0.1-19.7,12.3-31.3,31.9-31.3c84.1,0,168.3,0,252.4,0c17.9,0,30.6,12.8,30.6,30.8c0.1,42,0.1,83.9,0,125.9
		c0,18-12.6,30.6-30.7,30.7C344.9,243.2,302.5,243.1,260.1,243.1z"/>
	<path d="M297.7,316c16.7-6.9,28.5-18.9,40.1-32.5c1.5,2.1,2.8,3.7,3.9,5.5c42.5,67.2,85.1,134.3,127.6,201.5
		c11,17.3,4.7,37.1-13.1,41.9c-10.8,2.9-22.3-1.6-29.2-12.3c-10.6-16.2-20.8-32.6-31.1-48.9c-31.8-50.1-63.6-100.3-95.4-150.4
		C299.6,319.5,298.9,318.1,297.7,316z"/>
	<path d="M186.2,286.8c11.1,14.5,24.5,24.7,41,31.3c-0.7,1.6-1.2,2.9-2,4.1c-40,65.6-80.1,131.2-120.1,196.8
		c-6.9,11.3-17.7,17-28.1,14.9c-18.5-3.8-26.8-23.3-16.9-40.5c6.9-11.9,14.2-23.6,21.4-35.3c33.9-55.6,67.9-111.2,101.9-166.8
		C184.1,290.1,184.9,288.9,186.2,286.8z"/>
	<path d="M238.4,321.6c17,3.6,33.6,3.4,50.6-1.7c0.2,2.2,0.5,3.9,0.5,5.7c0,74.2,0.1,148.4,0,222.7c0,14.4-11.2,25.6-25.3,25.7
		c-15,0.1-26.2-10.3-26.2-25.1c-0.1-74.2-0.1-148.4-0.1-222.6C237.9,324.8,238.2,323.4,238.4,321.6z"/>
	<path d="M538,58.4c7.1-6.8,14.2-13.6,21.3-20.3c59.4,55.3,54.9,167.4,1,222.4c-6.9-7.1-13.8-14.3-20.8-21.4
		C583.7,190.9,587.3,110.6,538,58.4z"/>
	<path d="M9.7,203.5c0-36,0-71.3,0-107.4c4.6,1.1,8.5,1.9,12.4,2.9c17.9,4.4,35.8,9,53.8,13.1c4.2,1,5.1,2.7,5.1,6.6
		c-0.2,20.6-0.1,41.1-0.1,61.7c0,3.2-0.3,5.1-4.2,6.1C54.6,191.9,32.6,197.7,9.7,203.5z"/>
	<path d="M505.7,224.9c-6.9-7.4-13.4-14.4-20.2-21.7c27.3-35.4,28.5-71.5-1-108c7.1-6.8,14.4-13.7,21.6-20.7
		C548.2,116.4,539.3,191.9,505.7,224.9z"/>
	<path d="M192.4,265.8c44.7,0,87.9,0,131.2,0c-4.3,10.7-28.1,30.8-58.1,32.3C236.4,299.6,212.6,288.2,192.4,265.8z"/>
	<path d="M458.7,184.8c-6.2-8-12.2-15.7-18.2-23.3c8.1-11.8,8.1-11.8-1.3-24.1c6.7-7.1,13.5-14.4,20.2-21.6
		C479.5,131.7,479.3,167.7,458.7,184.8z"/>
</g>
</svg>
