<?xml version="1.0" encoding="utf-8"?>
<!-- Generator: Adobe Illustrator 19.0.0, SVG Export Plug-In . SVG Version: 6.00 Build 0)  -->
<svg version="1.1" id="Layer_1" xmlns="http://www.w3.org/2000/svg" xmlns:xlink="http://www.w3.org/1999/xlink" x="0px" y="0px"
	 viewBox="0 0 80 80" style="enable-background:new 0 0 80 80;" xml:space="preserve">
<style type="text/css">
	.st0{fill:#ED1C24;}
	.st1{fill:#FFFFFF;}
</style>
<g id="XMLID_876_">
	<path id="XMLID_874_" class="st0" d="M3.3,40C3.3,19.7,19.7,3.3,40,3.3c20.3,0,36.7,16.4,36.7,36.7c0,20.3-16.4,36.7-36.7,36.7
		C19.7,76.7,3.3,60.3,3.3,40"/>
</g>
<g id="XMLID_878_">
	<path id="XMLID_875_" class="st1" d="M61.2,41.9H18.8c-1.1,0-1.9-0.9-1.9-1.9s0.9-1.9,1.9-1.9h42.5c1.1,0,1.9,0.9,1.9,1.9
		S62.3,41.9,61.2,41.9z"/>
	<path id="XMLID_873_" class="st1" d="M61.2,27.1H18.8c-1.1,0-1.9-0.9-1.9-1.9c0-1.1,0.9-1.9,1.9-1.9h42.5c1.1,0,1.9,0.9,1.9,1.9
		C63.2,26.3,62.3,27.1,61.2,27.1z"/>
	<path id="XMLID_872_" class="st1" d="M61.2,56.7H18.8c-1.1,0-1.9-0.9-1.9-1.9s0.9-1.9,1.9-1.9h42.5c1.1,0,1.9,0.9,1.9,1.9
		S62.3,56.7,61.2,56.7z"/>
</g>
</svg>
