<?xml version="1.0" encoding="utf-8"?>
<!-- Generator: Adobe Illustrator 17.0.0, SVG Export Plug-In . SVG Version: 6.00 Build 0)  -->
<!DOCTYPE svg PUBLIC "-//W3C//DTD SVG 1.1//EN" "http://www.w3.org/Graphics/SVG/1.1/DTD/svg11.dtd">
<svg version="1.1" id="Capa_1" xmlns="http://www.w3.org/2000/svg" xmlns:xlink="http://www.w3.org/1999/xlink" x="0px" y="0px"
	 width="612px" height="612px" viewBox="660.5 0 612 612" enable-background="new 660.5 0 612 612" xml:space="preserve">
<g>
	<path fill="#212D33" d="M1102.825,0h-272.77c-22.711,0-41.358,18.647-41.358,41.358v529.284c0,22.711,18.647,41.358,41.358,41.358
		h272.89c22.711,0,41.358-18.527,41.358-41.358V41.358C1144.183,18.647,1125.536,0,1102.825,0z M922.811,29.763h87.258
		c2.749,0,5.02,2.271,5.02,5.02s-2.271,5.02-5.02,5.02h-87.258c-2.749,0-5.02-2.271-5.02-5.02S920.062,29.763,922.811,29.763z
		 M966.44,591.321c-11.475,0-20.679-9.204-20.679-20.679s9.204-20.679,20.679-20.679c11.475,0,20.679,9.204,20.679,20.679
		S977.915,591.321,966.44,591.321z M1115.496,535.5H817.385V65.503h297.991V535.5H1115.496z"/>
</g>
</svg>
