<?xml version="1.0" encoding="utf-8"?>
<!-- Generator: Adobe Illustrator 17.0.0, SVG Export Plug-In . SVG Version: 6.00 Build 0)  -->
<!DOCTYPE svg PUBLIC "-//W3C//DTD SVG 1.1//EN" "http://www.w3.org/Graphics/SVG/1.1/DTD/svg11.dtd">
<svg version="1.1" id="Capa_1" xmlns="http://www.w3.org/2000/svg" xmlns:xlink="http://www.w3.org/1999/xlink" x="0px" y="0px"
	 width="612px" height="612px" viewBox="1322.5 0 612 612" enable-background="new 1322.5 0 612 612" xml:space="preserve">
<g>
	<path fill="#212D33" d="M1913.403,195.314c-12.551-32.154-30.241-61.798-52.235-87.616
		c-45.661-53.55-109.371-90.844-181.688-103.036C1662.865,1.793,1645.892,0,1628.44,0s-34.425,1.793-51.04,4.542
		c-72.316,12.192-136.027,49.605-181.688,103.036c-21.994,25.819-39.684,55.462-52.235,87.616
		C1330.09,229.62,1322.44,266.913,1322.44,306c0,35.979,6.455,70.284,17.93,102.319c11.595,32.632,28.329,62.754,49.605,89.17
		c46.02,57.136,112.001,97.298,187.545,109.969c16.615,2.749,33.588,4.542,51.04,4.542c17.452,0,34.425-1.793,51.04-4.542
		c75.424-12.67,141.525-52.713,187.425-109.969c21.276-26.416,38.011-56.538,49.605-89.17c11.355-32.034,17.93-66.34,17.93-102.319
		C1934.44,266.913,1926.79,229.62,1913.403,195.314z M1877.543,215.993l-53.55,30.839c-10.16-33.469-28.688-63.232-53.072-87.138
		l54.028-31.198C1847.78,153.837,1865.71,183.361,1877.543,215.993z M1792.078,306c0,90.246-73.392,163.638-163.638,163.638
		S1464.802,396.246,1464.802,306s73.392-163.638,163.638-163.638C1718.686,142.362,1792.078,215.754,1792.078,306z M1628.44,40.76
		c17.452,0,34.425,1.793,51.04,5.02v62.395c-16.376-4.064-33.469-6.574-51.04-6.574c-17.691,0-34.664,2.51-51.04,6.694V45.78
		C1593.896,42.553,1610.989,40.76,1628.44,40.76z M1431.931,128.496l54.028,31.198c-24.384,23.787-42.912,53.67-53.072,87.138
		l-53.55-30.839C1391.171,183.361,1409.1,153.837,1431.931,128.496z M1376.229,387.64l54.267-31.317
		c8.606,34.066,25.819,64.666,49.127,89.409l-53.789,31.078C1403.961,450.872,1386.987,420.63,1376.229,387.64z M1628.44,571.24
		c-17.452,0-34.545-1.793-51.04-5.02v-62.395c16.376,4.184,33.349,6.694,51.04,6.694c17.571,0,34.664-2.51,51.04-6.694v62.395
		C1662.865,569.447,1645.892,571.24,1628.44,571.24z M1831.046,476.81l-53.789-31.078c23.309-24.862,40.402-55.462,49.127-89.409
		l54.267,31.317C1869.893,420.63,1852.92,450.872,1831.046,476.81z"/>
	<path fill="#212D33" d="M1645.772,283.767c-26.058-9.802-36.696-16.256-36.696-26.297c0-8.606,6.455-17.093,26.297-17.093
		c11.475,0,20.798,1.913,28.209,4.184c4.184,1.315,8.726,0.837,12.67-1.315c3.825-2.152,6.574-5.738,7.77-10.041l0.239-1.076
		c2.51-9.802-3.347-19.723-13.148-22.233c-7.531-1.913-16.376-3.347-27.134-3.825v-11.475c0-7.77-5.737-14.583-13.507-15.42
		c-8.965-0.837-16.376,6.216-16.376,14.941v14.105c-32.751,6.455-51.757,27.492-51.757,54.506c0,29.644,22.352,44.944,55.104,55.941
		c22.591,7.65,32.393,14.941,32.393,26.655c0,12.192-11.953,19.005-29.405,19.005c-12.431,0-24.265-2.51-34.425-6.216
		c-4.303-1.554-8.965-1.195-13.029,0.956c-3.945,2.152-6.933,5.857-8.009,10.28l-0.12,0.478
		c-2.63,10.399,3.347,21.038,13.627,24.145c10.041,2.988,21.994,5.14,34.066,5.737v13.627c0,8.248,6.694,14.941,14.941,14.941l0,0
		c8.248,0,14.941-6.694,14.941-14.941v-15.778c35.142-6.096,54.506-29.405,54.506-56.658
		C1696.812,313.411,1682.11,296.677,1645.772,283.767z"/>
</g>
</svg>
