<?xml version="1.0" encoding="utf-8"?>
<!-- Generator: Adobe Illustrator 19.0.0, SVG Export Plug-In . SVG Version: 6.00 Build 0)  -->
<svg version="1.1" id="Layer_1" xmlns="http://www.w3.org/2000/svg" xmlns:xlink="http://www.w3.org/1999/xlink" x="0px" y="0px"
	 viewBox="0 0 52.5 53.5" style="enable-background:new 0 0 52.5 53.5;" xml:space="preserve">
<style type="text/css">
	.st0{fill:#EE2F44;}
	.st1{fill:#FFFFFF;}
</style>
<g id="XMLID_29_">
	<path id="XMLID_33_" class="st0" d="M3.6,27c0-1.9,3.9-3.3,4.4-5.1c0.5-1.8-2.2-5-1.3-6.6c0.9-1.6,5-0.9,6.4-2.2
		c1.3-1.3,0.6-5.4,2.2-6.4c1.6-0.9,4.8,1.8,6.6,1.3c1.8-0.5,3.2-4.4,5.1-4.4c1.9,0,3.3,3.9,5.1,4.4c1.8,0.5,5-2.2,6.6-1.3
		c1.6,0.9,0.9,5,2.2,6.4c1.3,1.3,5.4,0.6,6.4,2.2c0.9,1.6-1.8,4.8-1.3,6.6c0.5,1.8,4.4,3.2,4.4,5.1c0,1.9-3.9,3.3-4.4,5.1
		c-0.5,1.8,2.2,5,1.3,6.6c-0.9,1.6-5,0.9-6.4,2.2c-1.3,1.3-0.6,5.4-2.2,6.4c-1.6,0.9-4.8-1.8-6.6-1.3c-1.8,0.5-3.2,4.4-5.1,4.4
		c-1.9,0-3.3-3.9-5.1-4.4c-1.8-0.5-5,2.2-6.6,1.3c-1.6-0.9-0.9-5-2.2-6.4c-1.3-1.3-5.4-0.6-6.4-2.2c-0.9-1.6,1.8-4.8,1.3-6.6
		C7.5,30.3,3.6,28.9,3.6,27"/>
	<polygon id="XMLID_32_" class="st1" points="18.8,22.8 20.7,22.8 20.7,31.2 18.8,31.2 14.8,25.9 14.8,31.2 12.9,31.2 12.9,22.8 
		14.7,22.8 18.8,28.2 	"/>
	<polygon id="XMLID_31_" class="st1" points="28.9,22.8 28.9,24.4 24.7,24.4 24.7,26.2 28.5,26.2 28.5,27.8 24.7,27.8 24.7,29.6 
		29,29.6 29,31.2 22.8,31.2 22.8,22.8 	"/>
	<polygon id="XMLID_30_" class="st1" points="33.4,27.6 34.9,22.8 36.9,22.8 38.3,27.6 40,22.8 42.1,22.8 39.1,31.2 37.7,31.2 
		35.9,25.3 34,31.2 32.6,31.2 29.7,22.8 31.7,22.8 	"/>
</g>
</svg>
