<?xml version="1.0" encoding="utf-8"?>
<!-- Generator: Adobe Illustrator 21.1.0, SVG Export Plug-In . SVG Version: 6.00 Build 0)  -->
<svg version="1.1" id="Capa_1" xmlns="http://www.w3.org/2000/svg" xmlns:xlink="http://www.w3.org/1999/xlink" x="0px" y="0px"
	 viewBox="0 0 612 612" style="enable-background:new 0 0 612 612;" xml:space="preserve">
<style type="text/css">
	.st0{fill:#FFFFFF;}
	.st1{fill:#304A54;}
	.st2{fill:#FAFCFC;}
	.st3{fill:#FFFFFF;stroke:#FFFFFF;stroke-width:13;stroke-miterlimit:10;}
	.st4{fill:#212D33;}
</style>
<path class="st2" d="M306,5.9C148.4,5.9,20.6,133.7,20.6,291.3c0,24.4,9.7,189.3,0.3,314.8C129.8,581.4,279,576.7,306,576.7
	c157.6,0,285.4-127.8,285.4-285.4S463.6,5.9,306,5.9z M287.3,411.8l-4.7,5c-1.3,1.3-2.8,2-4.5,2.1c-1.8,0.1-3.5-0.1-5.2-0.4
	l-113.6-19.3l70.4,66.2c1,1,1.6,2.2,1.6,3.7c0,1.5-0.4,2.7-1.4,3.8l-5.5,5.9c-1,1-2.2,1.6-3.7,1.6c-1.5,0-2.7-0.4-3.8-1.4
	l-92.4-86.9c-1-1-1.6-2.2-1.6-3.7c0-1.5,0.4-2.7,1.4-3.8l4.7-5c1.3-1.3,2.8-2,4.5-2.1c1.8-0.1,3.5,0.1,5.2,0.4l113.6,19.3
	l-70.4-66.2c-1-1-1.6-2.2-1.6-3.7c0-1.5,0.4-2.7,1.4-3.8l5.5-5.9c1-1,2.2-1.6,3.7-1.6c1.5,0,2.7,0.4,3.8,1.4l92.4,86.9
	c1,1,1.6,2.2,1.6,3.7C288.8,409.5,288.3,410.8,287.3,411.8z M372,321.8l-54.3,57.8c-1,1-2.2,1.6-3.7,1.6c-1.5,0-2.7-0.4-3.8-1.4
	l-92.4-86.9c-1-1-1.6-2.2-1.6-3.7c0-1.5,0.4-2.7,1.4-3.8l53.3-56.6c1-1,2.2-1.6,3.7-1.6c1.5,0,2.7,0.4,3.8,1.4l5.1,4.8
	c1,1,1.6,2.2,1.6,3.7c0,1.5-0.4,2.7-1.4,3.8l-44.1,46.9l30.2,28.4l41.2-43.8c1-1,2.2-1.6,3.7-1.6c1.5,0,2.7,0.4,3.8,1.4l5.1,4.8
	c1,1,1.6,2.2,1.6,3.7c0,1.5-0.4,2.7-1.4,3.8l-41.2,43.8l31.3,29.5l45.2-48.1c1-1,2.2-1.6,3.7-1.6c1.5,0,2.7,0.4,3.8,1.4l5.1,4.8
	c1,1,1.6,2.2,1.6,3.7C373.5,319.4,373,320.7,372,321.8z M460,228.2l-5.4,5.7c-2.1,2.2-4.3,3.2-6.6,2.9c-2.4-0.2-4.9-1.1-7.7-2.6
	l-60.1-31.8l35.4,58.1c1.7,2.6,2.7,5.1,3.1,7.5c0.4,2.4-0.4,4.6-2.5,6.8l-5.4,5.7c-2.2,2.3-4.3,3.3-6.5,3c-2.2-0.3-4.7-1.3-7.5-3
	L291.8,215c-0.6-0.4-1-0.7-1.3-0.9c-0.9-0.8-1.3-1.8-1.3-3c0-1.2,0.3-2.2,1.2-3.1l5.4-5.7c0.9-1,2-1.6,3.4-1.9
	c1.4-0.3,2.9,0,4.6,1.1l92.8,59.8l-41.8-69c-0.5-0.8-0.9-2.1-1.4-3.7c-0.4-1.7,0.2-3.3,1.8-5.1l4.6-4.9c1.6-1.7,3.3-2.4,4.9-2.1
	c1.7,0.3,2.9,0.7,3.8,1.1l71.4,37.5l-65.4-89c-1.2-1.6-1.6-3.1-1.4-4.5c0.2-1.4,0.8-2.6,1.7-3.5l5.4-5.7c0.8-0.9,1.8-1.3,3-1.3
	c1.2,0,2.2,0.3,3.1,1.2c0.3,0.3,0.6,0.7,1,1.2l71.8,100.7c1.9,2.7,3.1,5.2,3.5,7.3C463,223.7,462.2,225.9,460,228.2z"/>
</svg>
