<?xml version="1.0" encoding="utf-8"?>
<!-- Generator: Adobe Illustrator 21.1.0, SVG Export Plug-In . SVG Version: 6.00 Build 0)  -->
<svg version="1.1" id="Capa_1" xmlns="http://www.w3.org/2000/svg" xmlns:xlink="http://www.w3.org/1999/xlink" x="0px" y="0px"
	 viewBox="0 0 612 612" style="enable-background:new 0 0 612 612;" xml:space="preserve" width="612" height="612">
<style type="text/css">
	.st0{fill:#FFFFFF;}
	.st1{fill:#304A54;}
	.st2{fill:#FAFCFC;}
	.st3{fill:#FFFFFF;stroke:#FFFFFF;stroke-width:0.75;stroke-miterlimit:10;}
	.st4{fill:#212D33;}
	.st5{fill:#FFFFFF;stroke:#212D33;stroke-miterlimit:10;}
	.st6{fill:#212D33;stroke:#212D33;stroke-miterlimit:10;}
	.st7{fill:#03898F;}
	.st8{fill:#2A2A2A;}
	.st9{fill:#29BF29;}
	.st10{fill:#2DA9F6;stroke:#2DA9F6;stroke-width:8;stroke-miterlimit:10;}
	.st11{fill:#45707F;}
	.st12{fill:#2B393F;}
	.st13{fill:#FCFCFC;}
	.st14{fill:#FBFBFB;}
	.st15{fill:#FEFEFE;}
	.st16{fill:#292929;}
	.st17{fill:#FFA500;}
	.st18{fill:#2DA9F6;}
	.st19{fill:#A2A2A2;}
	.st20{fill:none;stroke:#2A2A2A;stroke-width:20;stroke-miterlimit:10;}
	.st21{fill:#FFFFFF;stroke:#2A2A2A;stroke-width:22;stroke-miterlimit:10;}
	.st22{fill:none;}
	.st23{fill:none;stroke:#212D33;stroke-width:50;stroke-miterlimit:10;}
</style>
<g>
	<path class="st4" d="M585.9,107.1l-98.6,98.6c39.8,0,79.6,0,119.5,0c0-17.4-0.9-33.6,0.2-49.6C608.3,135.6,600.3,117.6,585.9,107.1
		z"/>
	<path class="st4" d="M302.9,97.6c-79.8,0-159.7,0-239.5,0.1c-24.8,0-44.6,13.9-47.8,38.7c-3,22.6-0.6,46.1-0.6,69.4
		c110.2,0,220.4,0,330.9,0L453.8,97.8C403.5,97.8,353.2,97.5,302.9,97.6z"/>
	<path class="st4" d="M606,271.9c0-16.9,0-32.8,0-48.4c-45.5,0-91,0-136.5,0l-48.4,48.4C482.7,271.9,544.4,271.9,606,271.9z"/>
	<path class="st4" d="M13.9,223.5c0,16.6,0,32.2,0,48.4c88.7,0,177.2,0,265.8,0l48.4-48.4C223.3,223.5,118.6,223.5,13.9,223.5z"/>
	<g>
		<path class="st22" d="M460.2,366c-26.9-19.4-54.7-9.3-69,9.8c-15.4,20.6-15.7,51.1-0.6,72.1c16.8,23.3,41.6,27.2,69.5,11
			c32.4,21.6,60.3,18.9,79.8-7.6c16.9-23,16.4-57.3-1.1-79.4C518.6,346.5,490.8,344.5,460.2,366z M533.6,443.9
			c-12.8,18.6-35.3,24.8-54.6,15.8c-9.5-4.5-19.4-8-30.8-12.6c1.3-1.1,3.3-4.3,5.7-4.8c4.8-0.9,9.8,0.1,14.7-0.5
			c2.7-0.4,5.2-2.5,7.8-3.9c-0.2-1.3-0.5-2.6-0.7-4c-9.3,0-18.6,0.1-27.9,0c-6.4-0.1-6.4-0.3-5.9-8.1c12.6-0.9,25.3-1.8,37.9-3
			c0.3,0,0.4-3.1,0.8-6.4c-7.4,0-14.4,0-21.3,0c-6.7,0-13.5,0-20.4,0c-2.6-5.8-1.7-8.5,4.2-8.5c10.1,0.1,20.3,0.3,30.4-0.2
			c2.3-0.1,4.5-2.7,6.7-4.1c-2.3-1.3-4.6-3.7-7-3.8c-10.4-0.4-20.8-0.2-31-0.2c-2.5-7.3-0.3-9.4,5.5-9.3c9.2,0.3,18.3,0.1,27.5,0.1
			c0.4-1,0.8-2,1.3-3c-2.5-1.7-4.9-4.5-7.5-4.9c-5.1-0.8-10.4,0.1-15.6-0.5c-1.8-0.2-3.4-2.7-5.1-4.1c1.5-1.5,3.3-4.5,4.6-4.3
			c10.1,1.6,18-3.6,26.6-8.2c19-10.1,41.5-3.1,54.4,15.6C546.6,399.6,546.6,425.1,533.6,443.9z"/>
		<path class="st22" d="M75.5,403.7c9.4,1,18.9,0.4,28.4,0.4c0,0,0,0,0,0c9.8,0,19.6,0.7,29.3-0.4c3.1-0.3,5.8-5.2,8.6-7.9
			c-2.8-2.6-5.5-7.3-8.3-7.4c-19.6-0.6-39.2-0.7-58.7,0.1c-2.9,0.1-5.7,5.2-8.5,8.1C69.4,398.9,72.3,403.4,75.5,403.7z"/>
		<path class="st4" d="M78.1,439.7c11.3,0,22.5,0,33.8,0l150.3-150.3c-82.9,0-165.8,0-248.8,0c0,3.8,0,6.8,0,9.9
			c0,58.7,0,117.4,0,176c0,20.7,5.9,36.3,16.9,46l65.7-65.7c-5.8,0-11.6,0-17.3,0c-5.4,0-12.2,1.1-12.1-8.1
			C66.6,439.2,72.9,439.7,78.1,439.7z M66.4,396.4c2.8-2.8,5.6-7.9,8.5-8.1c19.6-0.7,39.2-0.7,58.7-0.1c2.8,0.1,5.5,4.8,8.3,7.4
			c-2.9,2.8-5.6,7.6-8.6,7.9c-9.7,1-19.5,0.4-29.3,0.4c0,0,0,0,0,0c-9.5,0-19,0.6-28.4-0.4C72.3,403.4,69.4,398.9,66.4,396.4z"/>
		<path class="st4" d="M606.8,289.4c-67.9,0-135.6,0-203.2,0L159.9,533.1c63.4,0,126.8,0,190.1,0c69.1,0,138.2,0.1,207.2-0.1
			c30.1-0.1,49.4-21.9,49.5-55.5c0.1-22.6,0.1-45.3,0.1-67.9C606.8,369.8,606.8,330,606.8,289.4z M539.9,451.3
			c-19.6,26.6-47.5,29.3-79.8,7.6c-27.9,16.2-52.7,12.3-69.5-11c-15.1-21-14.8-51.5,0.6-72.1c14.3-19.1,42.1-29.1,69-9.8
			c30.6-21.6,58.5-19.5,78.6,5.8C556.3,394,556.8,428.3,539.9,451.3z"/>
		<path class="st4" d="M479.3,365.3c-8.6,4.6-16.5,9.8-26.6,8.2c-1.3-0.2-3,2.8-4.6,4.3c1.7,1.4,3.3,3.9,5.1,4.1
			c5.2,0.6,10.5-0.3,15.6,0.5c2.7,0.4,5,3.2,7.5,4.9c-0.4,1-0.8,2-1.3,3c-9.2,0-18.3,0.2-27.5-0.1c-5.8-0.2-8,2-5.5,9.3
			c10.2,0,20.6-0.2,31,0.2c2.4,0.1,4.7,2.5,7,3.8c-2.2,1.4-4.4,4-6.7,4.1c-10.1,0.5-20.2,0.3-30.4,0.2c-5.9-0.1-6.8,2.7-4.2,8.5
			c6.9,0,13.6,0,20.4,0c6.9,0,13.8,0,21.3,0c-0.4,3.3-0.5,6.4-0.8,6.4c-12.6,1.2-25.2,2-37.9,3c-0.5,7.8-0.5,8,5.9,8.1
			c9.3,0.1,18.6,0,27.9,0c0.2,1.3,0.5,2.6,0.7,4c-2.6,1.4-5.1,3.5-7.8,3.9c-4.8,0.7-9.9-0.4-14.7,0.5c-2.4,0.5-4.4,3.7-5.7,4.8
			c11.4,4.6,21.3,8.1,30.8,12.6c19.3,9.1,41.8,2.8,54.6-15.8c13-18.8,13-44.3,0.1-63C520.8,362.2,498.2,355.2,479.3,365.3z"/>
	</g>
</g>
<line class="st23" x1="28.1" y1="589.1" x2="591.9" y2="25.3"/>
</svg>
