<?xml version="1.0" encoding="utf-8"?>
<!-- Generator: Adobe Illustrator 21.1.0, SVG Export Plug-In . SVG Version: 6.00 Build 0)  -->
<svg version="1.1" id="Capa_1" xmlns="http://www.w3.org/2000/svg" xmlns:xlink="http://www.w3.org/1999/xlink" x="0px" y="0px"
	 viewBox="0 0 612 612" style="enable-background:new 0 0 612 612;" xml:space="preserve">
<style type="text/css">
	.st0{fill:#FFFFFF;}
	.st1{fill:#304A54;}
	.st2{fill:#FAFCFC;}
	.st3{fill:#FFFFFF;stroke:#FFFFFF;stroke-width:0.75;stroke-miterlimit:10;}
	.st4{fill:#212D33;}
	.st5{fill:#FFFFFF;stroke:#212D33;stroke-miterlimit:10;}
	.st6{fill:#212D33;stroke:#212D33;stroke-miterlimit:10;}
	.st7{fill:#03898F;}
	.st8{fill:#2A2A2A;}
	.st9{fill:#29BF29;}
	.st10{fill:#2DA9F6;stroke:#2DA9F6;stroke-width:8;stroke-miterlimit:10;}
	.st11{fill:#45707F;}
	.st12{fill:#2B393F;}
	.st13{fill:#FCFCFC;}
	.st14{fill:#FBFBFB;}
	.st15{fill:#FEFEFE;}
	.st16{fill:#292929;}
	.st17{fill:#FFA500;}
	.st18{fill:#2DA9F6;}
	.st19{fill:#A2A2A2;}
	.st20{fill:none;stroke:#2A2A2A;stroke-width:20;stroke-miterlimit:10;}
	.st21{fill:#FFFFFF;stroke:#2A2A2A;stroke-width:22;stroke-miterlimit:10;}
	.st22{fill:none;stroke:#212D33;stroke-width:50;stroke-miterlimit:10;}
</style>
<g>
	<path class="st4" d="M306.3,600c38.9-38.9,78-78.1,116.5-116.6c-10.3-10.3-21-20.9-32.9-32.8c-20,20-40.5,40.4-61.2,61.1
		c0-61.8,0-123.6,0-185.5c-15.4,0-30.3,0-45.8,0c0,61.9,0,123.4,0,186.4c-21.1-21.3-41.1-41.5-60.8-61.4
		c-11.2,11.1-21.8,21.8-32.2,32.1C228.5,522.1,267.6,561.3,306.3,600z M393.3,214.9c-101.5,0-202.4,0-303.2,0c0,15.3,0,30.2,0,45.1
		c101.3,0,202.2,0,303.2,0C393.3,244.8,393.3,230,393.3,214.9z"/>
	<path class="st4" d="M539.6,12c11.8,2.7,23.2,6.2,33,13.8c17.3,13.3,26.4,30.9,27.7,52.6c0.4,6.7,0.2,13.4,0.2,20.1
		c0,91.5,0,182.9,0,274.4c0,34.9-21.4,62.2-54.4,69.7c-3.2,0.7-6.4,1.4-9.6,1.4c-21.6,0.1-43.3,0.1-65.4,0.1c0-15,0-30,0-45.7
		c5.3,0,10.6,0,15.9,0c14.2,0,28.4,0.1,42.6-0.1c15.5-0.1,24.9-9.4,25-24.7c0.1-63.3,0.1-126.6,0.1-189.8c0-1.1-0.1-2.2-0.2-3.6
		c-165.6,0-330.8,0-496.7,0c0,2.2,0,4.2,0,6.3c0,61.6,0,123.1,0,184.7c0,18.3,8.9,27.3,27.1,27.3c17.1,0,34.1,0,51.2,0
		c2.1,0,4.1,0,6.5,0c0,15.4,0,30.3,0,45.1c-0.4,0.3-0.7,0.7-1,0.7c-23.2-0.2-46.5,1-69.5-0.9c-30.2-2.5-54.3-26.7-59.2-56.5
		c-0.2-1.5-0.8-2.9-1.2-4.4c0-103.2,0-206.3,0-309.5c0.4-0.8,0.9-1.6,1.1-2.5c3.1-19,12.6-34,28-45.5c9.5-7.1,20.6-10.4,32-13
		C228.2,12,383.9,12,539.6,12z M554.5,110.6c0-8.6-0.4-16.7,0.1-24.7c1.1-17-10-28.2-28.2-28.1C403.3,58.2,280.2,58,157.1,58
		c-25.1,0-50.2-0.1-75.3,0c-12.7,0.1-22.6,7.8-23.6,19.8c-1,10.8-0.2,21.7-0.2,32.8C223.4,110.6,388.6,110.6,554.5,110.6z"/>
	<path class="st4" d="M306.3,600c-38.7-38.7-77.9-77.9-116.5-116.5c10.4-10.4,21.1-21,32.2-32.1c19.7,19.8,39.7,40.1,60.8,61.4
		c0-63,0-124.6,0-186.4c15.5,0,30.4,0,45.8,0c0,61.8,0,123.6,0,185.5c20.7-20.7,41.2-41.1,61.2-61.1c11.9,11.9,22.6,22.5,32.9,32.8
		C384.4,521.9,345.2,561.1,306.3,600z"/>
	<path class="st4" d="M393.3,214.9c0,15.2,0,29.9,0,45.1c-101,0-201.9,0-303.2,0c0-14.9,0-29.8,0-45.1
		C190.9,214.9,291.9,214.9,393.3,214.9z"/>
</g>
<line class="st22" x1="32.7" y1="581.6" x2="596.5" y2="17.8"/>
</svg>
