<?xml version="1.0" encoding="utf-8"?>
<!-- Generator: Adobe Illustrator 21.1.0, SVG Export Plug-In . SVG Version: 6.00 Build 0)  -->
<svg version="1.1" id="Capa_1" xmlns="http://www.w3.org/2000/svg" xmlns:xlink="http://www.w3.org/1999/xlink" x="0px" y="0px"
	 viewBox="0 0 612 612" style="enable-background:new 0 0 612 612;" xml:space="preserve">
<style type="text/css">
	.st0{fill:#FFFFFF;}
	.st1{fill:#304A54;}
	.st2{fill:#FAFCFC;}
	.st3{fill:#FFFFFF;stroke:#FFFFFF;stroke-width:0.75;stroke-miterlimit:10;}
	.st4{fill:#212D33;}
	.st5{fill:#FFFFFF;stroke:#212D33;stroke-miterlimit:10;}
	.st6{fill:#212D33;stroke:#212D33;stroke-miterlimit:10;}
	.st7{fill:#03898F;}
	.st8{fill:#2A2A2A;}
	.st9{fill:#29BF29;}
	.st10{fill:#2DA9F6;stroke:#2DA9F6;stroke-width:8;stroke-miterlimit:10;}
	.st11{fill:#45707F;}
	.st12{fill:#2B393F;}
	.st13{fill:#FCFCFC;}
	.st14{fill:#FBFBFB;}
	.st15{fill:#FEFEFE;}
	.st16{fill:#292929;}
	.st17{fill:#FFA500;}
	.st18{fill:#2DA9F6;}
	.st19{fill:#A2A2A2;}
	.st20{fill:none;stroke:#2A2A2A;stroke-width:20;stroke-miterlimit:10;}
	.st21{fill:#FFFFFF;stroke:#2A2A2A;stroke-width:22;stroke-miterlimit:10;}
	.st22{fill:none;}
	.st23{fill:none;stroke:#212D33;stroke-width:50;stroke-miterlimit:10;}
</style>
<g>
	<path class="st22" d="M57.6,237.5c0,61.6,0,123.1,0,184.7c0,18.3,8.9,27.3,27.1,27.3c9.9,0,19.7,0,29.6,0L252.8,311
		c-54.2,0-108.4,0-162.7,0c0-14.9,0-29.8,0-45.1c69.2,0,138.4,0,207.8,0l34.6-34.6c-91.6,0-183.1,0-275,0
		C57.6,233.5,57.6,235.5,57.6,237.5z"/>
	<path class="st22" d="M554.5,161.6c0-8.6-0.4-16.7,0.1-24.7c0.6-8.9-2.2-16.2-7.6-21.2l-45.9,45.9
		C518.9,161.6,536.7,161.6,554.5,161.6z"/>
	<path class="st22" d="M157.1,109c-25.1,0-50.2-0.1-75.3,0c-12.7,0.1-22.6,7.8-23.6,19.8c-1,10.8-0.2,21.7-0.2,32.8
		c114.8,0,229.4,0,344.2,0l52.7-52.7C355.6,109.1,256.3,109,157.1,109z"/>
	<path class="st4" d="M84.7,449.5c-18.2,0-27.1-9-27.1-27.3c0-61.6,0-123.1,0-184.7c0-2,0-4.1,0-6.3c91.8,0,183.4,0,275,0l69.6-69.6
		c-114.8,0-229.5,0-344.2,0c0-11.1-0.8-22.1,0.2-32.8c1.1-12,11-19.7,23.6-19.8c25.1-0.1,50.2,0,75.3,0c99.2,0,198.5,0.1,297.7,0
		l46-46C358,63,215.2,63,72.4,63c-11.4,2.6-22.4,5.8-32,13c-15.4,11.5-24.9,26.5-28,45.5c-0.1,0.9-0.7,1.7-1.1,2.5
		c0,103.2,0,206.3,0,309.5c0.4,1.5,0.9,2.9,1.2,4.4c4.8,29,27.9,52.8,57,56.3l44.7-44.7C104.4,449.5,94.6,449.5,84.7,449.5z"/>
	<path class="st4" d="M600.3,129.4c-1.1-18.5-7.9-34-20.5-46.4L547,115.8c5.4,4.9,8.2,12.3,7.6,21.2c-0.5,8-0.1,16.1-0.1,24.7
		c-17.8,0-35.6,0-53.3,0l-69.6,69.6c40.9,0,81.8,0,122.7,0c0.1,1.4,0.2,2.5,0.2,3.6c0,63.3,0,126.6-0.1,189.8
		c0,15.3-9.5,24.6-25,24.7c-14.2,0.1-28.4,0.1-42.6,0.1c-5.3,0-10.6,0-15.9,0c0,15.7,0,30.7,0,45.7c22.1,0,43.8,0.1,65.4-0.1
		c3.2,0,6.5-0.7,9.6-1.4c33-7.5,54.4-34.9,54.4-69.7c0.1-91.5,0-182.9,0-274.4C600.5,142.8,600.7,136.1,600.3,129.4z"/>
	<path class="st4" d="M282.9,520.7c-21.1-21.3-41.1-41.5-60.8-61.4c-11.2,11.1-21.8,21.8-32.2,32.1c38.6,38.6,77.8,77.8,116.5,116.5
		c38.9-38.9,78-78.1,116.5-116.6c-10.3-10.3-21-20.9-32.9-32.8c-20,20-40.5,40.4-61.2,61.1c0-61.8,0-123.6,0-185.5
		c-0.1,0-0.2,0-0.2,0l-45.6,45.6V520.7z"/>
	<path class="st4" d="M90.1,311c54.3,0,108.5,0,162.7,0l45.1-45.1c-69.4,0-138.6,0-207.8,0C90.1,281.2,90.1,296.1,90.1,311z"/>
	<path class="st4" d="M393.3,311c0-14,0-27.7,0-41.6L351.8,311C365.6,311,379.5,311,393.3,311z"/>
</g>
<line class="st23" x1="25.2" y1="587.9" x2="589" y2="24"/>
</svg>
