<?xml version="1.0" encoding="utf-8"?>
<!-- Generator: Adobe Illustrator 17.0.0, SVG Export Plug-In . SVG Version: 6.00 Build 0)  -->
<!DOCTYPE svg PUBLIC "-//W3C//DTD SVG 1.1//EN" "http://www.w3.org/Graphics/SVG/1.1/DTD/svg11.dtd">
<svg version="1.1" id="Capa_1" xmlns="http://www.w3.org/2000/svg" xmlns:xlink="http://www.w3.org/1999/xlink" x="0px" y="0px"
	 width="612px" height="612px" viewBox="1992.5 0 612 612" enable-background="new 1992.5 0 612 612" xml:space="preserve">
<g>
	<g>
		<path fill="#212D33" d="M2514.789,89.768C2456.936,31.915,2380.197,0,2298.438,0s-158.618,31.795-216.352,89.648
			c-111.523,111.523-119.531,289.624-20.201,410.351c-13.746,28.09-30.002,46.737-48.171,55.702
			c-11.116,5.498-17.452,17.571-15.659,29.883c1.912,12.431,11.355,21.994,23.787,24.026c6.813,1.076,14.105,1.673,21.635,1.673l0,0
			c37.533,0,76.978-12.909,109.969-35.62c44.346,23.787,94.191,36.337,144.991,36.337c81.759,0,158.499-31.795,216.352-89.648
			S2604.438,387.64,2604.438,306S2572.523,147.502,2514.789,89.768z M2490.285,497.967
			c-51.279,51.279-119.412,79.369-191.848,79.369c-48.41,0-95.984-12.909-137.341-37.294c-2.749-1.554-5.738-2.391-8.726-2.391
			c-3.706,0-7.531,1.315-10.638,3.586c-39.326,30.361-78.771,34.903-96.103,35.262c20.679-15.42,37.891-39.206,52.474-72.436
			c2.749-6.096,1.554-13.388-2.988-18.408c-94.788-107.22-89.768-270.499,11.475-371.742
			c51.279-51.279,119.412-79.488,191.848-79.488c72.555,0,140.569,28.209,191.848,79.488
			C2596.19,219.938,2596.19,392.182,2490.285,497.967z"/>
		<path fill="#212D33" d="M2376.133,165.79c-27.731,0-53.669,10.758-73.273,30.361l-4.303,4.303l-4.303-4.303
			c-19.603-19.603-45.661-30.361-73.273-30.361c-27.612,0-53.55,10.758-73.033,30.241c-19.603,19.603-30.361,45.661-30.241,73.153
			c0,27.731,10.877,53.55,30.361,73.153l138.298,138.298c3.347,3.347,7.77,5.14,12.192,5.14c4.303,0,8.845-1.673,12.192-5.02
			l138.656-138.178c19.603-19.603,30.361-45.661,30.361-73.153c0-27.731-10.758-53.67-30.241-73.273
			C2429.683,176.667,2403.625,165.79,2376.133,165.79z M2424.663,318.192l-126.345,125.866l-126.105-126.105
			c-13.029-13.029-20.201-30.361-20.201-48.888s7.172-35.74,20.081-48.649s30.241-20.081,48.649-20.081s35.74,7.172,48.888,20.201
			l16.615,16.615c6.813,6.813,17.691,6.813,24.504,0l16.495-16.495c13.029-13.029,30.361-20.201,48.888-20.201
			c18.288,0,35.62,7.172,48.649,20.201c13.029,13.029,20.201,30.361,20.081,48.649
			C2444.864,287.831,2437.692,305.163,2424.663,318.192z"/>
	</g>
</g>
</svg>
