<?xml version="1.0" encoding="utf-8"?>
<!-- Generator: Adobe Illustrator 21.1.0, SVG Export Plug-In . SVG Version: 6.00 Build 0)  -->
<svg version="1.1" id="Capa_1" xmlns="http://www.w3.org/2000/svg" xmlns:xlink="http://www.w3.org/1999/xlink" x="0px" y="0px"
	 viewBox="0 0 612 612" style="enable-background:new 0 0 612 612;" xml:space="preserve">
<style type="text/css">
	.st0{fill:#FFFFFF;}
	.st1{fill:#304A54;}
	.st2{fill:#FAFCFC;}
	.st3{fill:#FFFFFF;stroke:#FFFFFF;stroke-width:0.75;stroke-miterlimit:10;}
	.st4{fill:#212D33;}
</style>
<g>
	<path class="st3" d="M285.9,585.2c-0.1-1.8-0.3-3.2-0.3-4.5c0-51.2,0.1-102.5,0.2-153.7c0-5.9,0.6-11.7,0.7-17.6
		c0.1-6,2.8-10.4,8-12.9c5.6-2.7,11.3-5.1,17.3-6.7c10.2-2.7,18.9-7.5,25.9-15.2c19.6-21.6,39.4-43,58.4-65
		c14-16.2,19.9-36,22.8-56.8c1.3-9,2.3-18.1,3.3-27.2c1-9.3,5.8-13.8,15.2-14.1c25.8-0.8,49.3,20.8,51.8,47.4
		c1.4,14.7-1.3,28.8-5.6,42.8c-4.9,16-9.6,32-14.4,48c-0.4,1.3-0.6,2.6-0.9,4.2c18.1-1,35.7-1.8,53.3-3.1c13.4-1,26.8-2.1,40.2,0.5
		c22.8,4.4,36.1,23.1,32.6,46.2c-2.3,15.3-4.6,30.7-6.9,46c-4.8,31.2-9.6,62.3-14.4,93.5c-7.3,47.9-43.2,67-77.7,70.1
		c-24.8,2.2-49.2-1.3-73.6-4.8c-36.5-5.2-72.9-11.2-109.4-16.5c-6.6-1-13.4-0.4-20.1-0.5C290.2,585.2,288.2,585.2,285.9,585.2z
		 M446.6,238.4c-1.1,7.3-2,14-3,20.8c-3.8,24.6-11.6,47.7-28,66.8c-19,22.1-38.8,43.5-58.4,65.1c-10.7,11.8-23.7,20-39.4,23.3
		c-5.2,1.1-6.7,3.6-6.7,8.8c0.2,44,0,87.9,0,131.9c0,1.3,0.2,2.7,0.3,4.2c1.5,0.3,2.8,0.8,4.1,1c40.7,6.1,81.4,12.5,122.2,18.3
		c19.6,2.8,39.4,5,59.3,2.5c22.2-2.8,45.5-15.1,50.5-46.1c1.6-9.7,3-19.4,4.5-29.1c5.7-37.5,11.5-74.9,17.1-112.4
		c1.5-10-2.9-16.1-12.9-17.3c-7.6-0.9-15.5-1-23.2-0.7c-13.4,0.5-26.8,1.6-40.2,2.4c-5.7,0.4-11.6-0.1-17,1.3
		c-18.2,5-39.1-12.6-31.4-35.8c5.6-17,10.8-34.2,15.4-51.5c2.3-8.6,4.1-17.5,4.2-26.4C464.3,253.5,458.5,244.2,446.6,238.4z"/>
	<path class="st3" d="M338.8,198.4c0,40.4,0,80.8,0,121.1c0,1,0.3,2.1-0.1,2.9c-0.8,2.1-1.4,5.2-3,5.9c-1.5,0.7-4.7-0.6-6.2-2
		c-12.7-12.3-25.2-24.9-37.8-37.4c-5.2-5.2-10.2-10.7-15.8-15.5c-2.6-2.2-6.6-4.2-9.9-4.2c-39.7,0-79.4-0.2-119.1,0.7
		c-55.7,1.2-103.9-28.9-125.3-79.5c-6.3-14.7-7.7-30.6-8.3-46.3c-0.9-21.8-1.3-43.6-1.1-65.5c0.4-39,30.4-68.5,69.5-68.8
		c26.8-0.2,53.5,0.1,80.3,0.1C198,10,234.1,9.6,270.2,9.6c29.4,0,56.3,19.2,64.9,46.9c2.4,7.7,3.4,16.1,3.5,24.2
		C339,119.9,338.8,159.2,338.8,198.4z M312.9,273.8c0.1-2.7,0.3-4.3,0.3-5.9c0-62.7,0-125.4,0-188c0-26.4-19.3-45.1-45.7-44.6
		c-9,0.2-18,0.4-27.1,0.4c-52.7,0-105.3,0-158,0c-25.6,0-44.4,18.3-44.7,43.8c-0.2,21.2-0.2,42.3,1,63.5c0.7,12.2,2,24.9,6.1,36.2
		c14.6,39.6,55,65.8,97.1,65.3c40.7-0.6,81.4-0.4,122.1-0.9c12.8-0.2,23.3,4,32,13.4C301.1,262.5,306.7,267.7,312.9,273.8z"/>
	<path class="st3" d="M257.4,486.3c0,32.4,0,64.8,0,97.3c0,12.1-6,18.1-18.1,18.1c-20.9,0-41.7,0-62.6,0c-12.1,0-18.2-6-18.2-18.1
		c0-65,0-130,0-195.1c0-12.4,6.1-18.4,18.4-18.4c20.7,0,41.4,0,62.1,0c12.5,0,18.4,5.9,18.4,18.4
		C257.4,421.1,257.4,453.7,257.4,486.3z"/>
	<path class="st3" d="M154.1,163.6c0.9-3.6,1.5-7.6,2.9-11.4c1.6-4.2,0.4-6.9-3.1-9.3c-3-2.1-5.8-4.5-8.4-7.2
		c-1.1-1.1-2-3.5-1.6-4.7c0.4-1.3,2.6-2.5,4.2-2.7c3.6-0.6,7.3-0.7,11-0.7c4.2,0,6.9-1.3,8.1-5.7c1-3.5,2.5-6.9,4.2-10.2
		c0.8-1.4,2.7-3.4,3.8-3.2c1.6,0.2,3.5,1.9,4.2,3.5c1.9,3.8,2.9,8,4.9,11.7c1,1.8,3.5,3.5,5.6,3.9c4.1,0.9,8.5,0.6,12.6,1.3
		c1.5,0.2,3.6,1.7,4,2.9c0.4,1.3-0.6,3.9-1.8,4.6c-11.3,6.4-14.7,15.2-9.1,27.2c0.6,1.2-0.2,4-1.3,4.8c-1.1,0.8-4,0.8-4.9-0.1
		c-9.8-9.1-19.1-9.1-29.2-0.2C157.1,170.7,153.7,168.2,154.1,163.6z"/>
	<path class="st3" d="M237.2,163.7c1-3.8,1.9-8.3,3.3-12.7c0.9-3.1,0.3-5.2-2.3-7.1c-3.3-2.4-6.4-5-9.3-7.9
		c-1.1-1.1-2.4-3.6-1.9-4.6c0.7-1.4,3.1-3.2,4.5-3c13,1.7,20.4-3.7,23-16.4c0.3-1.4,2.7-3.1,4.3-3.3c1.1-0.1,3,1.8,3.7,3.3
		c1.8,3.6,3.3,7.4,4.6,11.3c1.1,3.3,2.9,4.7,6.4,4.7c4.2,0,8.5,0.4,12.7,1c4.3,0.7,5.3,4.1,2.2,7.2c-2.2,2.2-4.6,4.4-7.2,6
		c-5.1,3.2-6.9,7.1-4.3,12.9c1.2,2.7,1.8,5.7,2.1,8.6c0.2,1.6-0.3,4-1.4,4.8c-1.1,0.8-4,0.8-5-0.2c-9.8-9.2-19.2-8.9-29.3-0.1
		C240.4,170.6,237.1,168.3,237.2,163.7z"/>
	<path class="st3" d="M70.7,163.9c1.1-4.4,2.6-8.8,3.2-13.3c0.3-2.1-0.7-4.9-2.1-6.4c-2.8-3.1-6.5-5.4-9.5-8.4
		c-1.1-1.1-2.1-3.4-1.7-4.7c0.4-1.3,2.8-3,4.1-2.8c13.4,1.8,21-3.9,23.7-17c0.2-1.2,2.6-2.7,4.1-2.8c1.1-0.1,2.9,1.6,3.5,2.9
		c1.9,4,3,8.4,5.1,12.2c1,1.8,3.5,3.6,5.5,4c4.1,0.9,8.4,0.6,12.6,1.3c1.5,0.2,3.6,1.6,4,2.9c0.4,1.3-0.6,4-1.7,4.6
		c-11.4,6.4-14.5,15.2-9.1,27.2c0.6,1.2-0.2,4-1.3,4.7c-1.1,0.8-4,0.8-4.9-0.1c-9.8-9.1-19.1-9.1-29.2-0.2
		C73.9,170.7,70.4,168.1,70.7,163.9z"/>
</g>
</svg>
