<?xml version="1.0" encoding="utf-8"?>
<!-- Generator: Adobe Illustrator 21.1.0, SVG Export Plug-In . SVG Version: 6.00 Build 0)  -->
<svg version="1.1" id="Capa_1" xmlns="http://www.w3.org/2000/svg" xmlns:xlink="http://www.w3.org/1999/xlink" x="0px" y="0px"
	 viewBox="0 0 612 612" style="enable-background:new 0 0 612 612;" xml:space="preserve">
<style type="text/css">
	.st0{fill:#FFFFFF;}
	.st1{fill:#304A54;}
	.st2{fill:#FAFCFC;}
	.st3{fill:#FFFFFF;stroke:#FFFFFF;stroke-width:0.75;stroke-miterlimit:10;}
	.st4{fill:#212D33;}
	.st5{fill:#FFFFFF;stroke:#212D33;stroke-miterlimit:10;}
	.st6{fill:#212D33;stroke:#212D33;stroke-miterlimit:10;}
	.st7{fill:#03898F;}
	.st8{fill:#2A2A2A;}
	.st9{fill:#29BF29;}
	.st10{fill:#2DA9F6;}
	.st11{fill:#45707F;}
	.st12{fill:#2B393F;}
	.st13{fill:#FCFCFC;}
	.st14{fill:#FBFBFB;}
	.st15{fill:#FEFEFE;}
	.st16{fill:#292929;}
	.st17{fill:#FFA500;}
</style>
<g>
	<path class="st11" d="M50.8,156.1c49.4-28.9,98.8-57.7,148.1-86.7c10.9-6.4,21.4-13.4,32-20.2c7.7-6.5,15.8-12.3,26-14.3
		c13.4-7.5,27-14.7,40.2-22.6c5.7-3.4,10-3.4,15.9,0c81.4,47.1,162.9,94.1,244.5,140.8c6.4,3.6,8.3,8,8.3,15
		c-0.2,92.8-0.1,185.7-0.1,278.5c0,3.5,1.6,7.6-2.3,10.3c-8.5-4.7-6-13-6.1-20c-0.3-64.4-0.2-128.8-0.2-193.2
		c0-19.1,0.2-38.2-0.1-57.3c-0.2-12.3-3.6-14.1-14.4-8c-51.4,28.8-101.4,60.1-152.8,89c-23.1,13-46.3,26.1-69.1,39.6
		c-3.8,2.3-7.8,5-12.7,4.5c-9,1.5-16.1-3.5-23.2-7.6c-62.7-36.6-126-72.4-188.5-109.3c-13.2-7.8-27.6-13.5-39.4-23.8
		C52.4,166.7,48,163,50.8,156.1z"/>
	<path class="st4" d="M306,306.8c26.1-14.6,52.3-28.9,78.2-43.8c36.7-21.1,73.2-42.6,109.7-64c17.9-10.5,35.7-21.3,54-31.2
		c14.6-7.9,15.3-7.1,15.3,9.4c0,93.2,0.1,186.4,0.1,279.6c-48.9,28.4-97.8,56.8-146.7,85.1c-33.8,19.6-67.7,39.1-101.6,58.6
		c-2.8,1.6-5.4,4-9.1,3.6c-3.7-4.5-6.5-8.9-6.4-15.5c0.5-86.3,0.1-172.6,0.4-258.9C299.9,321.8,298.2,313,306,306.8z"/>
	<path class="st12" d="M306,306.8c0,99.1,0,198.3,0,297.4c-23-9.9-43.6-23.9-65.3-36.2c-61.5-35-122.6-70.6-184.1-105.6
		C49.4,458.3,46,454,46,445.1c0.4-91.6,0.2-183.2,0.4-274.8c0-5-2.5-11.2,4.3-14.3c14.8,17.8,36.4,25.6,55.4,37
		c37,22.1,73.6,45,111.7,65.2C247.6,273.9,275,293.6,306,306.8z"/>
	<path class="st13" d="M316.8,181.1c19.3-11.1,35.7-20.5,52.1-29.9c20-11.4,20.4-11.4,39.5,5c-14.2,8.4-28.1,16.5-41.9,24.6
		c-18.3,10.7-37.2,20.5-54.8,32.1c-12.3,8.1-19.1-1.6-27.9-5.5c-8.7-3.9-3.9-10.6-2.7-16.2c3.7-17.7,7.8-35.3,12.5-56.2
		c-18.7,10.9-34.3,20.1-50,29.2c-19.5,11.3-19.5,11.3-38.8-3.6c1.3-4.6,5.8-5.6,9.2-7.6c28.7-16.8,57.9-32.7,86-50.4
		c11.7-7.4,18.4,0.2,26.9,4.5c8.3,4.2,3.8,10.6,2.6,16.3C325.6,141.6,321.5,159.7,316.8,181.1z"/>
	<path class="st14" d="M487.1,377c0.5,32.3-36.1,72-68.3,74.3c-16.8,1.2-29.6-9.6-32.7-27.6c-7.4-42.9,26.7-101.2,67.7-115.9
		c0.4-0.1,0.8-0.3,1.2-0.4c8.4-2.2,19.4-6.9,24.4,1c4.4,7-4.9,15.5-7.8,23.5c-1.1,3-3.7,2.3-6.3,2.4c-28.9,1.4-53,26.3-54.1,55.9
		c-0.4,11.1-2.6,23.7,9.8,29.9c12,5.9,21-3.1,30.5-8.9c10.8-6.5,11.9-16.5,10.4-27c-2-13.6,3.2-21.8,15.5-27.3
		c6.6-2.9,10.1-3.8,9.7,5.1C486.9,367.1,487.1,372.1,487.1,377z"/>
	<path class="st14" d="M221.6,468.3c-26.7-5.6-34.3-25.6-42.5-45.3c-4.2-10.1-6.5-21.5-18-27.4c-7.3-3.8-9.7-2.8-9.1,5.3
		c0.3,3.7,0.5,7.6-0.2,11.2c-1,5.2,3.4,12.5-3.6,15.3c-4.9,2-19.7-11.5-19.7-17.4c-0.2-18.3-0.1-36.6-0.1-54.9
		c0-17.9,0.2-35.8,0-53.6c-0.1-7.1,1.7-9.3,8.4-5.2c16.9,10.5,34.9,19.2,51,31.1c22.1,16.4,30.9,38.4,28.1,65.3
		c-0.8,7.6-2.9,15.2-11.6,17.4c-7.3,1.8-6.6,5.3-4,10.7C207.4,436.2,214.1,451.6,221.6,468.3z"/>
	<path class="st12" d="M152.4,349.5c1.2-5.6-2.7-13.5,2.5-16.2c4.8-2.5,10.2,3.9,15.1,6.6c12.7,6.7,22.8,15.4,21.5,31.8
		c-0.7,9.2-4.9,13.2-13.9,8.8c-6.7-3.3-13.1-7.2-19.6-10.8C149.1,364.8,154.1,356.3,152.4,349.5z"/>
</g>
</svg>
