<?xml version="1.0" encoding="utf-8"?>
<!-- Generator: Adobe Illustrator 21.1.0, SVG Export Plug-In . SVG Version: 6.00 Build 0)  -->
<svg version="1.1" id="Capa_1" xmlns="http://www.w3.org/2000/svg" xmlns:xlink="http://www.w3.org/1999/xlink" x="0px" y="0px"
	 viewBox="0 0 612 612" style="enable-background:new 0 0 612 612;" xml:space="preserve">
<style type="text/css">
	.st0{fill:#FFFFFF;}
	.st1{fill:#304A54;}
	.st2{fill:#FAFCFC;}
	.st3{fill:#FFFFFF;stroke:#FFFFFF;stroke-width:0.75;stroke-miterlimit:10;}
	.st4{fill:#212D33;}
	.st5{fill:#FFFFFF;stroke:#212D33;stroke-miterlimit:10;}
	.st6{fill:#212D33;stroke:#212D33;stroke-miterlimit:10;}
	.st7{fill:#03898F;}
	.st8{fill:#2A2A2A;}
</style>
<g>
	<path class="st8" d="M19.5,305.6C19.7,148.2,148.7,19.3,305.9,19.5c158.3,0.2,287.6,129.8,286.7,287.2
		c-0.9,157.7-128.8,285.4-286.1,285.8C148.6,592.9,19.3,463.6,19.5,305.6z M153.3,105.1C263.8,231.8,373.9,358,484,484.3
		c82.1-76.7,106.8-222.7,22.4-332.1C415.6,34.5,254.9,25.6,153.3,105.1z M458.8,506.4C348.6,380,238.3,253.6,128.1,127.1
		c-92.7,89.6-104.5,247.3-6.3,351.7C220.6,584,372.2,577.1,458.8,506.4z"/>
	<path class="st8" d="M419.5,225.1c26.4,5.8,52.3,11.4,78.2,17c0.7,0.1,1.4,0.3,2,0.6c24.8,9.6,19.1,4.2,25.2,29.8
		c1.1,4.8,0,8.3-4.8,9.8c-16.8,5.6-33.5,11.6-50.5,16.4c-11.2,3.1-23,4.4-33.7,6.3c2.4,17.5,4.9,34.8,7.4,53.1
		c26.4-0.7,54.4,4,81.7-9.7c-5.9,34.7-19,64.7-39,93.1c-88.8-101.8-177-202.9-266.5-305.6c8.8-4,16.3-8.8,24.4-11
		c39.7-10.9,80-11.7,119.7-1.1c35,9.3,52.2,32.9,54.6,70.5C418.8,204.9,419.1,215.5,419.5,225.1z"/>
	<path class="st8" d="M419.1,503c-66.3,36.3-133.8,41.8-202.2,11.6C145.2,482.9,103,426.4,86.4,347.9c28.8,13.7,57.7,9.9,85.2,10.2
		c2.5-18.2,4.9-35.4,7.4-52.9c-12.7-2.4-26.5-4.2-39.7-7.8c-15.2-4.2-30.1-10-45-15.4c-6.2-2.3-7.3-6.6-6.6-13.7
		c1.3-13.1,8.1-20,20-22.8c22.1-5.4,44.4-10.4,66.5-15.8c4.8-1.2,7.6,0.9,10.6,4.3c41.8,48.1,83.7,96.1,125.6,144.1
		c32.6,37.4,65.3,74.8,97.9,112.2C411.5,494.2,414.8,498,419.1,503z"/>
</g>
</svg>
