<?xml version="1.0" encoding="utf-8"?>
<!-- Generator: Adobe Illustrator 21.1.0, SVG Export Plug-In . SVG Version: 6.00 Build 0)  -->
<svg version="1.1" id="Capa_1" xmlns="http://www.w3.org/2000/svg" xmlns:xlink="http://www.w3.org/1999/xlink" x="0px" y="0px"
	 viewBox="0 0 612 612" style="enable-background:new 0 0 612 612;" xml:space="preserve" width="612" height="612">
<style type="text/css">
	.st0{fill:#FFFFFF;}
	.st1{fill:#304A54;}
	.st2{fill:#FAFCFC;}
	.st3{fill:#FFFFFF;stroke:#FFFFFF;stroke-width:0.75;stroke-miterlimit:10;}
	.st4{fill:#212D33;}
	.st5{fill:#FFFFFF;stroke:#212D33;stroke-miterlimit:10;}
	.st6{fill:#212D33;stroke:#212D33;stroke-miterlimit:10;}
	.st7{fill:#03898F;}
	.st8{fill:#2A2A2A;}
</style>
<g>
	<path class="st8" d="M594.5,447.5c-3.3,3.3-6.1,7.1-9.8,9.8c-22.2,16.3-47.7,25.9-73.9,33.5c-40.3,11.8-81.5,18.2-123.2,22
		c-41.2,3.8-82.4,4.9-123.7,3.2c-59.4-2.6-118.1-9.3-174.9-28.1c-23.1-7.6-45.2-17.3-64.4-32.6c-2.7-2.2-4.7-5.2-7.1-7.8
		c0-19.9,0-39.8,0-59.7c1.8-5.2,5.1-5.1,9.1-2.4c1.1,0.7,2.3,1.3,3.4,2c20.8,14.3,43.8,23.7,67.8,31c49.1,15,99.6,21.7,150.7,24.5
		c70.5,3.9,140.7,0.8,210.3-12.2c44.4-8.3,87.8-19.8,126.2-45.2c5.8-3.9,6.7-3.3,9.6,3.4C594.5,408.4,594.5,428,594.5,447.5z"/>
	<path class="st8" d="M17.5,328c8.4-25.6,30.1-36.7,52.2-46.8c28.5-13,58.7-20.4,89.4-26.1c35.8-6.6,72-10.4,108.4-11.6
		c3.6-0.1,7.3,0.3,10.9,0.5c0.1,0.7,0.3,1.5,0.4,2.2c-2.7,0.9-5.4,2.3-8.2,2.7c-18.2,2.4-36.5,4.3-54.7,6.9
		c-31,4.4-62,9.5-90.2,24.3c-13.2,6.9-24.6,15.9-30.1,30.5c-5.9,15.7-3.5,29.9,8.6,41.9c11.9,11.8,26.6,18.6,42,24.3
		c25.5,9.4,52,14.3,78.8,17.7c33,4.3,66.2,5.6,99.4,4.6c45.7-1.4,90.9-5.9,134.7-20.1c14.5-4.7,28.3-10.8,40.8-19.8
		c29.4-21.1,21.8-52.2,1.9-68.9c-15.4-12.8-33.5-20.2-52.7-24.2c-26.9-5.6-54.2-9.4-81.4-13.8c-9.4-1.5-19-2.3-28.5-3.6
		c-2.2-0.3-4.3-1.5-6.5-2.3c0-0.7,0.1-1.4,0.1-2.2c2.7-0.3,5.4-0.9,8.1-0.8c18.7,1.1,37.5,1.9,56.2,3.7c33.6,3.3,66.9,8.8,99.5,17.9
		c23,6.4,45.5,14.2,66,26.6c10,6.1,19.4,13.1,25.7,23.2c2.5,4,4.1,8.7,6.1,13.1c0,3,0,6,0,9c-5.5,22.2-22,34.3-41,43.3
		c-13.5,6.4-27.6,11.8-41.9,16.1c-48.8,14.5-99,20.2-149.7,22.8c-71.6,3.8-142.9,1.2-213.6-11.4c-29.2-5.2-58-12.2-84.9-24.9
		c-20.7-9.8-39.8-21.4-46-45.9C17.5,334,17.5,331,17.5,328z"/>
	<path class="st8" d="M305.8,95.2c2.3,3.4,3.8,5.2,4.9,7.3c6.9,13.3,13.8,26.7,20.4,40.1c2.4,4.9,5.2,6.1,10.3,3.9
		c16.7-7.1,33.6-14,50.4-20.8c2.3-0.9,6.6-1.6,7.5-0.5c2.2,2.8,3.4,6.7,3.8,10.2c0.1,1.2-3.3,3.2-5.4,4.1
		c-17.1,7.2-34.3,14.1-51.4,21.4c-2.8,1.2-5.8,3.2-7.4,5.6c-10.2,15.6-19,31.9-21.3,50.9c-1.8,15.1,0.5,29.9,3.5,44.7
		c5.2,25.7,10.3,51.4,15.5,77.1c1.3,6.5-1.2,11.3-6.1,15.3c-12.6,10.3-36.1,10.7-49.2,1c-6.3-4.6-7.8-10.8-6.4-17.9
		c3.8-19.5,7.8-38.9,11.5-58.5c2.8-14.5,5.7-29.1,7.6-43.7c2.1-15.2-1.7-29.8-7.4-43.9c-2-4.8-5.2-4.5-9.1-2.8
		c-19.1,7.8-38.2,15.6-57.3,23.4c-6.4,2.6-12.7-2.2-11.5-9.2c0.3-1.7,3.1-3.5,5.1-4.4c18.1-7.6,36.3-15.3,54.7-22.3
		c6.5-2.5,9.8-6.3,11.9-12.6c6.8-19.9,14.1-39.5,21.3-59.3C302.6,101.8,303.9,99.4,305.8,95.2z"/>
	<path class="st8" d="M156.7,317.9c30.9-23.2,67.4-31,104.3-37.8c0.3,0.6,0.7,1.2,1,1.7c-1.8,1.4-3.4,3-5.3,4.1
		c-19.9,11.8-38.9,24.8-55.9,40.7c-1.2,1.1-3.3,2-4.8,1.7c-11.9-2.4-23.8-5.1-35.6-7.7c-1.1-0.2-2.1-0.7-3.2-1
		C157,319.1,156.8,318.5,156.7,317.9z"/>
	<path class="st8" d="M185.2,350.9c0,12.4-8.5,20.9-20.8,20.9c-11.8,0-20.4-8.8-20.4-20.8c0-12.3,8.5-20.8,20.9-20.7
		C176.9,330.3,185.3,338.8,185.2,350.9z"/>
	<path class="st8" d="M376.8,271.7c7.7,0.1,12.5,4.9,12.5,12.6c0,7.9-5.3,13.2-12.9,13c-7.2-0.2-12.5-5.8-12.5-13.2
		C364,276.7,369.3,271.6,376.8,271.7z"/>
	<path class="st8" d="M431.4,294.1c-0.1,7-4.7,11.6-11.7,11.6c-7.1,0-12.1-5.1-11.9-12.1c0.2-7,5.4-11.9,12.4-11.6
		C427.1,282.2,431.5,287,431.4,294.1z"/>
	<path class="st8" d="M457,316.7c-7,0.1-11.3-4.1-11.3-11c0-7,4.2-11.3,11.1-11.3c6.6,0,11.4,4.8,11.3,11.3
		C467.9,312.1,463.4,316.6,457,316.7z"/>
	<path class="st8" d="M494.4,313.5c5.4,0,9.3,3.7,9.5,8.9c0.2,5.4-4,9.8-9.3,9.9c-5.4,0.1-9.3-4.1-9.3-9.7
		C485.4,316.9,488.9,313.5,494.4,313.5z"/>
	<path class="st8" d="M475.9,341.5c5.2,0,8.3,3,8.4,8.3c0.1,5.2-3,8.5-8.1,8.6c-5.3,0.1-8.9-3.4-8.8-8.6
		C467.5,344.9,470.9,341.5,475.9,341.5z"/>
</g>
</svg>
