<?xml version="1.0" encoding="utf-8"?>
<!-- Generator: Adobe Illustrator 21.1.0, SVG Export Plug-In . SVG Version: 6.00 Build 0)  -->
<svg version="1.1" id="Capa_1" xmlns="http://www.w3.org/2000/svg" xmlns:xlink="http://www.w3.org/1999/xlink" x="0px" y="0px"
	 viewBox="0 0 612 612" style="enable-background:new 0 0 612 612;" xml:space="preserve">
<style type="text/css">
	.st0{fill:#FFFFFF;}
	.st1{fill:#304A54;}
	.st2{fill:#FAFCFC;}
	.st3{fill:#FFFFFF;stroke:#FFFFFF;stroke-width:0.75;stroke-miterlimit:10;}
	.st4{fill:#212D33;}
	.st5{fill:#FFFFFF;stroke:#212D33;stroke-miterlimit:10;}
	.st6{fill:#212D33;stroke:#212D33;stroke-miterlimit:10;}
	.st7{fill:#03898F;}
	.st8{fill:#2A2A2A;}
</style>
<g>
	<path class="st8" d="M312.7,19.5c10.2,2.6,20.3,5.4,30.6,7.7c60.7,13.6,121.5,27,182.2,40.5c12.3,2.7,19.2,11.7,19.3,25.2
		c0,70,0,140,0,209.9c0,35.3,0.6,70.5-0.1,105.8c-1.1,52-25.4,90.3-72.4,112.3c-50.9,23.9-102.8,45.8-154.1,68.8
		c-8.2,3.7-15.9,3.8-24.2,0.1c-51.4-23-103.2-44.9-154.1-68.8c-47-22-72-60.2-72.4-112.2c-0.8-104.1,0-208.2-0.4-312.4
		C66.9,79.1,74.8,70,91.2,66.4C160,51.5,228.7,36,297.4,20.7c1-0.2,2-0.8,3-1.2C304.5,19.5,308.6,19.5,312.7,19.5z M497.2,110.7
		c-1.8-0.6-3.1-1.1-4.6-1.5c-60.4-13.4-120.8-26.9-181.2-40.2c-3.5-0.8-7.5-0.8-11,0c-56,12.3-112.1,24.9-168.1,37.4
		c-5.6,1.3-13.4,0.9-16.2,4.5c-3,3.8-1.3,11.3-1.3,17.2c0,94.1-0.1,188.1,0,282.2c0,31.4,14.1,53.8,43,66.6
		c47.8,21.3,95.7,42.5,143.5,63.8c3.4,1.5,6.1,1.5,9.5,0c19.7-8.9,39.5-17.6,59.2-26.4c28.3-12.6,56.5-25.1,84.8-37.7
		c18.8-8.4,33-21.4,38.7-41.6c2.5-8.7,3.5-18,3.6-27c0.2-97,0.2-194.1,0.2-291.1C497.2,114.9,497.2,112.8,497.2,110.7z"/>
	<path class="st8" d="M401.8,200.8c11.8,11.7,22.8,22.7,33.5,33.3c-54.8,54.8-109.7,109.7-164.3,164.4
		c-30.4-30.4-61.2-61.3-91.6-91.7c10.6-10.6,21.6-21.7,32.6-32.8c19,19.2,38.6,38.9,58.1,58.6C314.6,288,358.3,244.2,401.8,200.8z"
		/>
</g>
</svg>
