<?xml version="1.0" encoding="utf-8"?>
<!-- Generator: Adobe Illustrator 21.1.0, SVG Export Plug-In . SVG Version: 6.00 Build 0)  -->
<svg version="1.1" id="Capa_1" xmlns="http://www.w3.org/2000/svg" xmlns:xlink="http://www.w3.org/1999/xlink" x="0px" y="0px"
	 viewBox="0 0 612 612" style="enable-background:new 0 0 612 612;" xml:space="preserve" width="612" height="612">
<style type="text/css">
	.st0{fill:#FFFFFF;}
	.st1{fill:#304A54;}
	.st2{fill:#FAFCFC;}
	.st3{fill:#FFFFFF;stroke:#FFFFFF;stroke-width:0.75;stroke-miterlimit:10;}
	.st4{fill:#212D33;}
	.st5{fill:#FFFFFF;stroke:#212D33;stroke-miterlimit:10;}
	.st6{fill:#212D33;stroke:#212D33;stroke-miterlimit:10;}
	.st7{fill:#03898F;}
	.st8{fill:#2A2A2A;}
</style>
<g>
	<path class="st4" d="M305.4,465.5c-80.9,0-161.8,0-242.7,0c-34.5,0-48.1-13.8-48.1-48.5c0-75.1,0-150.2,0-225.4
		c0-30.3,14.7-45.1,45-45.1c164.7,0,329.4,0,494.1,0c28.6,0,43.8,15.4,43.8,44.1c0,76.9,0,153.9,0,230.8c0,28.5-15.4,44-43.9,44
		C470.8,465.5,388.1,465.5,305.4,465.5z M472.7,351.8c5.8,1.1,11.4,2.7,16.9,2.9c8,0.3,16-0.6,24.1-0.6c17.1-0.2,31-16.1,23.6-30
		c-6.7-12.6-18-22.8-27.4-34c-6.4-7.6-15.5-13.9-19.4-22.6c-9.2-20.5-17-25.5-38.3-19.2c-9.2-11.9-20.5-15.7-34.9-8.6
		c-1.9,0.9-5.7-1-8.1-2.5c-12.3-7.7-22.5-6.6-33,3.6c-3.5,3.4-7.6,6-10.1,8.1c-6.8-5.2-11.8-11.1-18.1-13.5
		c-12.7-4.7-26-8-39.2-10.8c-10.9-2.3-21.4,0-30.4,7.4c-1.8,1.4-5.2,3.4-6.4,2.6c-14.1-9.3-26.5-5.4-39.7,6.8
		c-0.1-17.5-5.1-29.8-22.9-31.3c-16.7-1.4-23.7,12.9-35.9,24.3c4.5-16.2,4.9-28.6-8.5-36.4c-13.4-7.8-24.7-2.9-34.2,7.9
		c-8.5-12.7-17.9-16.9-30.4-13.7c-10.9,2.7-16,10.7-17.7,25.3c-1.2,10.3-2.5,20.8-5.3,30.7c-5,17.5-12.2,34.4-16.8,52
		c-4.4,17.2-7.6,34.9-9.7,52.6c-1.5,12.7,5.3,23.5,16.8,25.5c12.3,2.2,23.6,6.1,35.3,9.8c12.4,4,26.9,1,40.5,1.2
		c4,0.1,8.4-0.1,11.9,1.4c13.5,5.9,23.3,3.3,31.3-9.4c3.7-5.9,7.1-12.1,9.4-16.1c9.6,1.8,17.7,2.7,25.3,5c8.6,2.6,20,3.9,24.8,10.1
		c12.2,15.8,27.6,16.1,43.6,12.6c16-3.5,31.4-9.5,47.2-14.5c15.1,15.9,29.8,15.3,45.2-2c19.5,13.3,23.9,11.8,50.7-17.4
		C451.8,367.2,457.8,366.1,472.7,351.8z"/>
	<path class="st4" d="M136.4,312.4c0-15.3,0-29.4,0-44.4c17.1,0,33.4,0,50.7,0c0.5,5,1,10.1,1.6,16.4c-8.8,0-16.6-0.6-24.3,0.3
		c-3.7,0.4-7.1,3.6-10.6,5.5c3.2,2.3,6.3,6.2,9.8,6.5c16.4,1.7,26.2,11.1,26.3,26.7c0.2,13.4-10,24.9-23.4,26.4
		c-14.8,1.7-27.3-7.6-30.4-22.8c-0.2-1,0.2-2,0.4-3.6c7.7-0.4,15.3-3.1,20.9,5.8c1.3,2.1,7.8,2.9,10.3,1.5c2.4-1.4,4.7-7.2,3.7-9.6
		c-1.5-3.6-5.7-7.8-9.3-8.3C154.3,311.6,145.9,312.4,136.4,312.4z"/>
	<path class="st4" d="M353,322.1c8.8,3,15.3,5.3,21.8,7.3c2.2,0.7,5.5,1.5,6.8,0.5c1.8-1.5,3.5-5,3-7c-0.5-2-3.8-4.3-6.1-4.5
		c-10.8-1.3-18.9-5.5-22.9-16.4c-4.3-11.8-2.1-20.3,7.5-28.7c3.7-3.3,6.7-7.5,11-12.5c2.8,0,7.4,0,12.6,0
		c0,12.9,20.3,14.6,15.5,30.8c-6.8,0.9-13.9,3.9-20.1-3.6c-0.9-1-5.8,1.3-8.8,2c1.3,2.9,2.1,6.3,4.2,8.4c1.4,1.4,4.8,0.7,7.2,1.4
		c9.1,2.7,16.3,7.9,18.3,17.7c2.1,10,0.7,19.2-7.7,26.4c-3.5,3-6.5,6.7-10.8,11.3C370.8,356.7,357.6,345.1,353,322.1z"/>
	<path class="st4" d="M208.4,308.3c0-5.7-0.5-11.5,0.1-17.2c1.2-12,10-21,22-23.2c10.9-2,23.9,3.2,27.8,13.8
		c6.5,17.8,7.3,36.5-0.1,54.3c-4.7,11.3-16.5,15.7-28.8,13.4c-11.7-2.2-20.2-11.5-21.2-23.8c-0.5-5.7-0.1-11.5-0.1-17.2
		C208.3,308.3,208.3,308.3,208.4,308.3z M225.1,306.2c-0.2,0-0.5,0-0.7,0.1c0.4,6-0.4,12.5,1.5,18c1.3,3.7,6.3,7.7,10,8.2
		c2.4,0.3,7.6-5.3,8.1-8.8c1.3-9.8,1.7-20,0.6-29.8c-0.4-3.4-6.5-8.4-9.9-8.4c-3.2,0-7.4,5.3-9.2,9.1
		C223.9,297.7,225.1,302.2,225.1,306.2z"/>
	<path class="st4" d="M280.5,307.9c0-5-0.2-10,0-15c0.8-14.3,11.5-24.8,25.6-25.3c13.9-0.5,27,10.5,27.8,24.5
		c0.7,11.4,0.6,22.9-0.1,34.4c-0.7,12.8-13.3,23.4-26.5,23.5c-13.9,0.2-25.2-9.2-26.7-22.8c-0.7-6.4-0.1-12.9-0.1-19.3
		C280.5,307.9,280.5,307.9,280.5,307.9z M297,308.3c0,0,0.1,0,0.1,0c0,5.4-1.2,11.1,0.4,16c1.1,3.4,5.8,7.2,9.4,7.7
		c2.9,0.4,9-3.6,9.2-6c0.9-11.3,1-22.9-0.3-34.1c-0.3-2.7-7.1-6.7-10.5-6.3c-3.1,0.3-6.8,5.3-8.1,9C296,298.6,297,303.6,297,308.3z"
		/>
</g>
</svg>
