<?xml version="1.0" encoding="utf-8"?>
<!-- Generator: Adobe Illustrator 21.1.0, SVG Export Plug-In . SVG Version: 6.00 Build 0)  -->
<svg version="1.1" id="Capa_1" xmlns="http://www.w3.org/2000/svg" xmlns:xlink="http://www.w3.org/1999/xlink" x="0px" y="0px"
	 viewBox="0 0 200 2340" style="enable-background:new 0 0 200 2340;" xml:space="preserve">
<style type="text/css">
	.st0{fill:#FFFFFF;}
	.st1{fill:#304A54;}
	.st2{fill:#FAFCFC;}
	.st3{fill:#FFFFFF;stroke:#FFFFFF;stroke-width:0.75;stroke-miterlimit:10;}
	.st4{fill:#212D33;}
	.st5{fill:#FFFFFF;stroke:#212D33;stroke-miterlimit:10;}
	.st6{fill:#212D33;stroke:#212D33;stroke-miterlimit:10;}
	.st7{fill:#03898F;}
	.st8{fill:#2A2A2A;}
	.st9{fill:#29BF29;}
	.st10{fill:#2DA9F6;stroke:#2DA9F6;stroke-width:8;stroke-miterlimit:10;}
	.st11{fill:#45707F;}
	.st12{fill:#2B393F;}
	.st13{fill:#FCFCFC;}
	.st14{fill:#FBFBFB;}
	.st15{fill:#FEFEFE;}
	.st16{fill:#292929;}
	.st17{fill:#FFA500;}
	.st18{fill:#2DA9F6;}
	.st19{fill:#A2A2A2;}
	.st20{fill:none;stroke:#2A2A2A;stroke-width:20;stroke-miterlimit:10;}
	.st21{fill:#FFFFFF;stroke:#2A2A2A;stroke-width:22;stroke-miterlimit:10;}
	.st22{fill:none;}
	.st23{fill:none;stroke:#212D33;stroke-width:50;stroke-miterlimit:10;}
	.st24{fill:#990D0D;}
</style>
<g>
	<path class="st4" d="M175.6,1889.8c0,9,0,17.8,0,26.6c0,5,0,10,0,15c0,7.4-4.8,12.3-12.2,12.3c-17.1,0-34.1,0-51.2,0
		c-23.4,0-46.9,0-70.3,0c-8.2,0-12.9-4.6-12.9-12.8c0-13,0-25.9,0-38.9c0-0.7,0-1.3,0-2.2C77.9,1889.8,126.6,1889.8,175.6,1889.8z
		 M139.4,1927.2c7.6,4.8,14.5,4.3,19.4-1.4c4.3-5,4.5-12.6,0.2-17.5c-5-5.8-12.9-6.9-19.7-1.6c-6.4-4.1-13.2-2.2-16.9,2.1
		c-3.8,4.5-4,11.3-0.4,15.9C126.2,1929.9,132.2,1930.8,139.4,1927.2z M61.5,1926.5c5.5,0,11,0,16.6,0c1.3,0,2.8,0.1,2.9-1.7
		c0-1.9-1.5-1.8-2.8-1.8c-11,0-22.1,0-33.1,0c-1.3,0-2.8-0.1-2.8,1.8c0,1.9,1.5,1.8,2.8,1.8C50.5,1926.5,56,1926.5,61.5,1926.5z
		 M51.2,1915.1C51.2,1915.1,51.2,1915.1,51.2,1915.1c2.5,0,5,0.1,7.5-0.1c0.8-0.1,1.4-1.1,2.1-1.8c-0.7-0.6-1.3-1.6-2-1.6
		c-4.8-0.1-9.7-0.1-14.5,0c-0.7,0-1.4,1.2-2.1,1.8c0.7,0.6,1.5,1.5,2.2,1.6C46.6,1915.3,48.9,1915.1,51.2,1915.1z"/>
	<path class="st4" d="M175.6,1871.3c-48.9,0-97.6,0-146.2,0c0-5.1-0.6-10.3,0.2-15.3c0.8-5.5,5.7-8.5,11.8-8.5c19.7,0,39.4,0,59.1,0
		c20.6,0,41.3,0.1,61.9-0.1c8.4-0.1,13.7,5.8,13.2,13C175.4,1863.9,175.6,1867.4,175.6,1871.3z"/>
	<path class="st4" d="M175.4,1885.9c-48.8,0-97.4,0-146.2,0c0-3.6,0-7,0-10.7c48.7,0,97.3,0,146.2,0
		C175.4,1878.7,175.4,1882.2,175.4,1885.9z"/>
	<path class="st4" d="M134.4,1913.2c0.6-0.4,1.2-1.1,1.8-1.1c2.3-0.1,4.5-0.1,6.8-0.1c0.1-0.2,0.2-0.4,0.3-0.6
		c-0.6-0.4-1.1-1-1.8-1.1c-1.3-0.2-2.6,0.1-3.8-0.1c-0.5-0.1-1-0.8-1.3-1c3-1.1,5.6-2,8.2-2.9c4.8-1.7,10.1-0.1,13.1,4.1
		c3,4.2,2.8,9.9-0.5,13.9c-3.2,3.9-8.7,5.1-13.4,3.1c-2.3-1-4.6-1.7-7.4-2.7c0.3-0.2,0.7-1,1.3-1.1c1.2-0.2,2.4,0,3.6-0.1
		c0.7-0.1,1.3-0.5,2-0.8c-0.1-0.3-0.1-0.6-0.2-0.9c-2.3,0-4.6,0-6.8,0c-1.3,0-2.1-0.3-1.6-1.8c3.1-0.2,6.2-0.4,9.4-0.6
		c0.1,0,0.1-0.8,0.1-1.4c-1.9,0-3.6,0-5.3,0c-1.7,0-3.3,0-4.9,0c-0.7-1.6,0-1.9,1.2-1.9c2.5,0,5,0.1,7.5,0c0.5,0,1-0.6,1.5-0.9
		c-0.5-0.3-1-0.9-1.4-0.9c-2.6-0.1-5.3,0-7.9,0C134.7,1913.8,134.6,1913.5,134.4,1913.2z"/>
</g>
<g>
	<path class="st4" d="M24.5,1618.8c0-3.4-0.1-6.6,0.1-9.9c0-0.5,0.7-1.2,1.3-1.5c11.1-6,22.3-12,33.5-18c13.1-7,26.2-14,39.2-21.1
		c1-0.5,1.8-0.5,2.8,0c24.2,13,48.5,26,72.7,39c1,0.5,1.4,1.1,1.3,2.2c-0.1,3,0,6,0,9.2C125,1618.8,74.8,1618.8,24.5,1618.8z
		 M110.6,1592c0-5.8-4.8-10.8-10.6-10.8c-6,0-10.9,4.7-10.9,10.6c0,5.9,4.8,10.8,10.7,10.9C105.7,1602.8,110.6,1597.9,110.6,1592z"
		/>
	<path class="st4" d="M99.8,1659.3c19.5,0.1,35.1,15.6,35,35.1c0,19.4-15.8,35-35.2,34.9c-19.4-0.1-34.8-15.8-34.8-35.3
		C64.9,1674.8,80.7,1659.2,99.8,1659.3z M99.8,1723.9c16.4,0,29.6-13.1,29.7-29.6c0.1-16.3-13.2-29.7-29.4-29.7
		c-16.7,0-29.8,13.1-29.8,29.7C70.2,1710.7,83.5,1723.9,99.8,1723.9z"/>
	<path class="st4" d="M56.9,1635.1c0,13.6,0,26.9,0,40.4c0.9,0,1.7,0,2.5,0c1.8,0.1,2.7,1,2.8,2.7c0.1,1.8,0.1,3.6,0,5.4
		c-0.1,1.7-1,2.6-2.6,2.7c-5.4,0-10.8,0-16.2,0c-1.8,0-2.7-1-2.7-2.7c0-1.7,0-3.4,0-5c0-2.1,0.9-2.9,3-3c0.7,0,1.4,0,2.3,0
		c0-13.5,0-26.8,0-40.4c-0.9,0-1.7,0-2.5,0c-1.8-0.1-2.7-0.9-2.8-2.7c-0.1-1.7,0-3.5,0-5.2c0-1.9,0.9-2.8,2.8-2.8c5.3,0,10.7,0,16,0
		c1.8,0,2.7,1,2.7,2.7c0.1,1.7,0,3.4,0,5c0,2.1-0.9,2.9-3,3C58.4,1635.1,57.7,1635.1,56.9,1635.1z"/>
	<path class="st4" d="M142.9,1675.4c0-13.5,0-26.9,0-40.4c-0.9,0-1.7,0-2.5,0c-1.8-0.1-2.7-0.9-2.8-2.7c-0.1-1.8-0.1-3.6,0-5.4
		c0.1-1.7,1-2.7,2.8-2.7c5.3,0,10.7,0,16,0c1.8,0,2.7,1,2.8,2.9c0,1.6,0,3.1,0,4.7c0,2.3-0.9,3.1-3.2,3.2c-0.7,0-1.3,0-2.1,0
		c0,13.4,0,26.8,0,40.4c0.8,0,1.7,0,2.5,0c1.8,0.1,2.7,0.9,2.8,2.7c0.1,1.8,0.1,3.6,0,5.4c-0.1,1.7-1,2.7-2.8,2.7
		c-5.3,0-10.7,0-16,0c-1.8,0-2.7-1-2.8-2.9c0-1.6,0-3.1,0-4.7c0-2.3,0.9-3.1,3.1-3.2C141.4,1675.4,142,1675.4,142.9,1675.4z"/>
	<path class="st4" d="M89.1,1635c0,6.9,0,13.6,0,20.2c-3.6,1.5-7.1,3-10.7,4.5c0-8.1,0-16.3,0-24.7c-1,0-1.8,0-2.6,0
		c-1.8-0.1-2.7-0.9-2.8-2.7c-0.1-1.8-0.1-3.7,0-5.5c0.1-1.6,1-2.5,2.6-2.5c5.4,0,10.9,0,16.3,0c1.6,0,2.6,0.9,2.6,2.5
		c0.1,1.9,0.1,3.8,0,5.7c-0.1,1.6-1,2.4-2.6,2.5C91,1635.1,90.2,1635,89.1,1635z"/>
	<path class="st4" d="M121.5,1635.1c0,8.3,0,16.5,0,24.8c-3.6-1.5-7.2-3-10.8-4.6c0-6.5,0-13.3,0-20.2c-0.9,0-1.7,0-2.5,0
		c-1.9-0.1-2.8-1-2.8-2.8c0-1.7,0-3.5,0-5.2c0-1.8,0.9-2.7,2.7-2.7c5.3,0,10.7,0,16,0c1.9,0,2.8,0.9,2.8,2.8c0,1.6,0,3.3,0,4.9
		c0,2.2-0.9,3-3.1,3.1C123,1635.1,122.3,1635.1,121.5,1635.1z"/>
	<path class="st4" d="M24.5,1718.4c0-3.6,0-7,0-10.7c1.5,0,3,0,4.4,0c10.5,0,21,0,31.4,0c1.1,0,1.6,0.3,2.1,1.4
		c1.4,3.1,3,6.2,4.6,9.3C53,1718.4,38.9,1718.4,24.5,1718.4z"/>
	<path class="st4" d="M132.7,1718.4c1.6-3.3,3.2-6.6,4.9-9.9c0.2-0.3,0.7-0.7,1.1-0.7c12.1,0,24.2,0,36.4,0c0,3.6,0,7,0,10.7
		C160.9,1718.4,146.7,1718.4,132.7,1718.4z"/>
	<path class="st4" d="M167.1,1702.3c-9.2,0-18.3,0-27.3,0c0.2-3.5,0.4-7,0.6-10.6c8.7,0,17.7,0,26.8,0
		C167.1,1695.2,167.1,1698.7,167.1,1702.3z"/>
	<path class="st4" d="M59.3,1691.7c0.2,3.5,0.4,7,0.7,10.6c-9,0-18.1,0-27.3,0c0-3.4,0-6.9,0-10.6
		C41.6,1691.7,50.5,1691.7,59.3,1691.7z"/>
	<path class="st4" d="M94.5,1702.3c9.9,0,19.6,0,29.5,0c0,1.8,0,3.5,0,5.4c-9.7,0-19.5,0-29.4,0c0,2.7,0,5.3,0,8.1
		c-6.3-3.6-12.3-7.1-18.6-10.8c6.3-3.6,12.3-7.1,18.6-10.8C94.5,1697.1,94.5,1699.7,94.5,1702.3z"/>
	<path class="st4" d="M75.7,1686.3c0-1.9,0-3.6,0-5.4c9.8,0,19.6,0,29.5,0c0-2.7,0-5.3,0-8.2c6.3,3.7,12.3,7.1,18.6,10.8
		c-6.3,3.6-12.3,7.1-18.5,10.7c0-2.8,0-5.3,0-8C95.4,1686.3,85.6,1686.3,75.7,1686.3z"/>
</g>
<g>
	<path class="st4" d="M53,2165.2c-6.8,0.7-12.2,3.8-16.4,9.5c0-0.6,0-0.9,0-1.3c0-23.2,0-46.4,0-69.6c0-3.4,2.8-6.6,6.5-7.1
		c1.4-0.2,2.9-0.2,4.4-0.2c21.6,0,43.2,0,64.8,0c7.2,0,14.4,0,21.6,0c14.5,0,29,0,43.5,0.1c0.9,0,1.8,0.2,2.6,0.6
		c1.1,0.5,1.7,1.4,1.7,2.7c0,8.6,0,17.3,0,25.9c0,0.2,0,0.3,0,0.7c-1.1,0-2.1,0-3.1,0c-9.1,0-18.2-0.1-27.4,0
		c-11.2,0.1-19.9,9-19.7,20.2c0.1,8.4,6.4,16.3,14.6,18.2c1.8,0.4,3.6,0.7,5.4,0.7c9.6,0.1,19.3,0,28.9,0c0.4,0,0.8,0,1.4,0
		c0,0.4,0,0.8,0,1.1c0,6.8,0,13.5,0,20.3c0,2.1-1.2,3.5-3.3,3.6c-2,0.1-4,0.1-6,0.1c-9.2,0-18.4,0-27.7,0c-0.2,0-0.3,0-0.5,0
		c0.9-12.7-4.7-21-16.8-25c-0.2-1.6-0.2-3.3-0.5-4.9c-2-9.9-12.5-15.7-21.9-12.3c-0.7,0.3-1.1,0.2-1.6-0.4
		c-6.4-7.6-14.6-11.3-24.6-10.4c-12.8,1.1-22.8,10.3-25.3,22.9C53.3,2162,53.2,2163.5,53,2165.2z"/>
	<path class="st4" d="M67.9,2206.6c-4.5-0.1-9-0.2-13.5-0.3c-9.5-0.2-17.4-7.3-18.5-16.8c-1.3-10.6,6-20,16.6-21.3
		c0.6-0.1,1.3,0,1.9-0.1c1.2,0,1.8-0.6,1.8-1.8c-0.2-12.5,8.2-23.1,20.5-25.4c9.3-1.7,17.3,1.1,23.7,8.1c0.6,0.7,1.2,1.4,1.7,2.2
		c0.8,1.1,1.3,1.2,2.6,0.6c5.3-2.4,10.2-1.8,14.7,1.8c4,3.3,5.4,7.7,4.7,12.8c-0.2,1.3,0.2,1.8,1.5,2c8.1,1.8,13.4,6.6,15.3,14.7
		c1.4,6.2-0.2,11.9-4.1,16.8c-4.2,5.3-9.8,7.6-16.6,7.2C116.1,2206.9,68.5,2206.6,67.9,2206.6z"/>
	<path class="st4" d="M181.7,2129.5c0,11,0,21.9,0,32.9c-0.4,0-0.8,0-1.1,0c-9.8,0-19.7,0-29.5,0c-8,0-14.9-5.8-16.3-13.7
		c-1.6-9,4.5-17.5,13.5-19c0.9-0.2,1.8-0.2,2.7-0.2c9.9,0,19.8,0,29.7,0C181,2129.4,181.3,2129.4,181.7,2129.5z M149.6,2152.8
		c3.9,0.1,7.1-3,7.2-6.8c0.1-3.8-3-7-6.9-7.1c-3.6-0.1-7,3-7.1,6.4C142.6,2149.5,145.5,2152.7,149.6,2152.8z"/>
	<path class="st4" d="M156.5,2093.3c-26.1,0-51.9,0-77.9,0c0.7-1,1.4-1.9,2.1-2.9c7.7-10.4,15.3-20.8,23-31.2
		c0.5-0.6,0.9-1.3,1.4-1.9c0.7-1,1.3-1,2.3-0.3c3,2.2,6,4.4,8.9,6.6c13.1,9.7,26.3,19.3,39.4,29C155.8,2092.8,156,2093,156.5,2093.3
		z M101.6,2075c0.1,0,0.2,0.1,0.2,0.1c0,1.7,0.8,3,2.1,4c1.4,1,2.8,2.1,4.3,3.1c2.5,1.9,5.4,1.5,7.3-1c1.1-1.4,2.1-2.8,3.1-4.3
		c1.8-2.5,1.4-5.3-1.1-7.1c-1.4-1.1-2.8-2.1-4.3-3.1c-2.6-1.9-5.4-1.4-7.3,1.1c-1.1,1.5-2.2,2.9-3.2,4.4
		C102.3,2073,102,2074,101.6,2075z M129.2,2079.7c0-0.2-0.1-0.6-0.2-1c-0.2-1-0.8-1.4-1.7-1.3c-0.8,0.1-1.4,0.9-1.3,1.8
		c0.3,3.4-1.3,5.7-4.5,6.8c-0.5,0.2-1.1,0.7-1.2,1.2c-0.4,1.2,0.7,2.1,2,1.8C126.2,2087.9,129.2,2084,129.2,2079.7z M123.8,2078.9
		c0-0.1,0-0.2,0-0.3c-0.1-1.2-0.7-1.9-1.6-1.8c-1,0-1.5,0.7-1.5,2c0,1.3-0.5,2-1.9,2.4c-1,0.3-1.5,1.1-1.4,1.8
		c0.2,0.9,1,1.3,2.1,1.2C121.8,2083.8,123.8,2081.4,123.8,2078.9z"/>
	<path class="st4" d="M87.4,2076.1c-3.8,5.2-7.6,10.3-11.3,15.5c-1,1.4-2,1.9-3.7,1.8c-6.5-0.1-13,0-19.5,0c-0.4,0-0.7,0-1.3,0
		c1.4-1.9,2.6-3.5,3.8-5.2c5.2-7.1,10.5-14.2,15.7-21.3c1.2-1.6,1.5-1.6,3.1-0.5C78.5,2069.6,82.9,2072.8,87.4,2076.1z M81.3,2078.1
		c0-1.5-0.5-2.5-1.4-3.3c-1.3-1-2.5-1.9-3.8-2.8c-1.8-1.2-4-0.8-5.3,0.9c-0.9,1.2-1.8,2.4-2.7,3.7c-1.2,1.7-0.9,3.9,0.7,5.2
		c1.3,1,2.6,2,3.9,2.9c1.4,1,3.5,0.9,4.6-0.4c1.4-1.5,2.5-3.3,3.7-5C81.3,2078.9,81.3,2078.3,81.3,2078.1z"/>
	<path class="st4" d="M149.7,2149.7c2.3,0,4-1.6,4.1-3.8c0-2.1-1.8-3.9-4-4c-2.2,0-4,1.7-4,3.9
		C145.8,2148,147.4,2149.7,149.7,2149.7z"/>
	<path class="st4" d="M110,2068.4c-0.4,0.3-1,0.5-1.3,0.9c-1.2,1.5-2.2,3-3.3,4.5c-0.8,1.1-0.6,2,0.4,2.8c1.4,1.1,2.9,2.1,4.3,3.2
		c1.1,0.8,2,0.7,2.8-0.4c1.1-1.5,2.2-3,3.3-4.5c0.7-1,0.6-1.9-0.4-2.7c-1.5-1.1-3-2.3-4.6-3.4C111,2068.7,110.5,2068.6,110,2068.4z"
		/>
	<path class="st4" d="M74.8,2082.2c0.2-0.1,0.5-0.3,0.7-0.5c0.8-1.1,1.6-2.2,2.4-3.3c0.4-0.6,0.4-1.1-0.2-1.5
		c-1.1-0.8-2.2-1.6-3.3-2.4c-0.6-0.4-1-0.3-1.4,0.2c-0.8,1.1-1.6,2.2-2.4,3.3c-0.4,0.5-0.4,1,0.2,1.4c1.1,0.8,2.2,1.6,3.4,2.5
		C74.4,2082.1,74.6,2082.1,74.8,2082.2z"/>
	<path class="st4" d="M149.7,2149.7c-2.2,0-3.9-1.7-3.9-3.8c0-2.2,1.8-3.9,4-3.9c2.2,0,4,1.8,4,4
		C153.7,2148.1,151.9,2149.7,149.7,2149.7z"/>
	<path class="st4" d="M110,2068.4c0.5,0.2,0.9,0.3,1.2,0.5c1.5,1.1,3.1,2.2,4.6,3.4c1,0.7,1.1,1.7,0.4,2.7c-1.1,1.5-2.2,3-3.3,4.5
		c-0.8,1.1-1.7,1.2-2.8,0.4c-1.5-1.1-2.9-2.1-4.3-3.2c-1.1-0.8-1.2-1.7-0.4-2.8c1.1-1.5,2.2-3,3.3-4.5
		C109,2068.9,109.6,2068.7,110,2068.4z"/>
	<path class="st4" d="M74.8,2082.2c-0.3-0.1-0.5-0.2-0.6-0.3c-1.1-0.8-2.2-1.6-3.4-2.5c-0.5-0.4-0.5-0.9-0.2-1.4
		c0.8-1.1,1.6-2.2,2.4-3.3c0.4-0.5,0.8-0.6,1.4-0.2c1.1,0.8,2.2,1.6,3.3,2.4c0.6,0.4,0.6,0.9,0.2,1.5c-0.8,1.1-1.6,2.2-2.4,3.3
		C75.4,2082,75.1,2082.1,74.8,2082.2z"/>
</g>
<g>
	<path class="st4" d="M149.2,784.7c0,1.2,0,2.2,0,3.3c0,21.7,0,43.5,0,65.2c0,9.7-4.4,14.2-14.3,14.3c-1.8,0-3.6,0-5.7,0
		c0,7.5,0,14.8,0,22.1c0,1.3,0.1,2.7-0.2,4c-0.9,4.9-5.4,8.5-10.5,8.6c-5.4,0-9.9-3.3-10.8-8.5c-0.4-2-0.3-4-0.3-6
		c0-6.6,0-13.2,0-20c-4.9,0-9.6,0-14.6,0c0,3.4,0,6.7,0,10.1c0,4.2,0,8.5,0,12.7c0,7-4.5,11.8-11,11.8c-6.5,0-10.9-4.8-10.9-11.9
		c0-6.5,0-13.1,0-19.6c0-0.9,0-1.9,0-3.2c-2.8,0-5.4,0.1-7.9,0c-6.9-0.3-11.8-5.1-11.9-12c-0.1-23.1,0-46.2,0-69.3
		c0-0.5,0.1-0.9,0.2-1.6C83.7,784.7,116.2,784.7,149.2,784.7z"/>
	<path class="st4" d="M124.2,741.3c15.3,8.8,24.2,21.4,25,39.4c-32.9,0-65.5,0-98.3,0c0.7-18.1,9.7-30.6,25-39.4
		c-2.3-4.2-4.6-8.3-6.7-12.5c-0.4-0.9-0.1-2.2-0.1-3.2c0.9,0.6,2.2,1,2.7,1.8c2.4,4,4.6,8.2,6.9,12.6c6.9-2.8,13.9-4.3,21.3-4.3
		c7.4,0,14.5,1.4,21.4,4.4c2.4-4.3,4.6-8.6,7.1-12.7c0.5-0.8,1.8-1.2,2.7-1.7c0,1,0.3,2.2-0.1,3C128.9,732.9,126.5,737,124.2,741.3z
		 M77.8,763c2.1-0.1,4-2,4-4.1c0-2.4-1.9-4.1-4.3-4c-2.3,0.1-3.9,1.9-3.8,4.2C73.7,761.2,75.7,763.1,77.8,763z M126.4,758.9
		c0-2.3-1.7-4-4-4c-2.2,0-4.1,1.7-4.1,3.9c-0.1,2.2,1.9,4.3,4.2,4.3C124.6,763,126.4,761.1,126.4,758.9z"/>
	<path class="st4" d="M47.1,816.5c0,7.4,0,14.8,0,22.2c0,6.6-4.8,11.6-11,11.6c-6.1,0-10.8-4.9-10.8-11.5c0-14.9,0-29.8,0-44.7
		c0-6.8,4.7-11.5,11-11.5c6.3,0.1,10.8,4.8,10.8,11.4C47.1,801.5,47.1,809,47.1,816.5z"/>
	<path class="st4" d="M174.7,816.3c0,7.5,0,15,0,22.5c0,6.4-4.6,11.2-10.6,11.4c-6.1,0.2-11.2-4.6-11.3-11.1
		c-0.1-15.1-0.1-30.2,0-45.3c0-6.7,4.9-11.5,11.2-11.3c6.3,0.1,10.6,4.9,10.6,11.6C174.7,801.5,174.7,808.9,174.7,816.3z"/>
</g>
<g>
	<path class="st4" d="M172.7,988.8c0,24.4,0,48.9,0,73.7c-27.5,0.5-54.9,1-82.5,1.5c0-19.6,0-38.9,0-58.5c9.8-2,19.5-3.9,29.3-5.9
		c17.2-3.4,34.3-6.8,51.5-10.2c0.3-0.1,0.6-0.3,1-0.5C172.2,988.8,172.5,988.8,172.7,988.8z"/>
	<path class="st4" d="M90.3,1074.8c27.4,0.5,54.6,1,82.2,1.4c0,24.4,0,48.8,0,73.5c-27.3-5.5-54.7-10.9-82.2-16.4
		C90.3,1113.8,90.3,1094.5,90.3,1074.8z"/>
	<path class="st4" d="M78.1,1064.3c-17,0-33.6,0-50.5,0c-0.1-0.5-0.2-1.3-0.2-2.1c0-13.7,0-27.4-0.1-41.2c0-2.3,0.5-3.3,3-3.7
		c15.1-2.9,30.1-6,45.2-9c0.8-0.2,1.6-0.1,2.6-0.2C78.1,1026.6,78.1,1045.1,78.1,1064.3z"/>
	<path class="st4" d="M27.6,1074.4c17,0,33.6,0,50.5,0c0,19,0,37.5,0,56.4c-5.7-1.1-11.3-2.1-16.8-3.2c-10.4-2.1-20.8-4.2-31.1-6.3
		c-1.7-0.3-2.8-0.6-2.8-2.8c0.1-14.6,0.1-29.1,0.1-43.7C27.4,1074.7,27.6,1074.5,27.6,1074.4z"/>
</g>
<path id="Path_450" class="st4" d="M174.2,389.3c-0.1-4,3.1-7.4,7.1-7.5c4-0.1,7.4,3.1,7.5,7.1c0,0.1,0,0.2,0,0.4
	c0.1,4-3.1,7.4-7.1,7.5s-7.4-3.1-7.5-7.1C174.2,389.5,174.2,389.4,174.2,389.3z M181.5,398.3c4.9-0.1,8.9-4.1,8.8-9.1
	s-4.1-8.9-9.1-8.8c-4.9,0.1-8.8,4-8.8,8.9c0,4.9,4,9,8.9,9C181.4,398.3,181.5,398.3,181.5,398.3L181.5,398.3z M179.6,390h1.8
	l2.7,4.5h1.7L183,390c1.5,0,2.7-1.2,2.7-2.6c0-0.1,0-0.1,0-0.2c0-2.1-1.2-2.9-3.7-2.9H178v10.3h1.5L179.6,390L179.6,390z
	 M179.6,388.7v-3.2h2.1c1.1,0,2.2,0.3,2.2,1.5c0,1.6-1.2,1.7-2.5,1.7L179.6,388.7L179.6,388.7z"/>
<g id="Group_40" transform="translate(0 0.178)">
	<g id="Group_39">
		<g id="Group_38">
			<path id="Path_451" class="st4" d="M46.3,413.1h33.9v26h-6.8l-2.5-6.3c-5.3,4.6-14.9,7.6-25.4,7.6c-13.2,0-19.7-3-23.6-5.5
				c-11.9-7-12.2-15.4-12.2-20.5c0-11.9,11.4-25.2,36.5-25.2c14.4,0,30.4,5.2,32.6,16.1H68.8c-3.3-8.5-14.6-10.3-23.1-10.3
				c-13.9,0-25.3,7-25.3,19.7c0,9.9,5.2,20.1,25.7,20.1c5.4,0.2,10.8-0.9,15.8-3.1c6.8-3.4,8.5-7.7,8.5-12.9h-24V413.1z"/>
			<path id="Path_452" class="st4" d="M106.7,433.2h39.1v5.8H96.3v-48.7h10.4V433.2z"/>
			<path id="Path_453" class="st4" d="M169.2,439.1h-10.4v-48.7h10.4L169.2,439.1z"/>
		</g>
	</g>
</g>
<g>
	<path class="st4" d="M165.8,121.3c-7.3,0-14.3,0-21.5,0c0-17.5,0-34.8,0-52.4c-5.1,0-10.2,0-15.4,0c0.1,0.9,0.2,1.8,0.3,2.8
		c-6.8,0-13.5,0-20.2,0c-1.2-5-4.1-7.4-9.4-7.3c-2.1,0-4.3,0.5-6.1,1.4c-2.8,1.3-3.3,4.7-0.6,6.3c2.9,1.8,6.3,3,9.6,4
		c7.1,2.1,14.5,3.1,21,7c7,4.2,9.6,10.7,8.6,18.1c-1.4,11.1-8.8,18.2-19.8,20.4c-8.2,1.6-16.2,2.1-24.3,0
		c-9.4-2.5-16.7-7.3-19.3-17.3c-0.5-1.9-0.6-3.8-0.9-5.9c0.6-0.1,1-0.3,1.4-0.3c6.2,0,12.3,0,18.5,0c1.3,0,1.9,0.2,2.2,1.6
		c1,5.5,3.8,7.8,9.4,7.9c2.2,0,4.4-0.1,6.5-0.6c3-0.8,5-3.2,4.8-5.7c-0.1-2.8-2.1-4.1-4.5-4.9c-5.9-1.9-11.9-3.6-17.7-5.5
		c-2.7-0.9-5.4-1.9-7.9-3.1c-6.8-3.3-10.1-8.8-9.7-16.4c0-0.7,0-1.3,0.1-2c0-0.1-0.1-0.2-0.2-0.5c-0.6-0.1-1.2-0.2-1.9-0.2
		c-2.8,0-5.6,0-8.4,0c-5.5,0.1-4.6-0.7-4.6,4.8c-0.1,15.9,0,31.8,0,47.9c-7.1,0-14.2,0-21.5,0c0-17.4,0-34.8,0-52.5
		c-6.8,0-13.3,0-19.9,0c0-6,0-11.8,0-17.8c20.5,0,41,0,61.7,0c0,2,0,4,0,5.9c16-10.7,31.8-10.5,48-0.4c0-1.5,0-3.5,0-5.5
		c20.8,0,41.2,0,61.9,0c0,5.7,0,11.5,0,17.6c-3.4,0-6.8,0-10.2,0c-2.3,0-4.6,0.1-6.9,0c-2.2-0.2-3,0.6-2.9,2.9
		c0.1,11.6,0.1,23.3,0.1,34.9C165.8,111.3,165.8,116.2,165.8,121.3z"/>
</g>
<g>
	<path class="st4" d="M160.6,252.9c-4.3,0-8.7,0-13,0c-0.1-1.8-0.3-3.5-0.4-5.2c-1-8.9-4.4-16.8-10-23.7
		c-5.4-6.6-12.1-11.4-20.1-14.4c-0.3-0.1-0.8-0.2-1-0.4c-0.3-0.4-0.4-1-0.7-1.7c-0.6,0.2-1.3,0.1-1.6-0.6c-0.7,0.4-1.3,0.7-2,1.1
		c0.2,0.5,0.5,1.4-0.3,1.8c0.5,0.6,1,1.1,1.5,1.6c0.6,0,1.3-0.1,2.2-0.2c0-0.1,0.1-0.4,0.2-0.9c8.2,2.8,15.1,7.3,20.7,13.9
		c6.9,8.2,10.2,17.8,10.4,28.6c-1.3,0-2.4,0-3.7,0c-0.2-11-4-20.6-11.9-28.4c-7.8-7.8-17.4-11.6-28.5-12.3c0.1-0.3,0.2-0.5,0.4-0.9
		c-2.2-0.2-3.4-1.2-3.1-3.8c-0.8,0.5-1.4,0.8-1.9,1.1c-0.6,0.4-1,0.4-1.6,0.1c-0.5-0.3-1.1-0.6-1.8-1c-0.2,1-0.1,2.2-0.6,2.9
		c-0.5,0.7-1.6,0.8-2.6,1.3c0.5,0.5,0.8,0.9,1.3,1.3c0.7,0.6,0.9,1.2,0.5,2.1c-0.2,0.4-0.3,1-0.4,1.6c0.6-0.1,1.2,0,1.7-0.2
		c0.8-0.2,1.5,0,1.9,0.8c0.3,0.5,0.7,0.9,1.2,1.6c0.7-2.3,2-3.3,4.5-2.3c-0.4-1.2-0.7-2-1-2.9c20.1-0.5,40.3,15.8,40.2,39.1
		c-2.7,0-5.3,0-8.1,0c-0.1-5.4-1.3-10.5-4-15.3c-2.6-4.7-6.3-8.5-10.9-11.6c0.4-0.5,0.8-0.9,1.4-1.5c-1.9-0.3-2.8-1.4-2.6-3.4
		c-1.5,1.4-2.9,1.4-4.5-0.3c0.3,2.3-0.7,3.3-2.9,3.5c1.8,1.3,2.2,2.6,1.1,4.4c2-0.6,3.2,0,3.8,1.9c0.2-0.2,0.4-0.2,0.4-0.3
		c0.6-1.3,1.6-1.6,3-1.6c1.1,0,1.7,0.4,2.3,0.9c6.8,5.8,10.6,13,11.1,21.9c0,0.4,0,0.9,0,1.4c-3.6,0-7.2,0-10.9,0
		c-0.5-8.2-4.7-13.7-12-17.1c0.2-0.3,0.5-0.6,0.8-0.9c-0.9-0.4-2-0.6-1.4-2.2c-1.1,0.5-2,1.1-2.9-0.3c-0.1,1.4-0.4,2.4-2,2.3
		c1.1,0.9,1.4,1.8,0.6,2.9c1.2-0.1,2.2-0.1,2.5,1.1c1.8-1.5,2.5-1.6,4.4-0.5c5.4,3.1,8.4,7.8,8.8,14c0,0.2,0,0.4,0,0.7
		c-20.6,0-41.2,0-62,0c0.4,9.1,3.2,17.2,8.6,24.5c0.1-0.1,0.3-0.1,0.4-0.2c0.1-0.1,0.2-0.2,0.3-0.3c0.2,0.2,0.3,0.5,0.5,0.6
		c0.2,0.1,0.5,0.2,0.7,0.3c0.1,0.5,0.1,1,0.2,1.5c-0.3,0.3-0.6,0.7-1,1c-0.4,0-0.9-0.1-1.5-0.2c-0.2-0.3-0.4-0.7-0.7-1.3
		c0.6-0.5,0.3-1.2-0.2-2c-3.8-5.4-6.3-11.3-7.4-17.8c-0.3-1.7-0.4-3.5-0.5-5.2c0-0.5,0-0.9-0.7-0.9c-3.1,0-6.2,0-9.3,0
		c-0.1,0-0.1,0.1-0.4,0.2c0.2,2.1,0.4,4.2,0.7,6.4c0.1,1.1,0.9,1.8,1.9,1.9c0.1,0.5,0.1,1,0.2,1.5c-0.3,0.3-0.6,0.7-1,1.1
		c-0.4-0.1-0.9-0.1-1.4-0.2c-0.3-0.4-0.6-0.8-0.9-1.2c0.5-0.9,0.9-1.9,0.7-3.2c-0.3-2.1-0.5-4.3-0.7-6.5c-1.4,0-2.9,0-4.5,0
		c0,6.2,1.2,12.2,3.2,18.1c3.2,9.5,8.6,17.6,16,24.6c0.2-0.2,0.4-0.4,0.6-0.6c0.2-0.2,0.4-0.4,0.5-0.6c0.8,1.2,0.8,1.2,2.3,1.3
		c-0.8,0.9-0.6,1.8,0.5,2.6c-1.2,0.2-2,0.7-1.9,2.1c-0.9-1-1.8-1.1-2.8-0.2c0.2-1.3-0.2-2-1.2-2.2c0-0.1,0-0.2,0-0.3
		c1.2-1.2,1.2-1.4-0.1-2.7c-9.3-9.3-15-20.4-17.4-33.2c-0.4-1.9-0.5-3.9-0.7-5.9c-0.1-0.5-0.1-1-0.2-1.5c0-2,0-4,0-6.1
		c0.1-0.3,0.2-0.6,0.2-1c0.2-2,0.3-4.1,0.7-6.1c2.6-14.7,9.6-27,21.1-36.6c8.9-7.4,19.1-11.8,30.5-13.3c1.7-0.2,3.3-0.4,5-0.6
		c2,0,3.9,0,5.9,0c2,0.2,4.1,0.4,6.1,0.7c11.6,1.8,21.9,6.4,30.8,14.2c11.4,10,18.2,22.6,20.3,37.7c0.2,1.7,0.4,3.3,0.6,5
		C160.6,250,160.6,251.4,160.6,252.9z"/>
	<path class="st4" d="M111.5,314.5c-1.2-0.7-2.4-1.4-3.6-2c-0.6,1.5-1,1.8-3.3,1.6c0-6.4,0-12.7,0-19.1c2.6-0.7,3.8,0.3,3.7,2.6
		c-0.1,1.2,0,2.5,0,3.7c0,0.1,0,0.1,0.1,0.3c0.1-0.1,0.3-0.1,0.4-0.2c3.3-2.8,8-1.4,9.1,2.8c0.6,2,0.5,4.1,0,6.2
		c-0.6,2.1-2,3.6-4.1,4.1c-0.1,0-0.2,0.1-0.3,0.2C112.7,314.5,112.1,314.5,111.5,314.5z M114.6,307.1c-0.1-0.7-0.1-1.4-0.3-2.1
		c-0.4-1.4-1.4-2.3-2.7-2.4c-1.3-0.1-2.6,0.8-3.1,2.1c-0.6,1.6-0.5,3.3,0.1,4.8c0.5,1.3,1.8,2.1,3.2,2c1.2-0.1,2.2-1,2.5-2.4
		C114.4,308.5,114.5,307.8,114.6,307.1z"/>
	<path class="st4" d="M92.1,314.5c-0.7-0.4-1.6-0.7-2.2-1.2c-2.4-2.1-1.6-5.8,1.4-6.8c1.6-0.5,3.3-0.8,4.9-1.2
		c0.4-0.1,1-0.5,1.1-0.8c0.1-0.8-0.2-1.4-1-1.8c-1.6-0.7-3.2-0.2-4,1.4c-1.2,0-1.9-0.5-2.1-1.4c-0.2-1,0.1-1.9,1.2-2.3
		c2.7-1.1,5.4-1.1,8.1,0.2c0.8,0.4,1.3,1.2,1.4,2.1c0.1,1.5,0.2,3,0.1,4.4c-0.1,2.3-0.2,4.5,0.7,6.6c-2,0.5-3,0.3-3.9-1.1
		c-1.2,0.6-2.3,1.1-3.5,1.7C93.5,314.5,92.8,314.5,92.1,314.5z M97.3,307.4c-1.1,0.3-2.1,0.5-3.1,0.7c-0.3,0.1-0.6,0.2-0.8,0.3
		c-0.7,0.3-1.4,0.8-1.1,1.6c0.2,0.6,0.7,1.4,1.2,1.6c0.6,0.3,1.6,0.2,2.3-0.1C97.2,310.9,97.6,309.7,97.3,307.4z"/>
	<path class="st4" d="M125.4,314.5c-0.7-0.2-1.5-0.4-2.2-0.7c-1.5-0.7-2.7-1.7-3.1-3.4c2.1-0.9,2.9-0.7,4.4,0.7
		c0.9,0.8,3.7,0.9,4.6,0.1c0.6-0.6,0.5-1.5-0.3-1.9c-0.8-0.3-1.7-0.5-2.5-0.7c-1-0.3-2-0.5-2.9-0.9c-2-0.7-2.9-2-2.7-4.1
		c0.1-1.8,1.3-3.3,3.3-3.6c1.7-0.2,3.6-0.2,5.3,0c1.7,0.2,2.9,1.5,3.5,3.2c-1.5,0.4-2.8,1.1-4.2-0.4c-0.8-0.8-2.9-0.9-3.9-0.3
		c-0.3,0.2-0.6,0.6-0.6,0.9c0,0.3,0.4,0.7,0.7,0.8c1.3,0.4,2.7,0.8,4.1,1.2c0.6,0.2,1.3,0.4,1.9,0.6c3.3,1.2,3,5.1,1.1,6.5
		c-1.1,0.8-2.4,1.1-3.7,1.7C127.2,314.5,126.3,314.5,125.4,314.5z"/>
	<path class="st4" d="M143.6,275.1c1.8-2,3.7-2.8,6.2-2.6c3,0.2,5.2,2.1,5.3,5.2c0.1,3.6,0.1,7.2,0.1,10.8c0,1.4-0.9,2.1-2.4,2.1
		c-1.4,0-2.2-0.8-2.2-2.2c0-2.7,0-5.3,0-8c0-0.5,0-1-0.1-1.5c-0.2-1.8-0.8-2.6-2.3-2.9c-1.5-0.3-3.4,0.5-3.9,1.8
		c-0.4,0.8-0.6,1.7-0.6,2.6c-0.1,2.6,0,5.1-0.1,7.7c0,1.9-1.4,3-3.3,2.4c-0.9-0.3-1.4-1.1-1.4-2.3c0-2.2,0-4.4,0-6.7
		c0-4.3,0-8.7,0-13c0-1.6,0.8-2.4,2.4-2.4c1.4,0,2.2,0.8,2.3,2.2c0,2,0,4,0,6C143.6,274.4,143.6,274.6,143.6,275.1z"/>
	<path class="st4" d="M104.2,283.1c-0.2,2.6,1.7,4.6,4.1,4.4c1-0.1,1.7-0.7,2.3-1.4c0.7-0.9,2-1.1,2.9-0.5c0.8,0.5,1.2,1.8,0.7,2.6
		c-0.4,0.7-1.1,1.3-1.8,1.7c-5.6,3.3-12.3-0.1-13-6.5c-0.2-2-0.1-4,0.7-5.9c1.4-3.6,4.5-5.3,8.7-4.9c3.3,0.3,5.9,2.6,6.8,6.1
		c0.2,0.7,0.3,1.4,0.3,2.1c0.1,1.4-0.8,2.3-2.2,2.3c-2.8,0-5.5,0-8.3,0C104.9,283,104.5,283.1,104.2,283.1z M111.3,280.1
		c0-1.7-0.5-3-2-3.8c-1.2-0.7-2.4-0.6-3.5,0.2c-1.2,0.9-1.8,2-1.5,3.6C106.6,280.1,108.9,280.1,111.3,280.1z"/>
	<path class="st4" d="M87.7,270.1c-2.5,0-4.8,0-7.2,0c0-0.8-0.1-1.5,0-2.3c0.1-1,0.9-1.7,1.9-1.7c5.7,0,11.4,0,17.2,0
		c0.1,0,0.1,0,0.3,0.1c0,0.7,0.1,1.5,0,2.3c-0.2,1.1-0.9,1.6-2.1,1.7c-1.6,0-3.3,0-5,0c0,0.5-0.1,0.9-0.1,1.3c0,5.6,0,11.1,0,16.7
		c0,1.8-0.8,2.6-2.5,2.6c-1.7,0-2.4-0.8-2.4-2.5c0-5.3,0-10.6,0-15.9C87.7,271.5,87.7,270.8,87.7,270.1z"/>
	<path class="st4" d="M127.5,272.3c1.4,0.3,2.9,0.5,4.2,1c0.9,0.4,1.7,1.3,2.4,2.1c0.7,0.9,0.4,2.1-0.5,2.7c-1.1,0.7-2.3,0.6-3-0.3
		c-1-1.6-2.5-1.9-4.1-1.5c-1.6,0.4-2.5,1.6-2.6,3.2c-0.1,1.7-0.1,3.5,0.3,5.2c0.5,2.2,2.8,3.2,4.9,2.4c0.6-0.3,1.2-0.9,1.6-1.5
		c0.8-1.3,2.1-1.7,3.3-0.9c1.1,0.7,1.3,2,0.5,3.2c-2,3-4.9,3.6-8.1,3.3c-4.3-0.4-7.1-3.6-7.4-8c-0.1-1.4,0-2.8,0.3-4.2
		C120.1,274.6,122.9,272.5,127.5,272.3z"/>
	<path class="st4" d="M86.7,310.9c-0.1,0.9,0,1.6-0.3,2.2c-0.3,0.5-1,1-1.5,1c-4,0.1-7.9,0-11.9,0c0-0.3-0.1-0.5-0.1-0.7
		c0-5.4,0-10.8,0-16.2c0-1.8,1.4-2.9,2.8-2.2c0.8,0.4,1.2,1.1,1.2,2.1c0,4.1,0,8.3,0,12.4c0,0.4,0,0.8,0,1.3
		C80.2,310.9,83.4,310.9,86.7,310.9z"/>
	<path class="st4" d="M77.2,281.7c0,2.2,0,4.4,0,6.6c0,1.5-0.7,2.2-2.1,2.3c-1.5,0.1-2.4-0.7-2.4-2.2c0-4.5,0-8.9,0-13.4
		c0-1.4,0.9-2.2,2.3-2.2c1.4,0,2.2,0.9,2.2,2.3C77.2,277.3,77.2,279.5,77.2,281.7z"/>
	<path class="st4" d="M74.9,266c1.4,0,2.2,0.8,2.2,2.1c0,1.2-0.9,2.1-2.2,2.1c-1.3,0-2.3-0.9-2.3-2.1C72.6,266.9,73.6,266,74.9,266z
		"/>
</g>
<g>
	<path class="st4" d="M24.8,585c5.8-4.8,11.4-9.5,17.2-14c10.4-8.1,21.5-15.1,33.4-20.6c1.3-0.6,1.3-0.6,2.3,0.6
		c-0.9,0.6-1.8,1.3-2.8,1.9c-11.6,7.9-22.8,16.3-32.6,26.3c-6.9,7.1-13,14.8-18,23.4c-0.3,0.5-0.6,1-1.1,1.8
		c-0.9-2.4-1.7-4.6-2.5-6.8c-3.4-10.1-8.4-19.5-14.7-28.1c-0.8-1.1-1.1-2.6-1.4-4C12.7,570.7,18.6,578,24.8,585z"/>
	<path class="st4" d="M167,592.1c-2.2,0-4.2,0.1-6.2-0.1c-0.4,0-0.9-0.8-1-1.3c-0.5-2.3-0.9-4.7-1.4-7c-0.1-0.4-0.8-0.7-1.2-1.1
		c0,0-0.1,0-0.2,0c-4.2-0.2-4.2-0.2-5.6,3.8c-0.6,1.6-1.1,3.2-1.8,4.7c-0.2,0.4-0.8,0.9-1.2,1c-1.6,0.1-3.2,0-5.1,0
		c0.2-0.7,0.3-1.2,0.5-1.6c2.8-7.9,5.6-15.7,8.4-23.6c0.4-1.1,0.9-1.4,2-1.4c4.8,0.1,9.6,0,14.4,0.2c4.2,0.2,6.2,3.1,5,7.2
		c-1,3.6-3.1,6.5-6.6,8c-1.6,0.7-2,1.6-1.6,3.4C166.2,586.8,166.5,589.4,167,592.1z M154.7,577.5c3.4-0.2,6.4-0.2,9.4-0.6
		c1.6-0.2,2.6-1.5,3-3.1c0.5-1.9-0.2-2.8-2.1-2.9c-2.3-0.1-4.7,0-7,0c-0.4,0-1.1,0.3-1.3,0.6C156.1,573.4,155.5,575.2,154.7,577.5z"
		/>
	<path class="st4" d="M109.6,565.1c0.4,0,0.9,0,1.3,0c5.3,0.4,8,3.2,7.5,8.5c-0.9,8.3-4.8,14.8-12.9,18c-2.5,1-5.2,1.4-8,0.9
		c-4.2-0.8-6.3-3.3-6.4-7.5c-0.1-9.5,6.9-18.1,16.1-19.7C107.9,565.1,108.7,565.1,109.6,565.1C109.6,565,109.6,565.1,109.6,565.1z
		 M97.5,581.7c-0.1,4.1,1.8,5.8,5.1,5.2c1.3-0.2,2.7-0.7,3.7-1.4c3.4-2.4,4.8-6.1,5.6-9.9c0.7-3.3-1.3-5.2-4.6-5
		c-0.9,0.1-2,0.3-2.8,0.8C100.2,573.8,98,577.6,97.5,581.7z"/>
	<path class="st4" d="M144.4,578.2c-0.6,6.9-6.8,13.4-13.5,14.2c-1.6,0.2-3.2,0.2-4.8,0c-4.4-0.4-6.9-3.2-7-7.7
		c-0.1-10.4,9.5-20.1,19.6-19.6c1.3,0.1,2.8,0.2,4,0.8c1.2,0.6,2.4,1.5,3.1,2.7c1.5,2.4,1,3.3-1.6,4.2c-0.3,0.1-0.5,0.1-0.8,0.3
		c-1.8,0.9-3.2,1.1-4.6-1c-1.1-1.7-3.2-1.9-5.2-1.1c-4.6,1.7-8.3,7.5-7.9,12.4c0.2,2.3,1.3,3.4,3.5,3.7c3.1,0.4,5.6-0.7,7.2-3.4
		c-1.4,0-2.6,0-4.3,0c0.7-1.9,1.2-3.5,1.9-5.1c0.1-0.2,0.5-0.3,0.8-0.3C138,578.2,141.1,578.2,144.4,578.2z"/>
	<path class="st4" d="M193.9,565.4c0.5,9,0.9,17.7,1.4,26.6c-2.2,0-4.3,0-6.5,0c-0.1-1.8-0.3-3.7-0.4-5.7c-3.3,0-6.4,0-9.6,0
		c-0.4,0-0.8,0.5-1.1,0.8c-1,1.3-2,2.7-3.1,4c-0.4,0.5-1.2,0.9-1.9,0.9c-1.7,0.1-3.3,0-5.3,0c1.2-1.6,2.1-2.9,3.1-4.1
		c5.4-7,10.8-14,16.1-21c0.9-1.1,1.8-1.8,3.3-1.7C191.2,565.5,192.5,565.4,193.9,565.4z M182.6,580.7c2,0,3.8,0,5.6,0
		c0-2.5,0-4.8,0-7.7C186.2,575.7,184.4,578.1,182.6,580.7z"/>
	<path class="st4" d="M8,562.3c1.7,0.5,3,0.9,4.3,1.3c0.8,0.3,1.3,0.1,1.6-0.7c0.5-1.2,1.1-2.3,1.7-3.5c2.8-6,9.7-7.6,14.7-6.5
		c3.4,0.8,4.7,3.7,3.3,7.1c-1.7,4.1-5,6.3-9.1,7.3c-0.5,0.1-1.1,0.2-1.6,0.3c-0.1,0-0.2,0.1-0.3,0.1c0.6,1.9,2.3,3.1,4.7,3.2
		c2.9,0.1,5.6-0.7,8-2.2c2.6-1.7,5-3.6,7.7-5.5c0.2,0.3,0.5,0.8,0.9,1.3c-2.5,3.2-5.1,6.2-8.5,8.5c-3.3,2.3-7,3.1-11,2.6
		c-3.5-0.4-6.5-2-8.2-5.2c-1.3-2.4-3.1-3.6-5.4-4.6c-0.8-0.4-1.6-1.1-2.2-1.7C8.4,563.8,8.3,563.2,8,562.3z M21.5,564.5
		c2.3-0.9,4.5-1.5,6.5-2.6c1-0.5,1.7-1.8,2.1-2.9c0.7-1.9-0.4-3.2-2.4-3.3C23.7,555.6,20.3,559.9,21.5,564.5z"/>
	<path class="st4" d="M87.4,586.3c-3.3,4.8-10.7,7.4-16.1,5.9c-4.2-1.2-6.2-4.6-5.6-9.3c1.1-8.6,7.3-15.5,15.7-17.6
		c2.9-0.7,5.7-0.5,8.4,0.8c2,1,3,2.7,3.2,5c-1.8,0.7-3.5,1.4-5.3,2c-0.4,0.1-1-0.1-1.4-0.4c-2.9-2.6-5.5-2.7-8.6-0.4
		c-3.3,2.5-5,5.9-5.5,10c-0.4,3.3,2.3,5.6,5.5,4.7c1.6-0.4,3.1-1.3,4.5-2.2c1.1-0.7,2-0.9,3,0.1C85.8,585.3,86.6,585.8,87.4,586.3z"
		/>
	<path class="st4" d="M56.5,586.6c0.9,1,1.8,1.9,2.6,2.8c-3.5,3.4-8.9,4.1-12.8,1.6c-1.9-1.2-2.3-3.1-2.1-5.1
		c0.8-6.3,5.5-11.1,11.7-12.3c4.5-0.8,7.5,2.1,6.7,6.5c-0.7,4.5-0.7,4.5-5.3,4.5c-2.5,0-5,0-7.4,0C49.8,587.9,52,588.6,56.5,586.6z
		 M51.9,580.4c0.2,0.1,0.3,0.2,0.4,0.2c1.2,0,2.5,0.1,3.7,0c0.7,0,1.8,0.3,1.6-0.8c-0.1-0.6-0.9-1.5-1.5-1.7
		C54.6,577.6,53,578.6,51.9,580.4z"/>
</g>
<g>
	<path class="st4" d="M173.2,1301.4c-29,16.5-28,60.4,5.3,76.2c-2.3,5.2-4.3,10.6-6.9,15.8c-5.4,10.6-11.9,20.4-20.9,28.5
		c-6.6,6-14.4,7.5-22.9,5.2c-2.8-0.8-5.6-1.7-8.2-2.9c-10.5-4.6-20.9-4.6-31.4-0.3c-2.8,1.1-5.7,2-8.5,3.1
		c-9.2,3.5-16.9,0.8-23.6-5.6c-11-10.4-19-23-25-36.9c-6.9-16.3-10.8-33.3-9.3-51c1.9-21.7,11.1-39,32.4-47.8
		c10.5-4.3,21-3.3,31.6,0.7c18,6.8,12.9,6.5,30.5,0c14.8-5.5,29-5.4,43,2.1C164.9,1291.5,169.5,1295.8,173.2,1301.4z"/>
	<path class="st4" d="M99.8,1280.2c-1.4-12.7,3.5-23.2,12.2-31.9c7.1-7.1,15.7-11.6,26.1-12.1C140.8,1257,121.4,1282.8,99.8,1280.2z
		"/>
</g>
</svg>
