<?xml version="1.0" encoding="utf-8"?>
<!-- Generator: Adobe Illustrator 21.1.0, SVG Export Plug-In . SVG Version: 6.00 Build 0)  -->
<svg version="1.1" id="Capa_1" xmlns="http://www.w3.org/2000/svg" xmlns:xlink="http://www.w3.org/1999/xlink" x="0px" y="0px"
	 viewBox="0 0 612 2340" style="enable-background:new 0 0 612 2340;" xml:space="preserve">
<style type="text/css">
	.st0{fill:#FFFFFF;}
	.st1{fill:#304A54;}
	.st2{fill:#FAFCFC;}
	.st3{fill:#FFFFFF;stroke:#FFFFFF;stroke-width:0.75;stroke-miterlimit:10;}
	.st4{fill:#212D33;}
	.st5{fill:#FFFFFF;stroke:#212D33;stroke-miterlimit:10;}
	.st6{fill:#212D33;stroke:#212D33;stroke-miterlimit:10;}
	.st7{fill:#03898F;}
	.st8{fill:#2A2A2A;}
	.st9{fill:#29BF29;}
	.st10{fill:#2DA9F6;stroke:#2DA9F6;stroke-width:8;stroke-miterlimit:10;}
	.st11{fill:#45707F;}
	.st12{fill:#2B393F;}
	.st13{fill:#FCFCFC;}
	.st14{fill:#FBFBFB;}
	.st15{fill:#FEFEFE;}
	.st16{fill:#292929;}
	.st17{fill:#FFA500;}
	.st18{fill:#2DA9F6;}
	.st19{fill:#A2A2A2;}
	.st20{fill:none;stroke:#2A2A2A;stroke-width:20;stroke-miterlimit:10;}
	.st21{fill:#FFFFFF;stroke:#2A2A2A;stroke-width:22;stroke-miterlimit:10;}
	.st22{fill:none;}
	.st23{fill:none;stroke:#212D33;stroke-width:50;stroke-miterlimit:10;}
</style>
<g>
	<path class="st4" d="M602.4,177.3c-2,7-3.9,14.1-6.1,21.1c-3,9.5-7.8,18.1-14.1,26c-10.9,13.5-22.5,26.2-36.1,37
		c-3.7,2.9-7.1,6.2-10.5,9.5c-5.1,4.8-11.2,6.9-18.1,7.1c-10.9,0.3-21.9,0.4-32.8,1c-21.9,1.2-42.5,7.8-62.5,16.5
		c-28.2,12.2-48.1,33.3-62,60.3c-4.5,8.8-8.3,18-12.6,27.6c-31.9-38.5-65.9-75-106.8-105.3c3.8-1.5,7.2-2.9,10.5-4.2
		c51.8-19.2,79.6-57.9,89.8-110.8c3.2-16.6,4.7-33.4,4.2-50.3c-0.3-10.4,2.9-19.1,9.5-27c13.4-15.9,27.7-30.9,44.1-43.8
		c14.3-11.3,30.8-17.5,48.8-19.8c0.7-0.1,1.4-0.3,2-0.5c3.9,0,7.8,0,11.7,0c0.6,0.2,1.1,0.4,1.7,0.5c10.6,1,20.7,3.7,30.4,7.9
		c29.9,13.1,54.5,33.1,75.1,58.2c14,17.1,24.9,35.9,30.6,57.4c1.4,5.2,2.2,10.6,3.3,15.8C602.4,166.6,602.4,172,602.4,177.3z"/>
	<path class="st4" d="M352.8,614.9c2.4-11.5,0.5-22.3-1.7-32.9c-4.8-22.6-14.8-42.9-26.6-62.6c-35-58.1-79.6-107.9-130.3-152.7
		c-30.8-27.3-64-51.3-100.2-70.7c-15.9-8.5-32.7-15-50.2-19.3c-7.5-1.9-15.4-2.4-23.1-2.9c-3.6-0.2-7.2,1.1-11.1,1.7
		c0.3-0.5,0.4-0.9,0.6-1.1c18.9-18.9,37.8-37.6,56.6-56.6c7.9-8,17.4-9.8,28.1-9.4c22.2,0.9,42.5,8.6,61.8,18.4
		c36.5,18.6,70,41.8,100.8,68.8c34.4,30.1,66.6,62.3,94.7,98.5c20.3,26.1,38.8,53.5,52.1,83.9c5.2,11.9,9.6,24.4,12.8,37
		c2.8,11.3,4.1,23.3-1.2,34.6c-1.1,2.3-2.3,4.6-4,6.4c-19,19.2-38.1,38.3-57.2,57.4C354.1,613.6,353.6,614.1,352.8,614.9z"/>
	<path class="st4" d="M28.2,337.9c5.5-5.7,10.5-11,15.6-16.1c4.2-4.3,9.5-6.2,15.5-6.5c11.6-0.7,22.5,2,33,6.6
		c26.9,12,51.4,27.8,74.2,46.3c45.8,37.1,86.3,79.1,119.1,128.2c9,13.5,16,28,22.4,42.8c4.1,9.4,5,19.5,3.6,29.8
		c-0.7,4.7-2.7,9-6,12.5c-4.5,4.9-9,9.8-13.5,14.6c-0.4-0.3-0.7-0.6-1.1-0.9c0.9-3.4,2.1-6.7,2.7-10.1c1.5-9.3-0.1-18.3-2.7-27.2
		c-8.3-27.9-22.9-52.6-40.4-75.5c-32.2-42.2-69.5-79.4-113-109.9c-22-15.5-45.3-29-71.4-36.6c-10.5-3.1-21.5-4.4-32.3-0.6
		C32.2,335.9,30.6,336.8,28.2,337.9z"/>
	<path class="st4" d="M274,576.1c-1.6,5-4.3,8.3-8.5,9.8c-3.6,1.3-7.5,2.2-11.3,2.5c-13.8,0.8-26.6-2.9-39-8.9
		c-27.3-13.4-52.3-30.3-75.1-50.5c-30-26.5-56.8-55.6-78.8-89.1c-9.6-14.7-17.7-30.4-22.6-47.4c-2.7-9.4-3.5-18.8-0.2-28.3
		c1.9-5.2,5.5-8.6,10.2-11.2c0.2,0.5,0.4,0.7,0.4,0.8c-4.1,9.5-1.7,18.9,0.7,28.2c4.9,19.8,15.3,36.9,26.8,53.4
		c31,44.6,68.6,82.6,113.3,113.6c16.2,11.2,34,19.6,52.6,25.9C252.5,578.2,262.9,579.4,274,576.1z"/>
	<path class="st4" d="M71.3,409.1c3.6-4.6,3.8-4.6,8.6-1.9c53.5,30.7,107.1,61.4,160.6,92c2.6,1.5,5.1,3.1,7.8,4.2
		c5.9,2.4,9.3,6.6,11,12.6c1.5,5.3,1.7,5.2-2.9,9.1c-0.7-2.2-1.5-4.2-2.1-6.3c-1.4-4.6-4.3-7.7-8.4-10
		c-57.4-32.7-114.8-65.5-172.2-98.3C72.8,410.1,72.1,409.6,71.3,409.1z"/>
	<path class="st4" d="M60.2,381.4c3.9-4.7,3.9-4.6,8.7-1.9c49.8,28.4,99.5,56.9,149.4,85.2c8.6,4.9,16.8,10.1,21.8,19
		c1.7,3,4.2,5.5,6.3,8.3c1.8,2.4,1.6,3.2-1.1,5.4c-0.7-2-1.4-3.9-1.9-5.9c-1.4-4.8-4.3-8.1-8.7-10.5c-23.6-13.3-47.1-26.6-70.6-40.1
		c-33.5-19.2-67-38.4-100.5-57.6C62.4,382.7,61.3,382.1,60.2,381.4z"/>
	<path class="st4" d="M101.7,447.9c1.5-1.4,2.9-2.7,4.5-4.2c3.8,2.2,8,4.5,12.1,6.9c41.7,23.9,83.3,47.8,125,71.6
		c5.5,3.2,7.3,8.2,8.7,13.7c0.7,2.9-1.7,4.3-3.8,6.2c-0.9-2.7-1.7-5-2.5-7.4c-1.2-3.4-3-6.1-6.2-8c-20.3-11.4-40.6-22.9-60.8-34.5
		c-24.8-14.2-49.7-28.4-74.5-42.7C103.4,449,102.6,448.5,101.7,447.9z"/>
	<path class="st4" d="M72.2,366.8c3.8-4.6,3.8-4.6,8.7-1.8c30.7,17.6,61.3,35.2,92,52.7c0.8,0.5,1.6,1,2.4,1.3
		c16.4,6.8,28.1,19.4,38.9,32.8c0.2,0.2,0.3,0.5,0.5,0.9c-1.2,1.1-2.4,2.1-3.7,3.4c-0.8-2.4-1.7-5-2.6-7.5c-1.1-3.1-2.7-5.6-5.7-7.3
		c-17.2-9.6-34.3-19.3-51.5-29.1c-25.6-14.6-51.2-29.3-76.8-44C73.8,367.8,73.1,367.4,72.2,366.8z"/>
	<path class="st4" d="M28.1,317.9c-0.2,0.7-0.2,1.3-0.4,1.8c-2.8,6.2-3.8,12.7-2.4,19.4c0.1,0.6,0.1,1.3-0.1,1.8
		c-2.2,4-4.5,8-6.4,11.4C15.4,339,19,320.9,28.1,317.9z"/>
	<path class="st4" d="M312,595.5c-9.7,12.5-23.2,12.1-36.6,10.8c3.4-1.9,7-3.9,10.7-5.8c0.9-0.4,2-0.7,3-0.6
		C297.2,600.9,304.7,599.1,312,595.5z"/>
</g>
<g>
	<path class="st4" d="M261.1,1148.7c-5.2-8.1-12.3-17.5-21.7-26.9c-6.1-6.1-12-11.1-17.5-15.2c0,0-8.1-8.5-55.8-40.5
		c-6.6-4.4-15.1-7-23.1-8.3c-10.8-1.7-17.8,5.5-18.1,16.5c-0.4,14.2,4.9,27.1,10.6,39.7c20.4,45.5,45.7,88.3,74.8,128.7
		c20.7,28.8,59.6,31.4,84.9,6.3c60.5-60,118.9-121.8,175.8-185.2c1.2-1.3,2.4-2.6,3.8-4.1c20.9,72.6-7.4,180-108.3,227.5
		c-98.5,46.5-214.4,5.1-263-93c-47.1-95.1-8.6-213.1,85.5-262.7c94.1-49.6,203.6-15.4,254.9,60.5
		C382.9,1044.4,322,1096.6,261.1,1148.7z"/>
	<path class="st4" d="M459.6,982c-1.2-1.5-2.3-2.9-3.4-4.3c-38-49.2-87.5-78.6-149.5-85.7c-114.5-13.2-218.9,65.4-238.2,178.9
		c-19.7,115.3,55.8,225.7,170.1,249.1c118.1,24.1,233.9-53,256.6-171.1c6.5-34,5.2-67.8-4.4-101.1c-1.1-3.7-0.4-6,2-8.8
		c10.8-12.6,21.3-25.4,32-38.1c1.8-2.1,2.8-6.1,7.2-3.5c4.1,2.5,6.4,5.9,4.8,10.5c-1.9,5.6-4.4,10.9-6.6,16.4
		c-1,2.6-2.1,5.1-3.2,7.6c-3.5,8.5-2.3,12.9,5.1,18.6c6,4.6,12,9.2,18,13.8c6.3,4.9,6.8,8.9,1.9,15.4c-4.9,6.5-9.9,12.8-14.8,19.3
		c-4.4,5.9-4.4,10.7,0,16.6c5,6.6,10.1,13.1,15.1,19.7c4.4,5.8,3.8,10.2-1.9,14.7c-6.5,5.1-13.2,10.1-19.7,15.2
		c-5.7,4.5-7,9.4-4.4,16.1c3,7.5,6.2,14.9,9.3,22.4c3.2,7.8,1.6,11.3-6.3,14.6c-7.3,3.1-14.6,6-21.9,9.1c-7.1,3-9.6,7.7-8.6,15.4
		c1.1,8,2.3,16,3.1,24.1c0.8,7.5-1.6,10.5-9.1,11.6c-8.2,1.2-16.4,2-24.6,3.3c-7.4,1.1-10.8,4.9-11.7,12.4c-1,8-2.2,16.1-3.2,24.1
		c-0.9,7-4.7,9.9-11.8,9c-8.2-1.1-16.4-2.3-24.6-3.2c-7.8-0.9-11.5,1.4-14.6,8.8c-3.2,7.6-6.3,15.3-9.6,22.9
		c-2.6,6.1-6.6,7.8-12.9,5.4c-7.7-3-15.3-6.3-23-9.4c-7.7-3.1-12.1-1.9-17.3,4.8c-4.7,6.1-9.4,12.3-14.1,18.4
		c-5.1,6.6-9.1,7.1-15.9,2c-6.2-4.7-12.2-9.5-18.4-14.1c-6.4-4.9-11.5-4.8-18,0.1c-6.5,4.9-12.8,9.9-19.3,14.8
		c-5.7,4.2-9.8,3.7-14.2-1.9c-5.1-6.5-10.1-13.2-15.2-19.7c-4.7-6-9.4-7.3-16.5-4.4c-7.3,3-14.6,6.1-21.9,9
		c-7.8,3.2-11.6,1.6-14.8-6c-3.1-7.5-6.2-15-9.4-22.4c-2.8-6.6-6.8-8.9-14-8.2c-7.9,0.9-15.7,1.9-23.6,3c-9,1.3-12.4-1.4-13.6-10.6
		c-0.9-7.9-2-15.7-3.2-23.5c-1-6.7-4.3-10-11.1-11.1c-7.5-1.2-14.9-2.1-22.4-3c-10.7-1.3-13.1-4.4-11.5-14.9
		c1.1-7.5,2.2-14.9,2.9-22.4c0.7-7.2-1.7-11.1-8.3-13.9c-7.3-3.1-14.6-6.1-21.9-9.2c-8.2-3.5-9.7-6.9-6.4-15
		c2.8-6.8,5.6-13.6,8.4-20.4c3.6-8.6,2.5-13.1-4.8-18.7c-6.3-4.9-12.6-9.6-18.8-14.5c-5.5-4.3-6.1-8.6-1.9-14.2
		c5-6.6,10.1-13.1,15.1-19.8c4.6-6.1,4.6-11.1,0.1-17.1c-5-6.6-10.1-13.1-15.1-19.7c-4.2-5.6-3.7-9.9,1.8-14.3
		c6.1-4.8,12.3-9.4,18.4-14.2c7.7-5.9,8.9-10.2,5.3-19.1c-2.9-7.1-6-14.3-8.8-21.4c-2.7-6.8-1.1-10.7,5.7-13.6
		c7.4-3.2,15-6.1,22.4-9.3c7.1-3,9.6-7,8.8-14.7c-0.8-7.7-2-15.3-3-23c-1.2-9,0.9-12.1,10-13.5c7.5-1.1,14.9-2.1,22.4-3
		c8-1,11.8-4.4,12.9-12.5c1.2-7.8,2.1-15.7,3.1-23.5c1-7.9,4.4-10.6,12.3-9.6c8,1,16.1,2,24.1,3.1c6.6,0.9,11.6-1.6,14.3-7.7
		c3.5-7.9,6.6-16,10-23.9c2.8-6.5,6.8-8.1,13.2-5.6c7.9,3.1,15.6,6.5,23.5,9.7c6.5,2.6,11.3,1.4,15.7-4.1
		c5.3-6.6,10.3-13.5,15.5-20.1c4.4-5.6,9-6.2,14.7-1.8c6.5,4.9,12.8,9.9,19.3,14.8c6.3,4.8,11.2,4.7,17.5-0.1
		c6.5-4.9,12.8-9.9,19.3-14.8c5.8-4.3,10.2-3.7,14.7,2c5,6.4,9.8,12.9,14.8,19.3c5,6.4,9.5,7.6,16.9,4.5c7.5-3.1,14.9-6.2,22.4-9.3
		c6.9-2.8,10.8-1.2,13.7,5.5c3.3,7.6,6.3,15.3,9.6,22.9c3,7.1,7.8,9.5,15.4,8.4c8.4-1.2,16.8-2.3,25.2-3.3c5.6-0.7,9.4,2.5,10.2,8.3
		c1.2,8.2,2.3,16.4,3.3,24.6c1,8.2,4.7,11.9,13.1,12.9c8.4,1.1,16.9,1.8,25.1,3.6c2.7,0.6,6.4,3.6,6.8,5.9c0.6,4,0.3,10.2-2.2,12.1
		C486.8,964.3,473.2,972.9,459.6,982z"/>
	<path class="st4" d="M255.8,1250.6c-13.1-0.1-24.6-4.5-31.8-15.4c-16-24.2-31.5-48.8-46.4-73.7c-11-18.5-20.8-37.8-27.1-58.5
		c-1.2-3.9-1.9-8-2-12c-0.2-6,3.6-9.2,9.2-7.1c7.6,2.9,15.2,6.1,22,10.5c30,19.1,76.6,85.6,78.1,85.6c2,0,136.2-117.3,198.8-174.9
		c31.1-28.6,78.6-67.1,146.4-104.4c-57.5,50.6-98.5,97.1-125.9,131.1c-57.7,71.6-123.1,136.7-187.7,202.1
		c-6.9,6.9-13.9,13.4-23.9,15.4C262.3,1249.9,259.1,1250.2,255.8,1250.6z"/>
</g>
<g>
	<path class="st4" d="M301.4,1660.1c3.1,0,6.2,0,9.3,0c1,0.5,2,1.1,3,1.5c40.3,14.6,80.5,29.2,120.8,43.9c39,14.2,78,28.4,117,42.5
		c8.1,2.9,12.8,8.3,13.6,16.9c0.7,8.3,1.6,16.5,2.3,24.8c5.3,62.6,4.7,125.1-6.2,187.2c-9,51.2-24.9,100-52.8,144.3
		c-39.6,63.1-94.4,106.5-166.8,126.4c-16.4,4.5-32.8,8.1-50.2,4.7c-63.8-12.1-116.4-43.3-158.8-92c-36-41.3-58.6-89.6-72.4-142.2
		C38.2,1935,38.3,1850.7,46.8,1766c1-9.6,6-15.3,14.9-18.6c62.2-22.5,124.5-45,186.7-67.7C266,1673.3,283.7,1666.7,301.4,1660.1z
		 M382.1,1910.8c0-3,0-5.1,0-7.2c0-16,0.2-32.1,0-48.1c-0.4-32.6-24.3-56.1-56.8-56.2c-13.7,0-27.4-0.1-41.2,0.1
		c-25,0.3-46.9,17.6-52.4,42.1c-1.8,7.8-1.7,16.1-1.9,24.2c-0.3,14.8-0.1,29.6-0.1,45.1c-2.9,0-5.1,0-7.4,0
		c-15.6,0.4-27.6,12-27.7,27.6c-0.2,37.3-0.2,74.6,0,111.9c0.1,15.3,12.1,27.3,27.3,27.4c56,0.2,112.1,0.2,168.1,0
		c14.8,0,27-12.2,27.1-27.1c0.2-37.7,0.2-75.4,0-113.1c-0.1-13.7-11-25.2-24.4-26.6C389.6,1910.5,386.3,1910.8,382.1,1910.8z"/>
	<path class="st4" d="M344.1,1910.9c-26.1,0-51.5,0-77.4,0c-0.2-1.6-0.5-3-0.5-4.5c0-16.4-0.1-32.8,0-49.2
		c0.1-13.3,7.2-20.3,20.5-20.4c12.9,0,25.9-0.1,38.8,0c10.2,0.1,18.1,6.3,18.4,16.2C344.6,1872.2,344.1,1891.2,344.1,1910.9z"/>
	<path class="st4" d="M294.4,2024.7c0-3.1-0.1-6.2,0-9.3c0.2-7.2,0-13.4-6.3-19.5c-9-8.6-6.5-24,3.1-31.9c9.8-8,24.1-6.8,32.3,2.7
		c8.3,9.7,7.6,24-2,32.2c-3,2.6-4,5-3.9,8.8c0.2,11.8,0.1,23.6,0.1,35.3c0,6.8-1.7,8.4-8.6,8.5c-14.6,0.1-14.6,0.1-14.6-14.7
		C294.4,2032.8,294.4,2028.8,294.4,2024.7z"/>
</g>
</svg>
