<?xml version="1.0" encoding="utf-8"?>
<!-- Generator: Adobe Illustrator 17.0.0, SVG Export Plug-In . SVG Version: 6.00 Build 0)  -->
<!DOCTYPE svg PUBLIC "-//W3C//DTD SVG 1.1//EN" "http://www.w3.org/Graphics/SVG/1.1/DTD/svg11.dtd">
<svg version="1.1" id="Capa_1" xmlns="http://www.w3.org/2000/svg" xmlns:xlink="http://www.w3.org/1999/xlink" x="0px" y="0px"
	 width="612px" height="612px" viewBox="1322.5 642.5 612 612" enable-background="new 1322.5 642.5 612 612" xml:space="preserve">
<g>
	<path fill="#212D33" d="M1450.877,912.76c-5.379-4.901-13.507-8.606-24.145-11.116c-8.128-1.912-11.953-4.064-13.746-5.498
		c-2.152-1.793-3.227-4.184-3.227-7.411c0-3.825,1.076-6.216,3.466-8.248c2.51-2.152,6.455-2.988,11.236-2.988h0.239
		c4.184,0,5.977,0.598,8.367,2.749c2.271,2.032,3.825,5.259,4.423,9.921l0.478,3.108l18.527-0.12l-0.12-3.945
		c-0.478-8.845-3.825-16.017-10.041-21.277c-4.184-3.347-7.889-5.618-13.387-6.813v-11.714l-19.125,0.12l0.12,12.073
		c-5.02,1.195-9.443,3.466-13.268,6.574c-6.455,5.379-9.802,12.312-9.682,20.679c0,7.291,2.63,13.507,7.889,18.408
		c4.901,4.542,12.192,8.009,21.635,10.16c7.77,1.793,13.387,3.945,16.376,6.335c2.63,2.152,3.945,4.781,3.945,8.487
		c0,4.662-1.315,8.128-4.184,10.638c-2.988,2.63-7.291,3.945-12.79,3.945c-5.618,0-8.128-1.315-10.997-3.825
		c-2.869-2.51-4.303-6.096-4.303-10.997l-0.12-3.705l-19.005,0.478l-0.717,5.977v0.12c0,7.411,3.944,13.985,10.519,19.723
		c4.901,4.064,9.204,6.813,14.941,8.128l0.12,13.746h19.125l-0.12-13.746c6.216-1.315,11.475-3.945,15.778-7.77
		c6.933-5.857,10.399-13.507,10.28-22.711C1459.483,924.474,1456.495,918.02,1450.877,912.76z"/>
	<path fill="#212D33" d="M1602.083,912.76c-5.379-4.901-13.507-8.606-24.145-11.116c-8.128-1.912-11.953-4.064-13.746-5.498
		c-2.152-1.793-3.227-4.184-3.227-7.411c0-3.825,1.076-6.216,3.466-8.248c2.51-2.152,6.455-2.988,11.236-2.988h0.239
		c4.184,0,5.977,0.598,8.367,2.749c2.271,2.032,3.825,5.259,4.423,9.921l0.478,3.108l18.527-0.12l-0.12-3.945
		c-0.478-8.845-3.825-16.017-10.041-21.277c-4.184-3.347-7.889-5.618-13.388-6.813v-11.714l-19.125,0.12l0.12,12.073
		c-5.02,1.195-9.443,3.466-13.268,6.574c-6.455,5.379-9.802,12.312-9.682,20.679c0,7.291,2.63,13.507,7.889,18.408
		c4.901,4.542,12.192,8.009,21.635,10.16c7.77,1.793,13.387,3.945,16.376,6.335c2.63,2.152,3.945,4.781,3.945,8.487
		c0,4.662-1.315,8.128-4.184,10.638c-2.988,2.63-7.292,3.945-12.79,3.945c-5.618,0-8.128-1.315-10.997-3.825
		c-2.869-2.51-4.303-6.096-4.303-10.997l-0.12-3.705l-18.766,0.12l-0.717,5.977v0.12c0,7.411,3.944,13.985,10.519,19.723
		c5.02,4.184,9.204,6.813,14.941,8.128l0.12,13.746h19.125l-0.12-13.746c6.216-1.315,11.475-3.945,15.778-7.77
		c6.933-5.857,10.399-13.507,10.28-22.711C1610.69,924.474,1607.821,918.02,1602.083,912.76z"/>
	<path fill="#212D33" d="M1740.142,943.241c-2.988,2.63-7.291,3.945-12.79,3.945c-5.618,0-8.128-1.315-10.997-3.825
		c-2.869-2.51-4.303-6.096-4.303-10.997l-0.12-3.705l-19.364,0.12l-1.315,5.977v0.12c2.391,7.411,4.542,13.985,11.116,19.723
		c5.02,4.184,9.563,6.813,15.3,8.128l0.359,13.746h19.245v-13.746c6.216-1.315,11.475-3.945,15.778-7.77
		c6.933-5.857,10.399-13.507,10.28-22.711c0-7.77-2.869-14.224-8.606-19.484c-5.379-4.901-13.507-8.606-24.145-11.116
		c-8.128-1.912-11.953-4.064-13.746-5.498c-2.152-1.793-3.227-4.184-3.227-7.411c0-3.825,1.076-6.216,3.466-8.248
		c2.51-2.152,6.455-2.988,11.236-2.988h0.239c4.184,0,5.977,0.598,8.367,2.749c2.271,2.032,3.825,5.259,4.423,9.921l0.478,3.108
		l18.527-0.12l-0.12-3.945c-0.478-8.845-3.825-16.017-10.041-21.277c-4.184-3.347-7.889-5.618-13.387-6.813v-11.714l-19.125,0.12
		l0.12,12.073c-5.02,1.195-9.443,3.466-13.268,6.574c-6.455,5.379-9.802,12.312-9.682,20.679c0,7.291,2.63,13.507,7.889,18.408
		c4.901,4.542,12.192,8.009,21.635,10.16c7.77,1.793,13.388,3.945,16.376,6.335c2.63,2.152,3.944,4.781,3.944,8.487
		C1744.326,937.264,1742.891,940.73,1740.142,943.241z"/>
	<path fill="#212D33" d="M1934.5,715.773c0-29.285-23.667-53.191-52.952-53.191s-53.43,23.906-53.43,53.191
		c0,20.559,11.953,38.37,28.448,47.215v325.005h-56.658v-37.891h25.938V776.016h-25.938v-49.605h-164.953
		c-5.857-27.253-30.122-47.813-59.168-47.813c-29.046,0-53.311,20.559-59.168,47.813h-165.79v49.605H1322.5v274.085h28.329v184.317
		h448.959v-99.211h103.992V763.705C1922.666,755.218,1934.5,736.93,1934.5,715.773z M1521.041,1002.887V823.231h106.383v179.536
		h-106.383V1002.887z M1778.512,1002.887H1674.52V823.231h103.992V1002.887z M1369.715,823.231h103.992v179.536h-103.992V823.231z"
		/>
</g>
</svg>
