<?xml version="1.0" encoding="utf-8"?>
<!-- Generator: Adobe Illustrator 21.1.0, SVG Export Plug-In . SVG Version: 6.00 Build 0)  -->
<svg version="1.1" id="Capa_1" xmlns="http://www.w3.org/2000/svg" xmlns:xlink="http://www.w3.org/1999/xlink" x="0px" y="0px"
	 viewBox="0 0 612 612" style="enable-background:new 0 0 612 612;" xml:space="preserve" width="612" height="612">
<style type="text/css">
	.st0{fill:#FFFFFF;}
	.st1{fill:#304A54;}
	.st2{fill:#FAFCFC;}
	.st3{fill:#FFFFFF;stroke:#FFFFFF;stroke-width:0.75;stroke-miterlimit:10;}
	.st4{fill:#212D33;}
	.st5{fill:#FFFFFF;stroke:#212D33;stroke-miterlimit:10;}
	.st6{fill:#212D33;stroke:#212D33;stroke-miterlimit:10;}
	.st7{fill:#03898F;}
	.st8{fill:#2A2A2A;}
</style>
<g>
	<path class="st4" d="M304.8,16c0.8,0,1.5,0,2.3,0c1.3,1.5,2.4,3.2,3.9,4.6c67.2,63.1,134.5,126.2,201.8,189.2
		c25.9,24.2,46.1,52.4,60.2,84.9c10.8,24.8,18.7,50.7,17,77.9c-2.7,43.7-22.3,79.6-59.1,103.3c-50.4,32.4-103.9,31.3-157.1,6.4
		c-12.8-6-24.1-15.3-36.7-23.4c9.1,23.1,17.8,46.4,27.4,69.2c9.7,23,20.5,45.6,30.7,68.1c-59.2,0-119,0-179.2,0
		c24-44.3,41.4-90.8,59.1-137.9c-1.4,0.4-1.9,0.5-2.1,0.7c-1,0.8-2,1.7-3,2.5c-32.7,28-70.9,39.8-113.6,38.1
		C120.5,498,88.4,487,63,461.3c-38.8-39.2-49.9-85.6-34.1-138.6c13.8-46.3,39.6-84.7,74.8-117.4c66-61.3,131.6-123.2,197.3-184.8
		C302.4,19.2,303.5,17.5,304.8,16z"/>
</g>
</svg>
