<?xml version="1.0" encoding="utf-8"?>
<!-- Generator: Adobe Illustrator 21.1.0, SVG Export Plug-In . SVG Version: 6.00 Build 0)  -->
<svg version="1.1" id="Capa_1" xmlns="http://www.w3.org/2000/svg" xmlns:xlink="http://www.w3.org/1999/xlink" x="0px" y="0px"
	 viewBox="0 0 612 612" style="enable-background:new 0 0 612 612;" xml:space="preserve">
<style type="text/css">
	.st0{fill:#FFFFFF;}
	.st1{fill:#304A54;}
	.st2{fill:#FAFCFC;}
	.st3{fill:#FFFFFF;stroke:#FFFFFF;stroke-width:0.75;stroke-miterlimit:10;}
	.st4{fill:#212D33;}
	.st5{fill:#FFFFFF;stroke:#212D33;stroke-miterlimit:10;}
	.st6{fill:#212D33;stroke:#212D33;stroke-miterlimit:10;}
	.st7{fill:#03898F;}
	.st8{fill:#2A2A2A;}
</style>
<g>
	<path class="st4" d="M305.7,594.8c38.4-38.4,76.9-77,114.9-115c-10.2-10.1-20.7-20.6-32.5-32.3c-19.7,19.7-39.9,39.9-60.3,60.3
		c0-60.9,0-121.9,0-182.8c-15.2,0-29.9,0-45.2,0c0,61,0,121.7,0,183.8c-20.8-21-40.6-40.9-59.9-60.5c-11,11-21.5,21.5-31.8,31.7
		C229,518,267.6,556.6,305.7,594.8z M391.5,215.1c-100,0-199.5,0-298.9,0c0,15.1,0,29.8,0,44.5c99.9,0,199.3,0,298.9,0
		C391.5,244.6,391.5,230,391.5,215.1z"/>
	<path class="st4" d="M535.7,15.1c11.6,2.6,22.9,6.1,32.6,13.6c17.1,13.2,26.1,30.5,27.3,51.9c0.4,6.6,0.1,13.2,0.1,19.8
		c0,90.2,0,180.4,0,270.5c0,34.4-21.1,61.3-53.6,68.8c-3.1,0.7-6.3,1.4-9.5,1.4c-21.3,0.1-42.7,0.1-64.5,0.1c0-14.8,0-29.5,0-45
		c5.2,0,10.4,0,15.7,0c14,0,28,0.1,42-0.1c15.2-0.1,24.6-9.3,24.6-24.4c0.1-62.4,0.1-124.8,0.1-187.2c0-1.1-0.1-2.2-0.2-3.5
		c-163.2,0-326.1,0-489.7,0c0,2.2,0,4.2,0,6.2c0,60.7,0,121.4,0,182.1c0,18,8.8,26.9,26.7,26.9c16.8,0,33.7,0,50.5,0
		c2,0,4.1,0,6.4,0c0,15.2,0,29.9,0,44.5c-0.4,0.3-0.7,0.7-1,0.7c-22.9-0.2-45.8,1-68.6-0.9C44.8,438,21.1,414,16.2,384.7
		c-0.2-1.5-0.8-2.9-1.1-4.3c0-101.7,0-203.4,0-305.1c0.4-0.8,0.9-1.6,1-2.5C19.1,54,28.5,39.2,43.7,27.9c9.4-7,20.3-10.2,31.5-12.8
		C228.7,15.1,382.2,15.1,535.7,15.1z M550.4,112.3c0-8.5-0.4-16.5,0.1-24.3c1.1-16.7-9.8-27.8-27.8-27.8
		c-121.3,0.4-242.7,0.2-364,0.2c-24.8,0-49.5-0.1-74.3,0C71.9,60.5,62.1,68.2,61,80c-1,10.6-0.2,21.4-0.2,32.4
		C224,112.3,386.8,112.3,550.4,112.3z"/>
	<path class="st4" d="M305.7,594.8C267.6,556.6,229,518,190.9,479.9c10.2-10.2,20.8-20.7,31.8-31.7c19.4,19.6,39.1,39.5,59.9,60.5
		c0-62.1,0-122.8,0-183.8c15.3,0,30,0,45.2,0c0,61,0,121.9,0,182.8c20.4-20.4,40.6-40.6,60.3-60.3c11.7,11.7,22.3,22.2,32.5,32.3
		C382.7,517.8,344.1,556.4,305.7,594.8z"/>
	<path class="st4" d="M391.5,215.1c0,14.9,0,29.5,0,44.5c-99.6,0-199.1,0-298.9,0c0-14.7,0-29.4,0-44.5
		C192,215.1,291.5,215.1,391.5,215.1z"/>
</g>
</svg>
