<?xml version="1.0" encoding="utf-8"?>
<!-- Generator: Adobe Illustrator 21.1.0, SVG Export Plug-In . SVG Version: 6.00 Build 0)  -->
<svg version="1.1" id="Capa_1" xmlns="http://www.w3.org/2000/svg" xmlns:xlink="http://www.w3.org/1999/xlink" x="0px" y="0px"
	 viewBox="0 0 612 612" style="enable-background:new 0 0 612 612;" xml:space="preserve" width="612" height="612">
<style type="text/css">
	.st0{fill:#FFFFFF;}
	.st1{fill:#304A54;}
	.st2{fill:#FAFCFC;}
	.st3{fill:#FFFFFF;stroke:#FFFFFF;stroke-width:0.75;stroke-miterlimit:10;}
	.st4{fill:#212D33;}
	.st5{fill:#FFFFFF;stroke:#212D33;stroke-miterlimit:10;}
	.st6{fill:#212D33;stroke:#212D33;stroke-miterlimit:10;}
	.st7{fill:#03898F;}
	.st8{fill:#2A2A2A;}
	.st9{fill:#29BF29;}
	.st10{fill:#2DA9F6;stroke:#2DA9F6;stroke-width:8;stroke-miterlimit:10;}
	.st11{fill:#45707F;}
	.st12{fill:#2B393F;}
	.st13{fill:#FCFCFC;}
	.st14{fill:#FBFBFB;}
	.st15{fill:#FEFEFE;}
	.st16{fill:#292929;}
	.st17{fill:#FFA500;}
	.st18{fill:#2DA9F6;}
	.st19{fill:#A2A2A2;}
	.st20{fill:none;stroke:#2A2A2A;stroke-width:20;stroke-miterlimit:10;}
	.st21{fill:#FFFFFF;stroke:#2A2A2A;stroke-width:22;stroke-miterlimit:10;}
</style>
<g>
	<path class="st8" d="M305.8,157.4c10.3-18.4,19.7-36.1,30-53.1C347.1,85.4,358,66,371.2,48.4C407.5,0,479.9,6.7,506.8,60.2
		c16.4,32.8,8.5,74.7-21.2,96.1c-25.8,18.6-53.9,34.1-81.2,50.8c-1.8,1.1-4.4,1.1-6.7,1.1c-61.4,0.1-122.9,0.1-184.3,0
		c-2.4,0-5.1-0.5-7.2-1.7c-24.8-15-49.9-29.7-74.2-45.4c-20.1-13-31.5-32.2-34.6-56.1c-6.2-48.1,33.2-91.1,81.8-89.1
		c27.9,1.1,49.9,13.7,64.6,37.1c19.7,31.3,38,63.5,56.8,95.3C302.3,150.9,303.8,153.7,305.8,157.4z M226.9,148.1
		c0.7-0.8,1.4-1.5,2.2-2.3c-12.7-20-25.2-40.1-38.1-59.9c-4.1-6.3-10.5-8.9-18.1-7.2c-6.7,1.5-11.3,5.8-12.9,12.4
		c-1.8,7.7,0.5,14.5,7.1,18.8C186.8,122.8,206.9,135.4,226.9,148.1z M382.6,145.9c0.7,0.7,1.5,1.3,2.2,2
		c19.1-11.9,38.1-23.8,57.2-35.7c1.8-1.1,3.4-2.5,4.9-4c7.4-7.2,7.4-18.5,0.1-25.3c-7.3-6.9-19.3-6.8-25.1,1.7
		C408.4,104.7,395.7,125.5,382.6,145.9z"/>
	<path class="st8" d="M273.6,596.2c-15.9,0-31.3,0-46.6,0c-41.7,0-83.4,0-125,0c-23.7,0-38.3-14.5-38.3-38c0-33.3,0-66.5,0-99.8
		c0-2.3,0-4.5,0-7.1c70.3,0,139.9,0,210,0C273.6,499.5,273.6,547.4,273.6,596.2z"/>
	<path class="st8" d="M63.6,385.2c0-17.3,0-34.1,0-51c0-18.7-0.1-37.5,0-56.2c0.2-22.1,14.8-37,36.7-37c56.2-0.1,112.4,0,168.5,0
		c1.4,0,2.9,0.2,4.7,0.3c0,47.9,0,95.5,0,143.8C203.8,385.2,134.2,385.2,63.6,385.2z"/>
	<path class="st8" d="M338.6,596.2c0-48.7,0-96.6,0-144.9c69.8,0,139.2,0,209.4,0c0.1,1.9,0.3,3.9,0.4,5.9c0,33.5,0.1,66.9,0,100.4
		c-0.1,24.1-14.4,38.5-38.5,38.5c-54.9,0.1-109.9,0-164.8,0C343.1,596.2,341.3,596.2,338.6,596.2z"/>
	<path class="st8" d="M548.4,385.8c-3.2,0-5.5,0-7.7,0c-65.2,0-130.4,0-195.6,0c-3.6,0-6.9,0.6-6.9-5.2c0.2-45.2,0.1-90.4,0.1-135.7
		c0-1,0.2-2,0.3-3.6c2.2-0.1,4.2-0.4,6.3-0.4c54.9,0,109.8-0.1,164.7,0c24.3,0,38.8,14.7,38.8,38.9c0,31.8,0,63.5,0,95.3
		C548.4,378.4,548.4,381.6,548.4,385.8z"/>
</g>
</svg>
