<?xml version="1.0" encoding="utf-8"?>
<!-- Generator: Adobe Illustrator 19.0.0, SVG Export Plug-In . SVG Version: 6.00 Build 0)  -->
<svg version="1.1" id="Layer_1" xmlns="http://www.w3.org/2000/svg" xmlns:xlink="http://www.w3.org/1999/xlink" x="0px" y="0px"
	 viewBox="0 0 37.5 35" style="enable-background:new 0 0 37.5 35;" xml:space="preserve">
<style type="text/css">
	.st0{fill:#FF7531;}
</style>
<g>
	<path d="M29,14c0,4.4-0.2,8.8,0.1,13.1c0.1,2.3-0.4,3-2.7,2.7c-1.3-0.2-2.7,0-4.1,0c-2.1-1.2-2.8-3.5-3.7-5.5
		c-0.9-2.1-2-2.2-3.7-0.9c-1.7,1.4-3.4,2.9-6,2.7C4.1,24.3,3,20.4,6.1,16c2.3-1.8,5.2-1.3,7.7-2.1c0.1-2.6-2.7-4.6-1.3-7.4
		c4.3,0,8.5,0,12.8,0C28.1,8.2,27.8,11.5,29,14z"/>
	<path class="st0" d="M22.4,12.6c1.6,0.3,2.7,1.1,2.8,2.9c0,1.9-1.1,3-3,3c-1.9,0-2.7-1.5-2.6-3C19.6,14,20.5,12.6,22.4,12.6z"/>
</g>
</svg>
