<?xml version="1.0" encoding="utf-8"?>
<!-- Generator: Adobe Illustrator 21.1.0, SVG Export Plug-In . SVG Version: 6.00 Build 0)  -->
<svg version="1.1" id="Layer_1" xmlns="http://www.w3.org/2000/svg" xmlns:xlink="http://www.w3.org/1999/xlink" x="0px" y="0px"
	 viewBox="0 0 512 512" style="enable-background:new 0 0 512 512;" xml:space="preserve">
<style type="text/css">
	.st0{fill:none;enable-background:new    ;}
	.st1{fill:#2A377D;}
	.st2{fill:#FEFEFE;}
</style>
<path class="st0" d="z"/>
<g>
	<circle class="st1" cx="256" cy="256" r="250.1"/>
	<g>
		<path class="st2" d="M256.1,445C150.4,445,67,361.7,67,256.1C67,150.4,150.3,67,255.9,67c105.8,0,189.2,83.5,189.1,189.3
			C444.9,361.7,361.5,445,256.1,445z"/>
		<path class="st1" d="M118,247.7c-10,0-20-0.1-30,0.1c-2.5,0-3.3-0.6-3.1-3.2c2.4-38.4,15.5-72.4,40.5-101.8
			c1.5-1.8,2.5-2.3,4.7-0.8c11.7,8.2,24.4,14.5,37.5,20.1c2.9,1.2,3.1,2.4,2.2,5.1c-8.2,22.7-14.2,45.9-16.9,70
			c0,0.3-0.1,0.5-0.1,0.8c-0.5,3.1,0.9,7.2-1.3,9c-2.3,1.9-6.3,0.5-9.6,0.6C133.9,247.8,126,247.7,118,247.7z"/>
		<path class="st1" d="M393.3,247.7c-10,0-20-0.1-30,0c-2.2,0-3.5-0.2-3.6-3c-1.6-26.6-8.3-52-17.2-77c-1.2-3.3-0.7-4.6,2.6-6
			c12.8-5.5,25.3-11.8,36.8-19.8c2.3-1.6,3.4-1,5,0.9c19.7,23.1,32.2,49.6,37.7,79.5c1.3,7.3,2.2,14.6,2.6,22
			c0.2,2.9-0.8,3.4-3.4,3.4C413.6,247.6,403.4,247.7,393.3,247.7z"/>
		<path class="st1" d="M393.6,264.3c10,0,20,0.1,30-0.1c3-0.1,3.6,0.8,3.5,3.7c-2.4,38.3-15.6,72.1-40.5,101.4
			c-1.6,1.9-2.6,2-4.7,0.6c-11.8-8.1-24.5-14.4-37.5-20.1c-2.5-1.1-3.2-2-2.1-4.8c8.4-22.1,14.4-44.7,16.9-68.3c0.3-3,0.6-6,0.6-9
			c-0.1-3,1.2-3.6,3.9-3.5C373.6,264.4,383.6,264.3,393.6,264.3z"/>
		<path class="st1" d="M118.5,264.3c10.1,0,20.3,0.1,30.4-0.1c2.5,0,3.3,0.7,3.4,3.2c1.3,26.8,8.1,52.3,17.4,77.3
			c1,2.7,0.9,3.9-2.1,5.1c-13.1,5.6-25.8,12-37.5,20.2c-2.5,1.7-3.5,0.6-4.9-1.1c-18.8-22-31-47.2-36.8-75.5
			c-1.8-8.6-2.9-17.3-3.4-26c-0.1-2.6,0.6-3.3,3.1-3.2C98.2,264.4,108.3,264.3,118.5,264.3z"/>
		<path class="st1" d="M208.2,247.7c-11.9,0-23.8-0.1-35.7,0.1c-3.2,0.1-3.9-0.9-3.7-3.9c1.7-24.9,7.5-48.8,16.1-72.1
			c1-2.7,2.2-2,4-1.3c16.3,6.6,33,11.4,50.5,13.7c2.7,0.3,6.4-0.9,7.7,1.3c1.3,2.1,0.5,5.5,0.5,8.4c0,16.7-0.1,33.4,0.1,50.1
			c0,3-0.7,3.9-3.8,3.9C232,247.6,220.1,247.7,208.2,247.7z"/>
		<path class="st1" d="M303.7,247.7c-11.9,0-23.8-0.1-35.7,0.1c-2.6,0-3.8-0.3-3.8-3.5c0.2-18.7,0.1-37.5,0.1-56.2
			c0-1.9-0.1-3.4,2.6-3.5c19.5-1.4,38.1-6.8,56.2-14.1c2.4-1,3.3-0.7,4.1,1.7c8.3,22.6,14,45.7,15.8,69.7c0.4,5.8,0.4,5.8-5.6,5.8
			C326.2,247.7,314.9,247.7,303.7,247.7z"/>
		<path class="st1" d="M208.1,264.3c11.9,0,23.8,0.1,35.7-0.1c2.9,0,4,0.5,4,3.7c-0.2,18.6-0.1,37.2-0.1,55.8c0,2.1,0,3.5-2.9,3.7
			c-19.1,1.4-37.3,6.5-55,13.7c-3.2,1.3-4.3,0.8-5.4-2.4c-7.7-21.9-13.3-44.2-15.3-67.3c-0.1-1.4,0-2.8-0.3-4.1
			c-0.4-2.6,0.6-3.2,3.1-3.2C184,264.4,196.1,264.3,208.1,264.3z"/>
		<path class="st1" d="M303.9,264.3c11.5,0,23,0.3,34.5-0.1c4.6-0.2,5.1,1.5,4.7,5.3c-1.7,20.8-6.1,41-12.7,60.8
			c-1,3.1-2.3,6.2-3.2,9.3c-0.7,2.6-1.8,3-4.4,1.9c-14.3-5.9-29.1-10.3-44.4-12.7c-3.5-0.6-7-1.1-10.6-1.2c-2.7-0.1-3.7-0.8-3.7-3.8
			c0.1-18.6,0.2-37.2,0-55.8c0-3.3,1.1-3.8,4-3.7C280.1,264.4,292,264.3,303.9,264.3z"/>
		<path class="st1" d="M247.7,125.8c0,12.7-0.1,25.5,0,38.2c0,2.6-0.5,3.6-3.4,3.3c-17.5-1.5-34.5-5.5-51.2-11.2
			c-2-0.7-2-1.5-1.3-3.2c9.9-23.2,22.5-44.9,37.3-65.4c0.9-1.2,1.9-1.8,3.4-2c3.9-0.4,7.9-0.8,11.8-1.3c2.8-0.4,3.4,0.7,3.4,3.4
			C247.6,100.4,247.7,113.1,247.7,125.8z"/>
		<path class="st1" d="M264.3,125.7c0-12.7,0.1-25.4-0.1-38.2c0-2.7,0.8-3.3,3.4-3.3c9-0.2,15.5,2.5,20.8,11
			c11.5,18.4,22.7,37,31.3,57c0.8,1.8,1.7,3.2-1.2,4.2c-16.4,5.5-33.1,9.4-50.3,11c-3.4,0.3-4-0.8-4-3.9
			C264.4,150.9,264.3,138.3,264.3,125.7z"/>
		<path class="st1" d="M247.7,386c0,12.9-0.1,25.7,0.1,38.6c0,2.4-0.5,3.7-3.1,3.2c-0.4-0.1-0.8,0-1.2,0
			c-8.6,0.3-14.7-2.7-19.7-10.6c-11.9-18.6-22.5-37.8-30.9-58.2c-0.8-1.9-1.2-3,1.5-3.8c16.2-5.3,32.7-8.9,49.6-10.5
			c3.4-0.3,4,0.8,4,3.9C247.6,361.1,247.7,373.5,247.7,386z"/>
		<path class="st1" d="M264.3,386.3c0-12.7,0.1-25.5-0.1-38.2c0-3,0.9-3.6,3.7-3.4c17.1,1.5,33.7,5.1,50,10.5
			c2.2,0.7,2.3,1.5,1.5,3.5c-9.5,23.1-21.4,44.9-36.1,65.1c-1.5,2.1-3.3,2.7-5.5,2.9c-4.3,0.4-9.7,2.8-12.7,0.4
			c-2.7-2.1-0.8-7.7-0.8-11.7C264.2,405.7,264.3,396,264.3,386.3z"/>
		<path class="st1" d="M303.9,420.5c10.6-14.7,19-29.5,25.8-45.2c1.6-3.6,3-7.3,4.4-11c0.6-1.7,1.4-2,3-1.2
			c11.8,5.3,23,11.3,33.6,18.7c1.8,1.3,1.5,2.1,0,3.3C351.6,402,329.8,414.1,303.9,420.5z"/>
		<path class="st1" d="M207.9,420.5c-22.7-5.5-42.3-15.7-59.9-29.7c-2.4-1.9-4.6-3.9-6.9-5.8c-1.5-1.2-1.3-2,0.2-3.1
			c10.7-7.5,22.1-13.6,34-18.9c2.7-1.2,2.6,1.1,3.1,2.4c5.6,14.6,12.4,28.5,20.8,41.7C201.8,411.4,204.6,415.6,207.9,420.5z"/>
		<path class="st1" d="M207.6,91.4c-3.4,5.2-6.6,9.9-9.6,14.7c-7.9,12.8-14.7,26.2-20.3,40.2c-0.7,1.7-1.1,3.1-3.7,1.9
			c-11.2-5.1-22.1-10.8-32.3-17.8c-2-1.4-2.2-2.1-0.3-3.8c18.6-16.3,39.6-28.1,63.4-34.9C205.6,91.5,206.4,91.5,207.6,91.4z"/>
		<path class="st1" d="M304.7,91.5c4.3,0.4,8.2,2.1,12.2,3.4c19.7,6.9,37.2,17.6,53.1,31.2c2.5,2.2,2.3,3.2-0.4,4.9
			c-10,6.6-20.4,12.2-31.3,17.1c-1.9,0.8-3,1.1-3.9-1.3c-7.7-19.2-17.4-37.4-29.4-54.3C304.8,92.3,304.8,92,304.7,91.5z"/>
	</g>
</g>
</svg>
