<?xml version="1.0" encoding="utf-8"?>
<!-- Generator: Adobe Illustrator 16.0.0, SVG Export Plug-In . SVG Version: 6.00 Build 0)  -->
<!DOCTYPE svg PUBLIC "-//W3C//DTD SVG 1.1//EN" "http://www.w3.org/Graphics/SVG/1.1/DTD/svg11.dtd">
<svg version="1.1" id="Hong_kong" xmlns="http://www.w3.org/2000/svg" xmlns:xlink="http://www.w3.org/1999/xlink" x="0px" y="0px"
	 width="512px" height="512px" viewBox="0 0 512 512" enable-background="new 0 0 512 512" xml:space="preserve">
<g>
	<g>
		<g>
			<circle fill="#C7463D" cx="256" cy="256" r="254"/>
			<g>
				<path fill="#FFFFFF" d="M250.674,255.938c-103.142-43.592-57.421-177.924,41.222-171.171
					c-19.955,10.255-22.849,29.393-11.451,47.12c12.762,19.848-1.176,51.784-18.427,59.542
					C233.665,204.194,227.989,238.219,250.674,255.938L250.674,255.938z"/>
				<path fill="#DE2910" d="M245.095,158.939l-5.799,9.106l-2.102-10.597l-10.463-2.704l9.43-5.28l-0.656-10.778l7.921,7.339
					l10.049-3.962l-4.516,9.808l6.86,8.333L245.095,158.939z"/>
				<path fill="#DE2910" d="M251.257,254.806c-12.475-6.402-22.534-19.75-26.916-35.694c-5.011-18.296-2.129-37.964,7.921-53.931
					l-2.164-1.365c-10.425,16.588-13.417,36.982-8.216,55.967c4.632,16.875,14.907,30.472,28.207,37.299L251.257,254.806z"/>
				<path fill="#FFFFFF" d="M250.779,255.964c9.584-111.565,151.471-109.593,175.532-13.692
					c-15.921-15.809-35.016-12.646-48.354,3.671c-14.932,18.272-49.613,14.886-62.322,0.875
					C294.736,223.796,260.62,228.914,250.779,255.964L250.779,255.964z"/>
				<path fill="#DE2910" d="M341.306,220.685l-10.451-2.703l9.429-5.273l-0.663-10.786l7.937,7.336l10.047-3.956l-4.532,9.803
					l6.874,8.332l-10.725-1.264l-5.806,9.099L341.306,220.685z"/>
				<path fill="#DE2910" d="M252.035,256.169c2.235-13.843,11.818-27.534,25.633-36.627c15.849-10.42,35.447-13.757,53.737-9.134
					l0.628-2.479c-18.996-4.791-39.316-1.333-55.766,9.479c-14.619,9.621-24.375,23.595-26.756,38.352L252.035,256.169z"/>
				<path fill="#FFFFFF" d="M250.788,256.071c109.064-25.361,151.035,110.194,67.263,162.708
					c10.115-20.023,1.208-37.209-18.434-44.852c-21.991-8.557-29.486-42.587-20.091-59.004
					C294.962,287.936,279.554,257.072,250.788,256.071L250.788,256.071z"/>
				<path fill="#DE2910" d="M312.314,331.267l-0.661-10.774l7.931,7.334l10.053-3.961l-4.526,9.813l6.866,8.334l-10.723-1.282
					l-5.799,9.113l-2.11-10.589l-10.45-2.712L312.314,331.267z"/>
				<path fill="#DE2910" d="M250.979,257.328c13.855-2.151,29.836,2.732,42.756,13.061c14.81,11.854,24.035,29.462,25.291,48.286
					l2.555-0.167c-1.315-19.548-10.884-37.81-26.252-50.113c-13.666-10.927-29.969-15.887-44.741-13.592L250.979,257.328z"/>
				<path fill="#FFFFFF" d="M250.688,256.112c57.823,95.89-58.126,177.693-133.962,114.252
					c22.174,3.432,35.761-10.352,36.963-31.393c1.341-23.558,31.387-41.203,49.906-37.341
					C234.033,307.971,258.625,283.781,250.688,256.112L250.688,256.112z"/>
				<path fill="#DE2910" d="M198.185,337.862l10.045-3.954l-4.529,9.806l6.876,8.339l-10.734-1.272l-5.803,9.105l-2.096-10.591
					l-10.457-2.705l9.42-5.279l-0.651-10.772L198.185,337.862z"/>
				<path fill="#DE2910" d="M249.55,256.683c6.329,12.512,6.62,29.224,0.793,44.702c-6.698,17.744-20.591,31.964-38.106,38.97
					l0.946,2.379c18.186-7.292,32.593-22.034,39.547-40.447c6.169-16.375,5.85-33.415-0.898-46.755L249.55,256.683z"/>
				<path fill="#FFFFFF" d="M250.617,256.031c-73.329,84.625-186.958-0.371-150.056-92.099
					c3.588,22.146,20.895,30.811,41.277,25.452c22.821-6.004,48.887,17.117,50.934,35.924
					C196.149,256.217,226.756,272.129,250.617,256.031L250.617,256.031z"/>
				<path fill="#DE2910" d="M156.642,231.36l6.869,8.331l-10.728-1.276l-5.804,9.115l-2.109-10.601l-10.451-2.704l9.427-5.267
					l-0.663-10.782l7.933,7.327l10.046-3.949L156.642,231.36z"/>
				<path fill="#DE2910" d="M249.722,255.125c-9.945,9.886-25.746,15.326-42.267,14.568c-18.948-0.886-36.762-9.709-48.844-24.199
					l-1.965,1.635c12.554,15.043,31.027,24.188,50.69,25.112c17.479,0.808,33.586-4.763,44.187-15.303L249.722,255.125z"/>
			</g>
		</g>
	</g>
</g>
</svg>
